<svg xmlns="http://www.w3.org/2000/svg" xmlns:xlink="http://www.w3.org/1999/xlink" width="49.642" height="60.661" viewBox="0 0 49.642 60.661">
  <defs>
    <clipPath id="clip-path">
      <rect id="사각형_379" data-name="사각형 379" width="49.642" height="60.661" fill="#fff"/>
    </clipPath>
  </defs>
  <g id="그룹_262" data-name="그룹 262" transform="translate(0 0)">
    <g id="그룹_261" data-name="그룹 261" transform="translate(0 0)" clip-path="url(#clip-path)">
      <path id="패스_796" data-name="패스 796" d="M6.788,26.061A1.184,1.184,0,0,1,5.607,24.88a9.277,9.277,0,0,1,4.525-8.044l.231-.133-.2-.175a6.12,6.12,0,1,1,8.017,0l-.2.175.231.133a9.277,9.277,0,0,1,4.525,8.044,1.184,1.184,0,0,1-1.181,1.181Zm7.383-8A6.4,6.4,0,0,0,8.1,23.472l-.044.227H20.283l-.044-.227a6.4,6.4,0,0,0-6.068-5.411m0-9.877a3.757,3.757,0,1,0,3.757,3.757,3.762,3.762,0,0,0-3.757-3.757" transform="translate(5.076 5.27)" fill="#fff"/>
      <path id="패스_797" data-name="패스 797" d="M5.624,21.992a1.181,1.181,0,1,1,0-2.363H24.83a1.181,1.181,0,0,1,0,2.363Z" transform="translate(4.02 17.77)" fill="#fff"/>
      <path id="패스_798" data-name="패스 798" d="M16.408,27.2l1.076-1.076,3.921,3.919,6.213-6.213L28.7,24.909l-7.29,7.29Z" transform="translate(14.854 21.573)" fill="#fff"/>
      <path id="패스_799" data-name="패스 799" d="M37.31,60.661A12.423,12.423,0,0,1,25.5,51.887l-.04-.135H1.181A1.184,1.184,0,0,1,0,50.57V1.181A1.184,1.184,0,0,1,1.181,0H37.31a1.182,1.182,0,0,1,1.181,1.181V36.054l.17.019A12.331,12.331,0,0,1,37.31,60.661m0-22.305a8.5,8.5,0,0,0-1.235.118,10.041,10.041,0,0,0-8.736,9.854,4.168,4.168,0,0,0,.051.579l.036.309a10.045,10.045,0,0,0,.636,2.8A9.956,9.956,0,1,0,38.708,38.5a9.779,9.779,0,0,0-1.4-.141M2.363,49.389H25.034l-.013-.2c-.027-.364-.044-.608-.044-.857A12.309,12.309,0,0,1,35.959,36.073l.17-.019V2.363H2.363Z" transform="translate(0 0)" fill="#fff"/>
      <path id="패스_800" data-name="패스 800" d="M21.776,32.671a1.167,1.167,0,0,1-.835-.347l-4.6-4.594a1.181,1.181,0,0,1,1.669-1.671l3.761,3.759,6.051-6.049a1.18,1.18,0,0,1,1.671,0,1.183,1.183,0,0,1,0,1.669l-6.888,6.886a1.164,1.164,0,0,1-.835.347" transform="translate(14.485 21.205)" fill="#fff"/>
    </g>
  </g>
</svg>
