<svg xmlns="http://www.w3.org/2000/svg" xmlns:xlink="http://www.w3.org/1999/xlink" width="64.662" height="51.85" viewBox="0 0 64.662 51.85">
  <defs>
    <clipPath id="clip-path">
      <rect id="사각형_464" data-name="사각형 464" width="64.662" height="51.85" fill="#fff"/>
    </clipPath>
  </defs>
  <g id="그룹_353" data-name="그룹 353" transform="translate(0 0)">
    <g id="그룹_352" data-name="그룹 352" transform="translate(0 0)" clip-path="url(#clip-path)">
      <path id="패스_887" data-name="패스 887" d="M19.086,32.286a10.444,10.444,0,0,1-9.8-14.007,10.432,10.432,0,0,1,13.375-6.239,10.324,10.324,0,0,1,3.738,2.355,1.236,1.236,0,0,1-1.732,1.764A7.975,7.975,0,0,0,19.1,13.885a7.963,7.963,0,1,0,.015,15.926,1.316,1.316,0,0,1,1.372,1.214,1.235,1.235,0,0,1-1.214,1.258Z" transform="translate(7.816 10.307)" fill="#fff"/>
      <path id="패스_888" data-name="패스 888" d="M26.548,11.348a1.24,1.24,0,0,1-1.237-1.237V1.237a1.237,1.237,0,1,1,2.474,0v8.874a1.24,1.24,0,0,1-1.237,1.237" transform="translate(22.867 0)" fill="#fff"/>
      <path id="패스_889" data-name="패스 889" d="M20.564,11.348a1.24,1.24,0,0,1-1.237-1.237V1.237a1.237,1.237,0,0,1,2.474,0v8.874a1.24,1.24,0,0,1-1.237,1.237" transform="translate(17.461 0)" fill="#fff"/>
      <path id="패스_890" data-name="패스 890" d="M14.58,11.348a1.24,1.24,0,0,1-1.237-1.237V1.237a1.237,1.237,0,1,1,2.474,0v8.874a1.24,1.24,0,0,1-1.237,1.237" transform="translate(12.055 0)" fill="#fff"/>
      <path id="패스_891" data-name="패스 891" d="M8.6,11.348A1.24,1.24,0,0,1,7.36,10.111V1.237a1.237,1.237,0,1,1,2.474,0v8.874A1.24,1.24,0,0,1,8.6,11.348" transform="translate(6.649 0)" fill="#fff"/>
      <path id="패스_892" data-name="패스 892" d="M4.654,49.563A4.66,4.66,0,0,1,0,44.909V7.185A4.66,4.66,0,0,1,4.654,2.531H60.008a4.66,4.66,0,0,1,4.654,4.654V44.909a4.66,4.66,0,0,1-4.654,4.654Zm0-44.558A2.183,2.183,0,0,0,2.474,7.185V44.909a2.182,2.182,0,0,0,2.179,2.179H60.008a2.182,2.182,0,0,0,2.179-2.179V7.185a2.183,2.183,0,0,0-2.179-2.179Z" transform="translate(0 2.286)" fill="#fff"/>
      <path id="패스_893" data-name="패스 893" d="M1.237,9.651a1.237,1.237,0,0,1,0-2.474H63.424a1.237,1.237,0,1,1,0,2.474Z" transform="translate(0 6.484)" fill="#fff"/>
      <path id="패스_894" data-name="패스 894" d="M22.752,32.667a1.815,1.815,0,0,1-1.3-.537l-7.591-7.6a1.839,1.839,0,0,1,0-2.592l3.377-3.377a1.877,1.877,0,0,1,2.592,0l2.92,2.924,9.669-9.677a1.834,1.834,0,0,1,2.592,0l3.375,3.377a1.837,1.837,0,0,1,0,2.592L24.05,32.13a1.822,1.822,0,0,1-1.3.537m-6.687-9.43,6.687,6.691L36.187,16.484l-2.469-2.471-10.09,10.1a1.28,1.28,0,0,1-1.751,0l-3.342-3.344Z" transform="translate(12.042 10.185)" fill="#fff"/>
    </g>
  </g>
</svg>
