<?xml version="1.0" encoding="utf-8"?>
<!-- Generator: Adobe Illustrator 24.0.1, SVG Export Plug-In . SVG Version: 6.00 Build 0)  -->
<svg version="1.1" id="레이어_1" xmlns="http://www.w3.org/2000/svg" xmlns:xlink="http://www.w3.org/1999/xlink" x="0px"
	 y="0px" viewBox="0 0 24.1 24.1" style="enable-background:new 0 0 24.1 24.1;" xml:space="preserve">
<style type="text/css">
	.st0{fill:none;stroke:#000000;stroke-width:2;stroke-linecap:round;stroke-linejoin:round;}
</style>
<g id="Layer_2">
	<g id="Layer_1-2">
		<path class="st0" d="M22.3,1.8L22.3,1.8c1.1,1.1,1.1,2.9,0,4l-4.5,4.5c-1.1,1.1-2.9,1.1-4,0l0,0c-1.1-1.1-1.1-2.9,0-4l4.5-4.5
			C19.4,0.7,21.2,0.7,22.3,1.8z"/>
		<path class="st0" d="M10.3,13.8L10.3,13.8c1.1,1.1,1.1,2.9,0,4l-4.5,4.5c-1.1,1.1-2.9,1.1-4,0l0,0c-1.1-1.1-1.1-2.9,0-4l4.5-4.5
			C7.4,12.7,9.2,12.7,10.3,13.8z"/>
		<line class="st0" x1="15.8" y1="8.3" x2="8.8" y2="15.3"/>
	</g>
</g>
</svg>
