<svg id="그룹_250" data-name="그룹 250" xmlns="http://www.w3.org/2000/svg" xmlns:xlink="http://www.w3.org/1999/xlink" width="38.48" height="38.48" viewBox="0 0 38.48 38.48">
  <defs>
    <clipPath id="clip-path">
      <rect id="사각형_373" data-name="사각형 373" width="38.48" height="38.48" fill="none"/>
    </clipPath>
  </defs>
  <g id="그룹_249" data-name="그룹 249" transform="translate(0 0)" clip-path="url(#clip-path)">
    <path id="패스_785" data-name="패스 785" d="M32.845,5.635a19.24,19.24,0,1,1-27.21,0,19.241,19.241,0,0,1,27.21,0" transform="translate(0 0)" fill="#ffe700"/>
    <path id="패스_786" data-name="패스 786" d="M19.981,29.6a16.536,16.536,0,0,1-2.467-.148.422.422,0,0,0-.328.08c-1.624,1.14-3.247,2.282-4.924,3.344-.2.129-.416.244-.626.363a.661.661,0,0,1-.241.082c-.267.036-.424-.121-.368-.388.1-.467.239-.925.37-1.384q.5-1.74,1-3.478c.029-.1.019-.15-.087-.2A12.771,12.771,0,0,1,8.192,24.65a9.4,9.4,0,0,1-2.155-4.628,8.76,8.76,0,0,1,1.006-5.657,11.492,11.492,0,0,1,3.946-4.147A15.4,15.4,0,0,1,16.721,8a17.162,17.162,0,0,1,4.617-.2A15.478,15.478,0,0,1,29.3,10.7a10.616,10.616,0,0,1,3.606,4.4,8.724,8.724,0,0,1-.664,8.38,11.721,11.721,0,0,1-4.252,4,15.63,15.63,0,0,1-5.309,1.876,17.228,17.228,0,0,1-2.7.235" transform="translate(-0.564 -0.734)" fill="#2c1908"/>
    <path id="패스_787" data-name="패스 787" d="M20.386,21.142a2.714,2.714,0,0,1-.216,1,3.636,3.636,0,0,1-.683,1.06,3.471,3.471,0,0,1-1.189.844,4.087,4.087,0,0,1-1.686.324,5.58,5.58,0,0,1-1.328-.146,3.588,3.588,0,0,1-1.085-.453,3.694,3.694,0,0,1-.9-.811,4.8,4.8,0,0,1-.623-1.023,5.487,5.487,0,0,1-.386-1.209,6.931,6.931,0,0,1-.129-1.365,6.327,6.327,0,0,1,.324-2.1,4.524,4.524,0,0,1,.928-1.586,4.036,4.036,0,0,1,1.414-1,4.4,4.4,0,0,1,1.73-.344,4.152,4.152,0,0,1,2,.47A3.677,3.677,0,0,1,19.9,15.966a2.374,2.374,0,0,1,.466,1.308.882.882,0,0,1-.226.6.7.7,0,0,1-.548.258.735.735,0,0,1-.538-.178,2.489,2.489,0,0,1-.4-.616,2.942,2.942,0,0,0-.859-1.08,2.026,2.026,0,0,0-1.218-.357,2.167,2.167,0,0,0-1.833.92,4.326,4.326,0,0,0-.682,2.615,5.072,5.072,0,0,0,.3,1.884,2.354,2.354,0,0,0,.855,1.123,2.273,2.273,0,0,0,1.3.371,2.2,2.2,0,0,0,1.362-.421,2.545,2.545,0,0,0,.84-1.234,2.141,2.141,0,0,1,.3-.627.654.654,0,0,1,.566-.241.772.772,0,0,1,.572.244.839.839,0,0,1,.239.61" transform="translate(-1.157 -1.363)" fill="#ffe700"/>
    <path id="패스_788" data-name="패스 788" d="M24.792,15.432v2.682a3.731,3.731,0,0,1,.639-.629,2.244,2.244,0,0,1,.689-.347,2.733,2.733,0,0,1,.812-.116,2.288,2.288,0,0,1,1.16.29,2.031,2.031,0,0,1,.8.849,2.134,2.134,0,0,1,.245.724,5.94,5.94,0,0,1,.063.924v3.463a1.241,1.241,0,0,1-.236.822.781.781,0,0,1-.626.278q-.848,0-.849-1.1V20.22a2.925,2.925,0,0,0-.245-1.335.955.955,0,0,0-.931-.466,1.35,1.35,0,0,0-.827.274,1.649,1.649,0,0,0-.551.752,5.078,5.078,0,0,0-.138,1.436v2.391a1.266,1.266,0,0,1-.229.818.78.78,0,0,1-.639.281q-.85,0-.849-1.1v-7.84a1.287,1.287,0,0,1,.224-.824.76.76,0,0,1,.625-.275.783.783,0,0,1,.639.279,1.266,1.266,0,0,1,.229.821" transform="translate(-2.194 -1.363)" fill="#ffe700"/>
  </g>
</svg>
