<svg xmlns="http://www.w3.org/2000/svg" viewBox="0 0 88 28"><defs><style>.cls-1{fill:#adf002;}.cls-2{fill:none;stroke:#fff;stroke-miterlimit:10;}</style></defs><title>gold_icon</title><g id="레이어_2" data-name="레이어 2"><g id="레이어_1-2" data-name="레이어 1"><path class="cls-1" d="M0,14a13.89,13.89,0,0,1,.27-2.73,13.52,13.52,0,0,1,.8-2.63A13.94,13.94,0,0,1,8.64,1.07a13.52,13.52,0,0,1,2.63-.8A13.89,13.89,0,0,1,14,0H74a13.89,13.89,0,0,1,2.73.27,13.52,13.52,0,0,1,2.63.8,13.94,13.94,0,0,1,7.57,7.57,13.52,13.52,0,0,1,.8,2.63,13.94,13.94,0,0,1,0,5.46,13.52,13.52,0,0,1-.8,2.63,13.94,13.94,0,0,1-7.57,7.57,13.52,13.52,0,0,1-2.63.8A13.89,13.89,0,0,1,74,28H14a13.89,13.89,0,0,1-2.73-.27,13.52,13.52,0,0,1-2.63-.8,13.94,13.94,0,0,1-7.57-7.57,13.52,13.52,0,0,1-.8-2.63A13.89,13.89,0,0,1,0,14Z"/><path class="cls-2" d="M1.57,14a12.67,12.67,0,0,1,.25-2.46,12.84,12.84,0,0,1,.71-2.36A12.69,12.69,0,0,1,3.7,7,12.46,12.46,0,0,1,5.27,5.09,12.26,12.26,0,0,1,9.35,2.36a12.45,12.45,0,0,1,2.37-.72,12.64,12.64,0,0,1,2.45-.24H73.82a12.66,12.66,0,0,1,2.46.24,12.45,12.45,0,0,1,2.37.72,12.26,12.26,0,0,1,4.08,2.73A12.46,12.46,0,0,1,84.3,7a12.69,12.69,0,0,1,1.17,2.18,12.84,12.84,0,0,1,.71,2.36,12.73,12.73,0,0,1,0,4.92,12.84,12.84,0,0,1-.71,2.36A12.69,12.69,0,0,1,84.3,21a12.46,12.46,0,0,1-1.57,1.91,12.26,12.26,0,0,1-4.08,2.73,12.45,12.45,0,0,1-2.37.72,12.66,12.66,0,0,1-2.46.24H14.17a12.64,12.64,0,0,1-2.45-.24,12.45,12.45,0,0,1-2.37-.72,12.26,12.26,0,0,1-4.08-2.73A12.46,12.46,0,0,1,3.7,21a12.69,12.69,0,0,1-1.17-2.18,12.84,12.84,0,0,1-.71-2.36A12.67,12.67,0,0,1,1.57,14Z"/><path d="M23.12,17.25A9.49,9.49,0,0,1,20,17.8a5.25,5.25,0,0,1-3.82-1.3,4.79,4.79,0,0,1-1.36-3.59c0-3.08,2.2-5.06,5.42-5.06a6.62,6.62,0,0,1,2.59.46l-.39,1.44a5.23,5.23,0,0,0-2.21-.42,3.27,3.27,0,0,0-3.55,3.5,3.23,3.23,0,0,0,3.39,3.53,3.58,3.58,0,0,0,1.35-.2V13.73H19.67V12.32h3.45Z"/><path d="M31.65,14.12A3.48,3.48,0,0,1,28,17.86a3.41,3.41,0,0,1-3.53-3.63,3.48,3.48,0,0,1,3.65-3.73A3.38,3.38,0,0,1,31.65,14.12Zm-5.31.07c0,1.36.67,2.38,1.75,2.38s1.72-1,1.72-2.41c0-1.1-.49-2.36-1.7-2.36S26.34,13,26.34,14.19Z"/><path d="M33.11,7.43H34.9V17.7H33.11Z"/><path d="M43.32,7.43v8.29c0,.72,0,1.51.06,2H41.79l-.07-1.11h0a2.54,2.54,0,0,1-2.3,1.27c-1.68,0-3-1.43-3-3.6,0-2.36,1.46-3.76,3.15-3.76a2.22,2.22,0,0,1,2,.93h0v-4Zm-1.78,6.16a2.45,2.45,0,0,0,0-.46A1.56,1.56,0,0,0,40,11.87c-1.15,0-1.78,1-1.78,2.33s.63,2.23,1.76,2.23a1.56,1.56,0,0,0,1.53-1.26,1.73,1.73,0,0,0,.06-.52Z"/><path d="M48.22,13c0-.92,0-1.68,0-2.34h1.56l.08,1.08h0a2.76,2.76,0,0,1,2.42-1.24c1.62,0,3,1.39,3,3.59,0,2.54-1.6,3.77-3.21,3.77a2.3,2.3,0,0,1-2-.94h0v3.65H48.22ZM50,14.75a1.93,1.93,0,0,0,.06.49,1.6,1.6,0,0,0,1.56,1.25c1.13,0,1.8-.94,1.8-2.33s-.61-2.26-1.75-2.26A1.83,1.83,0,0,0,50,13.67Z"/><path d="M56.68,7.43h1.8V17.7h-1.8Z"/><path d="M66.71,15.59c0,.84,0,1.53.06,2.11H65.2l-.08-1.07h0a2.55,2.55,0,0,1-2.26,1.23c-1.29,0-2.46-.76-2.46-3.06V10.66h1.78v3.83c0,1.17.38,1.93,1.32,1.93a1.5,1.5,0,0,0,1.36-1,1.58,1.58,0,0,0,.1-.55V10.66h1.78Z"/><path d="M68.54,16.07a4.09,4.09,0,0,0,1.81.5c.78,0,1.13-.31,1.13-.78s-.29-.72-1.16-1c-1.37-.48-1.95-1.23-1.94-2.06,0-1.24,1-2.21,2.67-2.21a4.06,4.06,0,0,1,1.86.42l-.35,1.26a3,3,0,0,0-1.48-.41c-.64,0-1,.31-1,.74s.33.67,1.23,1c1.27.47,1.87,1.12,1.88,2.16,0,1.27-1,2.2-2.86,2.2a4.51,4.51,0,0,1-2.14-.49Z"/></g></g></svg>