<svg xmlns="http://www.w3.org/2000/svg" viewBox="0 0 868.29 692.3"><defs><style>.cls-1{fill:#efe7d5;}.cls-2{fill:#deffe0;}.cls-3{fill:#ffe5d4;}.cls-4{fill:#f0d7ff;}.cls-5{fill:#def8ff;}.cls-6{fill:#999;}.cls-12,.cls-13,.cls-15,.cls-16,.cls-17,.cls-7,.cls-9{fill:none;}.cls-7{stroke:#666;stroke-miterlimit:10;}.cls-7,.cls-9{stroke-width:1.34px;}.cls-8{fill:#d5f463;}.cls-10,.cls-13,.cls-15,.cls-9{stroke:#000;}.cls-10,.cls-13,.cls-15,.cls-16,.cls-17,.cls-9{stroke-linecap:round;stroke-linejoin:round;}.cls-10,.cls-11{fill:#f7931e;}.cls-10{stroke-width:3px;}.cls-13{stroke-width:1.35px;}.cls-14{fill:#e6e6e6;}.cls-15{stroke-width:0.56px;}.cls-16,.cls-17{stroke:#232322;}.cls-16{stroke-width:4px;}.cls-17{stroke-width:6px;}</style></defs><g id="Layer_2" data-name="Layer 2"><g id="Layer_2-2" data-name="Layer 2"><circle class="cls-1" cx="797.35" cy="393.69" r="20.26"/><rect class="cls-2" x="261.74" y="184.46" width="155.85" height="105.93"/><rect class="cls-3" x="700.65" y="169.86" width="211.37" height="117.91" transform="translate(1035.14 -577.53) rotate(90)"/><rect class="cls-4" x="575.33" y="172.27" width="211.37" height="113.08" transform="translate(909.82 -452.2) rotate(90)"/><rect class="cls-5" x="451.06" y="171.18" width="211.37" height="115.26" transform="translate(785.55 -327.93) rotate(90)"/><path d="M763.1,230.83v2.56h-.46V227h1.64a2.56,2.56,0,0,1,1.69.49,1.76,1.76,0,0,1,.57,1.4,1.92,1.92,0,0,1-.15.77,1.83,1.83,0,0,1-.45.61,2,2,0,0,1-.71.39,2.83,2.83,0,0,1-1,.15Zm0-.37h1.18a2.2,2.2,0,0,0,.76-.12,1.79,1.79,0,0,0,.56-.32,1.33,1.33,0,0,0,.36-.49,1.56,1.56,0,0,0,.12-.62,1.43,1.43,0,0,0-.45-1.13,2,2,0,0,0-1.35-.39H763.1Z"/><path d="M772.11,233.39h-.36a.17.17,0,0,1-.1,0,.18.18,0,0,1-.06-.09l-.75-1.85h-3.13l-.75,1.85a.24.24,0,0,1-.06.09.2.2,0,0,1-.11,0h-.35L769,227h.46Zm-4.26-2.31h2.85l-1.3-3.22-.06-.17c0-.07-.05-.14-.07-.21l-.06.21-.06.17Z"/><path d="M773.71,230.51v2.88h-.46V227h1.63a2.66,2.66,0,0,1,1.64.43,1.47,1.47,0,0,1,.55,1.25,1.59,1.59,0,0,1-.13.66,1.39,1.39,0,0,1-.36.53,2.1,2.1,0,0,1-.57.38,2.75,2.75,0,0,1-.75.19.54.54,0,0,1,.19.18l2.19,2.75h-.4a.24.24,0,0,1-.12,0,.2.2,0,0,1-.1-.09l-2-2.58a.67.67,0,0,0-.16-.14.88.88,0,0,0-.28,0Zm0-.34h1.11a2.59,2.59,0,0,0,.76-.1,1.74,1.74,0,0,0,.56-.29,1.23,1.23,0,0,0,.36-.46,1.38,1.38,0,0,0,.12-.59,1.16,1.16,0,0,0-.45-1,2.14,2.14,0,0,0-1.29-.33h-1.17Z"/><path d="M779.39,230h.53l.11,0,.1-.05.09-.08,2.57-2.65a.91.91,0,0,1,.13-.1.38.38,0,0,1,.16,0h.37l-2.78,2.86-.15.14-.15.08a.56.56,0,0,1,.17.09.64.64,0,0,1,.15.14l2.93,3.06h-.37a.37.37,0,0,1-.17,0l-.1-.09-2.69-2.75-.09-.09-.1-.06a.34.34,0,0,0-.12,0h-.59v3.07h-.46V227h.46Z"/><path d="M786.47,233.39V227h1.83a3.76,3.76,0,0,1,1,.11,1.85,1.85,0,0,1,.66.32,1.27,1.27,0,0,1,.38.51,1.65,1.65,0,0,1,.13.68,1.62,1.62,0,0,1-.08.49,1.45,1.45,0,0,1-.26.43,1.58,1.58,0,0,1-.41.35,2.11,2.11,0,0,1-.55.22,2,2,0,0,1,1.16.5,1.35,1.35,0,0,1,.4,1,1.73,1.73,0,0,1-.14.73,1.62,1.62,0,0,1-.42.55,1.92,1.92,0,0,1-.67.34,3.18,3.18,0,0,1-.91.12Zm.46-3.39h1.38a2.14,2.14,0,0,0,.76-.11,1.28,1.28,0,0,0,.51-.3,1.25,1.25,0,0,0,.3-.42,1.28,1.28,0,0,0,.09-.48,1.18,1.18,0,0,0-.41-1,2,2,0,0,0-1.26-.33h-1.37Zm0,.34V233h1.6a1.94,1.94,0,0,0,1.27-.36,1.28,1.28,0,0,0,.43-1,1.19,1.19,0,0,0-.45-.95,1.54,1.54,0,0,0-.53-.26,2.63,2.63,0,0,0-.72-.09Z"/><path d="M797,233.39h-.35a.15.15,0,0,1-.1,0,.31.31,0,0,1-.07-.09l-.75-1.85h-3.13l-.74,1.85-.07.09a.18.18,0,0,1-.11,0h-.35L794,227h.46Zm-4.26-2.31h2.86l-1.3-3.22a.87.87,0,0,1-.07-.17l-.06-.21-.06.21c0,.06,0,.12-.07.17Z"/><path d="M798.5,233h3v.39H798V227h.46Z"/><path d="M803.1,233h3v.39h-3.47V227h.45Z"/><path d="M807.84,230.51v2.88h-.46V227H809a2.71,2.71,0,0,1,1.65.43,1.49,1.49,0,0,1,.54,1.25,1.59,1.59,0,0,1-.13.66,1.39,1.39,0,0,1-.36.53,2.1,2.1,0,0,1-.57.38,2.75,2.75,0,0,1-.75.19.54.54,0,0,1,.19.18l2.2,2.75h-.4a.28.28,0,0,1-.13,0,.2.2,0,0,1-.1-.09l-2-2.58a.52.52,0,0,0-.16-.14.85.85,0,0,0-.27,0Zm0-.34H809a2.59,2.59,0,0,0,.76-.1,1.91,1.91,0,0,0,.57-.29,1.31,1.31,0,0,0,.35-.46,1.38,1.38,0,0,0,.12-.59,1.16,1.16,0,0,0-.45-1,2.12,2.12,0,0,0-1.29-.33h-1.17Z"/><path d="M818.41,230.21a3.75,3.75,0,0,1-.22,1.33,2.73,2.73,0,0,1-.62,1,2.84,2.84,0,0,1-1,.66,3.4,3.4,0,0,1-2.46,0,2.94,2.94,0,0,1-1-.66,2.73,2.73,0,0,1-.62-1,3.75,3.75,0,0,1-.23-1.33,3.8,3.8,0,0,1,.23-1.34,2.77,2.77,0,0,1,.62-1,2.66,2.66,0,0,1,1-.66,3.07,3.07,0,0,1,1.23-.24,3.25,3.25,0,0,1,1.23.23,2.84,2.84,0,0,1,1,.66,2.9,2.9,0,0,1,.62,1A3.81,3.81,0,0,1,818.41,230.21Zm-.47,0a3.44,3.44,0,0,0-.19-1.2,2.35,2.35,0,0,0-.52-.9,2.13,2.13,0,0,0-.81-.57,2.94,2.94,0,0,0-2.08,0,2.21,2.21,0,0,0-.81.57,2.5,2.5,0,0,0-.53.9,4.06,4.06,0,0,0,0,2.39,2.5,2.5,0,0,0,.53.9,2.07,2.07,0,0,0,.81.56,2.8,2.8,0,0,0,2.08,0,2,2,0,0,0,.81-.56,2.35,2.35,0,0,0,.52-.9A3.42,3.42,0,0,0,817.94,230.21Z"/><path d="M825.59,230.21a3.75,3.75,0,0,1-.22,1.33,2.87,2.87,0,0,1-.62,1,2.94,2.94,0,0,1-1,.66,3.26,3.26,0,0,1-1.24.23,3.32,3.32,0,0,1-1.23-.23,2.79,2.79,0,0,1-1-.66,2.88,2.88,0,0,1-.63-1,3.75,3.75,0,0,1-.22-1.33,3.81,3.81,0,0,1,.22-1.34,2.93,2.93,0,0,1,.63-1,2.54,2.54,0,0,1,1-.66,3.14,3.14,0,0,1,1.23-.24,3.26,3.26,0,0,1,1.24.23,2.94,2.94,0,0,1,1,.66,3,3,0,0,1,.62,1A3.81,3.81,0,0,1,825.59,230.21Zm-.48,0a3.69,3.69,0,0,0-.18-1.2,2.48,2.48,0,0,0-.52-.9,2.13,2.13,0,0,0-.81-.57,2.69,2.69,0,0,0-1.05-.19,2.63,2.63,0,0,0-1,.19,2.13,2.13,0,0,0-.81.57,2.36,2.36,0,0,0-.53.9,3.85,3.85,0,0,0,0,2.39,2.36,2.36,0,0,0,.53.9,2,2,0,0,0,.81.56,2.63,2.63,0,0,0,1,.2,2.69,2.69,0,0,0,1.05-.2,2,2,0,0,0,.81-.56,2.48,2.48,0,0,0,.52-.9A3.67,3.67,0,0,0,825.11,230.21Z"/><path d="M830.27,231.81a.58.58,0,0,1,.05-.14.61.61,0,0,1,.07-.14l2.5-4.42A.15.15,0,0,1,833,227l.1,0h.32v6.37H833V228a2.12,2.12,0,0,1,0-.24l-2.51,4.45a.18.18,0,0,1-.18.11h-.07a.18.18,0,0,1-.18-.11l-2.57-4.46c0,.09,0,.17,0,.25v5.43h-.4V227h.31l.1,0a.13.13,0,0,1,.08.07l2.57,4.43Q830.21,231.66,830.27,231.81Z"/><path d="M837.45,233.06h1.47v-5.17c0-.1,0-.21,0-.32l-1.41,1.25a.18.18,0,0,1-.1,0,.14.14,0,0,1-.12-.06l-.13-.18L839,227h.33v6.06h1.39v.33h-3.28Z"/><path d="M775.2,217.93v4.22h-2v-10.8h3.3a6.61,6.61,0,0,1,1.89.23,3.62,3.62,0,0,1,1.29.63,2.53,2.53,0,0,1,.74,1,3.22,3.22,0,0,1,.24,1.26,3.52,3.52,0,0,1-.16,1,3.1,3.1,0,0,1-.47.88,3.26,3.26,0,0,1-.74.69,4,4,0,0,1-1,.48,2,2,0,0,1,.66.62l2.71,4h-1.81a.91.91,0,0,1-.45-.1,1,1,0,0,1-.31-.3l-2.27-3.46a.83.83,0,0,0-.28-.28,1,1,0,0,0-.45-.08Zm0-1.44h1.26a3.33,3.33,0,0,0,1-.14,1.93,1.93,0,0,0,.69-.4,1.53,1.53,0,0,0,.41-.59,2,2,0,0,0,.13-.75,1.56,1.56,0,0,0-.54-1.27,2.6,2.6,0,0,0-1.65-.44H775.2Z"/><path d="M792.92,216.75a6.06,6.06,0,0,1-.4,2.2,5,5,0,0,1-2.84,2.91,6.3,6.3,0,0,1-4.47,0,5,5,0,0,1-1.73-1.16,5.05,5.05,0,0,1-1.12-1.75,6.25,6.25,0,0,1,0-4.4,5.05,5.05,0,0,1,1.12-1.75,5,5,0,0,1,1.73-1.16,6,6,0,0,1,2.24-.41,5.75,5.75,0,0,1,2.23.42,5.19,5.19,0,0,1,1.73,1.15,5,5,0,0,1,1.11,1.75A6.1,6.1,0,0,1,792.92,216.75Zm-2.07,0a5,5,0,0,0-.23-1.6,3.23,3.23,0,0,0-.68-1.19,2.94,2.94,0,0,0-1.07-.76,4,4,0,0,0-2.85,0,3.07,3.07,0,0,0-1.08.76,3.23,3.23,0,0,0-.68,1.19,5.45,5.45,0,0,0,0,3.2,3.23,3.23,0,0,0,.68,1.19,2.92,2.92,0,0,0,1.08.75,4,4,0,0,0,2.85,0,2.81,2.81,0,0,0,1.07-.75,3.23,3.23,0,0,0,.68-1.19A5,5,0,0,0,790.85,216.75Z"/><path d="M804.87,216.75a6.06,6.06,0,0,1-.4,2.2,5.18,5.18,0,0,1-1.11,1.75,5.07,5.07,0,0,1-1.73,1.16,6.3,6.3,0,0,1-4.47,0,5,5,0,0,1-2.85-2.91,6.25,6.25,0,0,1,0-4.4,5,5,0,0,1,2.85-2.91,6,6,0,0,1,2.24-.41,5.75,5.75,0,0,1,2.23.42,5,5,0,0,1,2.84,2.9A6.1,6.1,0,0,1,804.87,216.75Zm-2.07,0a5.33,5.33,0,0,0-.23-1.6,3.37,3.37,0,0,0-.68-1.19,2.94,2.94,0,0,0-1.07-.76,4,4,0,0,0-2.85,0,2.9,2.9,0,0,0-1.08.76,3.25,3.25,0,0,0-.69,1.19,5.68,5.68,0,0,0,0,3.2,3.25,3.25,0,0,0,.69,1.19,2.77,2.77,0,0,0,1.08.75,4,4,0,0,0,2.85,0,2.81,2.81,0,0,0,1.07-.75,3.37,3.37,0,0,0,.68-1.19A5.28,5.28,0,0,0,802.8,216.75Z"/><path d="M812.11,218.17l.21.52c.07-.18.14-.36.22-.54a4.59,4.59,0,0,1,.24-.5l3.2-6a.7.7,0,0,1,.12-.18.45.45,0,0,1,.14-.1.48.48,0,0,1,.18,0h1.75v10.8h-1.78v-7c0-.13,0-.27,0-.42a3.71,3.71,0,0,1,0-.47l-3.27,6.12a.85.85,0,0,1-.29.33.74.74,0,0,1-.42.12h-.27a.74.74,0,0,1-.42-.12.85.85,0,0,1-.29-.33l-3.31-6.15c0,.17,0,.33,0,.49s0,.3,0,.43v7h-1.77v-10.8h1.75a.47.47,0,0,1,.17,0,.49.49,0,0,1,.15.1.7.7,0,0,1,.13.18l3.22,6A3.85,3.85,0,0,1,812.11,218.17Z"/><path d="M824.15,220.77h2.19v-6.3c0-.24,0-.5,0-.77l-1.55,1.3a.5.5,0,0,1-.2.11.69.69,0,0,1-.2,0,.6.6,0,0,1-.27-.06.54.54,0,0,1-.18-.14l-.59-.8,3.3-2.81h1.52v9.44h1.94v1.38h-6Z"/><path d="M637.64,230.83v2.56h-.46V227h1.64a2.56,2.56,0,0,1,1.69.49,1.76,1.76,0,0,1,.57,1.4,1.92,1.92,0,0,1-.15.77,1.83,1.83,0,0,1-.45.61,2,2,0,0,1-.71.39,2.83,2.83,0,0,1-.95.15Zm0-.37h1.18a2.2,2.2,0,0,0,.76-.12,1.79,1.79,0,0,0,.56-.32,1.33,1.33,0,0,0,.36-.49,1.56,1.56,0,0,0,.12-.62,1.43,1.43,0,0,0-.45-1.13,2,2,0,0,0-1.35-.39h-1.18Z"/><path d="M646.65,233.39h-.36a.17.17,0,0,1-.1,0,.18.18,0,0,1-.06-.09l-.75-1.85h-3.13l-.75,1.85a.24.24,0,0,1-.06.09.2.2,0,0,1-.11,0H641l2.6-6.37H644Zm-4.26-2.31h2.85l-1.3-3.22-.06-.17a1.72,1.72,0,0,0-.07-.21l-.06.21-.06.17Z"/><path d="M648.25,230.51v2.88h-.46V227h1.63a2.66,2.66,0,0,1,1.64.43,1.47,1.47,0,0,1,.55,1.25,1.59,1.59,0,0,1-.13.66,1.39,1.39,0,0,1-.36.53,2.1,2.1,0,0,1-.57.38,2.75,2.75,0,0,1-.75.19.54.54,0,0,1,.19.18l2.19,2.75h-.4a.24.24,0,0,1-.12,0,.2.2,0,0,1-.1-.09l-2-2.58a.67.67,0,0,0-.16-.14.88.88,0,0,0-.28,0Zm0-.34h1.11a2.59,2.59,0,0,0,.76-.1,1.74,1.74,0,0,0,.56-.29,1.23,1.23,0,0,0,.36-.46,1.38,1.38,0,0,0,.12-.59,1.16,1.16,0,0,0-.45-1,2.14,2.14,0,0,0-1.29-.33h-1.17Z"/><path d="M653.93,230h.53l.11,0,.1-.05.09-.08,2.57-2.65a.91.91,0,0,1,.13-.1.41.41,0,0,1,.16,0H658l-2.78,2.86-.15.14a.71.71,0,0,1-.15.08.56.56,0,0,1,.17.09.64.64,0,0,1,.15.14l2.93,3.06h-.37a.37.37,0,0,1-.17,0l-.1-.09-2.69-2.75-.09-.09-.1-.06a.34.34,0,0,0-.12,0h-.59v3.07h-.46V227h.46Z"/><path d="M661,233.39V227h1.83a3.76,3.76,0,0,1,.95.11,1.85,1.85,0,0,1,.66.32,1.39,1.39,0,0,1,.39.51,1.83,1.83,0,0,1,.12.68,1.62,1.62,0,0,1-.08.49,1.45,1.45,0,0,1-.26.43,1.58,1.58,0,0,1-.41.35,2.11,2.11,0,0,1-.55.22,2,2,0,0,1,1.16.5,1.36,1.36,0,0,1,.41,1,1.73,1.73,0,0,1-.15.73,1.5,1.5,0,0,1-.42.55,1.92,1.92,0,0,1-.67.34,3.18,3.18,0,0,1-.91.12Zm.46-3.39h1.38a2.14,2.14,0,0,0,.76-.11,1.28,1.28,0,0,0,.51-.3,1.25,1.25,0,0,0,.3-.42,1.28,1.28,0,0,0,.09-.48,1.18,1.18,0,0,0-.41-1,2,2,0,0,0-1.26-.33h-1.37Zm0,.34V233h1.6a1.94,1.94,0,0,0,1.27-.36,1.28,1.28,0,0,0,.43-1,1.19,1.19,0,0,0-.45-.95,1.54,1.54,0,0,0-.53-.26,2.63,2.63,0,0,0-.72-.09Z"/><path d="M671.57,233.39h-.35a.15.15,0,0,1-.1,0,.31.31,0,0,1-.07-.09l-.75-1.85h-3.13l-.74,1.85-.07.09a.17.17,0,0,1-.1,0h-.36l2.61-6.37H669Zm-4.26-2.31h2.86l-1.3-3.22a.87.87,0,0,1-.07-.17l-.06-.21-.06.21c0,.06,0,.12-.07.17Z"/><path d="M673,233h3v.39h-3.48V227H673Z"/><path d="M677.64,233h3v.39h-3.47V227h.45Z"/><path d="M682.38,230.51v2.88h-.46V227h1.63a2.71,2.71,0,0,1,1.65.43,1.49,1.49,0,0,1,.54,1.25,1.59,1.59,0,0,1-.13.66,1.39,1.39,0,0,1-.36.53,2.1,2.1,0,0,1-.57.38,2.75,2.75,0,0,1-.75.19.54.54,0,0,1,.19.18l2.2,2.75h-.4a.28.28,0,0,1-.13,0,.2.2,0,0,1-.1-.09l-2-2.58a.52.52,0,0,0-.16-.14.85.85,0,0,0-.27,0Zm0-.34h1.11a2.59,2.59,0,0,0,.76-.1,1.91,1.91,0,0,0,.57-.29,1.31,1.31,0,0,0,.35-.46,1.38,1.38,0,0,0,.12-.59,1.16,1.16,0,0,0-.45-1,2.12,2.12,0,0,0-1.29-.33h-1.17Z"/><path d="M693,230.21a3.75,3.75,0,0,1-.22,1.33,2.8,2.8,0,0,1-1.58,1.69,3.4,3.4,0,0,1-2.46,0,2.94,2.94,0,0,1-1-.66,2.73,2.73,0,0,1-.62-1,3.75,3.75,0,0,1-.23-1.33,3.8,3.8,0,0,1,.23-1.34,2.77,2.77,0,0,1,.62-1,2.66,2.66,0,0,1,1-.66,3.07,3.07,0,0,1,1.23-.24,3.25,3.25,0,0,1,1.23.23,2.74,2.74,0,0,1,1,.66,2.9,2.9,0,0,1,.62,1A3.81,3.81,0,0,1,693,230.21Zm-.47,0a3.44,3.44,0,0,0-.19-1.2,2.35,2.35,0,0,0-.52-.9,2.13,2.13,0,0,0-.81-.57,2.94,2.94,0,0,0-2.08,0,2.3,2.3,0,0,0-.81.57,2.5,2.5,0,0,0-.53.9,4.06,4.06,0,0,0,0,2.39,2.5,2.5,0,0,0,.53.9,2.15,2.15,0,0,0,.81.56,2.8,2.8,0,0,0,2.08,0,2,2,0,0,0,.81-.56,2.35,2.35,0,0,0,.52-.9A3.42,3.42,0,0,0,692.48,230.21Z"/><path d="M700.13,230.21a3.75,3.75,0,0,1-.22,1.33,2.87,2.87,0,0,1-.62,1,2.94,2.94,0,0,1-1,.66,3.26,3.26,0,0,1-1.24.23,3.32,3.32,0,0,1-1.23-.23,2.79,2.79,0,0,1-1-.66,2.88,2.88,0,0,1-.63-1,3.75,3.75,0,0,1-.22-1.33,3.81,3.81,0,0,1,.22-1.34,2.93,2.93,0,0,1,.63-1,2.54,2.54,0,0,1,1-.66,3.14,3.14,0,0,1,1.23-.24,3.26,3.26,0,0,1,1.24.23,2.94,2.94,0,0,1,1,.66,3,3,0,0,1,.62,1A3.81,3.81,0,0,1,700.13,230.21Zm-.48,0a3.69,3.69,0,0,0-.18-1.2,2.48,2.48,0,0,0-.52-.9,2.13,2.13,0,0,0-.81-.57,2.69,2.69,0,0,0-1-.19,2.66,2.66,0,0,0-1,.19,2.13,2.13,0,0,0-.81.57,2.36,2.36,0,0,0-.53.9,3.85,3.85,0,0,0,0,2.39,2.36,2.36,0,0,0,.53.9,2,2,0,0,0,.81.56,2.66,2.66,0,0,0,1,.2,2.69,2.69,0,0,0,1-.2,2,2,0,0,0,.81-.56,2.48,2.48,0,0,0,.52-.9A3.67,3.67,0,0,0,699.65,230.21Z"/><path d="M704.81,231.81a.58.58,0,0,1,.05-.14.61.61,0,0,1,.07-.14l2.5-4.42a.15.15,0,0,1,.07-.07l.1,0h.32v6.37h-.4V228a2,2,0,0,1,0-.24L705,232.17a.18.18,0,0,1-.18.11h-.07a.19.19,0,0,1-.18-.11L702,227.71c0,.09,0,.17,0,.25v5.43h-.4V227h.31l.11,0a.15.15,0,0,1,.07.07l2.57,4.43Z"/><path d="M713.31,227a2.33,2.33,0,0,1,.7.11,1.73,1.73,0,0,1,.58.32,1.52,1.52,0,0,1,.4.53,1.81,1.81,0,0,1,.15.76,2,2,0,0,1-.11.66,3.36,3.36,0,0,1-.3.6,5.3,5.3,0,0,1-.44.55l-.52.54-2,2,.3-.06h3.06a.16.16,0,0,1,.12,0,.14.14,0,0,1,0,.11v.25h-4.11v-.15a.19.19,0,0,1,0-.1.15.15,0,0,1,.06-.09l2.17-2.2c.18-.18.35-.36.5-.53a4.53,4.53,0,0,0,.4-.52,2.73,2.73,0,0,0,.27-.54,1.81,1.81,0,0,0,.09-.58,1.44,1.44,0,0,0-.12-.61,1.1,1.1,0,0,0-.31-.42,1.11,1.11,0,0,0-.45-.25,1.59,1.59,0,0,0-.53-.08,1.69,1.69,0,0,0-.56.09,1.63,1.63,0,0,0-.45.25,1.26,1.26,0,0,0-.32.4,1.37,1.37,0,0,0-.18.49c0,.11-.09.16-.18.16h0l-.22,0a2.31,2.31,0,0,1,.22-.73,2.09,2.09,0,0,1,.43-.54,1.63,1.63,0,0,1,.59-.33A2.19,2.19,0,0,1,713.31,227Z"/><path d="M649.74,217.93v4.22h-2v-10.8H651a6.61,6.61,0,0,1,1.89.23,3.62,3.62,0,0,1,1.29.63,2.53,2.53,0,0,1,.74,1,3.22,3.22,0,0,1,.24,1.26,3.52,3.52,0,0,1-.16,1,2.87,2.87,0,0,1-.47.88,3.26,3.26,0,0,1-.74.69,4,4,0,0,1-1,.48,2,2,0,0,1,.66.62l2.71,4h-1.81a.91.91,0,0,1-.45-.1,1,1,0,0,1-.31-.3l-2.27-3.46a.83.83,0,0,0-.28-.28,1,1,0,0,0-.45-.08Zm0-1.44H651a3.33,3.33,0,0,0,1-.14,1.93,1.93,0,0,0,.69-.4,1.53,1.53,0,0,0,.41-.59,2,2,0,0,0,.13-.75,1.56,1.56,0,0,0-.54-1.27,2.6,2.6,0,0,0-1.65-.44h-1.29Z"/><path d="M667.46,216.75a6.06,6.06,0,0,1-.4,2.2,5,5,0,0,1-2.84,2.91,6.3,6.3,0,0,1-4.47,0A5,5,0,0,1,658,220.7,5.05,5.05,0,0,1,656.9,219a6.25,6.25,0,0,1,0-4.4A5.05,5.05,0,0,1,658,212.8a5,5,0,0,1,1.73-1.16,6,6,0,0,1,2.24-.41,5.75,5.75,0,0,1,2.23.42A5.19,5.19,0,0,1,666,212.8a5,5,0,0,1,1.11,1.75A6.1,6.1,0,0,1,667.46,216.75Zm-2.07,0a5,5,0,0,0-.23-1.6,3.23,3.23,0,0,0-.68-1.19,2.94,2.94,0,0,0-1.07-.76,3.74,3.74,0,0,0-1.42-.26,3.8,3.8,0,0,0-1.43.26,3.07,3.07,0,0,0-1.08.76,3.23,3.23,0,0,0-.68,1.19,5.45,5.45,0,0,0,0,3.2,3.23,3.23,0,0,0,.68,1.19,2.92,2.92,0,0,0,1.08.75,3.61,3.61,0,0,0,1.43.26,3.56,3.56,0,0,0,1.42-.26,2.81,2.81,0,0,0,1.07-.75,3.23,3.23,0,0,0,.68-1.19A5,5,0,0,0,665.39,216.75Z"/><path d="M679.41,216.75a6.06,6.06,0,0,1-.4,2.2,5.18,5.18,0,0,1-1.11,1.75,5.07,5.07,0,0,1-1.73,1.16,6.3,6.3,0,0,1-4.47,0,5,5,0,0,1-2.85-2.91,6.25,6.25,0,0,1,0-4.4,5,5,0,0,1,2.85-2.91,6,6,0,0,1,2.24-.41,5.75,5.75,0,0,1,2.23.42,5,5,0,0,1,2.84,2.9A6.1,6.1,0,0,1,679.41,216.75Zm-2.07,0a5.33,5.33,0,0,0-.23-1.6,3.23,3.23,0,0,0-.68-1.19,2.94,2.94,0,0,0-1.07-.76,4,4,0,0,0-2.85,0,3,3,0,0,0-1.08.76,3.25,3.25,0,0,0-.69,1.19,5.68,5.68,0,0,0,0,3.2,3.25,3.25,0,0,0,.69,1.19,2.84,2.84,0,0,0,1.08.75,4,4,0,0,0,2.85,0,2.81,2.81,0,0,0,1.07-.75,3.23,3.23,0,0,0,.68-1.19A5.28,5.28,0,0,0,677.34,216.75Z"/><path d="M686.65,218.17l.21.52c.07-.18.14-.36.22-.54a4.59,4.59,0,0,1,.24-.5l3.2-6a.7.7,0,0,1,.12-.18.45.45,0,0,1,.14-.1.48.48,0,0,1,.18,0h1.75v10.8h-1.77v-7c0-.13,0-.27,0-.42a3.71,3.71,0,0,1,0-.47l-3.27,6.12a.85.85,0,0,1-.29.33.74.74,0,0,1-.42.12h-.27a.74.74,0,0,1-.42-.12.85.85,0,0,1-.29-.33l-3.31-6.15c0,.17,0,.33,0,.49s0,.3,0,.43v7H681v-10.8h1.75a.47.47,0,0,1,.17,0,.49.49,0,0,1,.15.1.7.7,0,0,1,.13.18l3.22,6A3.85,3.85,0,0,1,686.65,218.17Z"/><path d="M701.18,211.23a4,4,0,0,1,1.37.22,3.19,3.19,0,0,1,1.06.62,2.89,2.89,0,0,1,.68,1,3.06,3.06,0,0,1,.25,1.27,3.52,3.52,0,0,1-.17,1.1,4.83,4.83,0,0,1-.47,1,6.43,6.43,0,0,1-.7.9c-.26.29-.54.58-.83.88l-2.43,2.49a6.36,6.36,0,0,1,.7-.16,3.85,3.85,0,0,1,.66-.06h2.77a.64.64,0,0,1,.47.17.58.58,0,0,1,.18.45v1.1h-7.41v-.61a1.08,1.08,0,0,1,.33-.76l3.28-3.29c.27-.28.52-.54.73-.8a5.11,5.11,0,0,0,.55-.75,3.63,3.63,0,0,0,.34-.76,3.1,3.1,0,0,0,.11-.81,2.08,2.08,0,0,0-.11-.69,1.39,1.39,0,0,0-.32-.49,1.36,1.36,0,0,0-.5-.31,2.16,2.16,0,0,0-.65-.1,1.75,1.75,0,0,0-1.09.34,1.72,1.72,0,0,0-.6.9.78.78,0,0,1-.25.41.7.7,0,0,1-.42.12,1.06,1.06,0,0,1-.24,0l-1-.17a3.75,3.75,0,0,1,.43-1.36,3.22,3.22,0,0,1,.8-1,3.29,3.29,0,0,1,1.11-.59A4.14,4.14,0,0,1,701.18,211.23Z"/><path d="M512.86,230.83v2.56h-.46V227H514a2.56,2.56,0,0,1,1.69.49,1.76,1.76,0,0,1,.57,1.4,1.92,1.92,0,0,1-.15.77,1.83,1.83,0,0,1-.45.61,2,2,0,0,1-.71.39,2.83,2.83,0,0,1-1,.15Zm0-.37H514a2.24,2.24,0,0,0,.76-.12,1.79,1.79,0,0,0,.56-.32,1.33,1.33,0,0,0,.36-.49,1.56,1.56,0,0,0,.12-.62,1.43,1.43,0,0,0-.45-1.13,2,2,0,0,0-1.35-.39h-1.18Z"/><path d="M521.87,233.39h-.36a.17.17,0,0,1-.1,0,.18.18,0,0,1-.06-.09l-.76-1.85h-3.12l-.75,1.85a.24.24,0,0,1-.06.09.2.2,0,0,1-.11,0h-.35l2.6-6.37h.46Zm-4.26-2.31h2.85l-1.3-3.22-.06-.17a1.72,1.72,0,0,1-.07-.21l-.06.21-.06.17Z"/><path d="M523.47,230.51v2.88H523V227h1.62a2.67,2.67,0,0,1,1.65.43,1.5,1.5,0,0,1,.55,1.25,1.76,1.76,0,0,1-.13.66,1.39,1.39,0,0,1-.36.53,2.1,2.1,0,0,1-.57.38,2.75,2.75,0,0,1-.75.19.64.64,0,0,1,.19.18l2.19,2.75H527a.21.21,0,0,1-.12,0,.17.17,0,0,1-.1-.09l-2-2.58a.55.55,0,0,0-.17-.14.81.81,0,0,0-.27,0Zm0-.34h1.11a2.48,2.48,0,0,0,.75-.1,1.7,1.7,0,0,0,.57-.29,1.2,1.2,0,0,0,.35-.46,1.25,1.25,0,0,0,.13-.59,1.16,1.16,0,0,0-.45-1,2.17,2.17,0,0,0-1.3-.33h-1.16Z"/><path d="M529.15,230h.52l.12,0,.1-.05.09-.08,2.57-2.65a.91.91,0,0,1,.13-.1.33.33,0,0,1,.15,0h.38l-2.78,2.86-.15.14-.15.08a.56.56,0,0,1,.17.09.64.64,0,0,1,.15.14l2.93,3.06H533a.37.37,0,0,1-.17,0l-.1-.09-2.7-2.75a.38.38,0,0,0-.09-.09l-.09-.06a.34.34,0,0,0-.12,0h-.59v3.07h-.46V227h.46Z"/><path d="M536.23,233.39V227h1.83a3.76,3.76,0,0,1,1,.11,1.72,1.72,0,0,1,.65.32,1.21,1.21,0,0,1,.39.51,1.65,1.65,0,0,1,.13.68,1.37,1.37,0,0,1-.09.49,1.24,1.24,0,0,1-.25.43,1.76,1.76,0,0,1-.41.35,2.11,2.11,0,0,1-.55.22,2,2,0,0,1,1.16.5,1.35,1.35,0,0,1,.4,1,1.73,1.73,0,0,1-.14.73,1.62,1.62,0,0,1-.42.55,1.92,1.92,0,0,1-.67.34,3.18,3.18,0,0,1-.91.12Zm.46-3.39h1.38a2.14,2.14,0,0,0,.76-.11,1.35,1.35,0,0,0,.51-.3,1.1,1.1,0,0,0,.29-.42,1.12,1.12,0,0,0,.1-.48,1.18,1.18,0,0,0-.41-1,2,2,0,0,0-1.26-.33h-1.37Zm0,.34V233h1.6a1.94,1.94,0,0,0,1.27-.36,1.27,1.27,0,0,0,.42-1,1.14,1.14,0,0,0-.44-.95,1.64,1.64,0,0,0-.53-.26,2.63,2.63,0,0,0-.72-.09Z"/><path d="M546.79,233.39h-.35a.2.2,0,0,1-.11,0,.7.7,0,0,1-.06-.09l-.75-1.85h-3.13l-.75,1.85a.24.24,0,0,1-.06.09.18.18,0,0,1-.11,0h-.35l2.61-6.37h.46Zm-4.26-2.31h2.85l-1.3-3.22-.06-.17-.06-.21a1.72,1.72,0,0,1-.07.21l-.06.17Z"/><path d="M548.26,233h3v.39H547.8V227h.46Z"/><path d="M552.86,233h3v.39H552.4V227h.46Z"/><path d="M557.6,230.51v2.88h-.46V227h1.63a2.66,2.66,0,0,1,1.64.43,1.47,1.47,0,0,1,.55,1.25,1.59,1.59,0,0,1-.13.66,1.39,1.39,0,0,1-.36.53,2.1,2.1,0,0,1-.57.38,2.75,2.75,0,0,1-.75.19.54.54,0,0,1,.19.18l2.19,2.75h-.4a.24.24,0,0,1-.12,0,.2.2,0,0,1-.1-.09l-2-2.58a.67.67,0,0,0-.16-.14.88.88,0,0,0-.28,0Zm0-.34h1.11a2.59,2.59,0,0,0,.76-.1,1.74,1.74,0,0,0,.56-.29,1.23,1.23,0,0,0,.36-.46,1.38,1.38,0,0,0,.12-.59,1.16,1.16,0,0,0-.45-1,2.14,2.14,0,0,0-1.29-.33H557.6Z"/><path d="M568.17,230.21a3.75,3.75,0,0,1-.22,1.33,2.87,2.87,0,0,1-.62,1,2.94,2.94,0,0,1-1,.66,3.4,3.4,0,0,1-2.46,0,2.74,2.74,0,0,1-1-.66,2.88,2.88,0,0,1-.63-1,4,4,0,0,1-.22-1.33,4,4,0,0,1,.22-1.34,2.93,2.93,0,0,1,.63-1,2.5,2.5,0,0,1,1-.66,3.05,3.05,0,0,1,1.22-.24,3.26,3.26,0,0,1,1.24.23,2.94,2.94,0,0,1,1,.66,3,3,0,0,1,.62,1A3.81,3.81,0,0,1,568.17,230.21Zm-.48,0a3.69,3.69,0,0,0-.18-1.2,2.48,2.48,0,0,0-.52-.9,2.13,2.13,0,0,0-.81-.57,2.69,2.69,0,0,0-1-.19,2.66,2.66,0,0,0-1,.19,2.13,2.13,0,0,0-.81.57,2.5,2.5,0,0,0-.53.9,3.85,3.85,0,0,0,0,2.39,2.5,2.5,0,0,0,.53.9,2,2,0,0,0,.81.56,2.66,2.66,0,0,0,1,.2,2.69,2.69,0,0,0,1-.2,2,2,0,0,0,.81-.56,2.48,2.48,0,0,0,.52-.9A3.67,3.67,0,0,0,567.69,230.21Z"/><path d="M575.35,230.21a3.75,3.75,0,0,1-.22,1.33,3,3,0,0,1-.62,1,2.94,2.94,0,0,1-1,.66,3.43,3.43,0,0,1-2.47,0,2.94,2.94,0,0,1-1-.66,3,3,0,0,1-.62-1,3.75,3.75,0,0,1-.22-1.33,3.81,3.81,0,0,1,.22-1.34,3.06,3.06,0,0,1,.62-1,2.66,2.66,0,0,1,1-.66,3.1,3.1,0,0,1,1.23-.24,3.3,3.3,0,0,1,1.24.23,2.94,2.94,0,0,1,1,.66,3.22,3.22,0,0,1,.62,1A3.81,3.81,0,0,1,575.35,230.21Zm-.48,0a3.69,3.69,0,0,0-.18-1.2,2.63,2.63,0,0,0-.52-.9,2.21,2.21,0,0,0-.81-.57,3,3,0,0,0-2.09,0,2.3,2.3,0,0,0-.81.57,2.48,2.48,0,0,0-.52.9,3.85,3.85,0,0,0,0,2.39,2.48,2.48,0,0,0,.52.9,2.15,2.15,0,0,0,.81.56,2.83,2.83,0,0,0,2.09,0,2.07,2.07,0,0,0,.81-.56,2.63,2.63,0,0,0,.52-.9A3.67,3.67,0,0,0,574.87,230.21Z"/><path d="M580,231.81l.06-.14a.61.61,0,0,1,.07-.14l2.5-4.42a.15.15,0,0,1,.07-.07l.1,0h.32v6.37h-.41V228a2.12,2.12,0,0,1,0-.24l-2.51,4.45a.18.18,0,0,1-.18.11H580a.18.18,0,0,1-.18-.11l-2.58-4.46a2.29,2.29,0,0,1,0,.25v5.43h-.4V227h.31l.1,0a.17.17,0,0,1,.08.07l2.57,4.43A1.69,1.69,0,0,1,580,231.81Z"/><path d="M588.58,227a2.61,2.61,0,0,1,.69.1,1.76,1.76,0,0,1,.57.31,1.5,1.5,0,0,1,.39.5,1.68,1.68,0,0,1,.14.7,1.43,1.43,0,0,1-.1.56,1.5,1.5,0,0,1-.26.44,1.53,1.53,0,0,1-.4.31,1.69,1.69,0,0,1-.5.2,1.82,1.82,0,0,1,1.06.54,1.52,1.52,0,0,1,.36,1,1.81,1.81,0,0,1-.16.73,2,2,0,0,1-.43.58,2.1,2.1,0,0,1-.65.38,2.37,2.37,0,0,1-.81.13,2.64,2.64,0,0,1-.91-.14,1.82,1.82,0,0,1-.59-.38,1.75,1.75,0,0,1-.37-.53,4,4,0,0,1-.21-.58l.17-.07.11,0,.09,0a.22.22,0,0,1,.07.09l0,.09a2.05,2.05,0,0,0,.08.2,1.87,1.87,0,0,0,.12.25,2.19,2.19,0,0,0,.2.25,1.13,1.13,0,0,0,.29.23,1.76,1.76,0,0,0,.39.17,2.09,2.09,0,0,0,.53.06,1.68,1.68,0,0,0,.7-.14,1.47,1.47,0,0,0,.51-.34,1.42,1.42,0,0,0,.31-.47,1.31,1.31,0,0,0,.1-.5,1.53,1.53,0,0,0-.09-.54,1,1,0,0,0-.31-.44,1.52,1.52,0,0,0-.57-.29,3.15,3.15,0,0,0-.87-.1V230a3,3,0,0,0,.73-.11,1.52,1.52,0,0,0,.52-.28,1.07,1.07,0,0,0,.32-.42,1.17,1.17,0,0,0,.11-.53,1.51,1.51,0,0,0-.11-.59,1.4,1.4,0,0,0-.3-.41,1.18,1.18,0,0,0-.44-.24,1.88,1.88,0,0,0-.53-.07,1.63,1.63,0,0,0-.55.09,1.41,1.41,0,0,0-.45.25,1.34,1.34,0,0,0-.32.39,2,2,0,0,0-.2.5c0,.11-.08.16-.16.16h0l-.22,0a2.31,2.31,0,0,1,.22-.73,1.9,1.9,0,0,1,.43-.54,1.63,1.63,0,0,1,.59-.33A2.15,2.15,0,0,1,588.58,227Z"/><path d="M525,217.93v4.22h-2v-10.8h3.29a7,7,0,0,1,1.9.23,3.55,3.55,0,0,1,1.29.64,2.43,2.43,0,0,1,.74,1,3.32,3.32,0,0,1,.07,2.29,2.84,2.84,0,0,1-.46.88,3.15,3.15,0,0,1-.75.7,4.09,4.09,0,0,1-1,.47,2.05,2.05,0,0,1,.66.62l2.7,4h-1.8a.88.88,0,0,1-.45-.1,1,1,0,0,1-.31-.3l-2.27-3.46a.93.93,0,0,0-.28-.28,1,1,0,0,0-.45-.08Zm0-1.44h1.25a3.24,3.24,0,0,0,1-.14,2.13,2.13,0,0,0,.7-.39,1.65,1.65,0,0,0,.41-.6,2,2,0,0,0,.13-.75,1.56,1.56,0,0,0-.54-1.27,2.61,2.61,0,0,0-1.66-.44H525Z"/><path d="M542.68,216.75a6.06,6.06,0,0,1-.4,2.2,5.18,5.18,0,0,1-1.11,1.75,5.07,5.07,0,0,1-1.73,1.16,6.3,6.3,0,0,1-4.47,0,5,5,0,0,1-2.85-2.91,6.25,6.25,0,0,1,0-4.4,5,5,0,0,1,2.85-2.91,6,6,0,0,1,2.24-.41,5.75,5.75,0,0,1,2.23.42,5.19,5.19,0,0,1,1.73,1.15,5.28,5.28,0,0,1,1.11,1.75A6.1,6.1,0,0,1,542.68,216.75Zm-2.07,0a5.21,5.21,0,0,0-.23-1.59,3.36,3.36,0,0,0-.68-1.2,2.94,2.94,0,0,0-1.07-.76,4,4,0,0,0-2.85,0,3,3,0,0,0-1.08.76,3.37,3.37,0,0,0-.69,1.2,5.21,5.21,0,0,0-.23,1.59,5.28,5.28,0,0,0,.23,1.6,3.25,3.25,0,0,0,.69,1.19,2.84,2.84,0,0,0,1.08.75,3.9,3.9,0,0,0,2.85,0,2.81,2.81,0,0,0,1.07-.75,3.23,3.23,0,0,0,.68-1.19A5.28,5.28,0,0,0,540.61,216.75Z"/><path d="M554.62,216.75a6.06,6.06,0,0,1-.39,2.2,5.2,5.2,0,0,1-1.12,1.75,4.93,4.93,0,0,1-1.72,1.16,6.3,6.3,0,0,1-4.47,0,5,5,0,0,1-2.85-2.91,6.25,6.25,0,0,1,0-4.4,5,5,0,0,1,2.85-2.91,5.94,5.94,0,0,1,2.23-.41,5.77,5.77,0,0,1,2.24.42,5,5,0,0,1,1.72,1.15,5.3,5.3,0,0,1,1.12,1.75A6.1,6.1,0,0,1,554.62,216.75Zm-2.06,0a5.21,5.21,0,0,0-.23-1.59,3.51,3.51,0,0,0-.68-1.2,2.94,2.94,0,0,0-1.07-.76,4,4,0,0,0-2.85,0,2.9,2.9,0,0,0-1.08.76,3.37,3.37,0,0,0-.69,1.2,4.92,4.92,0,0,0-.24,1.59,5,5,0,0,0,.24,1.6,3.25,3.25,0,0,0,.69,1.19,2.77,2.77,0,0,0,1.08.75,3.9,3.9,0,0,0,2.85,0,2.81,2.81,0,0,0,1.07-.75,3.37,3.37,0,0,0,.68-1.19A5.28,5.28,0,0,0,552.56,216.75Z"/><path d="M561.87,218.17l.21.52c.07-.18.14-.36.22-.53a3.85,3.85,0,0,1,.24-.5l3.19-6a1.4,1.4,0,0,1,.13-.18.45.45,0,0,1,.14-.1.48.48,0,0,1,.18,0h1.74v10.8h-1.77v-7c0-.12,0-.27,0-.42s0-.31,0-.47l-3.27,6.13a.89.89,0,0,1-.29.32.74.74,0,0,1-.42.12H562a.74.74,0,0,1-.42-.12.89.89,0,0,1-.29-.32l-3.31-6.15c0,.16,0,.32,0,.48s0,.3,0,.43v7h-1.77v-10.8H558a.47.47,0,0,1,.17,0,.65.65,0,0,1,.15.1,1.4,1.4,0,0,1,.12.18l3.23,6A4.59,4.59,0,0,1,561.87,218.17Z"/><path d="M576.57,211.23a4.07,4.07,0,0,1,1.35.21,3.15,3.15,0,0,1,1,.59,2.59,2.59,0,0,1,.65.89,2.67,2.67,0,0,1,.23,1.1,3.06,3.06,0,0,1-.12.9,2.33,2.33,0,0,1-.33.69,2.11,2.11,0,0,1-.54.49,3.19,3.19,0,0,1-.72.34,2.82,2.82,0,0,1,1.45.93A2.6,2.6,0,0,1,580,219a3.27,3.27,0,0,1-.3,1.43,2.93,2.93,0,0,1-.8,1,3.63,3.63,0,0,1-1.18.64,4.69,4.69,0,0,1-1.42.21,4.93,4.93,0,0,1-1.41-.18,3.07,3.07,0,0,1-1.06-.56,3.29,3.29,0,0,1-.76-.89,6.33,6.33,0,0,1-.54-1.23l.82-.33a1.06,1.06,0,0,1,.42-.09.67.67,0,0,1,.35.08.49.49,0,0,1,.23.24q.14.25.3.51a2.82,2.82,0,0,0,.38.46,2.14,2.14,0,0,0,.53.32,1.94,1.94,0,0,0,.72.12,2,2,0,0,0,.82-.15,2,2,0,0,0,.59-.4,1.71,1.71,0,0,0,.35-.55,1.66,1.66,0,0,0,.12-.61,3.08,3.08,0,0,0-.08-.71,1.06,1.06,0,0,0-.35-.54,1.75,1.75,0,0,0-.75-.35,5.14,5.14,0,0,0-1.31-.13V216a4.49,4.49,0,0,0,1.13-.12,1.88,1.88,0,0,0,.71-.33,1.09,1.09,0,0,0,.37-.51,2,2,0,0,0,.11-.66,1.5,1.5,0,0,0-.42-1.16,1.58,1.58,0,0,0-1.15-.4,1.72,1.72,0,0,0-1.09.35,1.77,1.77,0,0,0-.6.89.78.78,0,0,1-.25.41.65.65,0,0,1-.41.12,1.1,1.1,0,0,1-.25,0l-1-.17a3.75,3.75,0,0,1,.43-1.36,3.22,3.22,0,0,1,.8-1,3.29,3.29,0,0,1,1.11-.59A4.43,4.43,0,0,1,576.57,211.23Z"/><path d="M307.58,246.58v2.56h-.46v-6.37h1.65a2.58,2.58,0,0,1,1.69.49,1.79,1.79,0,0,1,.56,1.4,1.92,1.92,0,0,1-.15.77,1.59,1.59,0,0,1-.45.61,2,2,0,0,1-.71.39,2.77,2.77,0,0,1-.94.15Zm0-.37h1.19a2.19,2.19,0,0,0,.75-.12,2,2,0,0,0,.57-.32,1.42,1.42,0,0,0,.35-.49,1.56,1.56,0,0,0,.13-.62,1.44,1.44,0,0,0-.46-1.13,2,2,0,0,0-1.34-.39h-1.19Z"/><path d="M316.59,249.14h-.35a.16.16,0,0,1-.17-.12l-.75-1.85h-3.13l-.75,1.85a.24.24,0,0,1-.06.09.2.2,0,0,1-.11,0h-.35l2.61-6.37H314Zm-4.26-2.31h2.85l-1.3-3.22-.06-.17-.06-.21a1.72,1.72,0,0,0-.07.21l-.06.17Z"/><path d="M318.19,246.26v2.88h-.46v-6.37h1.63a2.66,2.66,0,0,1,1.64.43,1.47,1.47,0,0,1,.55,1.25,1.59,1.59,0,0,1-.13.66,1.39,1.39,0,0,1-.36.53,2.1,2.1,0,0,1-.57.38,2.75,2.75,0,0,1-.75.19.54.54,0,0,1,.19.18l2.2,2.75h-.41l-.12,0a.2.2,0,0,1-.1-.09l-2-2.58a.52.52,0,0,0-.16-.14.85.85,0,0,0-.27,0Zm0-.34h1.11a2.59,2.59,0,0,0,.76-.1,1.91,1.91,0,0,0,.57-.29,1.31,1.31,0,0,0,.35-.46,1.38,1.38,0,0,0,.12-.59,1.16,1.16,0,0,0-.45-1,2.14,2.14,0,0,0-1.29-.33h-1.17Z"/><path d="M323.87,245.71h.53l.11,0,.1-.05.09-.08,2.57-2.65.14-.1a.33.33,0,0,1,.15,0h.37l-2.78,2.86-.15.14a.53.53,0,0,1-.15.08.46.46,0,0,1,.17.09.64.64,0,0,1,.15.14l2.94,3.06h-.38a.3.3,0,0,1-.16,0l-.11-.09-2.69-2.75-.09-.09-.09-.06-.13,0h-.59v3.07h-.46v-6.38h.46Z"/><path d="M334,243.55a.13.13,0,0,1-.12.07.22.22,0,0,1-.15-.08,2.06,2.06,0,0,0-.25-.18,2.14,2.14,0,0,0-.4-.19,1.64,1.64,0,0,0-.58-.09,1.85,1.85,0,0,0-.61.1,1.42,1.42,0,0,0-.45.27,1.56,1.56,0,0,0-.27.4,1.27,1.27,0,0,0-.09.47,1,1,0,0,0,.14.54,1.23,1.23,0,0,0,.36.36,2.42,2.42,0,0,0,.51.25l.59.2a6,6,0,0,1,.59.22,2.14,2.14,0,0,1,.51.3,1.2,1.2,0,0,1,.36.44,1.39,1.39,0,0,1,.14.65,2.14,2.14,0,0,1-.14.76,1.77,1.77,0,0,1-.39.61,2,2,0,0,1-.64.41,2.37,2.37,0,0,1-.87.15,2.39,2.39,0,0,1-1.08-.22,2.51,2.51,0,0,1-.8-.61l.13-.2a.17.17,0,0,1,.12-.07s.06,0,.11.06l.15.13.22.17a1.58,1.58,0,0,0,.29.17,1.88,1.88,0,0,0,.38.14,2.46,2.46,0,0,0,.49.05,2,2,0,0,0,.68-.11,1.35,1.35,0,0,0,.5-.32,1.4,1.4,0,0,0,.32-.47,1.57,1.57,0,0,0,.1-.58,1.08,1.08,0,0,0-.13-.56,1.41,1.41,0,0,0-.37-.36,2,2,0,0,0-.51-.24l-.59-.2a5.71,5.71,0,0,1-.58-.21,2,2,0,0,1-.52-.3,1.33,1.33,0,0,1-.36-.45,1.57,1.57,0,0,1-.14-.69,1.46,1.46,0,0,1,.13-.61,1.53,1.53,0,0,1,.35-.53,1.78,1.78,0,0,1,.58-.36,2.14,2.14,0,0,1,.79-.14,2.31,2.31,0,0,1,.89.16,2.07,2.07,0,0,1,.72.48Z"/><path d="M339.82,242.77v.4h-2.24v6h-.46v-6h-2.25v-.4Z"/><path d="M343.27,248.81a1.94,1.94,0,0,0,.82-.16,1.71,1.71,0,0,0,.62-.44,2.09,2.09,0,0,0,.38-.67,2.49,2.49,0,0,0,.13-.83v-3.94h.46v3.94a2.94,2.94,0,0,1-.16,1,2.36,2.36,0,0,1-.48.79,2,2,0,0,1-.76.53,2.53,2.53,0,0,1-1,.2,2.44,2.44,0,0,1-1-.2,2.08,2.08,0,0,1-.77-.53,2.51,2.51,0,0,1-.47-.79,2.71,2.71,0,0,1-.17-1v-3.94h.46v3.94a2.54,2.54,0,0,0,.14.83,1.78,1.78,0,0,0,1,1.11A1.94,1.94,0,0,0,343.27,248.81Z"/><path d="M352.88,246a3.88,3.88,0,0,1-.22,1.32,3,3,0,0,1-.62,1,2.86,2.86,0,0,1-1,.63,3.3,3.3,0,0,1-1.24.22h-2.32v-6.37h2.32a3.51,3.51,0,0,1,1.24.22,2.74,2.74,0,0,1,1,.64,3,3,0,0,1,.62,1A4,4,0,0,1,352.88,246Zm-.48,0a3.59,3.59,0,0,0-.18-1.19,2.63,2.63,0,0,0-.52-.88,2.24,2.24,0,0,0-.81-.55,2.76,2.76,0,0,0-1.05-.19H348v5.62h1.86a3,3,0,0,0,1.05-.19,2.38,2.38,0,0,0,.81-.55,2.63,2.63,0,0,0,.52-.88A3.67,3.67,0,0,0,352.4,246Z"/><path d="M355,249.14h-.46v-6.37H355Z"/><path d="M362.73,246a3.75,3.75,0,0,1-.22,1.33,3,3,0,0,1-.62,1,2.94,2.94,0,0,1-1,.66,3.43,3.43,0,0,1-2.47,0,2.94,2.94,0,0,1-1-.66,3,3,0,0,1-.62-1,3.75,3.75,0,0,1-.22-1.33,3.81,3.81,0,0,1,.22-1.34,3.06,3.06,0,0,1,.62-1,2.66,2.66,0,0,1,1-.66,3.1,3.1,0,0,1,1.23-.24,3.3,3.3,0,0,1,1.24.23,2.94,2.94,0,0,1,1,.66,3.22,3.22,0,0,1,.62,1A3.81,3.81,0,0,1,362.73,246Zm-.48,0a3.69,3.69,0,0,0-.18-1.2,2.63,2.63,0,0,0-.52-.9,2.3,2.3,0,0,0-.81-.57,3,3,0,0,0-2.09,0,2.3,2.3,0,0,0-.81.57,2.48,2.48,0,0,0-.52.9,3.85,3.85,0,0,0,0,2.39,2.48,2.48,0,0,0,.52.9,2.15,2.15,0,0,0,.81.56,2.83,2.83,0,0,0,2.09,0,2.15,2.15,0,0,0,.81-.56,2.63,2.63,0,0,0,.52-.9A3.67,3.67,0,0,0,362.25,246Z"/><path d="M304.24,218.79v3.8h-2v-10.8h3.52a6.14,6.14,0,0,1,1.87.25,3.64,3.64,0,0,1,1.31.71,2.83,2.83,0,0,1,.76,1.09,3.73,3.73,0,0,1,.25,1.39,3.89,3.89,0,0,1-.26,1.44,3.08,3.08,0,0,1-.79,1.13,3.64,3.64,0,0,1-1.3.73,6,6,0,0,1-1.84.26Zm0-1.57h1.51a2.78,2.78,0,0,0,1-.14,1.74,1.74,0,0,0,.68-.39,1.48,1.48,0,0,0,.4-.63,2.41,2.41,0,0,0,.14-.83,2.16,2.16,0,0,0-.14-.78,1.51,1.51,0,0,0-.4-.6,1.86,1.86,0,0,0-.68-.38,3.38,3.38,0,0,0-1-.13h-1.51Z"/><path d="M313.58,218.37v4.22h-2v-10.8h3.29a7,7,0,0,1,1.9.23,3.55,3.55,0,0,1,1.29.64,2.43,2.43,0,0,1,.74,1,3.22,3.22,0,0,1,.24,1.26,3.47,3.47,0,0,1-.16,1,3.1,3.1,0,0,1-.47.88,3.15,3.15,0,0,1-.75.7,4.09,4.09,0,0,1-1,.47,2.05,2.05,0,0,1,.66.62l2.7,4h-1.8a.88.88,0,0,1-.45-.1,1,1,0,0,1-.31-.3l-2.27-3.46a.83.83,0,0,0-.28-.28,1,1,0,0,0-.45-.08Zm0-1.44h1.25a3.24,3.24,0,0,0,1-.14,2,2,0,0,0,.7-.39,1.65,1.65,0,0,0,.41-.6,2,2,0,0,0,.13-.75,1.56,1.56,0,0,0-.54-1.27,2.61,2.61,0,0,0-1.66-.44h-1.28Z"/><path d="M328.1,211.79v1.6h-4.79v3h3.78v1.54h-3.78V221h4.79v1.6h-6.81v-10.8Z"/><path d="M328.78,211.79h1.63a.64.64,0,0,1,.42.13.76.76,0,0,1,.25.33l2.54,6.59c.08.21.16.45.24.7s.15.53.22.81a9.49,9.49,0,0,1,.43-1.51l2.53-6.59a.9.9,0,0,1,.24-.32.67.67,0,0,1,.43-.14h1.62L335,222.59h-1.81Z"/><path d="M342.72,222.59h-2v-10.8h2Z"/><path d="M352,211.79v1.6h-4.79v3H351v1.54h-3.78V221H352v1.6h-6.81v-10.8Z"/><path d="M352.7,211.79h1.69a.76.76,0,0,1,.44.12.58.58,0,0,1,.23.34l1.84,6.46c.05.16.09.33.13.52s.07.38.1.59c0-.21.09-.41.13-.59a5.36,5.36,0,0,1,.16-.52l2.12-6.46a.71.71,0,0,1,.24-.32.67.67,0,0,1,.43-.14h.58a.76.76,0,0,1,.44.12.71.71,0,0,1,.24.34l2.11,6.46a10.75,10.75,0,0,1,.28,1.06c0-.19.07-.38.11-.56s.07-.35.11-.5l1.84-6.46a.63.63,0,0,1,.23-.33.72.72,0,0,1,.44-.13h1.57l-3.35,10.8H363l-2.36-7.38q0-.14-.09-.3a3.1,3.1,0,0,1-.1-.36q0,.19-.09.36t-.09.3l-2.39,7.38h-1.81Z"/><path d="M314.22,233.37v4.22h-2v-10.8h3.29a7,7,0,0,1,1.9.23,3.55,3.55,0,0,1,1.29.64,2.43,2.43,0,0,1,.74,1,3.21,3.21,0,0,1,.23,1.26,3.17,3.17,0,0,1-.16,1,2.84,2.84,0,0,1-.46.88,3.15,3.15,0,0,1-.75.7,4.09,4.09,0,0,1-1,.47,2.28,2.28,0,0,1,.66.62l2.7,4h-1.8a.88.88,0,0,1-.45-.1,1,1,0,0,1-.31-.3l-2.27-3.46a.93.93,0,0,0-.28-.28,1,1,0,0,0-.45-.08Zm0-1.44h1.25a3.24,3.24,0,0,0,1-.14,2.13,2.13,0,0,0,.7-.39,1.62,1.62,0,0,0,.4-.6,2,2,0,0,0,.14-.75,1.56,1.56,0,0,0-.54-1.27,2.63,2.63,0,0,0-1.66-.44h-1.28Z"/><path d="M331.93,232.19a6.06,6.06,0,0,1-.39,2.2,5.35,5.35,0,0,1-1.12,1.76,5,5,0,0,1-1.72,1.15,6.3,6.3,0,0,1-4.47,0,4.95,4.95,0,0,1-2.85-2.91,6.25,6.25,0,0,1,0-4.4,5,5,0,0,1,2.85-2.91,5.94,5.94,0,0,1,2.23-.41,5.77,5.77,0,0,1,2.24.42,5,5,0,0,1,1.72,1.15,5.3,5.3,0,0,1,1.12,1.75A6.1,6.1,0,0,1,331.93,232.19Zm-2.06,0a5.21,5.21,0,0,0-.23-1.59,3.51,3.51,0,0,0-.68-1.2,2.94,2.94,0,0,0-1.07-.76,4,4,0,0,0-2.85,0,2.9,2.9,0,0,0-1.08.76,3.37,3.37,0,0,0-.69,1.2,4.92,4.92,0,0,0-.24,1.59,5,5,0,0,0,.24,1.6A3.25,3.25,0,0,0,324,235a2.77,2.77,0,0,0,1.08.75,3.9,3.9,0,0,0,2.85,0A2.81,2.81,0,0,0,329,235a3.37,3.37,0,0,0,.68-1.19A5.28,5.28,0,0,0,329.87,232.19Z"/><path d="M343.88,232.19a6.06,6.06,0,0,1-.39,2.2,5.35,5.35,0,0,1-1.12,1.76,5.14,5.14,0,0,1-1.72,1.15,6.32,6.32,0,0,1-4.48,0,5.19,5.19,0,0,1-1.73-1.15,5.35,5.35,0,0,1-1.12-1.76,6.4,6.4,0,0,1,0-4.4,5.3,5.3,0,0,1,1.12-1.75,5.21,5.21,0,0,1,1.73-1.16,6,6,0,0,1,2.24-.41,5.8,5.8,0,0,1,2.24.42,5.14,5.14,0,0,1,1.72,1.15,5.3,5.3,0,0,1,1.12,1.75A6.1,6.1,0,0,1,343.88,232.19Zm-2.06,0a4.92,4.92,0,0,0-.24-1.59,3.34,3.34,0,0,0-.67-1.2,3,3,0,0,0-1.07-.76,3.8,3.8,0,0,0-1.43-.26,3.74,3.74,0,0,0-1.42.26,2.9,2.9,0,0,0-1.08.76,3.37,3.37,0,0,0-.69,1.2,4.92,4.92,0,0,0-.24,1.59,5,5,0,0,0,.24,1.6,3.25,3.25,0,0,0,.69,1.19,2.77,2.77,0,0,0,1.08.75,3.56,3.56,0,0,0,1.42.27,3.61,3.61,0,0,0,1.43-.27,2.88,2.88,0,0,0,1.07-.75,3.21,3.21,0,0,0,.67-1.19A5,5,0,0,0,341.82,232.19Z"/><path d="M351.13,233.61l.21.52c.07-.18.14-.36.22-.53s.15-.34.23-.5l3.2-6a.83.83,0,0,1,.13-.18.45.45,0,0,1,.14-.1.47.47,0,0,1,.17,0h1.75v10.8h-1.77v-7c0-.12,0-.27,0-.42s0-.31,0-.47l-3.27,6.13a.82.82,0,0,1-.29.32.74.74,0,0,1-.42.12h-.27a.72.72,0,0,1-.42-.12.82.82,0,0,1-.29-.32l-3.32-6.15a3.91,3.91,0,0,1,.05.48c0,.16,0,.3,0,.43v7h-1.77v-10.8h1.74a.48.48,0,0,1,.18,0,.65.65,0,0,1,.15.1l.12.18,3.23,6C351,233.27,351.05,233.44,351.13,233.61Z"/><path class="cls-6" d="M462.59,587.14a.45.45,0,0,1-.15.18.36.36,0,0,1-.21,0,.54.54,0,0,1-.27-.09l-.35-.21a3.16,3.16,0,0,0-.48-.2,2,2,0,0,0-.64-.09,1.76,1.76,0,0,0-.59.08,1.4,1.4,0,0,0-.42.22.87.87,0,0,0-.25.35,1,1,0,0,0-.09.44.76.76,0,0,0,.18.51,1.5,1.5,0,0,0,.45.35,4.27,4.27,0,0,0,.64.25l.74.25a5.1,5.1,0,0,1,.73.3,2.32,2.32,0,0,1,.64.43,2,2,0,0,1,.46.64,2.26,2.26,0,0,1,.17.92,2.91,2.91,0,0,1-.21,1.1,2.54,2.54,0,0,1-.58.89,3,3,0,0,1-.95.6,3.4,3.4,0,0,1-1.28.22,4.45,4.45,0,0,1-.81-.08,4.6,4.6,0,0,1-.77-.23,3.75,3.75,0,0,1-.69-.36,3.4,3.4,0,0,1-.58-.47l.47-.78a1.07,1.07,0,0,1,.16-.14.46.46,0,0,1,.21,0,.56.56,0,0,1,.32.12l.41.27a4.17,4.17,0,0,0,.56.28,2.22,2.22,0,0,0,.77.12,1.57,1.57,0,0,0,1.07-.33,1.18,1.18,0,0,0,.38-.94.88.88,0,0,0-.17-.55,1.42,1.42,0,0,0-.46-.37,3.16,3.16,0,0,0-.64-.25c-.24-.06-.48-.14-.73-.22a5,5,0,0,1-.73-.29,2,2,0,0,1-.64-.44,1.94,1.94,0,0,1-.46-.67,2.64,2.64,0,0,1-.17-1,2.3,2.3,0,0,1,.19-.92,2.44,2.44,0,0,1,.55-.8,2.76,2.76,0,0,1,.89-.56,3.3,3.3,0,0,1,1.21-.21,4.11,4.11,0,0,1,1.42.24,3.13,3.13,0,0,1,1.1.67Z"/><path class="cls-6" d="M471.7,594.23h-1.62v-3.79H466v3.79h-1.63v-8.67H466v3.73h4.07v-3.73h1.62Z"/><path class="cls-6" d="M477,592.93a2.16,2.16,0,0,0,.83-.15,1.79,1.79,0,0,0,.63-.44,1.94,1.94,0,0,0,.39-.69,2.75,2.75,0,0,0,.13-.9v-5.19h1.62v5.19a4.09,4.09,0,0,1-.25,1.43,3.35,3.35,0,0,1-.72,1.14,3.26,3.26,0,0,1-1.13.74,4,4,0,0,1-1.5.27,3.93,3.93,0,0,1-1.5-.27,3.21,3.21,0,0,1-1.14-.74,3.33,3.33,0,0,1-.71-1.14,3.87,3.87,0,0,1-.25-1.43v-5.19H475v5.19a2.84,2.84,0,0,0,.13.9,2,2,0,0,0,.39.68,1.77,1.77,0,0,0,.62.45A2.17,2.17,0,0,0,477,592.93Z"/><path class="cls-6" d="M488.3,585.56v1.32h-2.61v7.35h-1.61v-7.35h-2.62v-1.32Z"/><path class="cls-6" d="M495.44,585.56v1.32h-2.61v7.35h-1.61v-7.35H488.6v-1.32Z"/><path class="cls-6" d="M498.08,592.9h3.48v1.33h-5.09v-8.67h1.61Z"/><path class="cls-6" d="M508.15,585.56v1.28H504.3v2.41h3v1.24h-3v2.45h3.85v1.29h-5.48v-8.67Z"/><path class="cls-6" d="M466,604.55h3.48v1.33h-5.09v-8.67H466Z"/><path class="cls-6" d="M478.39,601.54a4.84,4.84,0,0,1-.32,1.77,4.15,4.15,0,0,1-.9,1.41,4,4,0,0,1-1.38.92,4.91,4.91,0,0,1-3.59,0,4,4,0,0,1-1.39-.92,4.15,4.15,0,0,1-.9-1.41,5,5,0,0,1,0-3.53,4.15,4.15,0,0,1,.9-1.41,3.86,3.86,0,0,1,1.39-.93,4.71,4.71,0,0,1,1.79-.33,4.55,4.55,0,0,1,1.8.34,4,4,0,0,1,1.38.92,4.15,4.15,0,0,1,.9,1.41A4.83,4.83,0,0,1,478.39,601.54Zm-1.66,0a4,4,0,0,0-.19-1.28,2.64,2.64,0,0,0-.54-1,2.41,2.41,0,0,0-.86-.61,3.23,3.23,0,0,0-2.29,0,2.45,2.45,0,0,0-.87.61,2.66,2.66,0,0,0-.55,1,4,4,0,0,0-.19,1.28,3.87,3.87,0,0,0,.19,1.28,2.66,2.66,0,0,0,.55,1,2.33,2.33,0,0,0,.87.61,3.23,3.23,0,0,0,2.29,0,2.29,2.29,0,0,0,.86-.61,2.64,2.64,0,0,0,.54-1A3.87,3.87,0,0,0,476.73,601.54Z"/><path class="cls-6" d="M479.66,605.88v-8.67h3a5.66,5.66,0,0,1,1.46.16,2.84,2.84,0,0,1,1,.46,1.73,1.73,0,0,1,.56.73,2.42,2.42,0,0,1,.18,1,1.9,1.9,0,0,1-.09.58,1.55,1.55,0,0,1-.28.52,1.87,1.87,0,0,1-.48.44,2.47,2.47,0,0,1-.69.34c1.19.27,1.79.91,1.79,1.93a2.45,2.45,0,0,1-.21,1,2.28,2.28,0,0,1-.61.81,3.11,3.11,0,0,1-1,.53,4.27,4.27,0,0,1-1.35.19Zm1.61-4.92h1.29a2.16,2.16,0,0,0,1.25-.3,1.1,1.1,0,0,0,.43-.95,1.13,1.13,0,0,0-.39-1,2,2,0,0,0-1.2-.29h-1.38Zm0,1.12v2.54h1.64a2,2,0,0,0,.75-.11,1.29,1.29,0,0,0,.49-.28,1,1,0,0,0,.26-.42,1.44,1.44,0,0,0,.08-.51,1.36,1.36,0,0,0-.09-.51,1,1,0,0,0-.28-.39,1.49,1.49,0,0,0-.49-.24,3,3,0,0,0-.73-.08Z"/><path class="cls-6" d="M487.48,605.88v-8.67h3a5.53,5.53,0,0,1,1.45.16,2.68,2.68,0,0,1,1,.46,1.76,1.76,0,0,1,.57.73,2.42,2.42,0,0,1,.18,1,1.9,1.9,0,0,1-.09.58,1.55,1.55,0,0,1-.28.52,1.87,1.87,0,0,1-.48.44,2.47,2.47,0,0,1-.69.34c1.19.27,1.79.91,1.79,1.93a2.45,2.45,0,0,1-.21,1,2.41,2.41,0,0,1-.61.81,3.11,3.11,0,0,1-1,.53,4.32,4.32,0,0,1-1.35.19Zm1.61-4.92h1.29a2.18,2.18,0,0,0,1.25-.3,1.09,1.09,0,0,0,.42-.95,1.13,1.13,0,0,0-.38-1,2,2,0,0,0-1.2-.29h-1.38Zm0,1.12v2.54h1.64a2,2,0,0,0,.75-.11,1.37,1.37,0,0,0,.49-.28,1,1,0,0,0,.26-.42,1.7,1.7,0,0,0,.08-.51,1.36,1.36,0,0,0-.09-.51,1,1,0,0,0-.28-.39,1.49,1.49,0,0,0-.49-.24,3,3,0,0,0-.73-.08Z"/><path class="cls-6" d="M499.15,602.51v3.37h-1.61v-3.37l-3.16-5.3h1.42a.48.48,0,0,1,.33.1.92.92,0,0,1,.21.26l1.59,2.89.24.49c.07.16.13.31.18.46.06-.16.11-.31.18-.46s.15-.32.24-.49l1.58-2.89a.87.87,0,0,1,.19-.25.48.48,0,0,1,.34-.11h1.43Z"/><path class="cls-7" d="M630.56,365.37H629.2V360a2.7,2.7,0,0,1,2.71-2.7H636a2.7,2.7,0,0,1,2.71,2.7v5.41h-5.41"/><path class="cls-7" d="M633.26,365.37V362a1.36,1.36,0,0,1,1.35-1.35h2.71a1.36,1.36,0,0,1,1.35,1.35"/><path class="cls-7" d="M629.88,365.37l-.85.85a2.06,2.06,0,0,0-.58,1.21l-.43,3.84a2,2,0,0,0,1.27,2.11L633.2,375a2.7,2.7,0,0,0,2.63-.35l1.49-1.12-4.74-2.7v-2"/><line class="cls-7" x1="637.32" y1="373.48" x2="644.84" y2="373.48"/><path class="cls-7" d="M627.85,378.89h-2a1.35,1.35,0,0,1-1.35-1.35V364a1.35,1.35,0,0,1,1.35-1.35h3.38"/><line class="cls-7" x1="629.88" y1="373.89" x2="629.88" y2="387.68"/><line class="cls-7" x1="638.67" y1="376.07" x2="638.67" y2="387.68"/><polyline class="cls-7" points="635.29 387.68 635.29 378.55 636.26 377.6"/><path class="cls-7" d="M641.37,371.46l-2.7-2v-2.15a1.31,1.31,0,0,0-.4-.95l-.95-1"/><line class="cls-7" x1="650.83" y1="371.46" x2="651.51" y2="371.46"/><line class="cls-7" x1="650.83" y1="375.51" x2="651.51" y2="375.51"/><line class="cls-7" x1="654.21" y1="373.48" x2="654.89" y2="373.48"/><line class="cls-7" x1="647.46" y1="373.48" x2="648.13" y2="373.48"/><line class="cls-7" x1="654.21" y1="369.43" x2="654.89" y2="369.43"/><line class="cls-7" x1="654.21" y1="377.54" x2="654.89" y2="377.54"/><path d="M503.59,553v3.39H502v-8.67h2.65a5.61,5.61,0,0,1,1.52.18,2.89,2.89,0,0,1,1,.51,1.89,1.89,0,0,1,.59.79,2.56,2.56,0,0,1,.19,1,2.53,2.53,0,0,1-.13.83,2.29,2.29,0,0,1-.37.71,2.48,2.48,0,0,1-.6.56,3.36,3.36,0,0,1-.81.38,1.67,1.67,0,0,1,.53.5l2.17,3.2h-1.46a.75.75,0,0,1-.35-.08.82.82,0,0,1-.25-.24l-1.83-2.78a.58.58,0,0,0-.22-.22.7.7,0,0,0-.36-.07Zm0-1.16h1a2.42,2.42,0,0,0,.8-.11,1.67,1.67,0,0,0,.56-.31,1.39,1.39,0,0,0,.32-.48,1.54,1.54,0,0,0,.11-.61,1.21,1.21,0,0,0-.43-1,2.07,2.07,0,0,0-1.33-.35h-1Z"/><path d="M512.24,550.16a2.87,2.87,0,0,1,1.07.19,2.17,2.17,0,0,1,.84.54,2.44,2.44,0,0,1,.55.87,3.2,3.2,0,0,1,.2,1.19,2.35,2.35,0,0,1,0,.28.38.38,0,0,1-.06.17.15.15,0,0,1-.1.09.43.43,0,0,1-.17,0h-3.8a2.07,2.07,0,0,0,.51,1.39,1.55,1.55,0,0,0,1.17.45,1.89,1.89,0,0,0,.62-.09,3,3,0,0,0,.46-.18l.34-.19a.53.53,0,0,1,.29-.08.33.33,0,0,1,.15,0,.58.58,0,0,1,.12.1l.43.54a2.52,2.52,0,0,1-.55.49,3.42,3.42,0,0,1-.64.31,3.2,3.2,0,0,1-.68.16,3.85,3.85,0,0,1-.67,0,3.27,3.27,0,0,1-1.19-.21,2.59,2.59,0,0,1-1-.63,2.92,2.92,0,0,1-.65-1,4.16,4.16,0,0,1-.23-1.43,3.52,3.52,0,0,1,.2-1.18,3,3,0,0,1,.59-1,2.73,2.73,0,0,1,.93-.65A3.08,3.08,0,0,1,512.24,550.16Zm0,1.06a1.38,1.38,0,0,0-1,.37,1.83,1.83,0,0,0-.46,1h2.78a1.92,1.92,0,0,0-.08-.55,1.11,1.11,0,0,0-.24-.44,1.09,1.09,0,0,0-.41-.31A1.41,1.41,0,0,0,512.27,551.22Z"/><path d="M518.24,550.15a3,3,0,0,1,.74.08,2.23,2.23,0,0,1,.64.24h1.77V551a.38.38,0,0,1-.07.22.45.45,0,0,1-.25.1l-.55.1a2,2,0,0,1,.09.33,2.22,2.22,0,0,1,0,.37,1.9,1.9,0,0,1-.18.83,1.88,1.88,0,0,1-.5.62,2.4,2.4,0,0,1-.76.4,3.32,3.32,0,0,1-1,.14,3.82,3.82,0,0,1-.68-.06.49.49,0,0,0-.29.39.31.31,0,0,0,.17.28,2.07,2.07,0,0,0,.45.12,5.92,5.92,0,0,0,.64,0c.23,0,.47,0,.72,0a5.84,5.84,0,0,1,.73.11,2.06,2.06,0,0,1,.63.24,1.19,1.19,0,0,1,.45.44,1.33,1.33,0,0,1,.17.72,1.6,1.6,0,0,1-.2.79,2.1,2.1,0,0,1-.58.69,3.27,3.27,0,0,1-.93.49,4.08,4.08,0,0,1-1.26.18,4.82,4.82,0,0,1-1.22-.14,2.85,2.85,0,0,1-.86-.36,1.61,1.61,0,0,1-.5-.51,1.19,1.19,0,0,1-.17-.62,1,1,0,0,1,.26-.72,1.74,1.74,0,0,1,.73-.47,1.07,1.07,0,0,1-.36-.34,1,1,0,0,1-.09-.83,1.38,1.38,0,0,1,.39-.56,1.31,1.31,0,0,1,.36-.23,2,2,0,0,1-.74-.68,2,2,0,0,1-.08-1.8,1.73,1.73,0,0,1,.51-.63,2.26,2.26,0,0,1,.77-.4A3.1,3.1,0,0,1,518.24,550.15Zm1.62,6.52a.44.44,0,0,0-.1-.3.69.69,0,0,0-.3-.18,3.45,3.45,0,0,0-.43-.1,4.52,4.52,0,0,0-.53,0h-.58a2.69,2.69,0,0,1-.57-.07,1.31,1.31,0,0,0-.4.32.66.66,0,0,0-.16.44.61.61,0,0,0,.08.3.7.7,0,0,0,.26.25,1.88,1.88,0,0,0,.46.16,4.44,4.44,0,0,0,.69,0,3.62,3.62,0,0,0,.71-.06,1.81,1.81,0,0,0,.5-.18.81.81,0,0,0,.28-.27A.67.67,0,0,0,519.86,556.67Zm-1.62-3.49a1.43,1.43,0,0,0,.48-.07,1,1,0,0,0,.34-.21.7.7,0,0,0,.2-.32,1.05,1.05,0,0,0,.07-.4,1,1,0,0,0-.27-.73,1.17,1.17,0,0,0-.82-.26,1.15,1.15,0,0,0-.82.26,1,1,0,0,0-.27.73,1.09,1.09,0,0,0,.07.4.83.83,0,0,0,.2.32.89.89,0,0,0,.34.21A1.43,1.43,0,0,0,518.24,553.18Z"/><path d="M524.12,548.46a.86.86,0,0,1-.08.36,1,1,0,0,1-.21.3.93.93,0,0,1-.3.2.94.94,0,0,1-.37.07.86.86,0,0,1-.36-.07.93.93,0,0,1-.3-.2,1,1,0,0,1-.2-.3.86.86,0,0,1-.08-.36,1,1,0,0,1,.08-.37.88.88,0,0,1,.2-.3.93.93,0,0,1,.3-.2.86.86,0,0,1,.36-.08,1,1,0,0,1,.37.08.93.93,0,0,1,.3.2.9.9,0,0,1,.21.3A1,1,0,0,1,524.12,548.46Zm-.22,1.8v6.15h-1.49v-6.15Z"/><path d="M529.22,551.46a.38.38,0,0,1-.12.13.31.31,0,0,1-.17,0,.53.53,0,0,1-.23-.06l-.29-.13a2.46,2.46,0,0,0-.36-.14,1.83,1.83,0,0,0-.49-.06,1.07,1.07,0,0,0-.69.19.56.56,0,0,0-.26.48.49.49,0,0,0,.13.33,1.19,1.19,0,0,0,.35.24,2.67,2.67,0,0,0,.48.18l.55.18.55.22a2.26,2.26,0,0,1,.49.31,1.57,1.57,0,0,1,.34.46,1.47,1.47,0,0,1,.13.63,2,2,0,0,1-.17.82,1.67,1.67,0,0,1-.47.65,2.38,2.38,0,0,1-.77.43,3.41,3.41,0,0,1-1.05.15,3.11,3.11,0,0,1-.62-.06,3.65,3.65,0,0,1-.59-.16,2.38,2.38,0,0,1-.51-.24,2.25,2.25,0,0,1-.42-.3l.34-.56a.61.61,0,0,1,.16-.16.49.49,0,0,1,.23,0,.42.42,0,0,1,.26.08l.28.16a2.7,2.7,0,0,0,.38.17,1.75,1.75,0,0,0,.56.08,1.49,1.49,0,0,0,.45-.06.83.83,0,0,0,.31-.17.51.51,0,0,0,.18-.24.66.66,0,0,0,.06-.27.48.48,0,0,0-.13-.36,1.14,1.14,0,0,0-.34-.24,3.4,3.4,0,0,0-.49-.18l-.55-.18a5.42,5.42,0,0,1-.56-.22,2.11,2.11,0,0,1-.49-.33,1.54,1.54,0,0,1-.34-.48,1.68,1.68,0,0,1-.13-.7,1.79,1.79,0,0,1,.15-.72,1.73,1.73,0,0,1,.44-.6,2.24,2.24,0,0,1,.73-.41,3.35,3.35,0,0,1,2.16.06,2.54,2.54,0,0,1,.87.55Z"/><path d="M532.84,556.51a1.6,1.6,0,0,1-1.23-.45,1.76,1.76,0,0,1-.44-1.26v-3.43h-.62a.32.32,0,0,1-.21-.08.33.33,0,0,1-.08-.24v-.58l1-.17.31-1.68a.25.25,0,0,1,.11-.18.38.38,0,0,1,.22-.07h.77v1.94h1.62v1.06h-1.62v3.33a.62.62,0,0,0,.14.45.49.49,0,0,0,.38.17.8.8,0,0,0,.24,0l.16-.07.12-.07a.23.23,0,0,1,.11,0,.2.2,0,0,1,.11,0l.09.1.44.72a2.23,2.23,0,0,1-.74.41A2.83,2.83,0,0,1,532.84,556.51Z"/><path d="M535.46,556.41v-6.15h.87a.46.46,0,0,1,.32.08.49.49,0,0,1,.12.29l.09.74a2.86,2.86,0,0,1,.77-.9,1.64,1.64,0,0,1,1-.33,1.28,1.28,0,0,1,.75.21l-.19,1.11a.27.27,0,0,1-.08.16.25.25,0,0,1-.16,0,1,1,0,0,1-.25,0,1.53,1.53,0,0,0-.41,0,1.24,1.24,0,0,0-.79.25,1.94,1.94,0,0,0-.56.75v3.83Z"/><path d="M545,556.41h-.67a.75.75,0,0,1-.33-.06.41.41,0,0,1-.18-.26l-.13-.43a5,5,0,0,1-.46.37,3,3,0,0,1-.46.26,2.16,2.16,0,0,1-.51.16,2.77,2.77,0,0,1-.6.06,2.36,2.36,0,0,1-.72-.11,1.57,1.57,0,0,1-.57-.31,1.45,1.45,0,0,1-.37-.53,1.83,1.83,0,0,1-.13-.73,1.41,1.41,0,0,1,.18-.68,1.8,1.8,0,0,1,.61-.62,4,4,0,0,1,1.14-.45,7.18,7.18,0,0,1,1.75-.18v-.37a1.35,1.35,0,0,0-.26-.92.94.94,0,0,0-.76-.3,1.72,1.72,0,0,0-.6.09,2.65,2.65,0,0,0-.41.18l-.33.19a.63.63,0,0,1-.33.09.45.45,0,0,1-.26-.08.61.61,0,0,1-.17-.19l-.27-.48a3.69,3.69,0,0,1,2.56-1,2.42,2.42,0,0,1,1,.18,2,2,0,0,1,.72.49,2,2,0,0,1,.45.76,2.91,2.91,0,0,1,.15.95Zm-2.88-.92a1.87,1.87,0,0,0,.42,0,1.4,1.4,0,0,0,.36-.13,1.38,1.38,0,0,0,.33-.2,2.15,2.15,0,0,0,.32-.29v-1a6.45,6.45,0,0,0-1.08.08,3.48,3.48,0,0,0-.7.21,1,1,0,0,0-.37.3.6.6,0,0,0-.11.37.63.63,0,0,0,.23.56A1,1,0,0,0,542.13,555.49Z"/><path d="M548.49,556.51a1.63,1.63,0,0,1-1.23-.45,1.75,1.75,0,0,1-.43-1.26v-3.43h-.63a.29.29,0,0,1-.29-.32v-.58l1-.17.31-1.68a.33.33,0,0,1,.11-.18.38.38,0,0,1,.22-.07h.77v1.94h1.62v1.06h-1.62v3.33a.67.67,0,0,0,.14.45.51.51,0,0,0,.39.17.73.73,0,0,0,.23,0,.59.59,0,0,0,.16-.07l.13-.07a.19.19,0,0,1,.1,0,.18.18,0,0,1,.11,0,.45.45,0,0,1,.09.1l.45.72a2.28,2.28,0,0,1-.75.41A2.83,2.83,0,0,1,548.49,556.51Z"/><path d="M552.91,548.46a.86.86,0,0,1-.07.36,1.61,1.61,0,0,1-.21.3,1.1,1.1,0,0,1-.31.2.87.87,0,0,1-.37.07.86.86,0,0,1-.36-.07.92.92,0,0,1-.5-.5.86.86,0,0,1-.07-.36.94.94,0,0,1,.07-.37,1,1,0,0,1,.2-.3,1.21,1.21,0,0,1,.3-.2.86.86,0,0,1,.36-.08.87.87,0,0,1,.37.08,1.1,1.1,0,0,1,.31.2,1.34,1.34,0,0,1,.21.3A.94.94,0,0,1,552.91,548.46Zm-.22,1.8v6.15h-1.48v-6.15Z"/><path d="M557,550.16a3.52,3.52,0,0,1,1.25.22,2.67,2.67,0,0,1,1,.63,2.8,2.8,0,0,1,.61,1,4,4,0,0,1,0,2.63,2.94,2.94,0,0,1-.61,1,2.67,2.67,0,0,1-1,.63,3.66,3.66,0,0,1-2.5,0,2.67,2.67,0,0,1-1-.63,2.81,2.81,0,0,1-.62-1,4,4,0,0,1,0-2.63,2.69,2.69,0,0,1,1.58-1.63A3.52,3.52,0,0,1,557,550.16Zm0,5.2a1.32,1.32,0,0,0,1.14-.51,2.58,2.58,0,0,0,.37-1.52,2.55,2.55,0,0,0-.37-1.51,1.5,1.5,0,0,0-2.29,0,3.27,3.27,0,0,0,0,3A1.31,1.31,0,0,0,557,555.36Z"/><path d="M561.19,556.41v-6.15h.9a.37.37,0,0,1,.38.27l.1.48a4.36,4.36,0,0,1,.4-.35,2.34,2.34,0,0,1,.43-.26,2.13,2.13,0,0,1,.5-.18,2.56,2.56,0,0,1,.57-.06,2.29,2.29,0,0,1,.9.17,1.87,1.87,0,0,1,.65.48,2.19,2.19,0,0,1,.4.74,3.1,3.1,0,0,1,.13.94v3.92h-1.48v-3.92a1.35,1.35,0,0,0-.26-.87,1,1,0,0,0-.79-.31,1.54,1.54,0,0,0-.72.18,2.46,2.46,0,0,0-.63.47v4.45Z"/><path d="M570.41,556.41v-8.67h3a5.61,5.61,0,0,1,1.46.16,2.84,2.84,0,0,1,1,.46,1.73,1.73,0,0,1,.56.73,2.42,2.42,0,0,1,.18,1,1.85,1.85,0,0,1-.09.58,1.72,1.72,0,0,1-.27.52,2,2,0,0,1-.48.44,2.68,2.68,0,0,1-.7.34c1.19.27,1.79.91,1.79,1.93a2.45,2.45,0,0,1-.21,1,2.28,2.28,0,0,1-.61.81,3.11,3.11,0,0,1-1,.53,4.27,4.27,0,0,1-1.35.19Zm1.61-4.92h1.29a2.16,2.16,0,0,0,1.25-.3,1.1,1.1,0,0,0,.43-1,1.13,1.13,0,0,0-.39-1,2,2,0,0,0-1.2-.28H572Zm0,1.12v2.54h1.64a2,2,0,0,0,.75-.11,1.22,1.22,0,0,0,.49-.28,1,1,0,0,0,.26-.42,1.44,1.44,0,0,0,.08-.51,1.36,1.36,0,0,0-.09-.51.88.88,0,0,0-.28-.38,1.33,1.33,0,0,0-.49-.25,3,3,0,0,0-.73-.08Z"/><path d="M580.77,550.16a3.52,3.52,0,0,1,1.25.22,2.76,2.76,0,0,1,1,.63,2.8,2.8,0,0,1,.61,1,4,4,0,0,1,0,2.63,2.94,2.94,0,0,1-.61,1,2.76,2.76,0,0,1-1,.63,3.66,3.66,0,0,1-2.5,0,2.81,2.81,0,0,1-1-.63,2.94,2.94,0,0,1-.61-1,4,4,0,0,1,0-2.63,2.63,2.63,0,0,1,1.58-1.63A3.52,3.52,0,0,1,580.77,550.16Zm0,5.2a1.32,1.32,0,0,0,1.14-.51,2.66,2.66,0,0,0,.37-1.52,2.63,2.63,0,0,0-.37-1.51,1.5,1.5,0,0,0-2.29,0,3.27,3.27,0,0,0,0,3A1.31,1.31,0,0,0,580.77,555.36Z"/><path d="M587.59,550.16a3.52,3.52,0,0,1,1.25.22,2.67,2.67,0,0,1,1,.63,2.8,2.8,0,0,1,.61,1,4,4,0,0,1,0,2.63,2.94,2.94,0,0,1-.61,1,2.67,2.67,0,0,1-1,.63,3.66,3.66,0,0,1-2.5,0,2.67,2.67,0,0,1-1-.63,2.81,2.81,0,0,1-.62-1,4,4,0,0,1,0-2.63,2.69,2.69,0,0,1,1.58-1.63A3.52,3.52,0,0,1,587.59,550.16Zm0,5.2a1.32,1.32,0,0,0,1.14-.51,2.58,2.58,0,0,0,.37-1.52,2.55,2.55,0,0,0-.37-1.51,1.5,1.5,0,0,0-2.29,0,3.27,3.27,0,0,0,0,3A1.31,1.31,0,0,0,587.59,555.36Z"/><path d="M593.81,556.51a1.63,1.63,0,0,1-1.23-.45,1.75,1.75,0,0,1-.43-1.26v-3.43h-.63a.32.32,0,0,1-.21-.08.33.33,0,0,1-.08-.24v-.58l1-.17.31-1.68a.28.28,0,0,1,.11-.18.38.38,0,0,1,.22-.07h.77v1.94h1.62v1.06h-1.62v3.33a.67.67,0,0,0,.14.45.51.51,0,0,0,.39.17.79.79,0,0,0,.23,0l.16-.07.12-.07a.23.23,0,0,1,.11,0,.2.2,0,0,1,.11,0,.45.45,0,0,1,.09.1l.44.72a2.14,2.14,0,0,1-.74.41A2.83,2.83,0,0,1,593.81,556.51Z"/><path d="M596.43,556.41V547.5h1.48v3.42a3.21,3.21,0,0,1,.79-.55,2.32,2.32,0,0,1,1-.21,2.28,2.28,0,0,1,.89.17,1.87,1.87,0,0,1,.65.48,2,2,0,0,1,.4.74,3.1,3.1,0,0,1,.13.94v3.92h-1.48v-3.92a1.35,1.35,0,0,0-.26-.87.94.94,0,0,0-.78-.31,1.48,1.48,0,0,0-.72.18,2.34,2.34,0,0,0-.64.47v4.45Z"/><path class="cls-8" d="M495.57,547.25v-2.41H467.85v2.41a1.21,1.21,0,0,1,0,2.41v2.41a1.21,1.21,0,0,1,0,2.41v2.41a1.21,1.21,0,0,1,0,2.42v2.41h27.72v-2.41a1.21,1.21,0,0,1,0-2.42v-2.41a1.21,1.21,0,1,1,0-2.41v-2.41a1.21,1.21,0,1,1,0-2.41Z"/><path class="cls-9" d="M493.29,557a1.21,1.21,0,1,1,0-2.41V552.2a1.21,1.21,0,1,1,0-2.41v-2.41a1.21,1.21,0,1,1,0-2.41v-2.41H465.57V545a1.21,1.21,0,0,1,0,2.41v2.41a1.21,1.21,0,0,1,0,2.41v2.41a1.21,1.21,0,0,1,0,2.42v2.41h27.72Z"/><line class="cls-9" x1="472.2" y1="547.38" x2="472.2" y2="554.61"/><line class="cls-9" x1="478.82" y1="547.38" x2="478.82" y2="554.61"/><line class="cls-9" x1="481.23" y1="547.38" x2="481.23" y2="554.61"/><line class="cls-9" x1="474.61" y1="547.38" x2="474.61" y2="554.61"/><line class="cls-9" x1="477.02" y1="547.38" x2="477.02" y2="554.61"/><line class="cls-9" x1="487.26" y1="546.78" x2="487.26" y2="550.4"/><line class="cls-9" x1="487.26" y1="542.56" x2="487.26" y2="545.58"/><line class="cls-9" x1="487.26" y1="551.6" x2="487.26" y2="555.22"/><line class="cls-9" x1="487.26" y1="556.42" x2="487.26" y2="559.44"/><path class="cls-6" d="M432,431.31a4.33,4.33,0,0,0,.1.95,4.26,4.26,0,0,0,.28.78h1.57V432a.35.35,0,0,1,.09-.25.29.29,0,0,1,.21-.09h.92v2.89h-3.51a4.89,4.89,0,0,1-.42-.69,3.85,3.85,0,0,1-.29-.76,4.62,4.62,0,0,1-.17-.87,7.63,7.63,0,0,1-.06-1,4.55,4.55,0,0,1,.33-1.75,4.12,4.12,0,0,1,2.32-2.29,4.73,4.73,0,0,1,1.78-.32,5,5,0,0,1,1.8.31,4.18,4.18,0,0,1,1.4.91,3.94,3.94,0,0,1,.91,1.42,5,5,0,0,1,.33,1.87,4.88,4.88,0,0,1-.32,1.84,4.11,4.11,0,0,1-.82,1.31l-.73-.46a.43.43,0,0,1-.22-.37.48.48,0,0,1,.1-.29c.07-.13.15-.26.22-.4a2,2,0,0,0,.2-.44,3.57,3.57,0,0,0,.19-1.25,3.11,3.11,0,0,0-.21-1.16,2.51,2.51,0,0,0-.62-.88,2.83,2.83,0,0,0-1-.57,3.79,3.79,0,0,0-1.26-.19,3.91,3.91,0,0,0-1.33.21,2.85,2.85,0,0,0-1,.58,2.61,2.61,0,0,0-.61.9A2.86,2.86,0,0,0,432,431.31Z"/><path class="cls-6" d="M432.1,439.5a2.16,2.16,0,0,0,.15.83,1.79,1.79,0,0,0,.44.63,1.94,1.94,0,0,0,.69.39,2.75,2.75,0,0,0,.9.13h5.19v1.62h-5.19a4.19,4.19,0,0,1-1.44-.25,3.41,3.41,0,0,1-1.13-.72A3.13,3.13,0,0,1,431,441a4,4,0,0,1-.27-1.5A3.93,3.93,0,0,1,431,438a3,3,0,0,1,.74-1.13,3.41,3.41,0,0,1,1.13-.72,4.19,4.19,0,0,1,1.44-.25h5.19v1.62h-5.19a2.84,2.84,0,0,0-.9.13,1.81,1.81,0,0,0-.68.39,1.65,1.65,0,0,0-.45.62A2.24,2.24,0,0,0,432.1,439.5Z"/><path class="cls-6" d="M439.47,450.21h-1.28v-3.84h-2.41v3h-1.24v-3h-2.45v3.84H430.8v-5.47h8.67Z"/><path class="cls-6" d="M437.89,456.26a.39.39,0,0,1-.18-.15.37.37,0,0,1-.06-.21.48.48,0,0,1,.1-.27l.2-.35a2.67,2.67,0,0,0,.21-.48,2.08,2.08,0,0,0,.09-.65,1.73,1.73,0,0,0-.08-.58,1.19,1.19,0,0,0-.22-.42.87.87,0,0,0-.35-.25,1,1,0,0,0-.44-.09.8.8,0,0,0-.51.17,1.69,1.69,0,0,0-.35.46,3.89,3.89,0,0,0-.25.64c-.08.24-.16.48-.25.73a5.21,5.21,0,0,1-.3.74,2.32,2.32,0,0,1-.43.64,1.85,1.85,0,0,1-.64.45,2.13,2.13,0,0,1-.92.17,2.87,2.87,0,0,1-1.1-.2,2.43,2.43,0,0,1-.89-.59,2.53,2.53,0,0,1-.6-.94,3.4,3.4,0,0,1-.22-1.28,4.36,4.36,0,0,1,.08-.81,5,5,0,0,1,.23-.78,4.52,4.52,0,0,1,.36-.69,3.75,3.75,0,0,1,.47-.57l.77.47a.43.43,0,0,1,.14.16.36.36,0,0,1,.06.2.58.58,0,0,1-.12.33l-.27.41a2.92,2.92,0,0,0-.28.56,2.18,2.18,0,0,0-.12.77,1.57,1.57,0,0,0,.33,1.07,1.17,1.17,0,0,0,.94.38.83.83,0,0,0,.55-.18,1.28,1.28,0,0,0,.37-.45,4.27,4.27,0,0,0,.25-.64c.06-.24.14-.48.22-.73a5,5,0,0,1,.29-.73,2.23,2.23,0,0,1,.43-.65,2.07,2.07,0,0,1,.68-.45,2.64,2.64,0,0,1,1-.17,2.41,2.41,0,0,1,1.72.74,2.76,2.76,0,0,1,.56.89,3.27,3.27,0,0,1,.21,1.21,4,4,0,0,1-.24,1.41,3.33,3.33,0,0,1-.67,1.11Z"/><path class="cls-6" d="M439.47,464.16h-1.32v-2.61H430.8v-1.61h7.35v-2.62h1.32Z"/><path class="cls-6" d="M432.13,469.12v3.47H430.8v-5.08h8.67v1.61Z"/><path class="cls-6" d="M435.13,481.55a4.63,4.63,0,0,1-1.76-.32,4.28,4.28,0,0,1-1.41-.89A4,4,0,0,1,431,479a4.68,4.68,0,0,1-.33-1.79,4.73,4.73,0,0,1,.33-1.8A4,4,0,0,1,432,474a4.15,4.15,0,0,1,1.41-.9,5,5,0,0,1,3.53,0,4.15,4.15,0,0,1,1.41.9,4.35,4.35,0,0,1,.93,1.39,4.73,4.73,0,0,1,.33,1.8,4.5,4.5,0,0,1-.34,1.79,4,4,0,0,1-.93,1.39,4.14,4.14,0,0,1-1.4.89A4.64,4.64,0,0,1,435.13,481.55Zm0-1.65a4.27,4.27,0,0,0,1.29-.19,2.84,2.84,0,0,0,1-.55,2.3,2.3,0,0,0,.6-.86,3,3,0,0,0,.21-1.14A3,3,0,0,0,438,476a2.3,2.3,0,0,0-.6-.86,2.84,2.84,0,0,0-1-.55,4.23,4.23,0,0,0-2.57,0,2.74,2.74,0,0,0-1,.55,2.3,2.3,0,0,0-.6.86,3,3,0,0,0-.21,1.15,3,3,0,0,0,.21,1.14,2.3,2.3,0,0,0,.6.86,2.74,2.74,0,0,0,1,.55A4.25,4.25,0,0,0,435.13,479.9Z"/><path class="cls-6" d="M430.8,482.82h8.67v3a5.53,5.53,0,0,1-.16,1.45,2.84,2.84,0,0,1-.46,1,1.76,1.76,0,0,1-.73.57,2.42,2.42,0,0,1-1,.18,1.85,1.85,0,0,1-.58-.09,1.69,1.69,0,0,1-.53-.28,2.56,2.56,0,0,1-.44-.48,2.77,2.77,0,0,1-.33-.69c-.27,1.19-.91,1.79-1.93,1.79a2.45,2.45,0,0,1-1-.21,2.34,2.34,0,0,1-.81-.62,2.83,2.83,0,0,1-.53-1,4.25,4.25,0,0,1-.19-1.34Zm3.8,1.62h-2.54v1.63a2.33,2.33,0,0,0,.1.76,1.4,1.4,0,0,0,.29.48,1,1,0,0,0,.42.27,1.7,1.7,0,0,0,.51.08,1.36,1.36,0,0,0,.51-.09,1,1,0,0,0,.38-.28,1.42,1.42,0,0,0,.25-.49,3.07,3.07,0,0,0,.08-.73Zm1.12,0v1.29A2.18,2.18,0,0,0,436,487a1.08,1.08,0,0,0,1,.42,1.17,1.17,0,0,0,1-.38,2,2,0,0,0,.28-1.2v-1.38Z"/><path class="cls-6" d="M430.8,490.64h8.67v3a5.58,5.58,0,0,1-.16,1.45,2.84,2.84,0,0,1-.46,1,1.76,1.76,0,0,1-.73.57,2.42,2.42,0,0,1-1,.18,1.85,1.85,0,0,1-.58-.09,1.93,1.93,0,0,1-.53-.28,2.56,2.56,0,0,1-.44-.48,3,3,0,0,1-.33-.7c-.27,1.2-.91,1.79-1.93,1.79a2.45,2.45,0,0,1-1-.21,2.2,2.2,0,0,1-.81-.61,2.93,2.93,0,0,1-.53-1,4.25,4.25,0,0,1-.19-1.34Zm3.8,1.62h-2.54v1.63a2.41,2.41,0,0,0,.1.76,1.4,1.4,0,0,0,.29.48,1.17,1.17,0,0,0,.42.27,1.7,1.7,0,0,0,.51.08,1.36,1.36,0,0,0,.51-.09,1,1,0,0,0,.38-.28,1.38,1.38,0,0,0,.25-.5,3,3,0,0,0,.08-.72Zm1.12,0v1.28a2.16,2.16,0,0,0,.3,1.25,1.06,1.06,0,0,0,1,.43,1.14,1.14,0,0,0,1-.39,2,2,0,0,0,.28-1.19v-1.38Z"/><path class="cls-6" d="M434.17,502.32H430.8V500.7h3.37l5.3-3.16V499a.53.53,0,0,1-.1.34.75.75,0,0,1-.26.2l-2.9,1.59a3.15,3.15,0,0,1-.49.24l-.45.19a4.37,4.37,0,0,1,.46.18,4.15,4.15,0,0,1,.48.23l2.9,1.58a.92.92,0,0,1,.25.2.52.52,0,0,1,.11.33v1.43Z"/><path class="cls-8" d="M609.06,594.3l-2-5.83a1.08,1.08,0,0,0-1-.66h-4.15l-2.16-6.49h10.94c1.86,0,3.29.65,3.88,2.42l3.64,10.56"/><path class="cls-9" d="M597,605.92a26.94,26.94,0,0,0,2.77-.57c.49-.2.88-.57.63-1.05a4,4,0,0,1-.6-1.46c.09-.29.56-.37,1.68-1a1.46,1.46,0,0,0,.53-2.27c-.45-.7-3.47-4.62-3.55-5.82,0-.42.1-1.2.11-2.32"/><path class="cls-9" d="M584.41,607.74c1,2.09,2.36,4.21,3,4.41,1.25.4,8.12,1.81,10,1.1s1.66-1.64,1.66-2.64-.62-1.09-.07-2.4"/><path class="cls-9" d="M582.21,604.41c-1.25-.47-5-1.78-5-4.09v-3.24a2.05,2.05,0,0,1,2.16-2.17c1.15,0,2,0,2.7,1.09l1.63,1v-2.66c0-1.8-.54-4.06,2.78-5.13,1.88-.88,3.94-3.35,3-5.68,1.72-.54,5.59-4.17,5.59-7H581.52a29,29,0,0,0-4.27.38"/><polyline class="cls-9" points="594.53 613.39 590.4 616.71 588.1 621.93"/><path class="cls-9" d="M607.1,593.83l-2-5.83a1.09,1.09,0,0,0-1-.66h-4.15l-2.16-6.49h10.94c1.86,0,3.29.65,3.88,2.42l3.64,10.56"/><path class="cls-9" d="M624.78,604.65h-2.7l-1.23,1.23a3.18,3.18,0,0,1-2.25.93h-9.35a2.16,2.16,0,0,1-2.12-1.74l-1.84-8.65a2.17,2.17,0,0,1,2.12-2.59h9.8"/><path class="cls-9" d="M614.72,589.51h3.14a3.24,3.24,0,0,1,2.49,1.16l1.73,2.08h2.7"/><polyline class="cls-9" points="626.95 606.81 624.78 606.81 624.78 591.67 626.95 591.67"/><polyline class="cls-9" points="613.23 585.18 608.02 585.18 610.18 590.59 610.72 590.59"/><path class="cls-10" d="M561.25,606.5l8.83-8.83a2.48,2.48,0,0,0,0-3.4l-8.83-8.83a2.4,2.4,0,0,0-3.4,3.4l4.73,4.73H537.05a2.4,2.4,0,0,0,0,4.8h25.53l-4.73,4.73a2.4,2.4,0,0,0,3.4,3.4Z"/><path class="cls-11" d="M561.25,606.5l8.83-8.83a2.48,2.48,0,0,0,0-3.4l-8.83-8.83a2.4,2.4,0,0,0-3.4,3.4l4.73,4.73H537.05a2.4,2.4,0,0,0,0,4.8h25.53l-4.73,4.73a2.4,2.4,0,0,0,3.4,3.4Z"/><path class="cls-10" d="M445.48,223l-8.83,8.83a2.47,2.47,0,0,0,0,3.39l8.83,8.83a2.4,2.4,0,1,0,3.4-3.39l-4.73-4.74h25.53a2.4,2.4,0,0,0,0-4.8H444.15l4.73-4.73a2.4,2.4,0,0,0-3.4-3.39Z"/><path class="cls-11" d="M445.48,223l-8.83,8.83a2.47,2.47,0,0,0,0,3.39l8.83,8.83a2.4,2.4,0,1,0,3.4-3.39l-4.73-4.74h25.53a2.4,2.4,0,0,0,0-4.8H444.15l4.73-4.73a2.4,2.4,0,0,0-3.4-3.39Z"/><rect class="cls-12" x="3" y="316.61" width="129.71" height="55.85"/><rect class="cls-8" x="426.81" y="638.55" width="20.69" height="24.92" rx="2"/><line class="cls-9" x1="430.63" y1="648.36" x2="430.63" y2="658.85"/><line class="cls-9" x1="434.51" y1="648.36" x2="434.51" y2="658.85"/><path class="cls-9" d="M437.1,651.64V647.7c0-1.59-2.3-2.62-4.53-2.62s-4.52,1-4.52,2.62v3.94"/><rect class="cls-9" x="424.81" y="636.55" width="20.69" height="24.92" rx="2"/><line class="cls-9" x1="440.33" y1="642.45" x2="442.92" y2="642.45"/><line class="cls-9" x1="440.33" y1="645.73" x2="442.92" y2="645.73"/><line class="cls-9" x1="440.33" y1="649.01" x2="442.92" y2="649.01"/><line class="cls-9" x1="440.33" y1="652.29" x2="442.92" y2="652.29"/><line class="cls-9" x1="435.16" y1="636.55" x2="435.16" y2="633.93"/><line class="cls-9" x1="435.16" y1="664.1" x2="435.16" y2="661.47"/><ellipse class="cls-9" cx="432.57" cy="641.14" rx="1.94" ry="1.97"/><rect class="cls-8" x="537.24" y="638.55" width="20.69" height="24.92" rx="2"/><line class="cls-9" x1="541.06" y1="648.36" x2="541.06" y2="658.85"/><line class="cls-9" x1="544.94" y1="648.36" x2="544.94" y2="658.85"/><path class="cls-9" d="M547.52,651.64V647.7c0-1.59-2.3-2.62-4.52-2.62s-4.53,1-4.53,2.62v3.94"/><rect class="cls-9" x="535.24" y="636.55" width="20.69" height="24.92" rx="2"/><line class="cls-9" x1="550.76" y1="642.45" x2="553.34" y2="642.45"/><line class="cls-9" x1="550.76" y1="645.73" x2="553.34" y2="645.73"/><line class="cls-9" x1="550.76" y1="649.01" x2="553.34" y2="649.01"/><line class="cls-9" x1="550.76" y1="652.29" x2="553.34" y2="652.29"/><line class="cls-9" x1="545.58" y1="636.55" x2="545.58" y2="633.93"/><line class="cls-9" x1="545.58" y1="664.1" x2="545.58" y2="661.47"/><ellipse class="cls-9" cx="543" cy="641.14" rx="1.94" ry="1.97"/><path d="M463.05,644.15v1.6h-4.79v3H462v1.54h-3.78v3.06h4.79V655h-6.81V644.15Z"/><path d="M466.81,653.3h4.32V655H464.8V644.15h2Z"/><path d="M479.34,644.15v1.6h-4.79v3h3.77v1.54h-3.77v3.06h4.79V655h-6.82V644.15Z"/><path d="M480,644.15h1.62a.64.64,0,0,1,.42.13.7.7,0,0,1,.25.33l2.54,6.59a5.72,5.72,0,0,1,.24.7c.08.26.15.53.22.81a9.81,9.81,0,0,1,.43-1.51l2.53-6.59a.9.9,0,0,1,.24-.32.69.69,0,0,1,.43-.14h1.62L486.2,655h-1.82Z"/><path d="M499.92,655h-1.55a.65.65,0,0,1-.43-.14.7.7,0,0,1-.24-.32l-.81-2.2h-4.48l-.8,2.2a.69.69,0,0,1-.24.31.64.64,0,0,1-.43.15h-1.56l4.24-10.81h2.06Zm-7-4.08h3.44l-1.31-3.6c-.06-.16-.13-.35-.2-.56s-.14-.45-.21-.71c-.07.26-.14.49-.21.71s-.13.41-.2.58Z"/><path d="M507.55,644.15v1.65H504.3V655h-2V645.8H499v-1.65Z"/><path d="M518.61,649.55a5.82,5.82,0,0,1-.4,2.2,5.17,5.17,0,0,1-1.11,1.76,5.09,5.09,0,0,1-1.73,1.15,5.72,5.72,0,0,1-2.23.41,5.8,5.8,0,0,1-2.24-.41,5.19,5.19,0,0,1-1.73-1.15,5.35,5.35,0,0,1-1.12-1.76,6,6,0,0,1-.39-2.2,6.1,6.1,0,0,1,.39-2.2,5.3,5.3,0,0,1,1.12-1.75,5,5,0,0,1,1.73-1.15,5.8,5.8,0,0,1,2.24-.42,5.72,5.72,0,0,1,2.23.42,5.09,5.09,0,0,1,1.73,1.15,5.22,5.22,0,0,1,1.11,1.75A5.89,5.89,0,0,1,518.61,649.55Zm-2.06,0a4.92,4.92,0,0,0-.24-1.59,3.34,3.34,0,0,0-.67-1.2,3.07,3.07,0,0,0-1.08-.76,3.74,3.74,0,0,0-1.42-.26,3.83,3.83,0,0,0-1.43.26,3.07,3.07,0,0,0-1.08.76A3.51,3.51,0,0,0,510,648a5.42,5.42,0,0,0,0,3.19,3.37,3.37,0,0,0,.68,1.19,3.07,3.07,0,0,0,1.08.76,3.83,3.83,0,0,0,1.43.26,3.74,3.74,0,0,0,1.42-.26,3.07,3.07,0,0,0,1.08-.76,3.21,3.21,0,0,0,.67-1.19A4.94,4.94,0,0,0,516.55,649.55Z"/><path d="M522.27,650.73V655h-2V644.15h3.3a6.93,6.93,0,0,1,1.89.23,3.39,3.39,0,0,1,1.29.64,2.35,2.35,0,0,1,.74,1,3.22,3.22,0,0,1,.24,1.26,3.17,3.17,0,0,1-.16,1,3.08,3.08,0,0,1-.46.88,3.34,3.34,0,0,1-.75.7,4.09,4.09,0,0,1-1,.48,1.91,1.91,0,0,1,.65.62l2.71,4h-1.81a.94.94,0,0,1-.45-.11,1,1,0,0,1-.31-.3l-2.27-3.46a.66.66,0,0,0-.28-.27.89.89,0,0,0-.45-.09Zm0-1.44h1.26a3.24,3.24,0,0,0,1-.14,1.92,1.92,0,0,0,.69-.39,1.65,1.65,0,0,0,.41-.6,2,2,0,0,0,.13-.75,1.52,1.52,0,0,0-.54-1.26,2.54,2.54,0,0,0-1.65-.45h-1.29Z"/><path class="cls-7" d="M489.38,363h1.35v-5.41a2.71,2.71,0,0,0-2.7-2.71H484a2.71,2.71,0,0,0-2.7,2.71V363h5.41"/><path class="cls-7" d="M486.68,363v-3.38a1.36,1.36,0,0,0-1.36-1.36h-2.7a1.35,1.35,0,0,0-1.35,1.36"/><path class="cls-7" d="M490.05,363l.85.85a2,2,0,0,1,.59,1.21l.42,3.84a2,2,0,0,1-1.26,2.1l-3.92,1.57a2.68,2.68,0,0,1-2.62-.35l-1.49-1.11,4.73-2.71v-2"/><line class="cls-7" x1="482.62" y1="371.15" x2="475.1" y2="371.15"/><path class="cls-7" d="M492.08,376.56h2a1.35,1.35,0,0,0,1.35-1.36V361.68a1.35,1.35,0,0,0-1.35-1.35h-3.38"/><line class="cls-7" x1="490.05" y1="371.55" x2="490.05" y2="385.34"/><line class="cls-7" x1="481.27" y1="373.74" x2="481.27" y2="385.34"/><polyline class="cls-7" points="484.65 385.34 484.65 376.22 483.68 375.27"/><path class="cls-7" d="M478.56,369.12l2.71-2V365a1.38,1.38,0,0,1,.39-1l1-.95"/><line class="cls-7" x1="469.1" y1="369.12" x2="468.42" y2="369.12"/><line class="cls-7" x1="469.1" y1="373.18" x2="468.42" y2="373.18"/><line class="cls-7" x1="465.72" y1="371.15" x2="465.04" y2="371.15"/><line class="cls-7" x1="472.48" y1="371.15" x2="471.8" y2="371.15"/><line class="cls-7" x1="465.72" y1="367.09" x2="465.04" y2="367.09"/><line class="cls-7" x1="465.72" y1="375.2" x2="465.04" y2="375.2"/><path d="M34.12,369.17v3.39H32.51v-8.68h2.65a5.58,5.58,0,0,1,1.52.19,2.89,2.89,0,0,1,1,.51,2,2,0,0,1,.59.79,2.56,2.56,0,0,1,.19,1,2.53,2.53,0,0,1-.13.83,2.67,2.67,0,0,1-.37.71,2.44,2.44,0,0,1-.6.55,3.27,3.27,0,0,1-.82.39,1.48,1.48,0,0,1,.53.5l2.17,3.2H37.83a.66.66,0,0,1-.6-.32l-1.83-2.78a.58.58,0,0,0-.22-.22.74.74,0,0,0-.37-.07Zm0-1.16h1a2.71,2.71,0,0,0,.8-.11,1.61,1.61,0,0,0,.56-.32,1.27,1.27,0,0,0,.32-.47,1.74,1.74,0,0,0,.11-.61,1.21,1.21,0,0,0-.43-1,2.07,2.07,0,0,0-1.33-.36h-1Z"/><path d="M45.79,363.88v1.29H41.94v2.4h3v1.25h-3v2.45h3.85v1.29H40.32v-8.68Z"/><path d="M51.84,365.46a.52.52,0,0,1-.16.19.39.39,0,0,1-.2.05.54.54,0,0,1-.27-.09l-.36-.21a3,3,0,0,0-.47-.2,1.85,1.85,0,0,0-.65-.1,2,2,0,0,0-.58.08,1.2,1.2,0,0,0-.42.23.86.86,0,0,0-.26.34,1.08,1.08,0,0,0-.08.44.72.72,0,0,0,.17.51,1.24,1.24,0,0,0,.45.35,4.26,4.26,0,0,0,.64.26l.74.24c.25.09.49.19.73.3a2.66,2.66,0,0,1,.64.43,2.14,2.14,0,0,1,.46.64,2.32,2.32,0,0,1,.17.92,3.07,3.07,0,0,1-.2,1.1,2.7,2.7,0,0,1-.59.9,2.86,2.86,0,0,1-1,.6,3.55,3.55,0,0,1-1.27.22,3.75,3.75,0,0,1-.82-.09,4,4,0,0,1-.77-.23,3.75,3.75,0,0,1-.69-.36,3.28,3.28,0,0,1-.57-.46l.46-.78a1.07,1.07,0,0,1,.16-.14.39.39,0,0,1,.21-.06.57.57,0,0,1,.32.13l.42.27a2.82,2.82,0,0,0,.55.27,2,2,0,0,0,.77.13,1.57,1.57,0,0,0,1.07-.33,1.18,1.18,0,0,0,.38-.94.91.91,0,0,0-.17-.56,1.49,1.49,0,0,0-.45-.36,3.52,3.52,0,0,0-.65-.25l-.73-.22a6.52,6.52,0,0,1-.73-.29,2.35,2.35,0,0,1-.64-.44,1.88,1.88,0,0,1-.45-.67,2.6,2.6,0,0,1,0-1.93,2.28,2.28,0,0,1,.56-.79,2.51,2.51,0,0,1,.89-.56,3.21,3.21,0,0,1,1.2-.21,4.07,4.07,0,0,1,1.42.24,3.13,3.13,0,0,1,1.1.67Z"/><path d="M59.74,363.88v1.33H57.13v7.35H55.51v-7.35H52.89v-1.33Z"/><path d="M62.43,369.17v3.39H60.82v-8.68h2.64a5.65,5.65,0,0,1,1.53.19,2.84,2.84,0,0,1,1,.51,2,2,0,0,1,.6.79,2.75,2.75,0,0,1,.19,1,2.83,2.83,0,0,1-.13.83,2.67,2.67,0,0,1-.37.71,2.87,2.87,0,0,1-.6.55,3.27,3.27,0,0,1-.82.39,1.48,1.48,0,0,1,.53.5l2.17,3.2H66.14a.8.8,0,0,1-.36-.08.94.94,0,0,1-.25-.24l-1.82-2.78a.58.58,0,0,0-.22-.22.76.76,0,0,0-.37-.07Zm0-1.16h1a2.76,2.76,0,0,0,.8-.11,1.48,1.48,0,0,0,.55-.32,1.18,1.18,0,0,0,.33-.47,1.74,1.74,0,0,0,.11-.61,1.22,1.22,0,0,0-.44-1,2.05,2.05,0,0,0-1.33-.36h-1Z"/><path d="M76.66,368.22a4.84,4.84,0,0,1-.32,1.77,4.28,4.28,0,0,1-.89,1.41,4.17,4.17,0,0,1-1.39.92,4.91,4.91,0,0,1-3.59,0,4.07,4.07,0,0,1-1.39-.92,4.15,4.15,0,0,1-.9-1.41,4.84,4.84,0,0,1-.32-1.77,4.92,4.92,0,0,1,.32-1.77,4,4,0,0,1,.9-1.4,4,4,0,0,1,1.39-.93,5,5,0,0,1,3.59,0,4.35,4.35,0,0,1,1.39.93,4.24,4.24,0,0,1,.89,1.4A4.92,4.92,0,0,1,76.66,368.22Zm-1.66,0a4,4,0,0,0-.19-1.28,2.5,2.5,0,0,0-.54-1,2.29,2.29,0,0,0-.86-.61,3.23,3.23,0,0,0-2.29,0,2.33,2.33,0,0,0-.87.61,2.81,2.81,0,0,0-.55,1,4.25,4.25,0,0,0-.19,1.28,4.15,4.15,0,0,0,.19,1.28,2.81,2.81,0,0,0,.55,1,2.33,2.33,0,0,0,.87.61,3.23,3.23,0,0,0,2.29,0,2.29,2.29,0,0,0,.86-.61,2.5,2.5,0,0,0,.54-1A3.87,3.87,0,0,0,75,368.22Z"/><path d="M86.25,368.22a4.64,4.64,0,0,1-.32,1.77A4.28,4.28,0,0,1,85,371.4a4.07,4.07,0,0,1-1.39.92,4.5,4.5,0,0,1-1.79.34,4.58,4.58,0,0,1-1.8-.34,4.17,4.17,0,0,1-1.39-.92,4.48,4.48,0,0,1-.9-1.41,4.84,4.84,0,0,1-.31-1.77,4.92,4.92,0,0,1,.31-1.77,4.32,4.32,0,0,1,.9-1.4,4,4,0,0,1,1.39-.93,4.77,4.77,0,0,1,1.8-.33,4.68,4.68,0,0,1,1.79.33,4,4,0,0,1,2.28,2.33A4.72,4.72,0,0,1,86.25,368.22Zm-1.65,0a4.25,4.25,0,0,0-.19-1.28,2.66,2.66,0,0,0-.55-1,2.22,2.22,0,0,0-.86-.61,2.93,2.93,0,0,0-1.14-.21,3,3,0,0,0-1.15.21,2.29,2.29,0,0,0-.86.61,2.66,2.66,0,0,0-.55,1,4,4,0,0,0-.19,1.28,3.87,3.87,0,0,0,.19,1.28,2.66,2.66,0,0,0,.55,1,2.29,2.29,0,0,0,.86.61,3,3,0,0,0,1.15.21,2.93,2.93,0,0,0,1.14-.21,2.22,2.22,0,0,0,.86-.61,2.66,2.66,0,0,0,.55-1A4.15,4.15,0,0,0,84.6,368.22Z"/><path d="M92.07,369.36l.17.42c.06-.15.11-.29.17-.43s.13-.27.2-.4l2.56-4.81a1,1,0,0,1,.1-.14.38.38,0,0,1,.26-.11h1.4v8.68H95.51V367c0-.11,0-.22,0-.35a2.31,2.31,0,0,1,0-.37l-2.63,4.92a.65.65,0,0,1-.23.26.64.64,0,0,1-.34.09h-.22a.58.58,0,0,1-.33-.09.67.67,0,0,1-.24-.26l-2.66-4.94c0,.13,0,.26,0,.39s0,.24,0,.35v5.6H87.52v-8.68h1.41a.32.32,0,0,1,.14,0,.42.42,0,0,1,.12.08.56.56,0,0,1,.1.14L91.88,369C92,369.09,92,369.22,92.07,369.36Z"/><path class="cls-10" d="M88.75,437.11l-8.83-8.83a2.46,2.46,0,0,0-3.4,0l-8.83,8.83a2.4,2.4,0,0,0,3.4,3.39l4.73-4.73V461.3a2.4,2.4,0,0,0,4.8,0V435.77l4.73,4.73a2.4,2.4,0,0,0,3.4-3.39Z"/><path class="cls-11" d="M88.75,437.11l-8.83-8.83a2.46,2.46,0,0,0-3.4,0l-8.83,8.83a2.4,2.4,0,0,0,3.4,3.39l4.73-4.73V461.3a2.4,2.4,0,0,0,4.8,0V435.77l4.73,4.73a2.4,2.4,0,0,0,3.4-3.39Z"/><path class="cls-8" d="M61.62,330.72A2.75,2.75,0,1,1,58.9,328,2.74,2.74,0,0,1,61.62,330.72Z"/><path class="cls-8" d="M77.41,330.72A2.75,2.75,0,1,1,74.69,328,2.74,2.74,0,0,1,77.41,330.72Z"/><line class="cls-13" x1="54.16" y1="339.23" x2="54.16" y2="356.83"/><line class="cls-13" x1="61.02" y1="339.23" x2="61.02" y2="356.83"/><line class="cls-13" x1="57.59" y1="346.68" x2="57.59" y2="356.83"/><path class="cls-13" d="M63.77,346v-7.45c0-2-1.5-4.06-3.44-4.06H54.84c-1.93,0-3.43,2.07-3.43,4.06V346"/><path class="cls-13" d="M80.24,345.32s-1-5.37-1.37-7.44c-.34-1.8-1.16-3.39-3.43-3.39H71.32c-2.28,0-3.1,1.59-3.43,3.39-.39,2.07-1.38,7.44-1.38,7.44"/><polyline class="cls-13" points="76.12 337.88 78.18 350.74 73.38 350.74 68.57 350.74 70.63 337.88"/><line class="cls-13" x1="71.32" y1="350.74" x2="71.32" y2="356.83"/><line class="cls-13" x1="75.44" y1="350.74" x2="75.44" y2="356.83"/><path class="cls-13" d="M60.33,329.78A2.75,2.75,0,1,1,57.61,327,2.73,2.73,0,0,1,60.33,329.78Z"/><path class="cls-13" d="M76.12,329.78A2.75,2.75,0,1,1,73.4,327,2.73,2.73,0,0,1,76.12,329.78Z"/><path d="M739.56,583.79a5.43,5.43,0,0,1,1.79.31,4.24,4.24,0,0,1,1.53.91,4.55,4.55,0,0,1,1.06,1.52,5.12,5.12,0,0,1,.41,2.11,5.4,5.4,0,0,1-.42,2.13,5.21,5.21,0,0,1-1.16,1.73,5.46,5.46,0,0,1-1.81,1.16,6.63,6.63,0,0,1-4.67,0,5,5,0,0,1-2.87-2.95,6.6,6.6,0,0,1-.39-2.32,6.51,6.51,0,0,1,.47-2.35,10.5,10.5,0,0,1,1.44-2.5l3.86-5.19a1.66,1.66,0,0,1,.59-.46,2.08,2.08,0,0,1,.89-.19h2.47l-4.81,5.88-.3.36-.27.35a4.67,4.67,0,0,1,1-.37A4.89,4.89,0,0,1,739.56,583.79Zm-3.87,5a4,4,0,0,0,.18,1.23,2.79,2.79,0,0,0,.55,1,2.61,2.61,0,0,0,.9.61,3.44,3.44,0,0,0,1.25.22,3.18,3.18,0,0,0,1.21-.23,2.72,2.72,0,0,0,1-.63,2.78,2.78,0,0,0,.63-.94,3.26,3.26,0,0,0,.22-1.18,3.49,3.49,0,0,0-.21-1.25,2.68,2.68,0,0,0-.61-.94,2.47,2.47,0,0,0-.94-.59,3.34,3.34,0,0,0-1.21-.2,3.09,3.09,0,0,0-1.2.22,2.82,2.82,0,0,0-.92.62,2.63,2.63,0,0,0-.59.94A3.24,3.24,0,0,0,735.69,588.82Z"/><path d="M756.9,577.71v2.4h-7.18v4.79h6.06v2.41h-6.06v6.6h-3v-16.2Z"/><line class="cls-9" x1="758.69" y1="622.37" x2="772.69" y2="608.37"/><polyline class="cls-9" points="764.69 608.37 772.69 608.37 772.69 616.37"/><polyline class="cls-9" points="773.69 583.37 765.69 583.37 765.69 591.37 757.69 591.37 757.69 599.37 749.69 599.37 749.69 607.37 741.69 607.37 741.69 615.37 733.69 615.37 733.69 623.37"/><circle class="cls-14" cx="753.52" cy="467.04" r="44.07"/><path d="M726.19,454.25v1.6H721.4v3h3.77v1.54H721.4v3.06h4.79v1.61h-6.81V454.25Z"/><path d="M727.59,459.77h3.87v1.54h-3.87Z"/><path d="M735.37,461.25v3.81h-2V454.25h3.52a6.14,6.14,0,0,1,1.88.26,3.58,3.58,0,0,1,1.31.71,2.79,2.79,0,0,1,.76,1.09,3.86,3.86,0,0,1,.24,1.39,3.76,3.76,0,0,1-.26,1.44,2.91,2.91,0,0,1-.78,1.12,3.69,3.69,0,0,1-1.31.73,5.63,5.63,0,0,1-1.84.26Zm0-1.56h1.51a3.15,3.15,0,0,0,1-.14,2,2,0,0,0,.68-.4,1.58,1.58,0,0,0,.4-.63,2.35,2.35,0,0,0,.13-.82,2.22,2.22,0,0,0-.13-.79,1.51,1.51,0,0,0-.4-.59,1.8,1.8,0,0,0-.68-.38,3.16,3.16,0,0,0-1-.13h-1.51Z"/><path d="M753,459.65a5.91,5.91,0,0,1-.4,2.21,5.22,5.22,0,0,1-1.11,1.75,5,5,0,0,1-1.73,1.15,5.72,5.72,0,0,1-2.23.42,5.8,5.8,0,0,1-2.24-.42,5,5,0,0,1-1.73-1.15,5.41,5.41,0,0,1-1.12-1.75,6.43,6.43,0,0,1,0-4.41,5.41,5.41,0,0,1,1.12-1.75,5,5,0,0,1,1.73-1.15,5.8,5.8,0,0,1,2.24-.42,5.72,5.72,0,0,1,2.23.42,5.06,5.06,0,0,1,2.84,2.9A5.89,5.89,0,0,1,753,459.65Zm-2.06,0a4.92,4.92,0,0,0-.24-1.59,3.34,3.34,0,0,0-.67-1.2,2.84,2.84,0,0,0-1.08-.75,3.56,3.56,0,0,0-1.42-.27,3.64,3.64,0,0,0-1.43.27,2.92,2.92,0,0,0-1.08.75,3.51,3.51,0,0,0-.68,1.2,5.42,5.42,0,0,0,0,3.19,3.51,3.51,0,0,0,.68,1.2,3.18,3.18,0,0,0,1.08.75,3.83,3.83,0,0,0,1.43.26,3.74,3.74,0,0,0,1.42-.26,3.08,3.08,0,0,0,1.08-.75,3.34,3.34,0,0,0,.67-1.2A4.94,4.94,0,0,0,750.94,459.65Z"/><path d="M760.38,456.22a.65.65,0,0,1-.19.23.56.56,0,0,1-.26.07.67.67,0,0,1-.34-.12l-.44-.26a3.61,3.61,0,0,0-.59-.25,2.47,2.47,0,0,0-.81-.12,2.3,2.3,0,0,0-.73.1,1.62,1.62,0,0,0-.52.28,1.13,1.13,0,0,0-.32.43,1.42,1.42,0,0,0-.1.55.94.94,0,0,0,.21.63,1.73,1.73,0,0,0,.57.44,5.55,5.55,0,0,0,.8.32l.91.3a8.1,8.1,0,0,1,.92.38,3.37,3.37,0,0,1,.8.53,2.56,2.56,0,0,1,.56.8,2.76,2.76,0,0,1,.21,1.14,3.63,3.63,0,0,1-.25,1.37,3.11,3.11,0,0,1-.73,1.12,3.44,3.44,0,0,1-1.18.74,4.14,4.14,0,0,1-1.59.28,5.19,5.19,0,0,1-2-.39,5.37,5.37,0,0,1-.86-.45,4.15,4.15,0,0,1-.72-.58l.59-1a.61.61,0,0,1,.19-.17.48.48,0,0,1,.26-.07.74.74,0,0,1,.41.15c.14.1.31.22.51.34a4,4,0,0,0,.69.34,2.76,2.76,0,0,0,1,.15,2,2,0,0,0,1.33-.4,1.47,1.47,0,0,0,.47-1.17,1.1,1.1,0,0,0-.21-.7,1.69,1.69,0,0,0-.56-.45,4.44,4.44,0,0,0-.8-.31l-.92-.28a8.59,8.59,0,0,1-.91-.36,3.13,3.13,0,0,1-.8-.54,2.63,2.63,0,0,1-.56-.84,3.26,3.26,0,0,1-.21-1.25,2.92,2.92,0,0,1,.23-1.15,3.05,3.05,0,0,1,.69-1,3.45,3.45,0,0,1,1.11-.7,4.14,4.14,0,0,1,1.5-.26,5,5,0,0,1,1.76.3,4,4,0,0,1,1.38.84Z"/><path d="M770.22,454.25v1.65H767v9.16h-2V455.9h-3.27v-1.65Z"/><path d="M778.31,454.25v1.6h-4.79v3h3.77v1.54h-3.77v3.06h4.79v1.61h-6.82V454.25Z"/><path d="M782.13,460.84v4.22h-2V454.25h3.29a7,7,0,0,1,1.9.23,3.71,3.71,0,0,1,1.29.64,2.43,2.43,0,0,1,.74,1,3.21,3.21,0,0,1,.23,1.26,3.17,3.17,0,0,1-.16,1,2.74,2.74,0,0,1-.46.88,3,3,0,0,1-.75.7,3.78,3.78,0,0,1-1,.48,2,2,0,0,1,.66.62l2.7,4h-1.8a.88.88,0,0,1-.45-.11,1,1,0,0,1-.31-.3l-2.27-3.46a.88.88,0,0,0-.28-.27.91.91,0,0,0-.45-.08Zm0-1.45h1.25a3,3,0,0,0,1-.14,1.82,1.82,0,0,0,.7-.39,1.67,1.67,0,0,0,.4-.59,2.1,2.1,0,0,0,.14-.76,1.52,1.52,0,0,0-.54-1.26,2.57,2.57,0,0,0-1.66-.44h-1.28Z"/><path d="M742,468.4v.74a1.1,1.1,0,0,1-.2.63l-5.54,7.83h5.6v1.61h-8.21v-.8a.92.92,0,0,1,.05-.28,1.08,1.08,0,0,1,.14-.26L739.4,470H734v-1.6Z"/><path d="M753.5,473.8a5.82,5.82,0,0,1-.4,2.2,5.17,5.17,0,0,1-1.11,1.76,5,5,0,0,1-1.73,1.15,6.16,6.16,0,0,1-4.47,0,5,5,0,0,1-1.73-1.15,5.19,5.19,0,0,1-1.12-1.76,5.82,5.82,0,0,1-.4-2.2,5.89,5.89,0,0,1,.4-2.2,5.15,5.15,0,0,1,1.12-1.75,5,5,0,0,1,1.73-1.15,6.16,6.16,0,0,1,4.47,0,5.06,5.06,0,0,1,2.84,2.9A5.89,5.89,0,0,1,753.5,473.8Zm-2.07,0a4.92,4.92,0,0,0-.23-1.59,3.36,3.36,0,0,0-.68-1.2,2.94,2.94,0,0,0-1.07-.76A3.74,3.74,0,0,0,748,470a3.8,3.8,0,0,0-1.43.26,3.07,3.07,0,0,0-1.08.76,3.36,3.36,0,0,0-.68,1.2,5.42,5.42,0,0,0,0,3.19,3.36,3.36,0,0,0,.68,1.2,3.18,3.18,0,0,0,1.08.75,3.8,3.8,0,0,0,1.43.26,3.74,3.74,0,0,0,1.42-.26,3,3,0,0,0,1.07-.75,3.36,3.36,0,0,0,.68-1.2A5,5,0,0,0,751.43,473.8Z"/><path d="M756.36,468.41l.16,0a.41.41,0,0,1,.14.1l.15.16,5.67,7.23c0-.18,0-.35,0-.51s0-.33,0-.47V468.4h1.77v10.81h-1a1,1,0,0,1-.4-.08.92.92,0,0,1-.3-.27l-5.65-7.19,0,.47c0,.16,0,.3,0,.43v6.64h-1.77V468.4h1.28Z"/><path d="M773.19,468.4V470H768.4v3h3.78v1.54H768.4v3.06h4.79v1.61h-6.81V468.4Z"/><path d="M785.52,392.84a.18.18,0,0,1,.1,0l.26.29a1.41,1.41,0,0,1-.54.42,2,2,0,0,1-.77.14,1.81,1.81,0,0,1-.72-.13,1.57,1.57,0,0,1-.55-.39,1.61,1.61,0,0,1-.35-.58,2.25,2.25,0,0,1-.12-.74,2,2,0,0,1,.13-.75,1.67,1.67,0,0,1,.38-.58,1.84,1.84,0,0,1,.59-.39,2,2,0,0,1,.75-.13,1.73,1.73,0,0,1,.71.13,1.52,1.52,0,0,1,.51.34l-.22.31,0,.05a.12.12,0,0,1-.09,0,.21.21,0,0,1-.12,0l-.15-.1-.23-.09a1.25,1.25,0,0,0-.36-.05,1.19,1.19,0,0,0-.47.09,1.15,1.15,0,0,0-.37.25,1.33,1.33,0,0,0-.24.4,1.86,1.86,0,0,0,0,1.08,1.22,1.22,0,0,0,.24.4.94.94,0,0,0,.34.25,1.26,1.26,0,0,0,.43.08h.25l.21,0,.18-.08.16-.13.05,0Z"/><path d="M787.45,391.09a1.42,1.42,0,0,1,.52.09,1.11,1.11,0,0,1,.4.26,1.29,1.29,0,0,1,.26.42,1.55,1.55,0,0,1,.09.55,1.63,1.63,0,0,1-.09.55,1.15,1.15,0,0,1-.26.41,1,1,0,0,1-.4.27,1.42,1.42,0,0,1-.52.09,1.46,1.46,0,0,1-.52-.09,1,1,0,0,1-.4-.27,1.15,1.15,0,0,1-.26-.41,1.63,1.63,0,0,1-.09-.55,1.55,1.55,0,0,1,.09-.55,1.29,1.29,0,0,1,.26-.42,1.11,1.11,0,0,1,.4-.26A1.46,1.46,0,0,1,787.45,391.09Zm0,2.17a.57.57,0,0,0,.48-.22,1.4,1.4,0,0,0,0-1.26.54.54,0,0,0-.48-.22.55.55,0,0,0-.48.22,1.13,1.13,0,0,0-.15.63,1.08,1.08,0,0,0,.15.63A.58.58,0,0,0,787.45,393.26Z"/><path d="M789.31,393.69v-2.1l-.22,0a.33.33,0,0,1-.12-.05.14.14,0,0,1,0-.11v-.25h.38V391a.94.94,0,0,1,.07-.39.67.67,0,0,1,.19-.3.77.77,0,0,1,.3-.19,1.37,1.37,0,0,1,.73,0l0,.31a.08.08,0,0,1-.06.09l-.15,0-.2,0a.42.42,0,0,0-.14.09.38.38,0,0,0-.09.15.88.88,0,0,0,0,.24v.17h.66v.44h-.64v2.1Z"/><path d="M791.06,393.69v-2.1l-.22,0a.33.33,0,0,1-.12-.05.14.14,0,0,1,0-.11v-.25h.38V391a.94.94,0,0,1,.07-.39.81.81,0,0,1,.49-.49,1.25,1.25,0,0,1,.4-.06,1.15,1.15,0,0,1,.33,0v.31c0,.05,0,.08-.07.09l-.15,0-.19,0a.36.36,0,0,0-.24.24.88.88,0,0,0,0,.24v.17h.67v.44h-.65v2.1Z"/><path d="M793.76,391.09a1.09,1.09,0,0,1,.45.08.91.91,0,0,1,.35.22.93.93,0,0,1,.23.37,1.26,1.26,0,0,1,.08.49v.12s0,.05,0,.07a.08.08,0,0,1,0,0h-1.65a.91.91,0,0,0,.21.58.67.67,0,0,0,.49.18,1,1,0,0,0,.26,0l.19-.08.14-.08.12,0h.06l0,0,.18.22a.87.87,0,0,1-.23.2.91.91,0,0,1-.26.13,1.53,1.53,0,0,1-.29.07l-.28,0a1.33,1.33,0,0,1-.49-.09,1.11,1.11,0,0,1-.4-.26,1.12,1.12,0,0,1-.27-.43,1.55,1.55,0,0,1-.1-.59,1.39,1.39,0,0,1,.09-.5,1,1,0,0,1,.24-.4,1.09,1.09,0,0,1,.39-.27A1.19,1.19,0,0,1,793.76,391.09Zm0,.44a.61.61,0,0,0-.43.15.78.78,0,0,0-.19.44h1.16a.85.85,0,0,0,0-.23,1.14,1.14,0,0,0-.1-.19.52.52,0,0,0-.17-.12A.6.6,0,0,0,793.78,391.53Z"/><path d="M796.44,391.09a1,1,0,0,1,.44.08.84.84,0,0,1,.35.22.93.93,0,0,1,.23.37,1.26,1.26,0,0,1,.09.49c0,.05,0,.09,0,.12a.14.14,0,0,1,0,.07.1.1,0,0,1,0,0h-1.65a.91.91,0,0,0,.21.58.67.67,0,0,0,.49.18,1,1,0,0,0,.26,0l.19-.08.14-.08.12,0h.07l0,0,.18.22a.74.74,0,0,1-.23.2.91.91,0,0,1-.26.13,1.64,1.64,0,0,1-.28.07l-.28,0a1.35,1.35,0,0,1-.5-.09,1.2,1.2,0,0,1-.4-.26,1.43,1.43,0,0,1-.27-.43,1.78,1.78,0,0,1-.1-.59,1.39,1.39,0,0,1,.09-.5,1.33,1.33,0,0,1,.24-.4,1.19,1.19,0,0,1,.39-.27A1.21,1.21,0,0,1,796.44,391.09Zm0,.44a.57.57,0,0,0-.42.15.72.72,0,0,0-.2.44H797a.85.85,0,0,0,0-.23.69.69,0,0,0-.1-.19.52.52,0,0,0-.17-.12A.6.6,0,0,0,796.45,391.53Z"/><path d="M799.05,393.69v-3.61h1.25a2.1,2.1,0,0,1,.6.07,1,1,0,0,1,.42.19.76.76,0,0,1,.23.3,1,1,0,0,1,.08.4.86.86,0,0,1,0,.24.68.68,0,0,1-.12.22.91.91,0,0,1-.2.19,1.31,1.31,0,0,1-.29.14c.5.11.75.38.75.8a1,1,0,0,1-.09.43.9.9,0,0,1-.25.33,1.12,1.12,0,0,1-.42.22,1.61,1.61,0,0,1-.56.08Zm.67-2.05h.54a.93.93,0,0,0,.52-.12.46.46,0,0,0,.18-.4.48.48,0,0,0-.16-.4.86.86,0,0,0-.5-.12h-.58Zm0,.47v1.06h.68a1,1,0,0,0,.32-.05.56.56,0,0,0,.2-.12.39.39,0,0,0,.11-.17.76.76,0,0,0,0-.21.78.78,0,0,0,0-.22.61.61,0,0,0-.12-.16.69.69,0,0,0-.21-.1,1.26,1.26,0,0,0-.3,0Z"/><path d="M802.27,393.69v-2.56h.36a.24.24,0,0,1,.14,0,.33.33,0,0,1,.05.12l0,.31a1.2,1.2,0,0,1,.33-.37.68.68,0,0,1,.41-.14.55.55,0,0,1,.32.09l-.08.46a.09.09,0,0,1,0,.06s0,0-.06,0h-.11a.42.42,0,0,0-.17,0,.52.52,0,0,0-.33.1.88.88,0,0,0-.23.32v1.59Z"/><path d="M805.37,391.09a1.09,1.09,0,0,1,.45.08.91.91,0,0,1,.35.22.93.93,0,0,1,.23.37,1.26,1.26,0,0,1,.08.49v.12a.64.64,0,0,1,0,.07l-.05,0h-1.65a.86.86,0,0,0,.21.58.66.66,0,0,0,.49.18,1,1,0,0,0,.26,0l.19-.08.14-.08.12,0h.06l0,0,.18.22a.87.87,0,0,1-.23.2.84.84,0,0,1-.27.13,1.28,1.28,0,0,1-.28.07l-.28,0a1.33,1.33,0,0,1-.49-.09,1.11,1.11,0,0,1-.4-.26,1.12,1.12,0,0,1-.27-.43,1.55,1.55,0,0,1-.1-.59,1.39,1.39,0,0,1,.09-.5,1,1,0,0,1,.24-.4,1.22,1.22,0,0,1,.9-.37Zm0,.44a.61.61,0,0,0-.43.15.78.78,0,0,0-.19.44h1.16a.85.85,0,0,0,0-.23,1.14,1.14,0,0,0-.1-.19.66.66,0,0,0-.17-.12A.6.6,0,0,0,805.39,391.53Z"/><path d="M809,393.69h-.28l-.14,0a.18.18,0,0,1-.07-.11l-.06-.18a1.25,1.25,0,0,1-.19.15.93.93,0,0,1-.19.11.81.81,0,0,1-.22.07.94.94,0,0,1-.25,0,1,1,0,0,1-.3,0,.58.58,0,0,1-.23-.13.6.6,0,0,1-.16-.22.94.94,0,0,1,0-.3.59.59,0,0,1,.07-.29.8.8,0,0,1,.26-.26,1.76,1.76,0,0,1,.47-.19,3.06,3.06,0,0,1,.73-.07v-.15a.61.61,0,0,0-.1-.39.42.42,0,0,0-.32-.12.9.9,0,0,0-.25,0l-.18.08-.13.08a.33.33,0,0,1-.14,0,.21.21,0,0,1-.11,0,.27.27,0,0,1-.07-.08l-.11-.19a1.52,1.52,0,0,1,1.07-.41,1.24,1.24,0,0,1,.4.07,1,1,0,0,1,.3.21.87.87,0,0,1,.18.31,1.29,1.29,0,0,1,.07.4Zm-1.2-.38.17,0,.15-.05a.42.42,0,0,0,.14-.09.71.71,0,0,0,.13-.12v-.42a2.81,2.81,0,0,0-.45,0,.9.9,0,0,0-.29.09.31.31,0,0,0-.15.12.23.23,0,0,0,0,.15.3.3,0,0,0,.09.24A.5.5,0,0,0,807.8,393.31Z"/><path d="M810.23,390v2.13h.11l.1,0,.08-.07.63-.78a.32.32,0,0,1,.09-.08.28.28,0,0,1,.13,0h.56l-.79.95-.09.1-.1.07.09.09a.44.44,0,0,1,.08.11l.86,1.24h-.56l-.12,0-.09-.09-.65-1a.17.17,0,0,0-.08-.07s-.06,0-.11,0h-.14v1.17h-.62V390Z"/><path class="cls-8" d="M802.59,383.83a.92.92,0,0,0-1.15.48h0c0-.25,0-.51,0-.75v-.5h-8.59v.5c0,2.12.64,4.66,3.92,4.66h.74a3.59,3.59,0,0,0,2.92-1.17h0c1.36-.95,2.38-1,2.66-1.95A.93.93,0,0,0,802.59,383.83Z"/><path class="cls-15" d="M792.05,382.72c0,2.12.64,4.67,3.92,4.67h.74c3.28,0,3.92-2.55,3.92-4.67v-.49h-8.58Z"/><path class="cls-15" d="M800.6,383.47a.93.93,0,0,1,1.69.8c-.28,1-1.3,1-2.66,2"/><line class="cls-15" x1="791.8" y1="388.12" x2="800.88" y2="388.12"/><path class="cls-15" d="M794.65,381.25c1.18-1.47-1.21-1.43.25-2.94"/><path class="cls-15" d="M796.25,381.25c1.17-1.47-1.21-1.43.24-2.94"/><path class="cls-15" d="M797.84,381.25c1.18-1.47-1.2-1.43.25-2.94"/><line class="cls-15" x1="793.03" y1="383.95" x2="800.63" y2="383.95"/><circle class="cls-1" cx="691.74" cy="393.69" r="20.26"/><path d="M679.91,392.84a.18.18,0,0,1,.1,0l.26.29a1.49,1.49,0,0,1-.54.42,2,2,0,0,1-.77.14,1.81,1.81,0,0,1-.72-.13,1.57,1.57,0,0,1-.55-.39,1.48,1.48,0,0,1-.35-.58,2.25,2.25,0,0,1-.12-.74,2,2,0,0,1,.13-.75,1.67,1.67,0,0,1,.38-.58,1.84,1.84,0,0,1,.59-.39,2,2,0,0,1,.75-.13,1.76,1.76,0,0,1,.71.13,1.52,1.52,0,0,1,.51.34l-.22.31-.05.05a.14.14,0,0,1-.09,0,.21.21,0,0,1-.12,0l-.15-.1-.23-.09a1.25,1.25,0,0,0-.36-.05,1.19,1.19,0,0,0-.47.09,1.05,1.05,0,0,0-.37.25,1.33,1.33,0,0,0-.24.4,1.66,1.66,0,0,0,0,1.08,1.4,1.4,0,0,0,.23.4,1.07,1.07,0,0,0,.35.25,1.26,1.26,0,0,0,.43.08h.25l.21,0,.17-.08.17-.13.05,0Z"/><path d="M681.84,391.09a1.46,1.46,0,0,1,.52.09,1.11,1.11,0,0,1,.4.26,1.27,1.27,0,0,1,.25.42,1.55,1.55,0,0,1,.09.55,1.63,1.63,0,0,1-.09.55,1.13,1.13,0,0,1-.25.41,1,1,0,0,1-.4.27,1.46,1.46,0,0,1-.52.09,1.42,1.42,0,0,1-.52-.09,1,1,0,0,1-.4-.27,1,1,0,0,1-.26-.41,1.63,1.63,0,0,1-.09-.55,1.55,1.55,0,0,1,.09-.55,1.14,1.14,0,0,1,.26-.42,1.11,1.11,0,0,1,.4-.26A1.42,1.42,0,0,1,681.84,391.09Zm0,2.17a.55.55,0,0,0,.47-.22,1.32,1.32,0,0,0,0-1.26.52.52,0,0,0-.47-.22.53.53,0,0,0-.48.22,1.13,1.13,0,0,0-.16.63,1.08,1.08,0,0,0,.16.63A.56.56,0,0,0,681.84,393.26Z"/><path d="M683.7,393.69v-2.1l-.23,0-.11-.05a.14.14,0,0,1-.05-.11v-.25h.39V391a1.14,1.14,0,0,1,.06-.39.91.91,0,0,1,.19-.3,1,1,0,0,1,.3-.19,1.29,1.29,0,0,1,.4-.06,1.15,1.15,0,0,1,.33,0v.31a.08.08,0,0,1-.07.09l-.14,0-.2,0a.34.34,0,0,0-.14.09.38.38,0,0,0-.09.15.61.61,0,0,0,0,.24v.17H685v.44h-.65v2.1Z"/><path d="M685.45,393.69v-2.1l-.22,0a.33.33,0,0,1-.12-.05.14.14,0,0,1,0-.11v-.25h.38V391a.94.94,0,0,1,.07-.39.67.67,0,0,1,.19-.3.77.77,0,0,1,.3-.19,1.2,1.2,0,0,1,.4-.06,1.24,1.24,0,0,1,.33,0l0,.31a.08.08,0,0,1-.06.09l-.15,0-.19,0a.36.36,0,0,0-.24.24.88.88,0,0,0,0,.24v.17h.66v.44h-.64v2.1Z"/><path d="M688.15,391.09a1.12,1.12,0,0,1,.45.08,1,1,0,0,1,.35.22,1.06,1.06,0,0,1,.23.37,1.48,1.48,0,0,1,.08.49.41.41,0,0,1,0,.12.14.14,0,0,1,0,.07l0,0h-1.66a.86.86,0,0,0,.22.58.66.66,0,0,0,.49.18,1,1,0,0,0,.26,0l.19-.08.14-.08a.27.27,0,0,1,.12,0H689l0,0,.18.22a1.07,1.07,0,0,1-.23.2,1,1,0,0,1-.27.13,1.28,1.28,0,0,1-.28.07l-.28,0a1.39,1.39,0,0,1-.5-.09,1.31,1.31,0,0,1-.4-.26A1.24,1.24,0,0,1,687,393a1.55,1.55,0,0,1-.1-.59,1.64,1.64,0,0,1,.08-.5,1.18,1.18,0,0,1,.25-.4,1.05,1.05,0,0,1,.38-.27A1.27,1.27,0,0,1,688.15,391.09Zm0,.44a.57.57,0,0,0-.42.15.72.72,0,0,0-.19.44h1.16a.59.59,0,0,0,0-.23.5.5,0,0,0-.1-.19.43.43,0,0,0-.17-.12A.54.54,0,0,0,688.16,391.53Z"/><path d="M690.82,391.09a1.09,1.09,0,0,1,.45.08.91.91,0,0,1,.35.22.93.93,0,0,1,.23.37,1.26,1.26,0,0,1,.08.49v.12s0,.05,0,.07l0,0h-1.65a.86.86,0,0,0,.21.58.67.67,0,0,0,.49.18,1,1,0,0,0,.26,0l.19-.08.14-.08.12,0h.06a.12.12,0,0,1,.05,0l.18.22a.87.87,0,0,1-.23.2.91.91,0,0,1-.26.13,1.53,1.53,0,0,1-.29.07l-.28,0a1.33,1.33,0,0,1-.49-.09,1.11,1.11,0,0,1-.4-.26,1.12,1.12,0,0,1-.27-.43,1.55,1.55,0,0,1-.1-.59,1.39,1.39,0,0,1,.09-.5,1,1,0,0,1,.24-.4,1.09,1.09,0,0,1,.39-.27A1.19,1.19,0,0,1,690.82,391.09Zm0,.44a.61.61,0,0,0-.43.15.78.78,0,0,0-.19.44h1.16a.85.85,0,0,0,0-.23,1.14,1.14,0,0,0-.1-.19.66.66,0,0,0-.17-.12A.6.6,0,0,0,690.84,391.53Z"/><path d="M693.44,393.69v-3.61h1.24a2.18,2.18,0,0,1,.61.07.92.92,0,0,1,.41.19.7.7,0,0,1,.24.3,1,1,0,0,1,.07.4.88.88,0,0,1,0,.24.94.94,0,0,1-.12.22.91.91,0,0,1-.2.19,1.57,1.57,0,0,1-.29.14c.5.11.75.38.75.8a1,1,0,0,1-.09.43.83.83,0,0,1-.26.33,1.08,1.08,0,0,1-.41.22,1.61,1.61,0,0,1-.56.08Zm.67-2.05h.54a1,1,0,0,0,.52-.12.49.49,0,0,0,.17-.4.46.46,0,0,0-.16-.4.82.82,0,0,0-.5-.12h-.57Zm0,.47v1.06h.68a1,1,0,0,0,.32-.05.56.56,0,0,0,.2-.12.39.39,0,0,0,.11-.17.76.76,0,0,0,0-.21.54.54,0,0,0,0-.22.42.42,0,0,0-.11-.16,1,1,0,0,0-.21-.1,1.26,1.26,0,0,0-.3,0Z"/><path d="M696.66,393.69v-2.56H697a.21.21,0,0,1,.13,0,.17.17,0,0,1,.05.12l0,.31a1.17,1.17,0,0,1,.32-.37.73.73,0,0,1,.42-.14.5.5,0,0,1,.31.09l-.08.46a.06.06,0,0,1,0,.06.08.08,0,0,1-.07,0H698a.42.42,0,0,0-.17,0,.52.52,0,0,0-.33.1.88.88,0,0,0-.23.32v1.59Z"/><path d="M699.76,391.09a1.12,1.12,0,0,1,.45.08,1,1,0,0,1,.35.22,1.06,1.06,0,0,1,.23.37,1.48,1.48,0,0,1,.08.49.41.41,0,0,1,0,.12.14.14,0,0,1,0,.07.08.08,0,0,1,0,0h-1.66a.86.86,0,0,0,.22.58.66.66,0,0,0,.49.18,1,1,0,0,0,.26,0,.75.75,0,0,0,.18-.08l.15-.08.12,0h.06l0,0,.18.22a1.07,1.07,0,0,1-.23.2,1.11,1.11,0,0,1-.27.13,1.28,1.28,0,0,1-.28.07l-.28,0a1.39,1.39,0,0,1-.5-.09,1.31,1.31,0,0,1-.4-.26,1.24,1.24,0,0,1-.26-.43,1.55,1.55,0,0,1-.1-.59,1.64,1.64,0,0,1,.08-.5,1.18,1.18,0,0,1,.25-.4,1.05,1.05,0,0,1,.38-.27A1.27,1.27,0,0,1,699.76,391.09Zm0,.44a.57.57,0,0,0-.42.15.72.72,0,0,0-.19.44h1.16a.59.59,0,0,0,0-.23.5.5,0,0,0-.1-.19.43.43,0,0,0-.17-.12A.54.54,0,0,0,699.77,391.53Z"/><path d="M703.38,393.69h-.27l-.14,0a.24.24,0,0,1-.08-.11l0-.18-.19.15a1,1,0,0,1-.2.11.65.65,0,0,1-.21.07,1,1,0,0,1-.25,0,1,1,0,0,1-.3,0,.7.7,0,0,1-.24-.13.71.71,0,0,1-.15-.22.73.73,0,0,1,0-.3.59.59,0,0,1,.07-.29.72.72,0,0,1,.26-.26,1.63,1.63,0,0,1,.47-.19,3.06,3.06,0,0,1,.73-.07v-.15a.6.6,0,0,0-.11-.39.4.4,0,0,0-.31-.12.85.85,0,0,0-.25,0l-.18.08-.13.08a.37.37,0,0,1-.14,0,.21.21,0,0,1-.11,0,.27.27,0,0,1-.07-.08l-.11-.19a1.51,1.51,0,0,1,1.06-.41,1.19,1.19,0,0,1,.4.07.81.81,0,0,1,.3.21.77.77,0,0,1,.19.31,1.29,1.29,0,0,1,.06.4Zm-1.2-.38.18,0,.15-.05a.55.55,0,0,0,.14-.09.71.71,0,0,0,.13-.12v-.42a2.81,2.81,0,0,0-.45,0,.9.9,0,0,0-.29.09.34.34,0,0,0-.16.12.28.28,0,0,0,0,.15.3.3,0,0,0,.09.24A.49.49,0,0,0,702.18,393.31Z"/><path d="M704.62,390v2.13h.11l.1,0a.23.23,0,0,0,.07-.07l.64-.78a.32.32,0,0,1,.09-.08.23.23,0,0,1,.13,0h.56l-.8.95a.39.39,0,0,1-.08.1l-.1.07.09.09a1,1,0,0,1,.08.11l.86,1.24h-.56l-.12,0a.2.2,0,0,1-.09-.09l-.66-1a.15.15,0,0,0-.07-.07.18.18,0,0,0-.11,0h-.14v1.17H704V390Z"/><path class="cls-8" d="M697,383.83a.92.92,0,0,0-1.15.48h0c0-.25,0-.51,0-.75v-.5h-8.58v.5c0,2.12.64,4.66,3.92,4.66h.74a3.59,3.59,0,0,0,2.92-1.17h0c1.36-.95,2.38-1,2.66-1.95A.93.93,0,0,0,697,383.83Z"/><path class="cls-15" d="M686.43,382.72c0,2.12.65,4.67,3.93,4.67h.74c3.28,0,3.92-2.55,3.92-4.67v-.49h-8.59Z"/><path class="cls-15" d="M695,383.47a.92.92,0,0,1,1.15-.47.93.93,0,0,1,.54,1.27c-.28,1-1.3,1-2.66,2"/><line class="cls-15" x1="686.19" y1="388.12" x2="695.27" y2="388.12"/><path class="cls-15" d="M689,381.25c1.17-1.47-1.21-1.43.24-2.94"/><path class="cls-15" d="M690.63,381.25c1.18-1.47-1.2-1.43.25-2.94"/><path class="cls-15" d="M692.23,381.25c1.17-1.47-1.21-1.43.24-2.94"/><line class="cls-15" x1="687.41" y1="383.95" x2="695.02" y2="383.95"/><circle class="cls-1" cx="691.74" cy="494.85" r="20.26"/><path d="M679.91,494a.14.14,0,0,1,.1.05l.26.28a1.3,1.3,0,0,1-.54.42,1.79,1.79,0,0,1-.77.15,1.81,1.81,0,0,1-.72-.14,1.55,1.55,0,0,1-.55-.38,1.6,1.6,0,0,1-.35-.59,2.17,2.17,0,0,1-.12-.74,2,2,0,0,1,.13-.75,1.77,1.77,0,0,1,.38-.58,1.81,1.81,0,0,1,.59-.38,2,2,0,0,1,.75-.14,2,2,0,0,1,.71.13,1.69,1.69,0,0,1,.51.34l-.22.32s0,0-.05,0l-.09,0a.21.21,0,0,1-.12-.05l-.15-.09a1,1,0,0,0-.23-.1,1.28,1.28,0,0,0-.36,0,1.19,1.19,0,0,0-.47.08,1.08,1.08,0,0,0-.37.26,1.22,1.22,0,0,0-.24.4,1.47,1.47,0,0,0-.09.53,1.53,1.53,0,0,0,.09.54,1.4,1.4,0,0,0,.23.4,1.06,1.06,0,0,0,.78.34l.25,0a.8.8,0,0,0,.21-.05.53.53,0,0,0,.17-.08,1,1,0,0,0,.17-.13l.05,0Z"/><path d="M681.84,492.24a1.46,1.46,0,0,1,.52.09,1.13,1.13,0,0,1,.65.68,1.63,1.63,0,0,1,.09.55,1.59,1.59,0,0,1-.09.55,1.27,1.27,0,0,1-.25.42,1.11,1.11,0,0,1-.4.26,1.46,1.46,0,0,1-.52.09,1.42,1.42,0,0,1-.52-.09,1.11,1.11,0,0,1-.4-.26,1.14,1.14,0,0,1-.26-.42,1.59,1.59,0,0,1-.09-.55,1.63,1.63,0,0,1,.09-.55,1,1,0,0,1,.26-.41,1.13,1.13,0,0,1,.4-.27A1.42,1.42,0,0,1,681.84,492.24Zm0,2.17a.54.54,0,0,0,.47-.21,1,1,0,0,0,.16-.63,1.06,1.06,0,0,0-.16-.64.55.55,0,0,0-.47-.22.56.56,0,0,0-.48.22,1.14,1.14,0,0,0-.16.64,1.07,1.07,0,0,0,.16.62A.53.53,0,0,0,681.84,494.41Z"/><path d="M683.7,494.85v-2.1l-.23,0a.22.22,0,0,1-.11,0,.12.12,0,0,1-.05-.1v-.26h.39v-.19a1.23,1.23,0,0,1,.06-.39.91.91,0,0,1,.19-.3.92.92,0,0,1,.3-.18,1.05,1.05,0,0,1,.4-.07,1.14,1.14,0,0,1,.33.05v.31a.08.08,0,0,1-.07.09h-.14a.64.64,0,0,0-.2,0,.25.25,0,0,0-.14.08.35.35,0,0,0-.09.16.53.53,0,0,0,0,.23v.17H685v.44h-.65v2.11Z"/><path d="M685.45,494.85v-2.1l-.22,0a.22.22,0,0,1-.12,0,.12.12,0,0,1,0-.1v-.26h.38v-.19a1,1,0,0,1,.07-.39.67.67,0,0,1,.19-.3.75.75,0,0,1,.3-.18,1,1,0,0,1,.4-.07,1.26,1.26,0,0,1,.33.05l0,.31a.08.08,0,0,1-.06.09h-.15a.54.54,0,0,0-.19,0,.28.28,0,0,0-.15.08.35.35,0,0,0-.09.16.75.75,0,0,0,0,.23v.17h.66v.44h-.64v2.11Z"/><path d="M688.15,492.24a1.33,1.33,0,0,1,.45.08,1,1,0,0,1,.35.23,1.11,1.11,0,0,1,.23.36,1.53,1.53,0,0,1,.08.49.41.41,0,0,1,0,.12.12.12,0,0,1,0,.07.08.08,0,0,1,0,0h-1.66a.84.84,0,0,0,.22.58.63.63,0,0,0,.49.19.71.71,0,0,0,.26,0l.19-.08.14-.07a.19.19,0,0,1,.12,0l.06,0a.1.1,0,0,1,0,0l.18.22a1.51,1.51,0,0,1-.23.21l-.27.13a1.27,1.27,0,0,1-.28.06,1.72,1.72,0,0,1-.78-.06,1.18,1.18,0,0,1-.4-.27,1.15,1.15,0,0,1-.26-.43,1.67,1.67,0,0,1,0-1.08,1.22,1.22,0,0,1,.25-.41,1.19,1.19,0,0,1,.38-.27A1.46,1.46,0,0,1,688.15,492.24Zm0,.45a.57.57,0,0,0-.42.15.69.69,0,0,0-.19.43h1.16a.59.59,0,0,0,0-.23.4.4,0,0,0-.1-.18.37.37,0,0,0-.17-.13A.55.55,0,0,0,688.16,492.69Z"/><path d="M690.82,492.24a1.29,1.29,0,0,1,.45.08.93.93,0,0,1,.35.23,1,1,0,0,1,.23.36,1.29,1.29,0,0,1,.08.49v.12s0,.06,0,.07a.08.08,0,0,1,0,0h-1.65a.84.84,0,0,0,.21.58.64.64,0,0,0,.49.19.71.71,0,0,0,.26,0l.19-.08.14-.07a.19.19,0,0,1,.12,0l.06,0a.1.1,0,0,1,.05,0l.18.22a1.15,1.15,0,0,1-.23.21,2.1,2.1,0,0,1-.26.13,1.5,1.5,0,0,1-.29.06,1.67,1.67,0,0,1-.77-.06,1,1,0,0,1-.4-.27,1.05,1.05,0,0,1-.27-.43,1.52,1.52,0,0,1-.1-.59,1.3,1.3,0,0,1,.09-.49,1.06,1.06,0,0,1,.24-.41,1.23,1.23,0,0,1,.39-.27A1.36,1.36,0,0,1,690.82,492.24Zm0,.45a.61.61,0,0,0-.43.15.75.75,0,0,0-.19.43h1.16a.85.85,0,0,0,0-.23.77.77,0,0,0-.1-.18.52.52,0,0,0-.17-.13A.61.61,0,0,0,690.84,492.69Z"/><path d="M693.44,494.85v-3.62h1.24a2.18,2.18,0,0,1,.61.07,1,1,0,0,1,.41.19.84.84,0,0,1,.24.3,1.07,1.07,0,0,1,.07.41,1,1,0,0,1,0,.24.94.94,0,0,1-.12.22,1.2,1.2,0,0,1-.2.18,1.12,1.12,0,0,1-.29.14c.5.11.75.38.75.8a1,1,0,0,1-.09.43.94.94,0,0,1-.26.34,1.45,1.45,0,0,1-.41.22,1.89,1.89,0,0,1-.56.08Zm.67-2.05h.54a.87.87,0,0,0,.52-.13.45.45,0,0,0,.17-.39.48.48,0,0,0-.16-.41.82.82,0,0,0-.5-.12h-.57Zm0,.46v1.06h.68a1,1,0,0,0,.32,0,.56.56,0,0,0,.2-.12.42.42,0,0,0,.11-.18.71.71,0,0,0,0-.21.46.46,0,0,0,0-.21.36.36,0,0,0-.11-.16.51.51,0,0,0-.21-.1.87.87,0,0,0-.3,0Z"/><path d="M696.66,494.85v-2.57H697c.06,0,.11,0,.13,0a.14.14,0,0,1,.05.12l0,.31a1.22,1.22,0,0,1,.32-.38.72.72,0,0,1,.42-.13.49.49,0,0,1,.31.08l-.08.46s0,.06,0,.07l-.07,0-.1,0-.17,0a.52.52,0,0,0-.33.11.76.76,0,0,0-.23.31v1.6Z"/><path d="M699.76,492.24a1.33,1.33,0,0,1,.45.08,1,1,0,0,1,.35.23,1.11,1.11,0,0,1,.23.36,1.53,1.53,0,0,1,.08.49.41.41,0,0,1,0,.12.12.12,0,0,1,0,.07.08.08,0,0,1,0,0h-1.66a.84.84,0,0,0,.22.58.63.63,0,0,0,.49.19.71.71,0,0,0,.26,0,.75.75,0,0,0,.18-.08l.15-.07a.19.19,0,0,1,.12,0l.06,0a.1.1,0,0,1,0,0l.18.22a1.51,1.51,0,0,1-.23.21l-.27.13a1.27,1.27,0,0,1-.28.06,1.72,1.72,0,0,1-.78-.06,1.18,1.18,0,0,1-.4-.27,1.15,1.15,0,0,1-.26-.43,1.67,1.67,0,0,1,0-1.08,1.22,1.22,0,0,1,.25-.41,1.19,1.19,0,0,1,.38-.27A1.46,1.46,0,0,1,699.76,492.24Zm0,.45a.57.57,0,0,0-.42.15.69.69,0,0,0-.19.43h1.16a.59.59,0,0,0,0-.23.4.4,0,0,0-.1-.18.37.37,0,0,0-.17-.13A.55.55,0,0,0,699.77,492.69Z"/><path d="M703.38,494.85h-.27a.26.26,0,0,1-.14,0,.2.2,0,0,1-.08-.11l0-.18-.19.16-.2.11a.65.65,0,0,1-.21.06,1,1,0,0,1-.55,0,.7.7,0,0,1-.24-.13.71.71,0,0,1-.15-.22.67.67,0,0,1,0-.3.62.62,0,0,1,.07-.29.7.7,0,0,1,.26-.25,1.39,1.39,0,0,1,.47-.19,3,3,0,0,1,.73-.08v-.15a.57.57,0,0,0-.11-.38.37.37,0,0,0-.31-.13.6.6,0,0,0-.25,0,.75.75,0,0,0-.18.08l-.13.07a.25.25,0,0,1-.14,0,.2.2,0,0,1-.11,0,.27.27,0,0,1-.07-.08l-.11-.2a1.51,1.51,0,0,1,1.06-.4,1,1,0,0,1,.4.07.93.93,0,0,1,.3.2.8.8,0,0,1,.19.32,1.25,1.25,0,0,1,.06.4Zm-1.2-.39h.18a.94.94,0,0,0,.15-.06l.14-.08a.71.71,0,0,0,.13-.12v-.43a2.81,2.81,0,0,0-.45,0l-.29.09a.55.55,0,0,0-.16.12.29.29,0,0,0,0,.16.27.27,0,0,0,.09.23A.41.41,0,0,0,702.18,494.46Z"/><path d="M704.62,491.13v2.13h.11l.1,0a.19.19,0,0,0,.07-.06l.64-.79.09-.08a.23.23,0,0,1,.13,0h.56l-.8,1-.08.09-.1.08.09.08.08.11.86,1.25h-.56a.21.21,0,0,1-.12,0,.14.14,0,0,1-.09-.08l-.66-1a.19.19,0,0,0-.07-.08l-.11,0h-.14v1.18H704v-3.72Z"/><path class="cls-8" d="M697,485a.92.92,0,0,0-1.15.47h0q0-.37,0-.75v-.49h-8.58v.49c0,2.12.64,4.66,3.92,4.66h.74a3.59,3.59,0,0,0,2.92-1.17h0c1.36-1,2.38-1,2.66-1.95C697.7,485.61,697.45,485.12,697,485Z"/><path class="cls-15" d="M686.43,483.88c0,2.12.65,4.66,3.93,4.66h.74c3.28,0,3.92-2.54,3.92-4.66v-.49h-8.59Z"/><path class="cls-15" d="M695,484.63a.91.91,0,0,1,1.15-.47c.48.13.72.62.54,1.27-.28,1-1.3,1-2.66,1.94"/><line class="cls-15" x1="686.19" y1="489.28" x2="695.27" y2="489.28"/><path class="cls-15" d="M689,482.4c1.17-1.47-1.21-1.42.24-2.94"/><path class="cls-15" d="M690.63,482.4c1.18-1.47-1.2-1.42.25-2.94"/><path class="cls-15" d="M692.23,482.4c1.17-1.47-1.21-1.42.24-2.94"/><line class="cls-15" x1="687.41" y1="485.1" x2="695.02" y2="485.1"/><line class="cls-16" x1="795.42" y1="333.54" x2="811.83" y2="333.54"/><line class="cls-16" x1="539.41" y1="333.54" x2="555.83" y2="333.54"/><polyline class="cls-16" points="766.53 333.54 737.55 333.54 737.55 115.26"/><polyline class="cls-16" points="510.08 333.54 488.14 333.54 488.14 112.84 508.74 112.84"/><polyline class="cls-16" points="585.39 333.54 614.37 333.54 614.37 114.01"/><line class="cls-16" x1="643.83" y1="333.54" x2="706.59" y2="333.54"/><polyline class="cls-16" points="840.41 112.38 865.29 112.38 865.29 333.54 839.69 333.54"/><polygon class="cls-17" points="865.29 580.42 812.64 580.42 813.73 689.3 57.05 689.22 57.05 580.42 3 580.42 3 40.27 865.29 40.27 865.29 580.42"/><polyline class="cls-16" points="864.98 506.89 799.61 506.89 799.61 581.38 812.64 581.38"/><polyline class="cls-16" points="416.32 508.02 416.32 532.75 251.74 532.75 251.74 401.33 416.32 401.33 416.32 426.22"/><polyline class="cls-16" points="94.84 500.22 94.84 401.33 215.39 401.33 215.39 417.71"/><polyline class="cls-16" points="215.39 508.02 215.39 532.75 94.84 532.75 94.84 514.36"/><line class="cls-16" x1="416.32" y1="472.31" x2="416.32" y2="496.09"/><line class="cls-16" x1="416.32" y1="438.23" x2="416.32" y2="461.55"/><line class="cls-16" x1="457.31" y1="461.07" x2="457.31" y2="439.15"/><line class="cls-16" x1="457.31" y1="495.58" x2="457.31" y2="473.35"/><polyline class="cls-16" points="540.21 532.75 457.31 532.75 457.31 508.02"/><polyline class="cls-16" points="578.8 401.33 610.07 401.33 610.07 532.75 566.47 532.75"/><polyline class="cls-16" points="457.31 426.13 457.31 401.33 567.64 401.33"/><line class="cls-16" x1="215.39" y1="436.65" x2="215.39" y2="454.76"/><line class="cls-16" x1="215.39" y1="470.9" x2="215.39" y2="489.01"/><polyline class="cls-16" points="3 316.61 132.71 316.61 132.71 372.46 108.77 372.46 108.77 387.2"/><polyline class="cls-16" points="57.05 580.42 74.37 580.42 74.37 492.75"/><polyline class="cls-16" points="74.29 478.46 74.29 473.25 60.17 473.25 60.17 420.43 73.35 420.43 73.35 392.13 42.94 392.13"/><polyline class="cls-16" points="84.08 580.42 369.44 580.42 369.44 635.87 392.3 635.87 392.3 629.47 410.55 629.47"/><line class="cls-16" x1="425.84" y1="629.4" x2="445.42" y2="629.4"/><line class="cls-16" x1="536.79" y1="629.4" x2="556.37" y2="629.4"/><line class="cls-16" x1="459.38" y1="629.09" x2="522.17" y2="629.09"/><path class="cls-16" d="M571.39,629.4h20.35v6.32h19.89V631.9c40.56,0,69.53-11.13,89.24-52.27h11.31"/><rect class="cls-16" x="691.74" y="401.33" width="17.94" height="30.26"/><rect class="cls-16" x="691.74" y="502.49" width="17.94" height="30.26"/><rect class="cls-16" x="797.35" y="401.33" width="17.94" height="30.26"/><circle class="cls-16" cx="753.69" cy="598.64" r="44.09"/><line class="cls-16" x1="527.15" y1="113.12" x2="575.5" y2="113.12"/><line class="cls-16" x1="651.29" y1="113.12" x2="699.64" y2="113.12"/><line class="cls-16" x1="774.6" y1="113.12" x2="822.96" y2="113.12"/><line class="cls-16" x1="592.94" y1="113.12" x2="635.49" y2="113.12"/><line class="cls-16" x1="715.65" y1="113.12" x2="758.2" y2="113.12"/><polyline class="cls-16" points="488.14 112.84 488.14 103.6 295.64 103.6"/><polyline class="cls-16" points="282.69 103.6 252.94 103.6 252.94 217.36"/><polyline class="cls-16" points="252.94 245.44 252.94 290.68 417.56 290.68 417.56 247.47"/><polyline class="cls-16" points="253.52 174.97 328.48 174.97 328.48 104.81"/><line class="cls-16" x1="344.32" y1="174.97" x2="434.15" y2="174.97"/><line class="cls-16" x1="463.5" y1="174.97" x2="488.15" y2="174.97"/><line class="cls-16" x1="417.56" y1="174.85" x2="417.56" y2="217.21"/><polyline class="cls-16" points="417.56 340.37 417.56 311.04 417.56 311.16 273.8 311.16 273.8 337.01 252.94 337.01 252.94 401.33"/><line class="cls-16" x1="417.59" y1="368.49" x2="417.59" y2="401.33"/><polyline class="cls-16" points="217.95 103.01 144.24 103.01 144.24 231.71"/><polyline class="cls-16" points="124.59 120.02 101.27 120.02 101.27 228.91 124.59 228.91"/><polyline class="cls-16" points="195.8 369.78 161.4 369.78 161.4 235.93 195.8 235.93"/><polygon points="7.04 17.18 7.04 0 9.32 0 9.32 15.15 17.78 15.15 17.78 17.18 7.04 17.18"/><polygon points="20.53 17.18 20.53 0 32.95 0 32.95 2.03 22.8 2.03 22.8 7.29 32.31 7.29 32.31 9.3 22.8 9.3 22.8 15.15 33.35 15.15 33.35 17.18 20.53 17.18"/><path d="M41.4,17.18,34.75,0h2.46l4.46,12.48c.36,1,.66,1.94.91,2.81.26-.93.57-1.87.92-2.81L48.14,0h2.32L43.74,17.18Z"/><polygon points="52.55 17.18 52.55 0 64.97 0 64.97 2.03 54.82 2.03 54.82 7.29 64.32 7.29 64.32 9.3 54.82 9.3 54.82 15.15 65.37 15.15 65.37 17.18 52.55 17.18"/><polygon points="68.42 17.18 68.42 0 70.69 0 70.69 15.15 79.15 15.15 79.15 17.18 68.42 17.18"/><path d="M94.42,1.88H87.5l-.07,4.57A5.52,5.52,0,0,1,95,11.62a5.5,5.5,0,0,1-5.82,5.62,5.14,5.14,0,0,1-5-3.08l2-.77a3.43,3.43,0,0,0,3.16,2.13A3.65,3.65,0,0,0,93,11.62c0-2.49-1.82-3.85-4.19-3.85a7.17,7.17,0,0,0-3.45,1.05L85.54,0h8.88Z"/></g></g></svg>