<svg xmlns="http://www.w3.org/2000/svg" xmlns:xlink="http://www.w3.org/1999/xlink" viewBox="0 0 868.29 671.88"><defs><style>.cls-1{fill:#fff6d2;}.cls-2{fill:#999;}.cls-14,.cls-15,.cls-17,.cls-18,.cls-19,.cls-3{fill:none;}.cls-3{stroke:#999;}.cls-14,.cls-15,.cls-17,.cls-18,.cls-3,.cls-9{stroke-linecap:round;stroke-linejoin:round;}.cls-15,.cls-3{stroke-width:1.35px;}.cls-4,.cls-5{opacity:0.62;}.cls-4{fill:url(#linear-gradient);}.cls-5{fill:url(#linear-gradient-2);}.cls-6{fill:#ffdcdc;}.cls-7{fill:#c5ffd8;}.cls-8{fill:#f6ffcf;}.cls-10,.cls-9{fill:#f7931e;}.cls-14,.cls-15,.cls-9{stroke:#000;}.cls-9{stroke-width:3px;}.cls-11{fill:#efe7d5;}.cls-12{fill:#e1ebff;}.cls-13{fill:#d5f463;}.cls-14{stroke-width:1.34px;}.cls-16{fill:#e6e6e6;}.cls-17,.cls-18{stroke:#232322;}.cls-17{stroke-width:6px;}.cls-18{stroke-width:4px;}</style><linearGradient id="linear-gradient" x1="733.25" y1="365.16" x2="828.5" y2="365.16" gradientUnits="userSpaceOnUse"><stop offset="0" stop-color="aqua" stop-opacity="0.6"/><stop offset="0.99" stop-color="aqua"/></linearGradient><linearGradient id="linear-gradient-2" x1="733.25" y1="457.12" x2="828.5" y2="457.12" xlink:href="#linear-gradient"/></defs><g id="Layer_2" data-name="Layer 2"><g id="Layer_2-2" data-name="Layer 2"><rect class="cls-1" x="276.11" y="56.25" width="323.98" height="161.13"/><path d="M34,349.42v3.39H32.4v-8.68H35a5.61,5.61,0,0,1,1.52.18,3,3,0,0,1,1,.52,1.89,1.89,0,0,1,.59.79,2.75,2.75,0,0,1,.06,1.84,2.24,2.24,0,0,1-.37.7,2.3,2.3,0,0,1-.6.56,3.38,3.38,0,0,1-.81.39,1.64,1.64,0,0,1,.53.49l2.17,3.21H37.72a.69.69,0,0,1-.36-.09.64.64,0,0,1-.25-.24l-1.82-2.77a.72.72,0,0,0-.23-.23.84.84,0,0,0-.36-.06Zm0-1.16h1a2.64,2.64,0,0,0,.79-.11,1.68,1.68,0,0,0,.56-.32,1.15,1.15,0,0,0,.33-.48,1.64,1.64,0,0,0,.11-.6,1.25,1.25,0,0,0-.44-1,2.11,2.11,0,0,0-1.33-.35H34Z"/><path d="M45.67,344.13v1.29H41.83v2.4h3v1.24h-3v2.46h3.84v1.29H40.2v-8.68Z"/><path d="M51.72,345.71a.42.42,0,0,1-.15.19.46.46,0,0,1-.21.05.54.54,0,0,1-.27-.09l-.35-.21a2.67,2.67,0,0,0-.48-.21,2.27,2.27,0,0,0-1.23,0,1.06,1.06,0,0,0-.42.23.84.84,0,0,0-.25.34,1,1,0,0,0-.09.44.77.77,0,0,0,.17.51,1.51,1.51,0,0,0,.46.35,3.87,3.87,0,0,0,.64.26l.73.24c.25.09.5.19.74.3a2.57,2.57,0,0,1,.64.43,2,2,0,0,1,.45.64,2.13,2.13,0,0,1,.17.92,2.87,2.87,0,0,1-.2,1.1,2.54,2.54,0,0,1-.58.89,2.66,2.66,0,0,1-1,.6,3.4,3.4,0,0,1-1.28.22,3.65,3.65,0,0,1-.81-.08,4.12,4.12,0,0,1-.78-.23,4,4,0,0,1-.68-.36,3,3,0,0,1-.58-.47l.47-.77a.54.54,0,0,1,.16-.14.37.37,0,0,1,.21-.06.53.53,0,0,1,.32.13l.41.27a2.92,2.92,0,0,0,.56.27,2.18,2.18,0,0,0,.77.12,1.63,1.63,0,0,0,1.07-.32,1.18,1.18,0,0,0,.38-.94.84.84,0,0,0-.18-.56,1.38,1.38,0,0,0-.45-.36,3.41,3.41,0,0,0-.64-.25l-.73-.22a6.52,6.52,0,0,1-.73-.29,2.4,2.4,0,0,1-.65-.44,2.07,2.07,0,0,1-.45-.68,2.62,2.62,0,0,1-.17-1,2.31,2.31,0,0,1,.19-.93,2.39,2.39,0,0,1,.55-.8,2.74,2.74,0,0,1,.89-.55A3.27,3.27,0,0,1,49.6,344a4,4,0,0,1,1.41.24,3.17,3.17,0,0,1,1.11.67Z"/><path d="M59.62,344.13v1.33H57v7.35H55.4v-7.35H52.78v-1.33Z"/><path d="M62.32,349.42v3.39H60.7v-8.68h2.65a5.61,5.61,0,0,1,1.52.18,3.07,3.07,0,0,1,1,.52,1.89,1.89,0,0,1,.59.79,2.75,2.75,0,0,1,.06,1.84,2.24,2.24,0,0,1-.37.7,2.3,2.3,0,0,1-.6.56,3.38,3.38,0,0,1-.81.39,1.64,1.64,0,0,1,.53.49l2.17,3.21H66a.69.69,0,0,1-.36-.09.64.64,0,0,1-.25-.24l-1.82-2.77a.72.72,0,0,0-.23-.23.84.84,0,0,0-.36-.06Zm0-1.16h1a2.71,2.71,0,0,0,.8-.11,1.68,1.68,0,0,0,.56-.32,1.37,1.37,0,0,0,.33-.48,1.64,1.64,0,0,0,.1-.6,1.25,1.25,0,0,0-.43-1,2.13,2.13,0,0,0-1.33-.35h-1Z"/><path d="M76.54,348.47a4.88,4.88,0,0,1-.31,1.77,4.16,4.16,0,0,1-.9,1.4,3.91,3.91,0,0,1-1.38.93,4.73,4.73,0,0,1-1.8.33,4.8,4.8,0,0,1-1.8-.33,4,4,0,0,1-1.39-.93,4.14,4.14,0,0,1-.89-1.4,5.06,5.06,0,0,1,0-3.54,4.14,4.14,0,0,1,.89-1.4,4,4,0,0,1,1.39-.93,4.8,4.8,0,0,1,1.8-.33,4.73,4.73,0,0,1,1.8.33,4,4,0,0,1,1.38.93,4.16,4.16,0,0,1,.9,1.4A4.88,4.88,0,0,1,76.54,348.47Zm-1.65,0a4.2,4.2,0,0,0-.19-1.28,2.79,2.79,0,0,0-.54-1,2.33,2.33,0,0,0-.87-.61,2.9,2.9,0,0,0-1.14-.21,3,3,0,0,0-1.14.21,2.33,2.33,0,0,0-.87.61,2.66,2.66,0,0,0-.55,1,4.41,4.41,0,0,0,0,2.56,2.66,2.66,0,0,0,.55,1,2.42,2.42,0,0,0,.87.6,3,3,0,0,0,1.14.21,2.9,2.9,0,0,0,1.14-.21,2.42,2.42,0,0,0,.87-.6,2.79,2.79,0,0,0,.54-1A4.2,4.2,0,0,0,74.89,348.47Z"/><path d="M86.14,348.47a4.88,4.88,0,0,1-.32,1.77,4.14,4.14,0,0,1-.89,1.4,4,4,0,0,1-1.39.93,5,5,0,0,1-3.59,0,4,4,0,0,1-1.39-.93,4,4,0,0,1-.9-1.4,5.06,5.06,0,0,1,0-3.54,4,4,0,0,1,.9-1.4,4,4,0,0,1,1.39-.93,5,5,0,0,1,3.59,0,4.19,4.19,0,0,1,1.39.93,4.14,4.14,0,0,1,.89,1.4A4.88,4.88,0,0,1,86.14,348.47Zm-1.66,0a3.91,3.91,0,0,0-.19-1.28,2.5,2.5,0,0,0-.54-1,2.29,2.29,0,0,0-.86-.61,3.23,3.23,0,0,0-2.29,0,2.33,2.33,0,0,0-.87.61,2.66,2.66,0,0,0-.55,1,4.41,4.41,0,0,0,0,2.56,2.66,2.66,0,0,0,.55,1,2.42,2.42,0,0,0,.87.6,3.23,3.23,0,0,0,2.29,0,2.38,2.38,0,0,0,.86-.6,2.5,2.5,0,0,0,.54-1A3.91,3.91,0,0,0,84.48,348.47Z"/><path d="M92,349.61c.06.13.12.27.17.41l.18-.42a3.71,3.71,0,0,1,.19-.4l2.57-4.81a.39.39,0,0,1,.1-.14.21.21,0,0,1,.11-.08.32.32,0,0,1,.14,0h1.41v8.68H95.4v-5.95l0-.38-2.62,4.92a.7.7,0,0,1-.24.27.58.58,0,0,1-.33.09H92a.64.64,0,0,1-.34-.09.68.68,0,0,1-.23-.27l-2.66-4.93a2.53,2.53,0,0,1,0,.38c0,.13,0,.25,0,.35v5.61H87.41v-8.68h1.4a.32.32,0,0,1,.14,0,.23.23,0,0,1,.12.08.39.39,0,0,1,.1.14l2.6,4.82C91.83,349.34,91.9,349.47,92,349.61Z"/><path class="cls-2" d="M550.78,555.27a.48.48,0,0,1-.16.18.31.31,0,0,1-.2,0,.54.54,0,0,1-.27-.09l-.36-.2a2.29,2.29,0,0,0-.47-.21,2.13,2.13,0,0,0-.65-.09,1.69,1.69,0,0,0-.58.08,1.19,1.19,0,0,0-.42.22.89.89,0,0,0-.26.35,1,1,0,0,0-.08.44.75.75,0,0,0,.17.51,1.5,1.5,0,0,0,.45.35,4.27,4.27,0,0,0,.64.25l.74.25a5.1,5.1,0,0,1,.73.3,2.18,2.18,0,0,1,.64.43,2,2,0,0,1,.46.64,2.29,2.29,0,0,1,.17.92,3.11,3.11,0,0,1-.2,1.1,2.57,2.57,0,0,1-.59.89,2.86,2.86,0,0,1-.95.6,3.35,3.35,0,0,1-1.27.22,4.47,4.47,0,0,1-.82-.08,4.89,4.89,0,0,1-.77-.23,3.75,3.75,0,0,1-.69-.36,3.32,3.32,0,0,1-.57-.47l.46-.78a1.07,1.07,0,0,1,.16-.14.46.46,0,0,1,.21,0,.56.56,0,0,1,.32.12l.42.27a3.51,3.51,0,0,0,.55.28,2.22,2.22,0,0,0,.77.12,1.57,1.57,0,0,0,1.07-.33,1.18,1.18,0,0,0,.38-.94.88.88,0,0,0-.17-.55,1.38,1.38,0,0,0-.45-.37,3.52,3.52,0,0,0-.65-.25c-.24-.06-.48-.14-.73-.22a5,5,0,0,1-.73-.29,2.15,2.15,0,0,1-.64-.44,1.8,1.8,0,0,1-.45-.67,2.45,2.45,0,0,1-.18-1,2.48,2.48,0,0,1,.19-.92,2.32,2.32,0,0,1,.56-.8,2.65,2.65,0,0,1,.89-.56,3.21,3.21,0,0,1,1.2-.21,4.07,4.07,0,0,1,1.42.24,3.13,3.13,0,0,1,1.1.67Z"/><path class="cls-2" d="M559.88,562.36h-1.62v-3.79h-4.07v3.79h-1.63v-8.67h1.63v3.73h4.07v-3.73h1.62Z"/><path class="cls-2" d="M565.13,561.06a2.24,2.24,0,0,0,.84-.15,1.84,1.84,0,0,0,.62-.44,1.94,1.94,0,0,0,.39-.69,2.75,2.75,0,0,0,.13-.9v-5.19h1.62v5.19a3.87,3.87,0,0,1-.25,1.43,3.35,3.35,0,0,1-.72,1.14,3.26,3.26,0,0,1-1.13.74,4,4,0,0,1-1.5.27,3.93,3.93,0,0,1-1.5-.27,3.17,3.17,0,0,1-1.13-.74,3.35,3.35,0,0,1-.72-1.14,4.09,4.09,0,0,1-.25-1.43v-5.19h1.62v5.19a2.84,2.84,0,0,0,.13.9,2,2,0,0,0,.39.68,1.87,1.87,0,0,0,.62.45A2.24,2.24,0,0,0,565.13,561.06Z"/><path class="cls-2" d="M576.49,553.69V555h-2.61v7.35h-1.62V555h-2.62v-1.32Z"/><path class="cls-2" d="M583.63,553.69V555H581v7.35H579.4V555h-2.62v-1.32Z"/><path class="cls-2" d="M586.27,561h3.47v1.33h-5.09v-8.67h1.62Z"/><path class="cls-2" d="M596.33,553.69V555h-3.85v2.41h3v1.24h-3v2.45h3.85v1.29h-5.47v-8.67Z"/><path class="cls-2" d="M554.14,572.68h3.47V574h-5.09v-8.67h1.62Z"/><path class="cls-2" d="M566.57,569.67a4.84,4.84,0,0,1-.32,1.77,4.28,4.28,0,0,1-.89,1.41,4.17,4.17,0,0,1-1.39.92,4.91,4.91,0,0,1-3.59,0,4.07,4.07,0,0,1-1.39-.92,4.15,4.15,0,0,1-.9-1.41,5,5,0,0,1,0-3.53,4.15,4.15,0,0,1,.9-1.41,4,4,0,0,1,1.39-.93,4.73,4.73,0,0,1,1.8-.33,4.53,4.53,0,0,1,1.79.34,4.17,4.17,0,0,1,1.39.92,4.28,4.28,0,0,1,.89,1.41A4.83,4.83,0,0,1,566.57,569.67Zm-1.66,0a4,4,0,0,0-.19-1.28,2.5,2.5,0,0,0-.54-1,2.41,2.41,0,0,0-.86-.61,3.23,3.23,0,0,0-2.29,0,2.45,2.45,0,0,0-.87.61,2.81,2.81,0,0,0-.55,1,4.44,4.44,0,0,0,0,2.57,3,3,0,0,0,.55,1,2.42,2.42,0,0,0,.87.6,3.23,3.23,0,0,0,2.29,0,2.38,2.38,0,0,0,.86-.6,2.66,2.66,0,0,0,.54-1A4,4,0,0,0,564.91,569.67Z"/><path class="cls-2" d="M567.84,574v-8.67h3a5.61,5.61,0,0,1,1.46.16,2.84,2.84,0,0,1,1,.46,1.76,1.76,0,0,1,.57.73,2.42,2.42,0,0,1,.18,1,1.9,1.9,0,0,1-.09.58,1.75,1.75,0,0,1-.28.52,2,2,0,0,1-.48.44,2.68,2.68,0,0,1-.7.34c1.2.27,1.79.91,1.79,1.93a2.45,2.45,0,0,1-.21,1,2.28,2.28,0,0,1-.61.81,3.11,3.11,0,0,1-1,.53,4.25,4.25,0,0,1-1.34.19Zm1.61-4.92h1.29a2.16,2.16,0,0,0,1.25-.3,1.07,1.07,0,0,0,.43-.95,1.13,1.13,0,0,0-.39-1,2,2,0,0,0-1.2-.29h-1.38Zm0,1.12v2.54h1.64a2.14,2.14,0,0,0,.76-.11,1.24,1.24,0,0,0,.48-.28,1.17,1.17,0,0,0,.27-.42,1.7,1.7,0,0,0,.08-.51,1.36,1.36,0,0,0-.09-.51.9.9,0,0,0-.29-.38,1.26,1.26,0,0,0-.49-.25,3,3,0,0,0-.72-.08Z"/><path class="cls-2" d="M575.66,574v-8.67h3a5.66,5.66,0,0,1,1.46.16,2.84,2.84,0,0,1,1,.46,1.73,1.73,0,0,1,.56.73,2.42,2.42,0,0,1,.18,1,1.9,1.9,0,0,1-.09.58,1.72,1.72,0,0,1-.27.52,1.9,1.9,0,0,1-.49.44,2.47,2.47,0,0,1-.69.34c1.19.27,1.79.91,1.79,1.93a2.45,2.45,0,0,1-.21,1,2.28,2.28,0,0,1-.61.81,3.11,3.11,0,0,1-1,.53,4.27,4.27,0,0,1-1.35.19Zm1.61-4.92h1.29a2.16,2.16,0,0,0,1.25-.3,1.1,1.1,0,0,0,.43-.95,1.13,1.13,0,0,0-.39-1,2,2,0,0,0-1.2-.29h-1.38Zm0,1.12v2.54h1.64a2,2,0,0,0,.75-.11,1.29,1.29,0,0,0,.49-.28,1,1,0,0,0,.26-.42,1.44,1.44,0,0,0,.08-.51,1.36,1.36,0,0,0-.09-.51.88.88,0,0,0-.28-.38,1.33,1.33,0,0,0-.49-.25,3,3,0,0,0-.73-.08Z"/><path class="cls-2" d="M587.33,570.64V574h-1.61v-3.37l-3.16-5.3H584a.48.48,0,0,1,.33.1.78.78,0,0,1,.21.26l1.59,2.89.24.49.19.46c.05-.16.11-.31.17-.46s.15-.32.24-.49l1.58-2.89a.76.76,0,0,1,.2-.25.46.46,0,0,1,.33-.11h1.43Z"/><path class="cls-3" d="M557.88,239.35h1.35v-5.41a2.7,2.7,0,0,0-2.71-2.7h-4a2.7,2.7,0,0,0-2.71,2.7v5.41h5.41"/><path class="cls-3" d="M555.17,239.35V236a1.34,1.34,0,0,0-1.35-1.35h-2.7a1.35,1.35,0,0,0-1.36,1.35"/><path class="cls-3" d="M558.55,239.35l.85.85a2,2,0,0,1,.58,1.21l.43,3.84a2,2,0,0,1-1.26,2.11l-3.92,1.56a2.73,2.73,0,0,1-2.63-.34l-1.48-1.12,4.73-2.7v-2"/><line class="cls-3" x1="551.12" y1="247.46" x2="543.6" y2="247.46"/><path class="cls-3" d="M560.58,252.87h2a1.36,1.36,0,0,0,1.35-1.35V238a1.35,1.35,0,0,0-1.35-1.35h-3.38"/><line class="cls-3" x1="558.55" y1="247.87" x2="558.55" y2="261.66"/><line class="cls-3" x1="549.76" y1="250.05" x2="549.76" y2="261.66"/><polyline class="cls-3" points="553.14 261.66 553.14 252.53 552.17 251.58"/><path class="cls-3" d="M547.06,245.43l2.7-2v-2.14a1.39,1.39,0,0,1,.4-1l1-1"/><line class="cls-3" x1="537.6" y1="245.43" x2="536.92" y2="245.43"/><line class="cls-3" x1="537.6" y1="249.49" x2="536.92" y2="249.49"/><line class="cls-3" x1="534.22" y1="247.46" x2="533.54" y2="247.46"/><line class="cls-3" x1="540.98" y1="247.46" x2="540.3" y2="247.46"/><line class="cls-3" x1="534.22" y1="243.4" x2="533.54" y2="243.4"/><line class="cls-3" x1="534.22" y1="251.52" x2="533.54" y2="251.52"/><path d="M735.82,354.36h1.63a.7.7,0,0,1,.42.12.9.9,0,0,1,.25.33l2.54,6.59c.08.22.16.45.24.71s.15.53.22.81a10,10,0,0,1,.43-1.52l2.53-6.59a.87.87,0,0,1,.24-.31.64.64,0,0,1,.43-.14h1.62L742,365.16h-1.81Z"/><path d="M749.76,365.16h-2v-10.8h2Z"/><path d="M754.27,361.36v3.8h-2v-10.8h3.52a6.14,6.14,0,0,1,1.87.25,3.73,3.73,0,0,1,1.31.71,2.76,2.76,0,0,1,.76,1.09,4.05,4.05,0,0,1,0,2.83,3.08,3.08,0,0,1-.79,1.13,3.76,3.76,0,0,1-1.31.73,5.9,5.9,0,0,1-1.83.26Zm0-1.57h1.51a3.08,3.08,0,0,0,1-.14,1.71,1.71,0,0,0,.68-.4,1.62,1.62,0,0,0,.4-.62,2.41,2.41,0,0,0,.14-.83,2.13,2.13,0,0,0-.14-.78,1.48,1.48,0,0,0-.4-.6,1.8,1.8,0,0,0-.68-.38,3.43,3.43,0,0,0-1-.13h-1.51Z"/><path d="M766.42,363.5h4.33v1.66h-6.34v-10.8h2Z"/><path d="M781.91,359.76a6.06,6.06,0,0,1-.4,2.2,5.18,5.18,0,0,1-1.11,1.75,5.07,5.07,0,0,1-1.73,1.16,6.3,6.3,0,0,1-4.47,0,5,5,0,0,1-2.85-2.91,6.25,6.25,0,0,1,0-4.4,5,5,0,0,1,2.85-2.91,6,6,0,0,1,2.24-.41,5.75,5.75,0,0,1,2.23.42,5,5,0,0,1,2.84,2.9A6.06,6.06,0,0,1,781.91,359.76Zm-2.07,0a5.28,5.28,0,0,0-.23-1.6,3.36,3.36,0,0,0-.68-1.2,2.92,2.92,0,0,0-1.07-.75,4,4,0,0,0-2.85,0,3,3,0,0,0-1.08.75,3.37,3.37,0,0,0-.69,1.2,5.68,5.68,0,0,0,0,3.2,3.33,3.33,0,0,0,.69,1.19,2.92,2.92,0,0,0,1.08.75,4,4,0,0,0,2.85,0,2.81,2.81,0,0,0,1.07-.75,3.31,3.31,0,0,0,.68-1.19A5.33,5.33,0,0,0,779.84,359.76Z"/><path d="M787.84,363.54a2.64,2.64,0,0,0,1-.19,2.09,2.09,0,0,0,.78-.55,2.35,2.35,0,0,0,.48-.85,3.29,3.29,0,0,0,.17-1.12v-6.47h2v6.47a4.93,4.93,0,0,1-.31,1.78,3.81,3.81,0,0,1-.89,1.41,4,4,0,0,1-1.41.93,5.46,5.46,0,0,1-3.74,0,4,4,0,0,1-1.41-.93,4.09,4.09,0,0,1-.89-1.41,5.16,5.16,0,0,1-.31-1.78v-6.47h2v6.46a3.56,3.56,0,0,0,.17,1.12,2.4,2.4,0,0,0,.48.86,2.2,2.2,0,0,0,.78.55A2.61,2.61,0,0,0,787.84,363.54Z"/><path d="M795.65,354.37l.16,0,.14.1.15.17,5.67,7.22a4.38,4.38,0,0,1,0-.51c0-.16,0-.32,0-.46v-6.57h1.78v10.8h-1a.93.93,0,0,1-.4-.07.94.94,0,0,1-.31-.27l-5.64-7.2,0,.48c0,.15,0,.3,0,.43v6.63h-1.77v-10.8h1.28Z"/><path d="M810.63,363.68a5.1,5.1,0,0,0,1.18-.12,5,5,0,0,0,1-.34v-2h-1.35a.45.45,0,0,1-.31-.1.39.39,0,0,1-.11-.27v-1.13h3.6v4.37a6.35,6.35,0,0,1-.86.52,6.68,6.68,0,0,1-1,.36,8,8,0,0,1-1.08.21,9.64,9.64,0,0,1-1.24.07,5.67,5.67,0,0,1-2.17-.41,5,5,0,0,1-1.72-1.14,5.23,5.23,0,0,1-1.13-1.75,6.31,6.31,0,0,1,0-4.45,4.91,4.91,0,0,1,1.12-1.75,5,5,0,0,1,1.77-1.14,6.36,6.36,0,0,1,2.33-.4,6.13,6.13,0,0,1,2.29.39,5.3,5.3,0,0,1,1.64,1l-.58.91a.52.52,0,0,1-.46.28.7.7,0,0,1-.37-.12l-.49-.29a3.5,3.5,0,0,0-.55-.24,4,4,0,0,0-.68-.17,4.51,4.51,0,0,0-.87-.07,3.7,3.7,0,0,0-1.44.27A3,3,0,0,0,808,357a3.55,3.55,0,0,0-.7,1.2,4.83,4.83,0,0,0-.25,1.57,4.74,4.74,0,0,0,.27,1.66,3.27,3.27,0,0,0,.73,1.23,3.12,3.12,0,0,0,1.12.77A3.86,3.86,0,0,0,810.63,363.68Z"/><path d="M823.29,354.36V356H818.5v3h3.77v1.55H818.5v3.06h4.79v1.6h-6.82v-10.8Z"/><polygon class="cls-4" points="828.5 363.1 828.5 368.82 733.25 368.82 733.25 361.5 826.01 361.5 828.5 363.1"/><path d="M735.82,446.31h1.63a.64.64,0,0,1,.42.13.76.76,0,0,1,.25.33l2.54,6.59c.08.21.16.45.24.7s.15.53.22.81a9.81,9.81,0,0,1,.43-1.51l2.53-6.59a.9.9,0,0,1,.24-.32.69.69,0,0,1,.43-.14h1.62L742,457.12h-1.81Z"/><path d="M749.76,457.12h-2V446.31h2Z"/><path d="M754.27,453.31v3.81h-2V446.31h3.52a6.12,6.12,0,0,1,1.87.26,3.58,3.58,0,0,1,1.31.71,2.69,2.69,0,0,1,.76,1.09,3.86,3.86,0,0,1,.25,1.39,4,4,0,0,1-.26,1.44,3,3,0,0,1-.79,1.12,3.6,3.6,0,0,1-1.31.73,5.61,5.61,0,0,1-1.83.26Zm0-1.57h1.51a3.1,3.1,0,0,0,1-.13,2,2,0,0,0,.68-.4,1.58,1.58,0,0,0,.4-.63,2.35,2.35,0,0,0,.14-.82,2.22,2.22,0,0,0-.14-.79,1.62,1.62,0,0,0-.4-.6,1.78,1.78,0,0,0-.68-.37,3.1,3.1,0,0,0-1-.13h-1.51Z"/><path d="M766.42,455.46h4.33v1.66h-6.34V446.31h2Z"/><path d="M781.91,451.71a6,6,0,0,1-.4,2.2,5.32,5.32,0,0,1-1.11,1.76,5.19,5.19,0,0,1-1.73,1.15,6.16,6.16,0,0,1-4.47,0,4.95,4.95,0,0,1-2.85-2.91,5.82,5.82,0,0,1-.4-2.2,5.89,5.89,0,0,1,.4-2.2,5.13,5.13,0,0,1,1.11-1.75,5,5,0,0,1,1.74-1.15,6.16,6.16,0,0,1,4.47,0,5.06,5.06,0,0,1,2.84,2.9A6.1,6.1,0,0,1,781.91,451.71Zm-2.07,0a5.21,5.21,0,0,0-.23-1.59,3.36,3.36,0,0,0-.68-1.2,2.94,2.94,0,0,0-1.07-.76,4,4,0,0,0-2.85,0,3.07,3.07,0,0,0-1.08.76,3.37,3.37,0,0,0-.69,1.2,5.65,5.65,0,0,0,0,3.19,3.37,3.37,0,0,0,.69,1.2,3.18,3.18,0,0,0,1.08.75,4,4,0,0,0,2.85,0,3,3,0,0,0,1.07-.75,3.36,3.36,0,0,0,.68-1.2A5.23,5.23,0,0,0,779.84,451.71Z"/><path d="M787.84,455.5a2.64,2.64,0,0,0,1-.2,2.18,2.18,0,0,0,.78-.54,2.4,2.4,0,0,0,.48-.86,3.25,3.25,0,0,0,.17-1.12v-6.47h2v6.47a4.86,4.86,0,0,1-.31,1.78,3.93,3.93,0,0,1-.89,1.42,4.15,4.15,0,0,1-1.41.92,5.31,5.31,0,0,1-3.74,0,4.15,4.15,0,0,1-1.41-.92,4.23,4.23,0,0,1-.89-1.42,5.08,5.08,0,0,1-.31-1.78v-6.47h2v6.47a3.6,3.6,0,0,0,.17,1.12,2.35,2.35,0,0,0,.48.85,2.09,2.09,0,0,0,.78.55A2.61,2.61,0,0,0,787.84,455.5Z"/><path d="M795.65,446.32l.16.05a.55.55,0,0,1,.14.09l.15.17,5.67,7.23a4.75,4.75,0,0,1,0-.51c0-.17,0-.32,0-.47v-6.57h1.78v10.81h-1a.92.92,0,0,1-.4-.08.94.94,0,0,1-.31-.27l-5.64-7.19,0,.47c0,.16,0,.3,0,.43v6.64h-1.77V446.31h1.28Z"/><path d="M810.63,455.64a4.58,4.58,0,0,0,1.18-.13,4.37,4.37,0,0,0,1-.34v-2h-1.35a.45.45,0,0,1-.31-.11.36.36,0,0,1-.11-.26V451.7h3.6v4.37a6.35,6.35,0,0,1-.86.52,4.91,4.91,0,0,1-1,.36,6.65,6.65,0,0,1-1.08.22,11.86,11.86,0,0,1-1.24.07,5.67,5.67,0,0,1-2.17-.41,5.14,5.14,0,0,1-1.72-1.15,5.23,5.23,0,0,1-1.13-1.75,5.89,5.89,0,0,1-.41-2.22,6,6,0,0,1,.4-2.23,4.91,4.91,0,0,1,1.12-1.75,5,5,0,0,1,1.77-1.13,6.36,6.36,0,0,1,2.33-.41,6.13,6.13,0,0,1,2.29.39,5.52,5.52,0,0,1,1.64,1l-.58.91a.53.53,0,0,1-.46.27.7.7,0,0,1-.37-.12l-.49-.28a2.78,2.78,0,0,0-.55-.25,5.19,5.19,0,0,0-.68-.17,5.47,5.47,0,0,0-.87-.07,3.7,3.7,0,0,0-1.44.27,3.12,3.12,0,0,0-1.11.77,3.75,3.75,0,0,0-.7,1.2,4.88,4.88,0,0,0-.25,1.57,4.8,4.8,0,0,0,.27,1.67,3.44,3.44,0,0,0,.73,1.23,3.09,3.09,0,0,0,1.12.76A3.67,3.67,0,0,0,810.63,455.64Z"/><path d="M823.29,446.31v1.6H818.5v3h3.77v1.54H818.5v3.06h4.79v1.61h-6.82V446.31Z"/><polygon class="cls-5" points="828.5 455.06 828.5 460.78 733.25 460.78 733.25 453.45 826.01 453.45 828.5 455.06"/><rect class="cls-6" x="708.21" y="56.25" width="157.08" height="155.81"/><rect class="cls-7" x="708.21" y="412.86" width="157.08" height="99.47"/><rect class="cls-8" x="708.21" y="222.06" width="157.08" height="180.8"/><path class="cls-2" d="M434.47,412a3.85,3.85,0,0,0,.1.95,3.9,3.9,0,0,0,.27.77h1.58v-1.09a.32.32,0,0,1,.09-.24.26.26,0,0,1,.21-.09h.91v2.88h-3.51a4.79,4.79,0,0,1-.42-.68,5.7,5.7,0,0,1-.29-.76,7.06,7.06,0,0,1-.17-.87,7.87,7.87,0,0,1-.05-1,4.32,4.32,0,0,1,.33-1.74,4,4,0,0,1,.91-1.38,4.13,4.13,0,0,1,1.41-.91,4.7,4.7,0,0,1,1.78-.33,4.91,4.91,0,0,1,1.79.32,3.91,3.91,0,0,1,2.32,2.32,5.28,5.28,0,0,1,.32,1.87,4.89,4.89,0,0,1-.31,1.84,4.35,4.35,0,0,1-.82,1.32l-.73-.47a.42.42,0,0,1-.23-.37.59.59,0,0,1,.1-.29l.23-.39a3.79,3.79,0,0,0,.2-.45,3.57,3.57,0,0,0,.13-.54,3.65,3.65,0,0,0,.06-.7,2.86,2.86,0,0,0-.22-1.16,2.52,2.52,0,0,0-.61-.89,2.9,2.9,0,0,0-1-.56,3.87,3.87,0,0,0-1.26-.2,4,4,0,0,0-1.34.21,2.82,2.82,0,0,0-1,.59,2.46,2.46,0,0,0-.62.9A3,3,0,0,0,434.47,412Z"/><path class="cls-2" d="M434.58,420.16a2.06,2.06,0,0,0,.16.84,1.63,1.63,0,0,0,.44.62,1.81,1.81,0,0,0,.68.39,2.83,2.83,0,0,0,.9.14H442v1.61h-5.2a3.91,3.91,0,0,1-1.43-.25,3.06,3.06,0,0,1-1.13-.71,3.33,3.33,0,0,1-.75-1.14,3.93,3.93,0,0,1-.26-1.5,4,4,0,0,1,.26-1.5,3.29,3.29,0,0,1,.75-1.13,3.06,3.06,0,0,1,1.13-.71,3.91,3.91,0,0,1,1.43-.25H442v1.61h-5.19a2.79,2.79,0,0,0-.9.14,2.09,2.09,0,0,0-.69.38,1.67,1.67,0,0,0-.44.63A2,2,0,0,0,434.58,420.16Z"/><path class="cls-2" d="M442,430.88h-1.29V427h-2.4v3H437v-3h-2.46v3.85h-1.29v-5.47H442Z"/><path class="cls-2" d="M440.38,436.93a.52.52,0,0,1-.19-.16.42.42,0,0,1-.05-.2.54.54,0,0,1,.09-.27l.21-.36a2.75,2.75,0,0,0,.21-.48,2,2,0,0,0,.09-.64,2,2,0,0,0-.08-.58,1.2,1.2,0,0,0-.23-.42.86.86,0,0,0-.34-.26,1.08,1.08,0,0,0-.44-.08.72.72,0,0,0-.51.17,1.24,1.24,0,0,0-.35.45,4.26,4.26,0,0,0-.26.64l-.24.74c-.09.25-.19.49-.3.73a2.66,2.66,0,0,1-.43.64,2.14,2.14,0,0,1-.64.46,2.32,2.32,0,0,1-.92.17,3.07,3.07,0,0,1-1.1-.2,2.7,2.7,0,0,1-.9-.59,2.86,2.86,0,0,1-.6-.95,3.56,3.56,0,0,1-.21-1.27,3.74,3.74,0,0,1,.08-.82,3.82,3.82,0,0,1,.23-.77,3.75,3.75,0,0,1,.36-.69,3.28,3.28,0,0,1,.46-.57l.78.46a1.07,1.07,0,0,1,.14.16.37.37,0,0,1,.06.21.51.51,0,0,1-.13.32l-.27.42a2.82,2.82,0,0,0-.27.55,2.21,2.21,0,0,0-.13.77,1.57,1.57,0,0,0,.33,1.07,1.18,1.18,0,0,0,.94.38.89.89,0,0,0,.56-.17,1.62,1.62,0,0,0,.36-.45,3.52,3.52,0,0,0,.25-.65c.07-.24.14-.48.22-.73a6.52,6.52,0,0,1,.29-.73,2.35,2.35,0,0,1,.44-.64,2,2,0,0,1,.67-.46,2.68,2.68,0,0,1,1-.17,2.49,2.49,0,0,1,.93.19,2.28,2.28,0,0,1,.79.56,2.51,2.51,0,0,1,.56.89,3.21,3.21,0,0,1,.21,1.2,4.07,4.07,0,0,1-.24,1.42,3.13,3.13,0,0,1-.67,1.1Z"/><path class="cls-2" d="M442,444.83h-1.33v-2.61h-7.35V440.6h7.35V438H442Z"/><path class="cls-2" d="M434.61,449.78v3.48h-1.33v-5.09H442v1.61Z"/><path class="cls-2" d="M437.62,462.22a4.84,4.84,0,0,1-1.77-.32,4.15,4.15,0,0,1-1.41-.9,4,4,0,0,1-.92-1.38,5,5,0,0,1,0-3.59,4.11,4.11,0,0,1,.92-1.4,4.28,4.28,0,0,1,1.41-.89,4.84,4.84,0,0,1,1.77-.32,4.92,4.92,0,0,1,1.77.32,4.14,4.14,0,0,1,1.4.89,4,4,0,0,1,.93,1.4,5,5,0,0,1,0,3.59,4.2,4.2,0,0,1-.93,1.38,4,4,0,0,1-1.4.9A4.92,4.92,0,0,1,437.62,462.22Zm0-1.66a3.91,3.91,0,0,0,1.28-.19,2.64,2.64,0,0,0,1-.54,2.37,2.37,0,0,0,.61-.86,3.23,3.23,0,0,0,0-2.29,2.33,2.33,0,0,0-.61-.87,2.66,2.66,0,0,0-1-.55,4.41,4.41,0,0,0-2.56,0,2.66,2.66,0,0,0-1,.55,2.3,2.3,0,0,0-.6.87,3.23,3.23,0,0,0,0,2.29,2.35,2.35,0,0,0,.6.86,2.64,2.64,0,0,0,1,.54A3.91,3.91,0,0,0,437.62,460.56Z"/><path class="cls-2" d="M433.28,463.49H442v3a5.58,5.58,0,0,1-.17,1.46,2.67,2.67,0,0,1-.46,1,1.77,1.77,0,0,1-.72.56,2.49,2.49,0,0,1-1,.18,1.92,1.92,0,0,1-.59-.09,1.65,1.65,0,0,1-.52-.28,2,2,0,0,1-.44-.47,3.51,3.51,0,0,1-.34-.7c-.27,1.19-.91,1.79-1.93,1.79a2.45,2.45,0,0,1-1-.21,2.28,2.28,0,0,1-.81-.61,3.11,3.11,0,0,1-.53-1,4.27,4.27,0,0,1-.19-1.35Zm3.8,1.61h-2.54v1.64a2.28,2.28,0,0,0,.11.75,1.23,1.23,0,0,0,.29.49,1,1,0,0,0,.42.26,1.44,1.44,0,0,0,.51.08,1.31,1.31,0,0,0,.5-.09,1,1,0,0,0,.39-.28,1.49,1.49,0,0,0,.24-.49,2.58,2.58,0,0,0,.08-.73Zm1.12,0v1.29a2.16,2.16,0,0,0,.3,1.25,1.1,1.1,0,0,0,.95.43,1.12,1.12,0,0,0,1-.39,2,2,0,0,0,.29-1.2V465.1Z"/><path class="cls-2" d="M433.28,471.31H442v3a5.49,5.49,0,0,1-.17,1.45,2.65,2.65,0,0,1-.46,1,1.86,1.86,0,0,1-.72.56,2.49,2.49,0,0,1-1,.18,1.92,1.92,0,0,1-.59-.09,1.65,1.65,0,0,1-.52-.28,1.87,1.87,0,0,1-.44-.48,3.17,3.17,0,0,1-.34-.69c-.27,1.19-.91,1.79-1.93,1.79a2.45,2.45,0,0,1-1-.21,2.41,2.41,0,0,1-.81-.61,3.11,3.11,0,0,1-.53-1,4.32,4.32,0,0,1-.19-1.35Zm3.8,1.61h-2.54v1.64a2.28,2.28,0,0,0,.11.75,1.39,1.39,0,0,0,.29.49,1,1,0,0,0,.42.26,1.44,1.44,0,0,0,.51.08,1.31,1.31,0,0,0,.5-.09,1,1,0,0,0,.39-.28,1.49,1.49,0,0,0,.24-.49,2.58,2.58,0,0,0,.08-.73Zm1.12,0v1.29a2.18,2.18,0,0,0,.3,1.25,1.09,1.09,0,0,0,.95.42,1.11,1.11,0,0,0,1-.38,2,2,0,0,0,.29-1.2v-1.38Z"/><path class="cls-2" d="M436.65,483h-3.37v-1.61h3.37l5.31-3.16v1.42a.54.54,0,0,1-.1.33,1.09,1.09,0,0,1-.26.21l-2.9,1.59-.49.24-.45.18.46.18.48.24,2.9,1.58a.72.72,0,0,1,.24.19.49.49,0,0,1,.12.34v1.43Z"/><path class="cls-9" d="M88.63,417.35l-8.83-8.83a2.47,2.47,0,0,0-3.39,0l-8.83,8.83a2.4,2.4,0,0,0,3.39,3.4L75.71,416v25.53a2.4,2.4,0,1,0,4.8,0V416l4.73,4.74a2.4,2.4,0,1,0,3.39-3.4Z"/><path class="cls-10" d="M88.63,417.35l-8.83-8.83a2.47,2.47,0,0,0-3.39,0l-8.83,8.83a2.4,2.4,0,0,0,3.39,3.4L75.71,416v25.53a2.4,2.4,0,1,0,4.8,0V416l4.73,4.74a2.4,2.4,0,1,0,3.39-3.4Z"/><path class="cls-9" d="M510.76,552.91l-8.83,8.83a2.47,2.47,0,0,0,0,3.39l8.83,8.83a2.4,2.4,0,1,0,3.4-3.39l-4.73-4.74H535a2.4,2.4,0,0,0,0-4.8H509.43l4.73-4.73a2.4,2.4,0,0,0-3.4-3.39Z"/><path class="cls-10" d="M510.76,552.91l-8.83,8.83a2.47,2.47,0,0,0,0,3.39l8.83,8.83a2.4,2.4,0,1,0,3.4-3.39l-4.73-4.74H535a2.4,2.4,0,0,0,0-4.8H509.43l4.73-4.73a2.4,2.4,0,0,0-3.4-3.39Z"/><path class="cls-9" d="M643.62,317.91l8.83,8.83a2.47,2.47,0,0,0,3.39,0l8.83-8.83a2.4,2.4,0,0,0-3.39-3.39l-4.74,4.73V273.72a2.4,2.4,0,1,0-4.8,0v45.53L647,314.52a2.4,2.4,0,0,0-3.39,3.39Z"/><path class="cls-10" d="M643.62,317.91l8.83,8.83a2.47,2.47,0,0,0,3.39,0l8.83-8.83a2.4,2.4,0,0,0-3.39-3.39l-4.74,4.73V273.72a2.4,2.4,0,1,0-4.8,0v45.53L647,314.52a2.4,2.4,0,0,0-3.39,3.39Z"/><path d="M769.67,137.34a.12.12,0,0,1-.11.08.29.29,0,0,1-.16-.09l-.25-.18a1.77,1.77,0,0,0-.39-.19,2,2,0,0,0-.59-.08,1.66,1.66,0,0,0-.61.1,1.16,1.16,0,0,0-.44.27,1.05,1.05,0,0,0-.27.39,1.28,1.28,0,0,0-.09.48,1,1,0,0,0,.13.53,1.41,1.41,0,0,0,.37.36,2.42,2.42,0,0,0,.51.25c.19.07.38.14.59.2l.58.22a2,2,0,0,1,.52.3,1.39,1.39,0,0,1,.36.44,1.46,1.46,0,0,1,.14.66,2.08,2.08,0,0,1-.14.75,1.84,1.84,0,0,1-.4.62,1.9,1.9,0,0,1-.64.41,2.31,2.31,0,0,1-.86.15,2.61,2.61,0,0,1-1.09-.22,2.5,2.5,0,0,1-.79-.62l.12-.19a.16.16,0,0,1,.13-.07.19.19,0,0,1,.1.05l.16.14.21.17a2,2,0,0,0,.29.17,2,2,0,0,0,.39.13,2.26,2.26,0,0,0,1.17-.06,1.69,1.69,0,0,0,.5-.31,1.38,1.38,0,0,0,.31-.47,1.63,1.63,0,0,0,.11-.59,1,1,0,0,0-.14-.55,1.16,1.16,0,0,0-.36-.37,2.4,2.4,0,0,0-.51-.24l-.59-.19-.59-.22a1.63,1.63,0,0,1-.51-.3,1.33,1.33,0,0,1-.36-.45,1.4,1.4,0,0,1-.14-.68,1.67,1.67,0,0,1,.12-.62,1.43,1.43,0,0,1,.36-.52,1.7,1.7,0,0,1,.58-.37,2.13,2.13,0,0,1,.78-.13,2.48,2.48,0,0,1,.89.15,2.39,2.39,0,0,1,.72.48Z"/><path d="M775.45,136.57V137h-2.24v6h-.45v-6h-2.25v-.39Z"/><path d="M778.91,142.61a2.14,2.14,0,0,0,.82-.16,1.83,1.83,0,0,0,.61-.45,1.89,1.89,0,0,0,.39-.66,2.53,2.53,0,0,0,.13-.83v-3.94h.46v3.94a2.88,2.88,0,0,1-.17,1,2.41,2.41,0,0,1-.48.8,2.31,2.31,0,0,1-.76.53,2.75,2.75,0,0,1-2,0,2.31,2.31,0,0,1-.76-.53,2.41,2.41,0,0,1-.48-.8,2.88,2.88,0,0,1-.17-1v-3.94H777v3.93a2.45,2.45,0,0,0,.13.83,2.09,2.09,0,0,0,.38.67,1.83,1.83,0,0,0,.61.45A2.19,2.19,0,0,0,778.91,142.61Z"/><path d="M788.51,139.75a3.75,3.75,0,0,1-.22,1.33,2.77,2.77,0,0,1-.62,1,2.51,2.51,0,0,1-1,.63,3.25,3.25,0,0,1-1.23.23h-2.33v-6.37h2.33a3.24,3.24,0,0,1,1.23.22,2.76,2.76,0,0,1,1,.63,2.73,2.73,0,0,1,.62,1A3.66,3.66,0,0,1,788.51,139.75Zm-.47,0a3.42,3.42,0,0,0-.19-1.19,2.34,2.34,0,0,0-.52-.88,2.24,2.24,0,0,0-.8-.55,2.76,2.76,0,0,0-1-.19h-1.86v5.62h1.86a2.76,2.76,0,0,0,1-.19,2.12,2.12,0,0,0,.8-.55,2.34,2.34,0,0,0,.52-.88A3.38,3.38,0,0,0,788,139.75Z"/><path d="M790.62,142.94h-.46v-6.37h.46Z"/><path d="M798.36,139.75a3.81,3.81,0,0,1-.22,1.34,2.77,2.77,0,0,1-.62,1,2.5,2.5,0,0,1-1,.66,3.4,3.4,0,0,1-2.46,0,2.66,2.66,0,0,1-1-.66,2.77,2.77,0,0,1-.62-1,3.8,3.8,0,0,1-.23-1.34,3.75,3.75,0,0,1,.23-1.33,2.73,2.73,0,0,1,.62-1,2.94,2.94,0,0,1,1-.66,3.4,3.4,0,0,1,2.46,0,2.5,2.5,0,0,1,1,.66,2.73,2.73,0,0,1,.62,1A3.75,3.75,0,0,1,798.36,139.75Zm-.47,0a3.51,3.51,0,0,0-.19-1.2,2.5,2.5,0,0,0-.52-.9,2.22,2.22,0,0,0-.81-.56,2.8,2.8,0,0,0-2.08,0,2.4,2.4,0,0,0-.81.56,2.68,2.68,0,0,0-.53.9,3.78,3.78,0,0,0-.18,1.2A3.69,3.69,0,0,0,793,141a2.68,2.68,0,0,0,.53.9,2.4,2.4,0,0,0,.81.56,2.94,2.94,0,0,0,2.08,0,2.22,2.22,0,0,0,.81-.56,2.5,2.5,0,0,0,.52-.9A3.44,3.44,0,0,0,797.89,139.75Z"/><path d="M804.52,140.77h1.17V141a.11.11,0,0,1,0,.08.13.13,0,0,1-.1,0h-1v1.83h-.39v-1.83h-3a.15.15,0,0,1-.1,0,.14.14,0,0,1,0-.08l0-.21,3.2-4.23h.38Zm-.39-3.34a.92.92,0,0,1,0-.16c0-.06,0-.12,0-.18l-2.74,3.68h2.72Z"/><path d="M759.71,127.79V132h-2V121.21H761a7,7,0,0,1,1.89.23,3.39,3.39,0,0,1,1.29.64,2.35,2.35,0,0,1,.74,1,3.22,3.22,0,0,1,.24,1.26,3.47,3.47,0,0,1-.16,1,2.87,2.87,0,0,1-.47.88,3.09,3.09,0,0,1-.74.7,4,4,0,0,1-1,.48,1.85,1.85,0,0,1,.66.62l2.71,4h-1.81a.91.91,0,0,1-.45-.11,1,1,0,0,1-.31-.3l-2.27-3.46a.71.71,0,0,0-.28-.27.89.89,0,0,0-.45-.09Zm0-1.44H761a3.33,3.33,0,0,0,1-.14,1.92,1.92,0,0,0,.69-.39,1.65,1.65,0,0,0,.41-.6,2,2,0,0,0,.13-.75,1.52,1.52,0,0,0-.54-1.26,2.54,2.54,0,0,0-1.65-.45h-1.29Z"/><path d="M777.43,126.61a5.82,5.82,0,0,1-.4,2.2,5,5,0,0,1-2.84,2.91,5.72,5.72,0,0,1-2.23.41,5.8,5.8,0,0,1-2.24-.41,5.09,5.09,0,0,1-1.73-1.15,5.19,5.19,0,0,1-1.12-1.76,6,6,0,0,1-.4-2.2,6.1,6.1,0,0,1,.4-2.2,5.15,5.15,0,0,1,1.12-1.75,5,5,0,0,1,1.73-1.15,5.8,5.8,0,0,1,2.24-.42,5.72,5.72,0,0,1,2.23.42,5,5,0,0,1,2.84,2.9A5.89,5.89,0,0,1,777.43,126.61Zm-2.07,0a4.92,4.92,0,0,0-.23-1.59,3.36,3.36,0,0,0-.68-1.2,2.94,2.94,0,0,0-1.07-.76,3.74,3.74,0,0,0-1.42-.26,3.8,3.8,0,0,0-1.43.26,3.07,3.07,0,0,0-1.08.76,3.36,3.36,0,0,0-.68,1.2,5.42,5.42,0,0,0,0,3.19,3.23,3.23,0,0,0,.68,1.19,3.07,3.07,0,0,0,1.08.76,3.8,3.8,0,0,0,1.43.26,3.74,3.74,0,0,0,1.42-.26,2.94,2.94,0,0,0,1.07-.76,3.23,3.23,0,0,0,.68-1.19A5,5,0,0,0,775.36,126.61Z"/><path d="M789.38,126.61a6,6,0,0,1-.4,2.2,5.32,5.32,0,0,1-1.11,1.76,5.19,5.19,0,0,1-1.73,1.15,6.3,6.3,0,0,1-4.47,0,4.95,4.95,0,0,1-2.85-2.91,5.82,5.82,0,0,1-.4-2.2,5.89,5.89,0,0,1,.4-2.2,5.13,5.13,0,0,1,1.11-1.75,5,5,0,0,1,1.74-1.15,6.16,6.16,0,0,1,4.47,0,5.19,5.19,0,0,1,1.73,1.15,5.38,5.38,0,0,1,1.11,1.75A6.1,6.1,0,0,1,789.38,126.61Zm-2.07,0a5.21,5.21,0,0,0-.23-1.59,3.51,3.51,0,0,0-.68-1.2,2.94,2.94,0,0,0-1.07-.76,4,4,0,0,0-2.85,0,3,3,0,0,0-1.08.76,3.37,3.37,0,0,0-.69,1.2,5.65,5.65,0,0,0,0,3.19,3.25,3.25,0,0,0,.69,1.19,3,3,0,0,0,1.08.76,4,4,0,0,0,2.85,0,2.94,2.94,0,0,0,1.07-.76,3.37,3.37,0,0,0,.68-1.19A5.23,5.23,0,0,0,787.31,126.61Z"/><path d="M796.62,128l.21.52c.07-.18.14-.36.22-.53a3.85,3.85,0,0,1,.24-.5l3.2-6a1.4,1.4,0,0,1,.12-.18.42.42,0,0,1,.14-.09.48.48,0,0,1,.18,0h1.75V132H800.9v-7c0-.13,0-.27,0-.43s0-.31,0-.47l-3.27,6.13a.82.82,0,0,1-.29.32.74.74,0,0,1-.42.12h-.27a.74.74,0,0,1-.42-.12.82.82,0,0,1-.29-.32l-3.31-6.15c0,.16,0,.32,0,.48s0,.3,0,.44v7H791V121.21h1.75a.47.47,0,0,1,.17,0,.46.46,0,0,1,.15.09,1.4,1.4,0,0,1,.13.18l3.22,6A4.59,4.59,0,0,1,796.62,128Z"/><path d="M814,122a.86.86,0,0,1-.25.64,1.18,1.18,0,0,1-.83.24h-3l-.39,2.26a6.78,6.78,0,0,1,1.34-.15,4.06,4.06,0,0,1,1.5.26,3.15,3.15,0,0,1,1.09.7,3,3,0,0,1,.66,1,3.65,3.65,0,0,1,.23,1.29,3.79,3.79,0,0,1-.31,1.57,3.5,3.5,0,0,1-.84,1.22,4,4,0,0,1-1.27.78,4.63,4.63,0,0,1-1.6.27,4.37,4.37,0,0,1-1-.1,4.46,4.46,0,0,1-.85-.28,4.71,4.71,0,0,1-.74-.4,5.18,5.18,0,0,1-.61-.48l.57-.79a.55.55,0,0,1,.47-.25.68.68,0,0,1,.38.12l.45.26a4.15,4.15,0,0,0,.59.26,2.39,2.39,0,0,0,.81.12,2.29,2.29,0,0,0,.9-.17A1.67,1.67,0,0,0,812,130a1.72,1.72,0,0,0,.39-.7,2.75,2.75,0,0,0,.13-.88A1.83,1.83,0,0,0,812,127a2.07,2.07,0,0,0-1.5-.5,4.64,4.64,0,0,0-1.58.29l-1.15-.33.9-5.25H814Z"/><path d="M769.67,470.27a.12.12,0,0,1-.11.08.29.29,0,0,1-.16-.09l-.25-.18a1.77,1.77,0,0,0-.39-.19,2,2,0,0,0-.59-.08,1.66,1.66,0,0,0-.61.1,1.16,1.16,0,0,0-.44.27,1.05,1.05,0,0,0-.27.39,1.28,1.28,0,0,0-.09.48,1,1,0,0,0,.13.53,1.41,1.41,0,0,0,.37.36,2.42,2.42,0,0,0,.51.25c.19.07.38.14.59.2l.58.22a2,2,0,0,1,.52.3,1.39,1.39,0,0,1,.36.44,1.46,1.46,0,0,1,.14.66,2.08,2.08,0,0,1-.14.75,1.7,1.7,0,0,1-.4.61,1.78,1.78,0,0,1-.64.42,2.31,2.31,0,0,1-.86.15,2.47,2.47,0,0,1-1.09-.23,2.33,2.33,0,0,1-.79-.61l.12-.19a.16.16,0,0,1,.13-.07.19.19,0,0,1,.1.05l.16.14.21.17a2,2,0,0,0,.29.17,3,3,0,0,0,.39.13,2.26,2.26,0,0,0,1.17-.06,1.69,1.69,0,0,0,.5-.31,1.38,1.38,0,0,0,.31-.47,1.63,1.63,0,0,0,.11-.59,1,1,0,0,0-.14-.55,1.16,1.16,0,0,0-.36-.37,2.4,2.4,0,0,0-.51-.24l-.59-.2a5.89,5.89,0,0,1-.59-.21,1.63,1.63,0,0,1-.51-.3,1.33,1.33,0,0,1-.36-.45,1.4,1.4,0,0,1-.14-.68,1.67,1.67,0,0,1,.12-.62,1.43,1.43,0,0,1,.36-.52,1.7,1.7,0,0,1,.58-.37,2.13,2.13,0,0,1,.78-.13,2.48,2.48,0,0,1,.89.15,2.39,2.39,0,0,1,.72.48Z"/><path d="M775.45,469.5v.39h-2.24v6h-.45v-6h-2.25v-.39Z"/><path d="M778.91,475.54a2.14,2.14,0,0,0,.82-.16,1.83,1.83,0,0,0,.61-.45,1.89,1.89,0,0,0,.39-.66,2.53,2.53,0,0,0,.13-.83V469.5h.46v3.94a2.88,2.88,0,0,1-.17,1,2.27,2.27,0,0,1-.48.79,2.19,2.19,0,0,1-.76.54,2.75,2.75,0,0,1-2,0,2.19,2.19,0,0,1-.76-.54,2.27,2.27,0,0,1-.48-.79,2.88,2.88,0,0,1-.17-1V469.5H777v3.93a2.49,2.49,0,0,0,.13.83,2.09,2.09,0,0,0,.38.67,1.68,1.68,0,0,0,.61.44A2,2,0,0,0,778.91,475.54Z"/><path d="M788.51,472.68a3.75,3.75,0,0,1-.22,1.33,2.77,2.77,0,0,1-.62,1,2.51,2.51,0,0,1-1,.63,3.25,3.25,0,0,1-1.23.23h-2.33V469.5h2.33a3.24,3.24,0,0,1,1.23.22,2.76,2.76,0,0,1,1,.63,2.73,2.73,0,0,1,.62,1A3.66,3.66,0,0,1,788.51,472.68Zm-.47,0a3.42,3.42,0,0,0-.19-1.19,2.34,2.34,0,0,0-.52-.88,2.24,2.24,0,0,0-.8-.55,2.76,2.76,0,0,0-1-.19h-1.86v5.62h1.86a2.76,2.76,0,0,0,1-.19,2.12,2.12,0,0,0,.8-.55,2.34,2.34,0,0,0,.52-.88A3.38,3.38,0,0,0,788,472.68Z"/><path d="M790.62,475.87h-.46V469.5h.46Z"/><path d="M798.36,472.68a3.81,3.81,0,0,1-.22,1.34,2.77,2.77,0,0,1-.62,1,2.5,2.5,0,0,1-1,.66,3.4,3.4,0,0,1-2.46,0,2.66,2.66,0,0,1-1-.66,2.77,2.77,0,0,1-.62-1,3.8,3.8,0,0,1-.23-1.34,3.85,3.85,0,0,1,.23-1.34,2.77,2.77,0,0,1,.62-1,2.94,2.94,0,0,1,1-.66,3.4,3.4,0,0,1,2.46,0,2.5,2.5,0,0,1,1,.66,2.77,2.77,0,0,1,.62,1A3.85,3.85,0,0,1,798.36,472.68Zm-.47,0a3.51,3.51,0,0,0-.19-1.2,2.5,2.5,0,0,0-.52-.9,2.22,2.22,0,0,0-.81-.56,2.8,2.8,0,0,0-2.08,0,2.4,2.4,0,0,0-.81.56,2.68,2.68,0,0,0-.53.9,3.78,3.78,0,0,0-.18,1.2,3.69,3.69,0,0,0,.18,1.2,2.68,2.68,0,0,0,.53.9,2.4,2.4,0,0,0,.81.56,2.94,2.94,0,0,0,2.08,0,2.22,2.22,0,0,0,.81-.56,2.5,2.5,0,0,0,.52-.9A3.44,3.44,0,0,0,797.89,472.68Z"/><path d="M805.47,469.5v.19a.49.49,0,0,1,0,.13,1,1,0,0,1,0,.1l-2.92,5.78a.29.29,0,0,1-.1.12.25.25,0,0,1-.16.05H802l2.94-5.76a1,1,0,0,1,.14-.22h-3.67a.11.11,0,0,1-.12-.12v-.27Z"/><path d="M755.51,446.73v3.81h-2V439.73H757a6.46,6.46,0,0,1,1.87.25,3.51,3.51,0,0,1,1.31.72,2.69,2.69,0,0,1,.76,1.09,3.66,3.66,0,0,1,.25,1.39,3.87,3.87,0,0,1-.26,1.43,3.08,3.08,0,0,1-.79,1.13,3.64,3.64,0,0,1-1.3.73,6,6,0,0,1-1.84.26Zm0-1.57H757a3.05,3.05,0,0,0,1-.13,1.89,1.89,0,0,0,.68-.4,1.6,1.6,0,0,0,.41-.63,2.66,2.66,0,0,0,.13-.82,2.42,2.42,0,0,0-.13-.79,1.65,1.65,0,0,0-.41-.6,1.71,1.71,0,0,0-.68-.37,3.05,3.05,0,0,0-1-.13h-1.51Z"/><path d="M764.85,446.31v4.23h-2V439.73h3.29a7,7,0,0,1,1.9.23,3.55,3.55,0,0,1,1.29.64,2.43,2.43,0,0,1,.74,1,3.22,3.22,0,0,1,.24,1.26,3.18,3.18,0,0,1-.17,1,2.84,2.84,0,0,1-.46.88,3,3,0,0,1-.75.7,3.78,3.78,0,0,1-1,.48,1.92,1.92,0,0,1,.66.61l2.7,4h-1.8a.88.88,0,0,1-.45-.11,1,1,0,0,1-.31-.3l-2.27-3.46a.71.71,0,0,0-.28-.27.89.89,0,0,0-.45-.09Zm0-1.44h1.25a3.24,3.24,0,0,0,1-.14,2.13,2.13,0,0,0,.7-.39,1.65,1.65,0,0,0,.41-.6,2,2,0,0,0,.13-.75,1.52,1.52,0,0,0-.54-1.26,2.55,2.55,0,0,0-1.66-.44h-1.28Z"/><path d="M779.37,439.73v1.6h-4.79v3h3.78v1.54h-3.78v3.06h4.79v1.61h-6.81V439.73Z"/><path d="M780.05,439.73h1.63a.64.64,0,0,1,.42.13.76.76,0,0,1,.25.33l2.54,6.59c.08.21.16.45.24.7s.15.53.22.81a9.49,9.49,0,0,1,.43-1.51l2.53-6.59a.9.9,0,0,1,.24-.32.67.67,0,0,1,.43-.14h1.62l-4.37,10.81h-1.81Z"/><path d="M794,450.54h-2V439.73h2Z"/><path d="M803.23,439.73v1.6h-4.79v3h3.78v1.54h-3.78v3.06h4.79v1.61h-6.81V439.73Z"/><path d="M804,439.73h1.69a.76.76,0,0,1,.44.12.61.61,0,0,1,.23.34l1.84,6.46a3.62,3.62,0,0,1,.12.52c0,.19.08.38.11.59,0-.21.09-.4.13-.59a5.36,5.36,0,0,1,.16-.52l2.12-6.46a.77.77,0,0,1,.23-.32.71.71,0,0,1,.43-.14h.6a.64.64,0,0,1,.67.46l2.1,6.46a8.49,8.49,0,0,1,.29,1.06c0-.19.07-.38.11-.56s.07-.35.11-.5l1.84-6.46a.6.6,0,0,1,.23-.32.72.72,0,0,1,.44-.14h1.57l-3.35,10.81h-1.82l-2.36-7.39-.09-.3a3.57,3.57,0,0,1-.1-.35l-.09.35q0,.16-.09.3l-2.39,7.39h-1.81Z"/><path d="M765.49,460.46v4.23h-2V453.88h3.29a7,7,0,0,1,1.9.23,3.55,3.55,0,0,1,1.29.64,2.53,2.53,0,0,1,.74,1,3.21,3.21,0,0,1,.23,1.26,3.17,3.17,0,0,1-.16,1,2.84,2.84,0,0,1-.46.88,3,3,0,0,1-.75.7,3.76,3.76,0,0,1-1,.47,2.19,2.19,0,0,1,.66.63l2.7,4H770.1a.87.87,0,0,1-.44-.11.89.89,0,0,1-.31-.3l-2.27-3.46a.93.93,0,0,0-.28-.28,1.07,1.07,0,0,0-.45-.08Zm0-1.44h1.25a3.24,3.24,0,0,0,1-.14,2.06,2.06,0,0,0,.7-.39,1.62,1.62,0,0,0,.4-.6,2,2,0,0,0,.14-.75,1.56,1.56,0,0,0-.54-1.27,2.63,2.63,0,0,0-1.66-.44h-1.28Z"/><path d="M783.2,459.28a6.06,6.06,0,0,1-.39,2.2,5.35,5.35,0,0,1-1.12,1.76,5,5,0,0,1-1.72,1.15,6.3,6.3,0,0,1-4.47,0,4.95,4.95,0,0,1-2.85-2.91,6.25,6.25,0,0,1,0-4.4,5.13,5.13,0,0,1,1.11-1.75,5,5,0,0,1,1.74-1.15,6.16,6.16,0,0,1,4.47,0,5,5,0,0,1,1.72,1.15,5.3,5.3,0,0,1,1.12,1.75A6.1,6.1,0,0,1,783.2,459.28Zm-2.06,0a5.21,5.21,0,0,0-.23-1.59,3.51,3.51,0,0,0-.68-1.2,2.94,2.94,0,0,0-1.07-.76,4,4,0,0,0-2.85,0,2.9,2.9,0,0,0-1.08.76,3.37,3.37,0,0,0-.69,1.2,4.92,4.92,0,0,0-.24,1.59,5,5,0,0,0,.24,1.6,3.25,3.25,0,0,0,.69,1.19,2.77,2.77,0,0,0,1.08.75,3.9,3.9,0,0,0,2.85,0,2.81,2.81,0,0,0,1.07-.75,3.37,3.37,0,0,0,.68-1.19A5.28,5.28,0,0,0,781.14,459.28Z"/><path d="M795.15,459.28a6.06,6.06,0,0,1-.39,2.2,5.35,5.35,0,0,1-1.12,1.76,5.14,5.14,0,0,1-1.72,1.15,6.32,6.32,0,0,1-4.48,0,5.19,5.19,0,0,1-1.73-1.15,5.35,5.35,0,0,1-1.12-1.76,6.4,6.4,0,0,1,0-4.4,5.3,5.3,0,0,1,1.12-1.75,5,5,0,0,1,1.73-1.15,6.18,6.18,0,0,1,4.48,0,5.14,5.14,0,0,1,1.72,1.15,5.3,5.3,0,0,1,1.12,1.75A6.1,6.1,0,0,1,795.15,459.28Zm-2.06,0a4.92,4.92,0,0,0-.24-1.59,3.34,3.34,0,0,0-.67-1.2,3,3,0,0,0-1.07-.76,4.06,4.06,0,0,0-2.86,0,2.94,2.94,0,0,0-1.07.76,3.37,3.37,0,0,0-.69,1.2,4.92,4.92,0,0,0-.24,1.59,5,5,0,0,0,.24,1.6,3.25,3.25,0,0,0,.69,1.19,2.81,2.81,0,0,0,1.07.75,3.92,3.92,0,0,0,2.86,0,2.88,2.88,0,0,0,1.07-.75,3.21,3.21,0,0,0,.67-1.19A5,5,0,0,0,793.09,459.28Z"/><path d="M802.4,460.7l.21.52c.07-.18.14-.36.22-.53a3.85,3.85,0,0,1,.24-.5l3.19-6a.83.83,0,0,1,.13-.18.42.42,0,0,1,.14-.09.33.33,0,0,1,.17,0h1.75v10.81h-1.77v-7c0-.13,0-.27,0-.43s0-.31,0-.47l-3.27,6.13a.82.82,0,0,1-.29.32.74.74,0,0,1-.42.12h-.28a.73.73,0,0,1-.41-.12.93.93,0,0,1-.3-.32l-3.31-6.15c0,.16,0,.32,0,.48s0,.3,0,.44v7h-1.77V453.88h1.74a.34.34,0,0,1,.18,0,.6.6,0,0,1,.15.09,1.4,1.4,0,0,1,.12.18l3.23,6C802.25,460.36,802.32,460.53,802.4,460.7Z"/><rect class="cls-11" x="360.94" y="266.78" width="141.52" height="75.98"/><rect class="cls-12" x="67.05" y="570.01" width="302.72" height="98.88"/><rect class="cls-13" x="413.89" y="618.8" width="20.69" height="24.92" rx="2"/><line class="cls-14" x1="417.71" y1="628.6" x2="417.71" y2="639.1"/><line class="cls-14" x1="421.59" y1="628.6" x2="421.59" y2="639.1"/><path class="cls-14" d="M424.17,631.88V628c0-1.59-2.3-2.63-4.52-2.63s-4.53,1-4.53,2.63v3.93"/><rect class="cls-14" x="411.89" y="616.8" width="20.69" height="24.92" rx="2"/><line class="cls-14" x1="427.41" y1="622.7" x2="429.99" y2="622.7"/><line class="cls-14" x1="427.41" y1="625.98" x2="429.99" y2="625.98"/><line class="cls-14" x1="427.41" y1="629.26" x2="429.99" y2="629.26"/><line class="cls-14" x1="427.41" y1="632.54" x2="429.99" y2="632.54"/><line class="cls-14" x1="422.23" y1="616.8" x2="422.23" y2="614.17"/><line class="cls-14" x1="422.23" y1="644.34" x2="422.23" y2="641.72"/><ellipse class="cls-14" cx="419.65" cy="621.39" rx="1.94" ry="1.97"/><rect class="cls-13" x="384.43" y="436.4" width="20.69" height="24.92" rx="2"/><line class="cls-14" x1="388.25" y1="446.21" x2="388.25" y2="456.7"/><line class="cls-14" x1="392.13" y1="446.21" x2="392.13" y2="456.7"/><path class="cls-14" d="M394.72,449.48v-3.93c0-1.59-2.31-2.62-4.53-2.62s-4.53,1-4.53,2.62v3.93"/><rect class="cls-14" x="382.43" y="434.4" width="20.69" height="24.92" rx="2"/><line class="cls-14" x1="397.95" y1="440.3" x2="400.54" y2="440.3"/><line class="cls-14" x1="397.95" y1="443.58" x2="400.54" y2="443.58"/><line class="cls-14" x1="397.95" y1="446.86" x2="400.54" y2="446.86"/><line class="cls-14" x1="397.95" y1="450.14" x2="400.54" y2="450.14"/><line class="cls-14" x1="392.78" y1="434.4" x2="392.78" y2="431.78"/><line class="cls-14" x1="392.78" y1="461.95" x2="392.78" y2="459.32"/><ellipse class="cls-14" cx="390.19" cy="438.99" rx="1.94" ry="1.97"/><rect class="cls-13" x="550.36" y="618.8" width="20.69" height="24.92" rx="2"/><line class="cls-14" x1="554.18" y1="628.6" x2="554.18" y2="639.1"/><line class="cls-14" x1="558.06" y1="628.6" x2="558.06" y2="639.1"/><path class="cls-14" d="M560.64,631.88V628c0-1.59-2.3-2.63-4.52-2.63s-4.53,1-4.53,2.63v3.93"/><rect class="cls-14" x="548.36" y="616.8" width="20.69" height="24.92" rx="2"/><line class="cls-14" x1="563.88" y1="622.7" x2="566.46" y2="622.7"/><line class="cls-14" x1="563.88" y1="625.98" x2="566.46" y2="625.98"/><line class="cls-14" x1="563.88" y1="629.26" x2="566.46" y2="629.26"/><line class="cls-14" x1="563.88" y1="632.54" x2="566.46" y2="632.54"/><line class="cls-14" x1="558.7" y1="616.8" x2="558.7" y2="614.17"/><line class="cls-14" x1="558.7" y1="644.34" x2="558.7" y2="641.72"/><ellipse class="cls-14" cx="556.12" cy="621.39" rx="1.94" ry="1.97"/><path d="M462.17,626.54v1.6h-4.79v3h3.77v1.55h-3.77v3h4.79v1.61h-6.82V626.54Z"/><path d="M465.92,635.69h4.32v1.66h-6.33V626.54h2Z"/><path d="M478.45,626.54v1.6h-4.79v3h3.77v1.55h-3.77v3h4.79v1.61h-6.82V626.54Z"/><path d="M479.13,626.54h1.62a.73.73,0,0,1,.43.13.78.78,0,0,1,.24.33l2.54,6.59a7.24,7.24,0,0,1,.25.71c.07.25.15.52.22.81a8.7,8.7,0,0,1,.42-1.52l2.54-6.59a.68.68,0,0,1,.23-.31.64.64,0,0,1,.43-.15h1.62l-4.36,10.81h-1.82Z"/><path d="M499,637.35h-1.55a.73.73,0,0,1-.43-.13.78.78,0,0,1-.24-.33l-.81-2.2h-4.47l-.81,2.2a.71.71,0,0,1-.24.32.69.69,0,0,1-.43.14h-1.56l4.25-10.81h2.05Zm-7-4.08h3.45l-1.32-3.6c-.06-.15-.13-.34-.2-.56s-.14-.45-.21-.71c-.07.26-.14.5-.21.71s-.13.42-.19.58Z"/><path d="M506.66,626.54v1.66h-3.25v9.15h-2V628.2h-3.26v-1.66Z"/><path d="M517.72,632a6.1,6.1,0,0,1-.39,2.2,5.3,5.3,0,0,1-1.12,1.75,4.91,4.91,0,0,1-1.72,1.15,6.18,6.18,0,0,1-4.48,0,5,5,0,0,1-1.73-1.15,5.3,5.3,0,0,1-1.12-1.75,6.1,6.1,0,0,1-.39-2.2,6,6,0,0,1,.39-2.2,5.35,5.35,0,0,1,1.12-1.76,5.19,5.19,0,0,1,1.73-1.15,6.18,6.18,0,0,1,4.48,0,5.07,5.07,0,0,1,1.72,1.16,5.2,5.2,0,0,1,1.12,1.75A6,6,0,0,1,517.72,632Zm-2.06,0a4.94,4.94,0,0,0-.24-1.6,3.34,3.34,0,0,0-.67-1.2,2.88,2.88,0,0,0-1.07-.75,3.61,3.61,0,0,0-1.43-.26,3.56,3.56,0,0,0-1.42.26,2.77,2.77,0,0,0-1.08.75,3.37,3.37,0,0,0-.69,1.2,5.42,5.42,0,0,0,0,3.19,3.37,3.37,0,0,0,.69,1.2,3,3,0,0,0,1.08.75,3.74,3.74,0,0,0,1.42.26,3.8,3.8,0,0,0,1.43-.26,3.14,3.14,0,0,0,1.07-.75,3.34,3.34,0,0,0,.67-1.2A4.92,4.92,0,0,0,515.66,632Z"/><path d="M521.38,633.13v4.22h-2V626.54h3.3a6.88,6.88,0,0,1,1.89.23,3.68,3.68,0,0,1,1.3.64,2.53,2.53,0,0,1,.74,1,3.4,3.4,0,0,1,.23,1.26,3,3,0,0,1-1.37,2.61,3.93,3.93,0,0,1-1,.48,2,2,0,0,1,.66.62l2.7,4H526a.87.87,0,0,1-.44-.11.86.86,0,0,1-.31-.29L523,633.49a.77.77,0,0,0-.29-.28.91.91,0,0,0-.45-.08Zm0-1.45h1.26a3,3,0,0,0,1-.14,1.78,1.78,0,0,0,.69-.39,1.5,1.5,0,0,0,.41-.59,2.06,2.06,0,0,0,.14-.76,1.5,1.5,0,0,0-.55-1.26,2.6,2.6,0,0,0-1.65-.44h-1.29Z"/><path class="cls-13" d="M448.68,567.91v4.33a2.61,2.61,0,0,0,2.61,2.61H466a2.61,2.61,0,0,0,2.6-2.6v-26.9a2.6,2.6,0,0,0-2.6-2.6H451.29a2.6,2.6,0,0,0-2.61,2.6v22.56Z"/><path class="cls-14" d="M465.18,549.79l-.15-.15c-.74-.79-1-1.81-.47-2.27l2.08-2a1.93,1.93,0,0,1,2.72.14l.15.15a2,2,0,0,1,0,2.73l-2.08,2C466.94,550.85,465.93,550.58,465.18,549.79Z"/><path class="cls-14" d="M465.72,566l-.15-.12c-.75-.65-1-1.57-.62-2l1.74-2a1.78,1.78,0,0,1,2.51-.15l.14.13a1.78,1.78,0,0,1,.22,2.5l-1.74,2C467.42,566.82,466.47,566.68,465.72,566Z"/><path class="cls-14" d="M448.68,572.68A13.46,13.46,0,0,0,447,560.31a25,25,0,0,0,1.25-6.21,5.38,5.38,0,0,0-1.13-3.6,1.51,1.51,0,0,0-2.58.32c-1.42,4.54-1.68,5.78-2.56,8.06-1,2.55-.42,6.13-.91,7.17-.1.21-1.95,3.16-1.95,3.16"/><path class="cls-14" d="M465.73,560.58l-.15-.13c-.76-.66-1-1.59-.63-2.07l1.77-2a1.81,1.81,0,0,1,2.55-.15l.15.13a1.81,1.81,0,0,1,.22,2.54l-1.77,2C467.46,561.38,466.49,561.24,465.73,560.58Z"/><path class="cls-14" d="M465.73,555.26l-.15-.13c-.76-.65-1-1.59-.63-2.07l1.77-2a1.8,1.8,0,0,1,2.55-.16l.15.13a1.82,1.82,0,0,1,.22,2.55l-1.77,2C467.46,556.06,466.49,555.92,465.73,555.26Z"/><line class="cls-14" x1="454.76" y1="568.34" x2="457.36" y2="568.34"/><path class="cls-14" d="M466,545.78v-4.34a2.61,2.61,0,0,0-2.61-2.6H448.68a2.61,2.61,0,0,0-2.6,2.6v8.68"/><path class="cls-14" d="M448.68,570.94h14.75a2.6,2.6,0,0,0,2.61-2.6h0v-1.73"/><path class="cls-14" d="M440,578.75l-6.94-6.94,4.33-4.34,10.84,10.84s1.26-1.3,2.18-2.16c7.07.52,9.7-4.38,10.41-5.21"/><line class="cls-14" x1="437.4" y1="571.81" x2="438.27" y2="572.68"/><line class="cls-14" x1="451.29" y1="548.39" x2="451.29" y2="558.8"/><line class="cls-14" x1="460.83" y1="548.39" x2="460.83" y2="558.8"/><line class="cls-14" x1="454.76" y1="548.39" x2="454.76" y2="558.8"/><line class="cls-14" x1="458.23" y1="548.39" x2="458.23" y2="558.8"/><path d="M444.66,585.25v-4H446a3.13,3.13,0,0,1,.67.07,1.31,1.31,0,0,1,.46.22.83.83,0,0,1,.26.33,1.23,1.23,0,0,1,.08.44.77.77,0,0,1,0,.27.7.7,0,0,1-.13.24.85.85,0,0,1-.22.2,1.37,1.37,0,0,1-.32.16c.55.12.82.42.82.89a1.23,1.23,0,0,1-.09.47,1.25,1.25,0,0,1-.28.37,1.54,1.54,0,0,1-.46.24,2,2,0,0,1-.62.09Zm.74-2.26H446a1,1,0,0,0,.58-.14.62.62,0,0,0,0-.88.89.89,0,0,0-.55-.14h-.63Zm0,.51v1.17h.75a1.18,1.18,0,0,0,.35,0,.67.67,0,0,0,.22-.13.41.41,0,0,0,.12-.2.59.59,0,0,0,0-.23.56.56,0,0,0,0-.23.46.46,0,0,0-.13-.18.55.55,0,0,0-.23-.11,1.06,1.06,0,0,0-.33,0Z"/><path d="M451.76,585.25h-.58a.25.25,0,0,1-.15,0,.18.18,0,0,1-.09-.12l-.3-.81H449l-.3.81a.47.47,0,0,1-.09.12.28.28,0,0,1-.16,0h-.58l1.57-4h.76Zm-2.58-1.51h1.27l-.49-1.32c0-.06,0-.13-.07-.21s-.05-.17-.08-.26c0,.09-.05.18-.08.26s-.05.15-.07.21Z"/><path d="M452.94,583.69v1.56h-.75v-4h1.22a2.87,2.87,0,0,1,.7.08,1.54,1.54,0,0,1,.48.24,1,1,0,0,1,.27.36,1.19,1.19,0,0,1,.09.47,1.21,1.21,0,0,1-.06.38,1.09,1.09,0,0,1-.17.32,1.16,1.16,0,0,1-.28.26,1.82,1.82,0,0,1-.37.18.75.75,0,0,1,.24.23l1,1.47h-.67a.27.27,0,0,1-.16,0,.32.32,0,0,1-.12-.11l-.84-1.28a.32.32,0,0,0-.1-.1.37.37,0,0,0-.17,0Zm0-.53h.46a1.25,1.25,0,0,0,.36,0A.81.81,0,0,0,454,583a.48.48,0,0,0,.15-.22.82.82,0,0,0,.05-.28.57.57,0,0,0-.2-.46.94.94,0,0,0-.61-.17h-.47Z"/><path d="M458.39,584.31a.13.13,0,0,1,.11.05l.29.31a1.51,1.51,0,0,1-.6.46,2,2,0,0,1-.85.16,2,2,0,0,1-.8-.15,1.71,1.71,0,0,1-.6-.42,1.85,1.85,0,0,1-.39-.65,2.39,2.39,0,0,1-.13-.82,2.21,2.21,0,0,1,.15-.82,1.88,1.88,0,0,1,1.06-1.06,2.23,2.23,0,0,1,.83-.15,1.86,1.86,0,0,1,1.35.51l-.25.35-.05.06-.1,0a.2.2,0,0,1-.13,0l-.17-.11-.25-.1a1.18,1.18,0,0,0-.4,0,1.27,1.27,0,0,0-.52.1.94.94,0,0,0-.4.28,1.09,1.09,0,0,0-.27.44,1.76,1.76,0,0,0-.09.58,1.8,1.8,0,0,0,.09.6,1.2,1.2,0,0,0,.26.44,1.14,1.14,0,0,0,.38.28,1.28,1.28,0,0,0,.48.09h.27a.86.86,0,0,0,.23-.06.66.66,0,0,0,.19-.09.85.85,0,0,0,.19-.14l.06,0Z"/><path d="M463.18,583.25a2.18,2.18,0,0,1-.15.82,1.85,1.85,0,0,1-.41.64,1.76,1.76,0,0,1-.64.43,2.18,2.18,0,0,1-.82.15,2.23,2.23,0,0,1-.83-.15,1.76,1.76,0,0,1-.64-.43,1.85,1.85,0,0,1-.41-.64,2.29,2.29,0,0,1,0-1.63,2,2,0,0,1,.41-.65,1.87,1.87,0,0,1,.64-.42,2.23,2.23,0,0,1,.83-.15,2.18,2.18,0,0,1,.82.15,1.9,1.9,0,0,1,.64.43,1.85,1.85,0,0,1,.41.64A2.16,2.16,0,0,1,463.18,583.25Zm-.77,0a1.77,1.77,0,0,0-.08-.58,1.22,1.22,0,0,0-.25-.45,1.15,1.15,0,0,0-.4-.28,1.42,1.42,0,0,0-.52-.09,1.47,1.47,0,0,0-.53.09,1.15,1.15,0,0,0-.4.28,1.22,1.22,0,0,0-.25.45,1.76,1.76,0,0,0-.09.58,1.78,1.78,0,0,0,.09.59,1.31,1.31,0,0,0,.25.45,1,1,0,0,0,.4.27,1.29,1.29,0,0,0,.53.1,1.24,1.24,0,0,0,.52-.1,1,1,0,0,0,.4-.27,1.31,1.31,0,0,0,.25-.45A1.79,1.79,0,0,0,462.41,583.25Z"/><path d="M467.3,583.25a2.29,2.29,0,0,1-.14.81,2,2,0,0,1-.41.63,1.85,1.85,0,0,1-.64.41,2.19,2.19,0,0,1-.83.15h-1.52v-4h1.52a2.19,2.19,0,0,1,.83.15,1.8,1.8,0,0,1,1.05,1A2.28,2.28,0,0,1,467.3,583.25Zm-.76,0a1.77,1.77,0,0,0-.08-.58,1.24,1.24,0,0,0-.26-.45,1,1,0,0,0-.39-.27,1.29,1.29,0,0,0-.53-.1h-.77v2.81h.77a1.29,1.29,0,0,0,.53-.1,1,1,0,0,0,.39-.27,1.33,1.33,0,0,0,.26-.45A1.79,1.79,0,0,0,466.54,583.25Z"/><path d="M470.4,581.26v.59h-1.77V583H470v.57h-1.4v1.13h1.77v.59h-2.52v-4Z"/><path d="M438.89,589.86v1.56h-.75v-4h1.22a2.81,2.81,0,0,1,.7.08,1.54,1.54,0,0,1,.48.24,1,1,0,0,1,.27.36,1.19,1.19,0,0,1,.09.47,1.21,1.21,0,0,1-.06.38,1.09,1.09,0,0,1-.17.32,1.16,1.16,0,0,1-.28.26,1.82,1.82,0,0,1-.37.18.83.83,0,0,1,.24.22l1,1.48h-.67a.27.27,0,0,1-.16,0,.32.32,0,0,1-.12-.11l-.84-1.28a.24.24,0,0,0-.1-.1.37.37,0,0,0-.17,0Zm0-.53h.46a1.06,1.06,0,0,0,.37-.06.68.68,0,0,0,.25-.14.48.48,0,0,0,.15-.22.82.82,0,0,0,.05-.28.53.53,0,0,0-.2-.46.94.94,0,0,0-.61-.17h-.47Z"/><path d="M444.25,587.43V588h-1.77v1.1h1.39v.58h-1.39v1.13h1.77v.59h-2.52v-4Z"/><path d="M446.72,590.87a1.89,1.89,0,0,0,.44,0,2.6,2.6,0,0,0,.36-.13V590H447a.21.21,0,0,1-.12,0,.18.18,0,0,1,0-.1v-.42h1.33V591a1.5,1.5,0,0,1-.32.19,1.83,1.83,0,0,1-.35.14l-.4.08-.45,0a2.12,2.12,0,0,1-.81-.15,1.88,1.88,0,0,1-1.05-1.07,2.32,2.32,0,0,1,0-1.64,1.76,1.76,0,0,1,.41-.65,1.92,1.92,0,0,1,.65-.42,2.41,2.41,0,0,1,.87-.15,2.17,2.17,0,0,1,.84.15,2,2,0,0,1,.61.38l-.22.33a.19.19,0,0,1-.17.1.22.22,0,0,1-.13,0l-.18-.1-.21-.1L447,588a1.57,1.57,0,0,0-.32,0,1.25,1.25,0,0,0-.53.1,1.07,1.07,0,0,0-.41.28,1.28,1.28,0,0,0-.26.44,1.81,1.81,0,0,0-.09.58,1.72,1.72,0,0,0,.1.62,1.13,1.13,0,0,0,.27.45,1.07,1.07,0,0,0,.41.28A1.27,1.27,0,0,0,446.72,590.87Z"/><path d="M449.72,591.42H449v-4h.75Z"/><path d="M452.75,588.15a.17.17,0,0,1-.07.09.15.15,0,0,1-.09,0,.24.24,0,0,1-.13,0l-.16-.09a1.12,1.12,0,0,0-.22-.1.87.87,0,0,0-.3,0,.77.77,0,0,0-.27,0,.44.44,0,0,0-.19.1.48.48,0,0,0-.12.16.65.65,0,0,0,0,.2.41.41,0,0,0,.08.24,1.16,1.16,0,0,0,.21.16,2.09,2.09,0,0,0,.3.11l.34.12.33.13a1.57,1.57,0,0,1,.3.2,1.14,1.14,0,0,1,.21.3,1,1,0,0,1,.08.42,1.35,1.35,0,0,1-.1.5,1.17,1.17,0,0,1-.27.42,1.43,1.43,0,0,1-.43.27,1.55,1.55,0,0,1-.59.1,1.64,1.64,0,0,1-.38,0,2,2,0,0,1-.35-.1,2,2,0,0,1-.32-.17,1.71,1.71,0,0,1-.26-.21l.22-.36.07-.06.09,0a.24.24,0,0,1,.15.06l.19.12a1.26,1.26,0,0,0,.26.13.91.91,0,0,0,.35.06.77.77,0,0,0,.49-.15.56.56,0,0,0,.18-.44.39.39,0,0,0-.08-.25.51.51,0,0,0-.21-.17,1.25,1.25,0,0,0-.29-.11l-.34-.11a2,2,0,0,1-.34-.13,1,1,0,0,1-.29-.2.85.85,0,0,1-.21-.31,1.22,1.22,0,0,1-.08-.46,1.07,1.07,0,0,1,.09-.43,1,1,0,0,1,.25-.36,1.31,1.31,0,0,1,.41-.26,1.6,1.6,0,0,1,.56-.1,1.75,1.75,0,0,1,.65.12,1.48,1.48,0,0,1,.5.3Z"/><path d="M456.38,587.43V588h-1.2v3.38h-.74V588h-1.2v-.61Z"/><path d="M457.62,589.86v1.56h-.74v-4h1.22a2.87,2.87,0,0,1,.7.08,1.54,1.54,0,0,1,.48.24,1,1,0,0,1,.27.36,1.19,1.19,0,0,1,.08.47,1.21,1.21,0,0,1-.06.38.76.76,0,0,1-.17.32,1,1,0,0,1-.27.26,1.91,1.91,0,0,1-.38.18.75.75,0,0,1,.25.22l1,1.48h-.67a.31.31,0,0,1-.17,0,.38.38,0,0,1-.11-.11l-.84-1.28a.24.24,0,0,0-.1-.1.4.4,0,0,0-.17,0Zm0-.53h.47a1,1,0,0,0,.36-.06.65.65,0,0,0,.26-.14.48.48,0,0,0,.15-.22.82.82,0,0,0,.05-.28.56.56,0,0,0-.2-.46.94.94,0,0,0-.61-.17h-.48Z"/><path d="M464,591.42h-.58a.28.28,0,0,1-.16,0,.27.27,0,0,1-.09-.12l-.29-.81H461.2l-.29.81a.47.47,0,0,1-.09.12.28.28,0,0,1-.16,0h-.58l1.57-4h.76Zm-2.59-1.51h1.28l-.49-1.33a1.5,1.5,0,0,1-.07-.2,2,2,0,0,1-.08-.26c0,.09,0,.18-.08.26s-.05.15-.07.21Z"/><path d="M466.79,587.43V588h-1.2v3.38h-.74V588h-1.2v-.61Z"/><path d="M468.1,591.42h-.74v-4h.74Z"/><path d="M472.82,589.42a2.17,2.17,0,0,1-.14.82,2,2,0,0,1-.41.64,1.9,1.9,0,0,1-.64.43,2.34,2.34,0,0,1-1.65,0,1.9,1.9,0,0,1-.64-.43,1.72,1.72,0,0,1-.41-.64,2.29,2.29,0,0,1,0-1.63,1.84,1.84,0,0,1,.41-.65,1.87,1.87,0,0,1,.64-.42,2.21,2.21,0,0,1,1.65,0,1.76,1.76,0,0,1,.64.43,2,2,0,0,1,.41.64A2.16,2.16,0,0,1,472.82,589.42Zm-.76,0a2.16,2.16,0,0,0-.08-.59,1.44,1.44,0,0,0-.25-.44,1.15,1.15,0,0,0-.4-.28,1.47,1.47,0,0,0-.53-.09,1.42,1.42,0,0,0-.52.09,1.15,1.15,0,0,0-.4.28,1.26,1.26,0,0,0-.25.44,1.83,1.83,0,0,0-.09.59,1.78,1.78,0,0,0,.09.59,1.18,1.18,0,0,0,.25.44,1,1,0,0,0,.4.28,1.24,1.24,0,0,0,.52.1,1.29,1.29,0,0,0,.53-.1,1,1,0,0,0,.4-.28A1.33,1.33,0,0,0,472,590,2.1,2.1,0,0,0,472.06,589.42Z"/><path d="M473.88,587.43l.06,0,.05,0,.06.06,2.09,2.66c0-.06,0-.12,0-.18v-2.6h.65v4h-.38a.33.33,0,0,1-.15,0,.47.47,0,0,1-.11-.1l-2.08-2.66c0,.06,0,.12,0,.18v2.61h-.65v-4h.47Z"/><path class="cls-13" d="M61.5,311a2.75,2.75,0,1,1-2.72-2.73A2.73,2.73,0,0,1,61.5,311Z"/><path class="cls-13" d="M77.29,311a2.75,2.75,0,1,1-2.72-2.73A2.73,2.73,0,0,1,77.29,311Z"/><line class="cls-15" x1="54.04" y1="319.48" x2="54.04" y2="337.08"/><line class="cls-15" x1="60.91" y1="319.48" x2="60.91" y2="337.08"/><line class="cls-15" x1="57.47" y1="326.92" x2="57.47" y2="337.08"/><path class="cls-15" d="M63.65,326.25V318.8c0-2-1.5-4.06-3.43-4.06H54.73c-1.93,0-3.43,2.07-3.43,4.06v7.45"/><path class="cls-15" d="M80.13,325.57s-1-5.37-1.38-7.45c-.33-1.79-1.15-3.38-3.43-3.38H71.2c-2.27,0-3.09,1.59-3.43,3.38-.39,2.08-1.37,7.45-1.37,7.45"/><polyline class="cls-15" points="76.01 318.12 78.07 330.98 73.26 330.98 68.46 330.98 70.52 318.12"/><line class="cls-15" x1="71.2" y1="330.98" x2="71.2" y2="337.08"/><line class="cls-15" x1="75.32" y1="330.98" x2="75.32" y2="337.08"/><path class="cls-15" d="M60.22,310a2.75,2.75,0,1,1-2.72-2.73A2.74,2.74,0,0,1,60.22,310Z"/><path class="cls-15" d="M76,310a2.75,2.75,0,1,1-2.72-2.73A2.74,2.74,0,0,1,76,310Z"/><path class="cls-3" d="M839.24,76.54h1.35V71.13a2.7,2.7,0,0,0-2.7-2.7h-4.06a2.7,2.7,0,0,0-2.7,2.7v5.41h5.4"/><path class="cls-3" d="M836.53,76.54V73.16a1.34,1.34,0,0,0-1.35-1.35h-2.7a1.34,1.34,0,0,0-1.35,1.35"/><path class="cls-3" d="M839.91,76.54l.85.85a2,2,0,0,1,.58,1.21l.43,3.84a2,2,0,0,1-1.26,2.11l-3.92,1.56a2.68,2.68,0,0,1-2.62-.34l-1.49-1.12,4.73-2.7v-2"/><line class="cls-3" x1="832.48" y1="84.65" x2="824.96" y2="84.65"/><path class="cls-3" d="M841.94,90.06h2a1.35,1.35,0,0,0,1.35-1.35V75.19A1.34,1.34,0,0,0,844,73.84h-3.38"/><line class="cls-3" x1="839.91" y1="85.06" x2="839.91" y2="98.85"/><line class="cls-3" x1="831.13" y1="87.24" x2="831.13" y2="98.85"/><polyline class="cls-3" points="834.51 98.85 834.51 89.72 833.53 88.77"/><path class="cls-3" d="M828.42,82.62l2.71-2V78.45a1.34,1.34,0,0,1,.39-1l1-1"/><line class="cls-3" x1="818.96" y1="82.62" x2="818.28" y2="82.62"/><line class="cls-3" x1="818.96" y1="86.68" x2="818.28" y2="86.68"/><line class="cls-3" x1="815.58" y1="84.65" x2="814.9" y2="84.65"/><line class="cls-3" x1="822.34" y1="84.65" x2="821.66" y2="84.65"/><line class="cls-3" x1="815.58" y1="80.6" x2="814.9" y2="80.6"/><line class="cls-3" x1="815.58" y1="88.71" x2="814.9" y2="88.71"/><path class="cls-3" d="M286.84,86.34h-1.35V80.93a2.7,2.7,0,0,1,2.7-2.7h4.06a2.7,2.7,0,0,1,2.7,2.7v5.41h-5.4"/><path class="cls-3" d="M289.55,86.34V83a1.34,1.34,0,0,1,1.35-1.35h2.7A1.34,1.34,0,0,1,295,83"/><path class="cls-3" d="M286.17,86.34l-.85.85a2,2,0,0,0-.58,1.21l-.43,3.84a2,2,0,0,0,1.26,2.11l3.92,1.57a2.71,2.71,0,0,0,2.62-.35l1.49-1.12-4.73-2.7v-2"/><line class="cls-3" x1="293.6" y1="94.45" x2="301.12" y2="94.45"/><path class="cls-3" d="M284.14,99.86h-2a1.35,1.35,0,0,1-1.35-1.35V85a1.34,1.34,0,0,1,1.35-1.35h3.38"/><line class="cls-3" x1="286.17" y1="94.86" x2="286.17" y2="108.65"/><line class="cls-3" x1="294.95" y1="97.04" x2="294.95" y2="108.65"/><polyline class="cls-3" points="291.57 108.65 291.57 99.52 292.55 98.57"/><path class="cls-3" d="M297.66,92.42l-2.71-2V88.25a1.34,1.34,0,0,0-.39-1l-1-1"/><line class="cls-3" x1="307.12" y1="92.42" x2="307.8" y2="92.42"/><line class="cls-3" x1="307.12" y1="96.48" x2="307.8" y2="96.48"/><line class="cls-3" x1="310.5" y1="94.45" x2="311.18" y2="94.45"/><line class="cls-3" x1="303.74" y1="94.45" x2="304.42" y2="94.45"/><line class="cls-3" x1="310.5" y1="90.4" x2="311.18" y2="90.4"/><line class="cls-3" x1="310.5" y1="98.51" x2="311.18" y2="98.51"/><path d="M401.14,259.4a.39.39,0,0,1,.28.13l.8.86a4.42,4.42,0,0,1-1.62,1.25,5.57,5.57,0,0,1-2.31.43,5.33,5.33,0,0,1-2.16-.41,4.65,4.65,0,0,1-1.64-1.14,5,5,0,0,1-1-1.75,6.63,6.63,0,0,1-.37-2.22,5.94,5.94,0,0,1,.41-2.23,4.93,4.93,0,0,1,2.89-2.88,5.85,5.85,0,0,1,2.25-.41,5.43,5.43,0,0,1,2.1.38,5.09,5.09,0,0,1,1.55,1l-.68.94a.54.54,0,0,1-.15.15.4.4,0,0,1-.26.07.59.59,0,0,1-.35-.13,3.94,3.94,0,0,0-.45-.29,3.58,3.58,0,0,0-.7-.3,4,4,0,0,0-1.08-.13,3.79,3.79,0,0,0-1.4.26,3.24,3.24,0,0,0-1.1.76,3.57,3.57,0,0,0-.71,1.2,4.65,4.65,0,0,0-.26,1.59,4.75,4.75,0,0,0,.26,1.62,3.55,3.55,0,0,0,.7,1.2,3,3,0,0,0,1,.74,3.27,3.27,0,0,0,1.29.26,5.5,5.5,0,0,0,.74-.05,2.8,2.8,0,0,0,1.15-.39,3.25,3.25,0,0,0,.49-.38.7.7,0,0,1,.16-.1A.37.37,0,0,1,401.14,259.4Z"/><path d="M414.1,256.55a6.06,6.06,0,0,1-.4,2.2,5,5,0,0,1-2.84,2.91,6.3,6.3,0,0,1-4.47,0,5.11,5.11,0,0,1-1.74-1.16,5,5,0,0,1-1.11-1.75,6.25,6.25,0,0,1,0-4.4,5,5,0,0,1,1.11-1.75,5.11,5.11,0,0,1,1.74-1.16,6,6,0,0,1,2.24-.41,5.75,5.75,0,0,1,2.23.42,5.19,5.19,0,0,1,1.73,1.15,5,5,0,0,1,1.11,1.75A6.1,6.1,0,0,1,414.1,256.55Zm-2.07,0a4.92,4.92,0,0,0-.23-1.59,3.19,3.19,0,0,0-.68-1.2,2.94,2.94,0,0,0-1.07-.76,4,4,0,0,0-2.85,0,3.07,3.07,0,0,0-1.08.76,3.19,3.19,0,0,0-.68,1.2,4.92,4.92,0,0,0-.24,1.59,5,5,0,0,0,.24,1.6,3.23,3.23,0,0,0,.68,1.19,2.92,2.92,0,0,0,1.08.75,4,4,0,0,0,2.85,0,2.81,2.81,0,0,0,1.07-.75,3.23,3.23,0,0,0,.68-1.19A5,5,0,0,0,412,256.55Z"/><path d="M422.5,251.15v1.6h-4.79V256h4v1.6h-4V262h-2v-10.8Z"/><path d="M430.89,251.15v1.6H426.1V256h4v1.6h-4V262h-2v-10.8Z"/><path d="M439.28,251.15v1.6h-4.79v3h3.77v1.55h-3.77v3.06h4.79V262h-6.82v-10.8Z"/><path d="M447.83,251.15v1.6H443v3h3.78v1.55H443v3.06h4.79V262H441v-10.8Z"/><path d="M452.46,262v-10.8h3.73a6.85,6.85,0,0,1,1.81.2,3.35,3.35,0,0,1,1.23.58,2.15,2.15,0,0,1,.71.9,3,3,0,0,1,.22,1.2,2.46,2.46,0,0,1-.11.72,2,2,0,0,1-.35.65,2.13,2.13,0,0,1-.6.55,3.28,3.28,0,0,1-.86.42c1.49.34,2.23,1.14,2.23,2.41a3.17,3.17,0,0,1-.26,1.27,2.77,2.77,0,0,1-.77,1,3.61,3.61,0,0,1-1.23.66,5.34,5.34,0,0,1-1.67.24Zm2-6.12h1.6a2.68,2.68,0,0,0,1.56-.38,1.36,1.36,0,0,0,.53-1.19,1.4,1.4,0,0,0-.48-1.2,2.5,2.5,0,0,0-1.49-.36h-1.72Zm0,1.38v3.17h2a2.88,2.88,0,0,0,.94-.13,1.6,1.6,0,0,0,.6-.36,1.36,1.36,0,0,0,.33-.52,1.91,1.91,0,0,0,.1-.64,1.81,1.81,0,0,0-.11-.63,1.2,1.2,0,0,0-.35-.48,1.71,1.71,0,0,0-.62-.3,3.3,3.3,0,0,0-.9-.11Z"/><path d="M464.27,257.73V262h-2v-10.8h3.3a7,7,0,0,1,1.89.22,3.71,3.71,0,0,1,1.29.64,2.44,2.44,0,0,1,.74,1,3.23,3.23,0,0,1-.38,3.17,3.54,3.54,0,0,1-.75.69,4.09,4.09,0,0,1-1,.48,2,2,0,0,1,.65.62l2.71,4h-1.81a.93.93,0,0,1-.45-.1,1,1,0,0,1-.31-.3l-2.27-3.46a.75.75,0,0,0-.28-.28,1,1,0,0,0-.45-.08Zm0-1.44h1.26a3.24,3.24,0,0,0,1-.14,1.93,1.93,0,0,0,.69-.4,1.53,1.53,0,0,0,.41-.59,2,2,0,0,0,.13-.75,1.56,1.56,0,0,0-.54-1.27,2.6,2.6,0,0,0-1.65-.44h-1.29Z"/><path d="M478.8,251.15v1.6H474v3h3.77v1.55H474v3.06h4.79V262H472v-10.8Z"/><path d="M490,262h-1.55a.67.67,0,0,1-.43-.13.75.75,0,0,1-.24-.32l-.81-2.21h-4.47l-.81,2.21a.69.69,0,0,1-.24.31.62.62,0,0,1-.43.14h-1.56l4.25-10.8h2.05Zm-7-4.08h3.45l-1.32-3.59c-.06-.16-.13-.35-.2-.57s-.14-.45-.21-.7c-.07.25-.14.49-.21.71s-.13.41-.19.57Z"/><path d="M493.23,255.68h.47a1.28,1.28,0,0,0,.47-.08,1,1,0,0,0,.32-.25l3-3.78a1.06,1.06,0,0,1,.39-.33,1.31,1.31,0,0,1,.52-.09h1.73l-3.63,4.49c-.12.14-.23.25-.33.35a1.85,1.85,0,0,1-.34.23,1.79,1.79,0,0,1,.45.25,2.61,2.61,0,0,1,.38.42l3.75,5.06h-1.78a1.06,1.06,0,0,1-.53-.1.76.76,0,0,1-.3-.29l-3-4a.81.81,0,0,0-.34-.28,1.23,1.23,0,0,0-.53-.09h-.63V262h-2V251.14h2Z"/><path class="cls-13" d="M389.51,251.88a2.2,2.2,0,0,0-2.76,1.13h0c.05-.61.07-1.22.07-1.81V250H366.18v1.18c0,5.1,1.55,11.2,9.44,11.2h1.76c3.39,0,5.6-1.13,7-2.81v0c3.27-2.3,5.72-2.35,6.4-4.69C391.25,253.39,390.65,252.21,389.51,251.88Z"/><path class="cls-14" d="M364.18,249.21c0,5.1,1.55,11.2,9.44,11.2h1.76c7.89,0,9.44-6.1,9.44-11.2V248H364.18Z"/><path class="cls-14" d="M384.75,251a2.2,2.2,0,0,1,2.76-1.13c1.14.33,1.74,1.51,1.29,3.05-.68,2.34-3.13,2.39-6.4,4.69"/><line class="cls-14" x1="363.59" y1="262.18" x2="385.41" y2="262.18"/><path class="cls-14" d="M370.44,245.67c2.83-3.54-2.9-3.43.59-7.07"/><path class="cls-14" d="M374.28,245.67c2.82-3.54-2.9-3.43.59-7.07"/><path class="cls-14" d="M378.11,245.67c2.82-3.54-2.9-3.43.59-7.07"/><line class="cls-14" x1="366.54" y1="252.16" x2="384.82" y2="252.16"/><path d="M146.82,618.65a.14.14,0,0,1-.12.08.25.25,0,0,1-.15-.09l-.25-.18a2,2,0,0,0-.39-.19,2,2,0,0,0-.59-.08,1.66,1.66,0,0,0-.61.1,1.09,1.09,0,0,0-.44.27,1.05,1.05,0,0,0-.27.39,1.28,1.28,0,0,0-.1.47,1,1,0,0,0,.14.54,1.23,1.23,0,0,0,.36.36,2.51,2.51,0,0,0,.52.25l.58.2.59.22a2.14,2.14,0,0,1,.51.3,1.58,1.58,0,0,1,.37.44,1.44,1.44,0,0,1,.13.66,2.11,2.11,0,0,1-.13.75,2,2,0,0,1-.4.61,2,2,0,0,1-.64.42,2.31,2.31,0,0,1-.86.15,2.44,2.44,0,0,1-1.09-.23,2.47,2.47,0,0,1-.8-.61l.13-.19a.16.16,0,0,1,.13-.07l.1,0,.15.14.22.17a2.48,2.48,0,0,0,.29.17,2.54,2.54,0,0,0,.39.13,1.8,1.8,0,0,0,.49,0,1.78,1.78,0,0,0,.67-.11,1.62,1.62,0,0,0,.51-.31,1.48,1.48,0,0,0,.31-.47,1.67,1.67,0,0,0,.11-.59,1,1,0,0,0-.14-.55,1.16,1.16,0,0,0-.36-.37,2.27,2.27,0,0,0-.52-.24l-.58-.2a5.89,5.89,0,0,1-.59-.21,1.85,1.85,0,0,1-.51-.3,1.49,1.49,0,0,1-.37-.45,1.53,1.53,0,0,1-.13-.68,1.63,1.63,0,0,1,.12-.62,1.54,1.54,0,0,1,.35-.52,1.8,1.8,0,0,1,.58-.37,2.18,2.18,0,0,1,.79-.14,2.48,2.48,0,0,1,.89.16,2.39,2.39,0,0,1,.72.48Z"/><path d="M152.6,617.88v.39h-2.24v6h-.46v-6h-2.25v-.39Z"/><path d="M156.05,623.92a2.19,2.19,0,0,0,.83-.16,1.83,1.83,0,0,0,.61-.45,1.77,1.77,0,0,0,.38-.67,2.45,2.45,0,0,0,.14-.83v-3.93h.46v3.93a2.9,2.9,0,0,1-.17,1,2.27,2.27,0,0,1-.48.79,2.19,2.19,0,0,1-.76.54,2.75,2.75,0,0,1-2,0,2.19,2.19,0,0,1-.76-.54,2.27,2.27,0,0,1-.48-.79,2.9,2.9,0,0,1-.17-1v-3.93h.47v3.93a2.49,2.49,0,0,0,.13.83,1.92,1.92,0,0,0,.38.67,1.68,1.68,0,0,0,.61.44A2,2,0,0,0,156.05,623.92Z"/><path d="M165.66,621.06a3.75,3.75,0,0,1-.22,1.33,2.91,2.91,0,0,1-.62,1,2.59,2.59,0,0,1-1,.63,3.26,3.26,0,0,1-1.24.22H160.3v-6.36h2.32a3.26,3.26,0,0,1,1.24.22,2.72,2.72,0,0,1,1,.63,2.87,2.87,0,0,1,.62,1A3.66,3.66,0,0,1,165.66,621.06Zm-.47,0a3.62,3.62,0,0,0-.19-1.19,2.48,2.48,0,0,0-.52-.88,2.2,2.2,0,0,0-.81-.55,2.69,2.69,0,0,0-1-.19h-1.85v5.62h1.85a2.69,2.69,0,0,0,1-.19,2.08,2.08,0,0,0,.81-.55,2.48,2.48,0,0,0,.52-.88A3.67,3.67,0,0,0,165.19,621.06Z"/><path d="M167.77,624.24h-.46v-6.36h.46Z"/><path d="M175.51,621.06a3.81,3.81,0,0,1-.22,1.34,2.91,2.91,0,0,1-.62,1,2.66,2.66,0,0,1-1,.66,3.4,3.4,0,0,1-2.46,0,2.5,2.5,0,0,1-1-.66,2.93,2.93,0,0,1-.63-1,4.19,4.19,0,0,1,0-2.68,2.93,2.93,0,0,1,.63-1,2.5,2.5,0,0,1,1-.66,3.27,3.27,0,0,1,2.46,0,2.66,2.66,0,0,1,1,.66,2.91,2.91,0,0,1,.62,1A3.81,3.81,0,0,1,175.51,621.06Zm-.48,0a3.69,3.69,0,0,0-.18-1.2,2.66,2.66,0,0,0-.52-.9,2.11,2.11,0,0,0-.81-.56,2.69,2.69,0,0,0-1.05-.2,2.66,2.66,0,0,0-1,.2,2.11,2.11,0,0,0-.81.56,2.68,2.68,0,0,0-.53.9,3.68,3.68,0,0,0-.19,1.2,3.73,3.73,0,0,0,.19,1.2,2.68,2.68,0,0,0,.53.9,2.22,2.22,0,0,0,.81.56,2.66,2.66,0,0,0,1,.19,2.69,2.69,0,0,0,1.05-.19,2.22,2.22,0,0,0,.81-.56,2.66,2.66,0,0,0,.52-.9A3.74,3.74,0,0,0,175,621.06Z"/><path d="M180.41,624.32a2.55,2.55,0,0,1-.84-.13,1.77,1.77,0,0,1-.65-.35,1.67,1.67,0,0,1-.43-.55,1.73,1.73,0,0,1-.15-.73,2,2,0,0,1,.1-.62,1.43,1.43,0,0,1,.29-.48,1.48,1.48,0,0,1,.44-.34,2,2,0,0,1,.56-.2,2.29,2.29,0,0,1-.5-.22,1.63,1.63,0,0,1-.36-.33,1.46,1.46,0,0,1-.22-.43,1.7,1.7,0,0,1-.08-.51,1.53,1.53,0,0,1,.13-.64,1.55,1.55,0,0,1,.37-.51,1.61,1.61,0,0,1,.58-.35,2.29,2.29,0,0,1,1.52,0,1.65,1.65,0,0,1,.59.35,1.4,1.4,0,0,1,.36.51,1.53,1.53,0,0,1,.13.64,1.7,1.7,0,0,1-.07.51,1.78,1.78,0,0,1-.23.43,1.63,1.63,0,0,1-.36.33,2.29,2.29,0,0,1-.5.22,2,2,0,0,1,.56.2,1.48,1.48,0,0,1,.44.34,1.43,1.43,0,0,1,.29.48,1.9,1.9,0,0,1,0,1.35,1.45,1.45,0,0,1-.43.55,1.77,1.77,0,0,1-.65.35A2.47,2.47,0,0,1,180.41,624.32Zm0-.35a2,2,0,0,0,.67-.1,1.28,1.28,0,0,0,.51-.29,1.09,1.09,0,0,0,.33-.44,1.4,1.4,0,0,0,.12-.58,1.45,1.45,0,0,0-.15-.7,1.23,1.23,0,0,0-.39-.45,1.48,1.48,0,0,0-.53-.23,2.2,2.2,0,0,0-.56-.07,2.26,2.26,0,0,0-.56.07,1.43,1.43,0,0,0-.52.23,1.23,1.23,0,0,0-.39.45,1.34,1.34,0,0,0-.16.7,1.4,1.4,0,0,0,.12.58,1.31,1.31,0,0,0,.33.44,1.32,1.32,0,0,0,.52.29A2,2,0,0,0,180.41,624Zm0-3.21a1.69,1.69,0,0,0,.63-.11,1.19,1.19,0,0,0,.45-.3,1.14,1.14,0,0,0,.26-.42,1.69,1.69,0,0,0,.08-.5,1.44,1.44,0,0,0-.09-.51,1.42,1.42,0,0,0-.28-.41,1.13,1.13,0,0,0-.45-.27,1.57,1.57,0,0,0-.6-.1,1.64,1.64,0,0,0-.6.1,1.13,1.13,0,0,0-.45.27,1.42,1.42,0,0,0-.28.41,1.44,1.44,0,0,0-.09.51,1.69,1.69,0,0,0,.08.5,1.29,1.29,0,0,0,.26.42,1.19,1.19,0,0,0,.45.3A1.69,1.69,0,0,0,180.41,620.76Z"/><path d="M187.53,619v2h1.94v.33h-1.94v2h-.35v-2h-1.93v-.33h1.93v-2Z"/><path d="M195.74,618.65a.12.12,0,0,1-.11.08.29.29,0,0,1-.16-.09l-.25-.18a1.77,1.77,0,0,0-.39-.19,2,2,0,0,0-.59-.08,1.66,1.66,0,0,0-.61.1,1.16,1.16,0,0,0-.44.27,1.05,1.05,0,0,0-.27.39,1.27,1.27,0,0,0-.09.47,1,1,0,0,0,.13.54,1.41,1.41,0,0,0,.37.36,2.42,2.42,0,0,0,.51.25l.59.2.58.22a2,2,0,0,1,.52.3,1.39,1.39,0,0,1,.36.44,1.43,1.43,0,0,1,.14.66,2.12,2.12,0,0,1-.14.75,1.8,1.8,0,0,1-.4.61,1.93,1.93,0,0,1-.64.42,2.31,2.31,0,0,1-.86.15,2.47,2.47,0,0,1-1.09-.23,2.33,2.33,0,0,1-.79-.61l.12-.19a.16.16,0,0,1,.13-.07.19.19,0,0,1,.1,0l.16.14.21.17.29.17.39.13a2.26,2.26,0,0,0,1.17-.06,1.69,1.69,0,0,0,.5-.31,1.48,1.48,0,0,0,.31-.47,1.67,1.67,0,0,0,.11-.59,1,1,0,0,0-.14-.55,1.16,1.16,0,0,0-.36-.37,2.4,2.4,0,0,0-.51-.24l-.59-.2a5.89,5.89,0,0,1-.59-.21,1.85,1.85,0,0,1-.51-.3,1.33,1.33,0,0,1-.36-.45,1.4,1.4,0,0,1-.14-.68,1.63,1.63,0,0,1,.12-.62,1.43,1.43,0,0,1,.36-.52,1.7,1.7,0,0,1,.58-.37,2.13,2.13,0,0,1,.78-.14,2.48,2.48,0,0,1,.89.16,2.27,2.27,0,0,1,.72.48Z"/><path d="M201.52,617.88v.39h-2.24v6h-.45v-6h-2.25v-.39Z"/><path d="M205,623.92a2.14,2.14,0,0,0,.82-.16,1.83,1.83,0,0,0,.61-.45,1.94,1.94,0,0,0,.39-.67,2.45,2.45,0,0,0,.13-.83v-3.93h.46v3.93a2.9,2.9,0,0,1-.17,1,2.27,2.27,0,0,1-.48.79,2.19,2.19,0,0,1-.76.54,2.75,2.75,0,0,1-2,0,2.19,2.19,0,0,1-.76-.54,2.27,2.27,0,0,1-.48-.79,2.9,2.9,0,0,1-.16-1v-3.93H203v3.93a2.49,2.49,0,0,0,.13.83,2.09,2.09,0,0,0,.38.67,1.68,1.68,0,0,0,.61.44A2,2,0,0,0,205,623.92Z"/><path d="M214.58,621.06a3.75,3.75,0,0,1-.22,1.33,2.77,2.77,0,0,1-.62,1,2.44,2.44,0,0,1-1,.63,3.24,3.24,0,0,1-1.23.22h-2.33v-6.36h2.33a3.24,3.24,0,0,1,1.23.22,2.55,2.55,0,0,1,1,.63,2.73,2.73,0,0,1,.62,1A3.66,3.66,0,0,1,214.58,621.06Zm-.47,0a3.38,3.38,0,0,0-.19-1.19,2.34,2.34,0,0,0-.52-.88,2.24,2.24,0,0,0-.8-.55,2.76,2.76,0,0,0-1-.19h-1.86v5.62h1.86a2.76,2.76,0,0,0,1-.19,2.12,2.12,0,0,0,.8-.55,2.34,2.34,0,0,0,.52-.88A3.42,3.42,0,0,0,214.11,621.06Z"/><path d="M216.69,624.24h-.46v-6.36h.46Z"/><path d="M224.43,621.06a3.81,3.81,0,0,1-.22,1.34,2.77,2.77,0,0,1-.62,1,2.5,2.5,0,0,1-1,.66,3.4,3.4,0,0,1-2.46,0,2.66,2.66,0,0,1-1-.66,2.91,2.91,0,0,1-.62-1,4,4,0,0,1,0-2.68,2.91,2.91,0,0,1,.62-1,2.66,2.66,0,0,1,1-.66,3.27,3.27,0,0,1,2.46,0,2.5,2.5,0,0,1,1,.66,2.77,2.77,0,0,1,.62,1A3.81,3.81,0,0,1,224.43,621.06Zm-.47,0a3.44,3.44,0,0,0-.19-1.2,2.5,2.5,0,0,0-.52-.9,2.11,2.11,0,0,0-.81-.56,2.8,2.8,0,0,0-2.08,0,2.27,2.27,0,0,0-.81.56,2.68,2.68,0,0,0-.53.9,3.69,3.69,0,0,0-.18,1.2,3.74,3.74,0,0,0,.18,1.2,2.68,2.68,0,0,0,.53.9,2.4,2.4,0,0,0,.81.56,2.94,2.94,0,0,0,2.08,0,2.22,2.22,0,0,0,.81-.56,2.5,2.5,0,0,0,.52-.9A3.47,3.47,0,0,0,224,621.06Z"/><path d="M229.3,621.54a2.09,2.09,0,0,1-.72-.13A1.7,1.7,0,0,1,228,621a1.73,1.73,0,0,1-.38-.57,2,2,0,0,1-.13-.75,1.87,1.87,0,0,1,.15-.76,1.85,1.85,0,0,1,.42-.61,2,2,0,0,1,.64-.4,2.16,2.16,0,0,1,.81-.15,2,2,0,0,1,.78.15,1.75,1.75,0,0,1,1,1,2.09,2.09,0,0,1,.14.81,1.91,1.91,0,0,1-.05.48,2.16,2.16,0,0,1-.15.45c-.07.14-.15.3-.25.46l-.32.5L229,624.14a.25.25,0,0,1-.22.1h-.39l1.88-2.62.25-.36a3,3,0,0,0,.21-.33,1.91,1.91,0,0,1-.63.45A2.15,2.15,0,0,1,229.3,621.54Zm1.73-1.82a1.81,1.81,0,0,0-.11-.63,1.53,1.53,0,0,0-.32-.5,1.49,1.49,0,0,0-.48-.32,1.64,1.64,0,0,0-.6-.11,1.93,1.93,0,0,0-.65.11,1.53,1.53,0,0,0-.5.32,1.37,1.37,0,0,0-.33.48,1.56,1.56,0,0,0-.11.62,1.81,1.81,0,0,0,.1.63,1.47,1.47,0,0,0,.31.48,1.35,1.35,0,0,0,.47.3,1.7,1.7,0,0,0,.61.1,1.67,1.67,0,0,0,.69-.13,1.64,1.64,0,0,0,.5-.34,1.4,1.4,0,0,0,.42-1Z"/><path d="M236.46,619v2h1.94v.33h-1.94v2h-.35v-2h-1.94v-.33h1.94v-2Z"/><path d="M244.66,618.65a.12.12,0,0,1-.11.08.25.25,0,0,1-.15-.09l-.25-.18a2.14,2.14,0,0,0-.4-.19,1.93,1.93,0,0,0-.58-.08,1.63,1.63,0,0,0-.61.1,1.13,1.13,0,0,0-.45.27,1.05,1.05,0,0,0-.27.39,1.27,1.27,0,0,0-.09.47.91.91,0,0,0,.14.54,1.23,1.23,0,0,0,.36.36,2.42,2.42,0,0,0,.51.25l.59.2.59.22a2.14,2.14,0,0,1,.51.3,1.39,1.39,0,0,1,.36.44,1.43,1.43,0,0,1,.14.66,2.12,2.12,0,0,1-.14.75,1.66,1.66,0,0,1-.4.61,1.83,1.83,0,0,1-.64.42,2.31,2.31,0,0,1-.86.15,2.41,2.41,0,0,1-1.88-.84l.12-.19a.16.16,0,0,1,.13-.07.19.19,0,0,1,.1,0l.16.14.21.17.3.17a2.8,2.8,0,0,0,.38.13,2.26,2.26,0,0,0,1.17-.06,1.57,1.57,0,0,0,.5-.31,1.33,1.33,0,0,0,.31-.47,1.47,1.47,0,0,0,.11-.59.94.94,0,0,0-.14-.55,1.16,1.16,0,0,0-.36-.37,2.4,2.4,0,0,0-.51-.24l-.59-.2a5.89,5.89,0,0,1-.59-.21,1.85,1.85,0,0,1-.51-.3,1.33,1.33,0,0,1-.36-.45,1.52,1.52,0,0,1-.14-.68,1.63,1.63,0,0,1,.12-.62,1.43,1.43,0,0,1,.36-.52,1.8,1.8,0,0,1,.58-.37,2.13,2.13,0,0,1,.78-.14,2.48,2.48,0,0,1,.89.16,2.16,2.16,0,0,1,.72.48Z"/><path d="M250.44,617.88v.39h-2.23v6h-.46v-6H245.5v-.39Z"/><path d="M253.9,623.92a2.14,2.14,0,0,0,.82-.16,1.73,1.73,0,0,0,.61-.45,1.94,1.94,0,0,0,.39-.67,2.45,2.45,0,0,0,.13-.83v-3.93h.46v3.93a2.68,2.68,0,0,1-.17,1,2.4,2.4,0,0,1-.47.79,2.23,2.23,0,0,1-.77.54,2.44,2.44,0,0,1-1,.19,2.53,2.53,0,0,1-1-.19,2.19,2.19,0,0,1-.76-.54,2.27,2.27,0,0,1-.48-.79,2.9,2.9,0,0,1-.16-1v-3.93H252v3.93a2.49,2.49,0,0,0,.13.83,1.94,1.94,0,0,0,.39.67,1.6,1.6,0,0,0,.61.44A1.94,1.94,0,0,0,253.9,623.92Z"/><path d="M263.51,621.06a4,4,0,0,1-.22,1.33,2.94,2.94,0,0,1-.63,1,2.47,2.47,0,0,1-1,.63,3.33,3.33,0,0,1-1.24.22h-2.32v-6.36h2.32a3.33,3.33,0,0,1,1.24.22,2.59,2.59,0,0,1,1,.63,2.89,2.89,0,0,1,.63,1A3.88,3.88,0,0,1,263.51,621.06Zm-.48,0a3.63,3.63,0,0,0-.18-1.19,2.49,2.49,0,0,0-.53-.88,2.24,2.24,0,0,0-.8-.55,2.76,2.76,0,0,0-1-.19h-1.86v5.62h1.86a2.76,2.76,0,0,0,1-.19,2.12,2.12,0,0,0,.8-.55,2.49,2.49,0,0,0,.53-.88A3.67,3.67,0,0,0,263,621.06Z"/><path d="M265.62,624.24h-.47v-6.36h.47Z"/><path d="M273.36,621.06a4,4,0,0,1-.22,1.34,3.06,3.06,0,0,1-.62,1,2.66,2.66,0,0,1-1,.66,3.3,3.3,0,0,1-1.24.23,3.25,3.25,0,0,1-1.23-.23,2.66,2.66,0,0,1-1-.66,2.91,2.91,0,0,1-.62-1,4.19,4.19,0,0,1,0-2.68,2.91,2.91,0,0,1,.62-1,2.66,2.66,0,0,1,1-.66,3.07,3.07,0,0,1,1.23-.24,3.12,3.12,0,0,1,1.24.24,2.66,2.66,0,0,1,1,.66,3.06,3.06,0,0,1,.62,1A4,4,0,0,1,273.36,621.06Zm-.48,0a3.44,3.44,0,0,0-.19-1.2,2.64,2.64,0,0,0-.51-.9,2.27,2.27,0,0,0-.81-.56,2.77,2.77,0,0,0-1.05-.2,2.71,2.71,0,0,0-1,.2,2.27,2.27,0,0,0-.81.56,2.66,2.66,0,0,0-.52.9,3.44,3.44,0,0,0-.19,1.2,3.47,3.47,0,0,0,.19,1.2,2.66,2.66,0,0,0,.52.9,2.4,2.4,0,0,0,.81.56,2.71,2.71,0,0,0,1,.19,2.76,2.76,0,0,0,1.05-.19,2.4,2.4,0,0,0,.81-.56,2.64,2.64,0,0,0,.51-.9A3.47,3.47,0,0,0,272.88,621.06Z"/><path d="M277,623.92h1.46v-5.17c0-.11,0-.21,0-.33l-1.4,1.25a.15.15,0,0,1-.11,0,.17.17,0,0,1-.12-.05l-.13-.18,1.84-1.63h.34v6.07h1.39v.32H277Z"/><path d="M285.76,621.06a5.17,5.17,0,0,1-.18,1.45,3.17,3.17,0,0,1-.49,1,2,2,0,0,1-.73.6,2.06,2.06,0,0,1-.89.19,2,2,0,0,1-.88-.19,2,2,0,0,1-.73-.6,3,3,0,0,1-.49-1,5.93,5.93,0,0,1,0-2.9,2.88,2.88,0,0,1,.49-1,2,2,0,0,1,.73-.6,2,2,0,0,1,.88-.2,2.07,2.07,0,0,1,.89.2,2,2,0,0,1,.73.6,3.07,3.07,0,0,1,.49,1A5.17,5.17,0,0,1,285.76,621.06Zm-.45,0a5,5,0,0,0-.15-1.32,2.68,2.68,0,0,0-.4-.9,1.46,1.46,0,0,0-.58-.51,1.6,1.6,0,0,0-.71-.16,1.56,1.56,0,0,0-.7.16,1.4,1.4,0,0,0-.58.51,2.69,2.69,0,0,0-.41.9,6.29,6.29,0,0,0,0,2.64,2.69,2.69,0,0,0,.41.9,1.56,1.56,0,0,0,.58.51,1.71,1.71,0,0,0,.7.16,1.75,1.75,0,0,0,.71-.16,1.64,1.64,0,0,0,.58-.51,2.68,2.68,0,0,0,.4-.9A5,5,0,0,0,285.31,621.06Z"/><path d="M143.05,613V602.2h3.73a7.24,7.24,0,0,1,1.81.2,3.52,3.52,0,0,1,1.23.58,2.19,2.19,0,0,1,.71.9,3.06,3.06,0,0,1,.22,1.2,2.23,2.23,0,0,1-.11.73,2,2,0,0,1-.35.65,2.61,2.61,0,0,1-.59.55,3.7,3.7,0,0,1-.87.41c1.49.34,2.23,1.14,2.23,2.41a3.13,3.13,0,0,1-.26,1.27,3,3,0,0,1-.76,1,3.76,3.76,0,0,1-1.24.66,5.3,5.3,0,0,1-1.67.24Zm2-6.13h1.61a2.75,2.75,0,0,0,1.55-.37,1.67,1.67,0,0,0,.05-2.39,2.41,2.41,0,0,0-1.49-.36h-1.72Zm0,1.39v3.17h2a2.82,2.82,0,0,0,.94-.14,1.6,1.6,0,0,0,.6-.36,1.25,1.25,0,0,0,.33-.52,1.89,1.89,0,0,0,.1-.63,1.62,1.62,0,0,0-.11-.64,1.14,1.14,0,0,0-.35-.47,1.53,1.53,0,0,0-.61-.31,3.42,3.42,0,0,0-.91-.1Z"/><path d="M163.15,607.6a5.82,5.82,0,0,1-.4,2.2,5.17,5.17,0,0,1-1.11,1.76,5,5,0,0,1-1.73,1.15,5.72,5.72,0,0,1-2.23.41,5.8,5.8,0,0,1-2.24-.41,5,5,0,0,1-1.73-1.15,5.35,5.35,0,0,1-1.12-1.76,6,6,0,0,1-.39-2.2,6.1,6.1,0,0,1,.39-2.2,5.3,5.3,0,0,1,1.12-1.75,5,5,0,0,1,1.73-1.15,5.8,5.8,0,0,1,2.24-.42,5.72,5.72,0,0,1,2.23.42,5.09,5.09,0,0,1,1.73,1.15,5.22,5.22,0,0,1,1.11,1.75A5.89,5.89,0,0,1,163.15,607.6Zm-2.06,0a4.92,4.92,0,0,0-.24-1.59,3.34,3.34,0,0,0-.67-1.2,3,3,0,0,0-1.08-.76,3.74,3.74,0,0,0-1.42-.26,3.83,3.83,0,0,0-1.43.26,3.07,3.07,0,0,0-1.08.76,3.51,3.51,0,0,0-.68,1.2,5.42,5.42,0,0,0,0,3.19,3.37,3.37,0,0,0,.68,1.19,3.07,3.07,0,0,0,1.08.76,3.83,3.83,0,0,0,1.43.26,3.74,3.74,0,0,0,1.42-.26,3,3,0,0,0,1.08-.76,3.21,3.21,0,0,0,.67-1.19A4.94,4.94,0,0,0,161.09,607.6Z"/><path d="M175.1,607.6a5.82,5.82,0,0,1-.4,2.2,5.17,5.17,0,0,1-1.11,1.76,5,5,0,0,1-1.73,1.15,5.72,5.72,0,0,1-2.23.41,5.8,5.8,0,0,1-2.24-.41,5,5,0,0,1-1.73-1.15,5.19,5.19,0,0,1-1.12-1.76,6,6,0,0,1-.4-2.2,6.1,6.1,0,0,1,.4-2.2,5.15,5.15,0,0,1,1.12-1.75,5,5,0,0,1,1.73-1.15,5.8,5.8,0,0,1,2.24-.42,5.72,5.72,0,0,1,2.23.42,5.09,5.09,0,0,1,1.73,1.15,5.22,5.22,0,0,1,1.11,1.75A5.89,5.89,0,0,1,175.1,607.6Zm-2.06,0a4.92,4.92,0,0,0-.24-1.59,3.36,3.36,0,0,0-.68-1.2,2.94,2.94,0,0,0-1.07-.76,3.74,3.74,0,0,0-1.42-.26,3.83,3.83,0,0,0-1.43.26,3.07,3.07,0,0,0-1.08.76,3.51,3.51,0,0,0-.68,1.2,5.42,5.42,0,0,0,0,3.19,3.37,3.37,0,0,0,.68,1.19,3.07,3.07,0,0,0,1.08.76,3.83,3.83,0,0,0,1.43.26,3.74,3.74,0,0,0,1.42-.26,2.94,2.94,0,0,0,1.07-.76,3.23,3.23,0,0,0,.68-1.19A4.94,4.94,0,0,0,173,607.6Z"/><path d="M183.71,602.2v1.65h-3.25V613h-2v-9.16h-3.26V602.2Z"/><path d="M194.11,613h-2v-4.73H187V613h-2V602.2h2v4.65h5.06V602.2h2Z"/><path d="M206,602.2v1.6H201.2v3H205v1.54H201.2v3.06H206V613h-6.82V602.2Z"/><path d="M210.32,607.45l-3.44-5.25h2a.56.56,0,0,1,.3.06.43.43,0,0,1,.17.18l2.46,4a1.08,1.08,0,0,1,.08-.19L212,606l2.25-3.55a.48.48,0,0,1,.42-.28h1.93l-3.48,5.17L216.7,613h-2a.49.49,0,0,1-.33-.11.91.91,0,0,1-.2-.24l-2.51-4.14-.06.17-.08.15-2.4,3.82a.91.91,0,0,1-.2.24.44.44,0,0,1-.3.11h-1.88Z"/><path d="M227,613h-2v-4.73H219.9V613h-2V602.2h2v4.65H225V602.2h2Z"/><path d="M231.44,613h-2V602.2h2Z"/><path d="M233.87,613V602.2h3.73a7.3,7.3,0,0,1,1.81.2,3.52,3.52,0,0,1,1.23.58,2.28,2.28,0,0,1,.71.9,3.06,3.06,0,0,1,.22,1.2,2.53,2.53,0,0,1-.11.73,2.16,2.16,0,0,1-.35.65,2.67,2.67,0,0,1-.6.55,3.62,3.62,0,0,1-.86.41c1.49.34,2.23,1.14,2.23,2.41a3.13,3.13,0,0,1-.26,1.27,2.9,2.9,0,0,1-.77,1,3.61,3.61,0,0,1-1.23.66A5.39,5.39,0,0,1,238,613Zm2-6.13h1.6a2.78,2.78,0,0,0,1.56-.37,1.67,1.67,0,0,0,.05-2.39,2.43,2.43,0,0,0-1.49-.36h-1.72Zm0,1.39v3.17h2a2.86,2.86,0,0,0,.94-.14,1.6,1.6,0,0,0,.6-.36,1.36,1.36,0,0,0,.33-.52,1.89,1.89,0,0,0,.1-.63,1.83,1.83,0,0,0-.11-.64,1.23,1.23,0,0,0-.35-.47,1.57,1.57,0,0,0-.62-.31,3.34,3.34,0,0,0-.9-.1Z"/><path d="M245.87,613h-2V602.2h2Z"/><path d="M255.91,602.2v1.65h-3.25V613h-2v-9.16h-3.27V602.2Z"/><path d="M259.45,613h-2V602.2h2Z"/><path d="M272.24,607.6a6,6,0,0,1-.39,2.2,5.35,5.35,0,0,1-1.12,1.76,4.91,4.91,0,0,1-1.72,1.15,6.3,6.3,0,0,1-4.47,0,5,5,0,0,1-1.74-1.15,5.17,5.17,0,0,1-1.11-1.76,5.82,5.82,0,0,1-.4-2.2,5.89,5.89,0,0,1,.4-2.2,5.13,5.13,0,0,1,1.11-1.75,5,5,0,0,1,1.74-1.15,6.16,6.16,0,0,1,4.47,0,5,5,0,0,1,1.72,1.15,5.41,5.41,0,0,1,1.12,1.75A6.1,6.1,0,0,1,272.24,607.6Zm-2.06,0A5.21,5.21,0,0,0,270,606a3.51,3.51,0,0,0-.68-1.2,2.94,2.94,0,0,0-1.07-.76,4,4,0,0,0-2.85,0,2.9,2.9,0,0,0-1.08.76,3.37,3.37,0,0,0-.69,1.2,5.42,5.42,0,0,0,0,3.19,3.25,3.25,0,0,0,.69,1.19,2.9,2.9,0,0,0,1.08.76,4,4,0,0,0,2.85,0,2.94,2.94,0,0,0,1.07-.76,3.37,3.37,0,0,0,.68-1.19A5.23,5.23,0,0,0,270.18,607.6Z"/><path d="M275.11,602.21a.43.43,0,0,1,.16,0,.38.38,0,0,1,.13.1.78.78,0,0,1,.15.16l5.68,7.23c0-.18,0-.35-.05-.51s0-.33,0-.47V602.2h1.77V613h-1a.92.92,0,0,1-.4-.08.85.85,0,0,1-.31-.27l-5.65-7.19c0,.16,0,.32,0,.47s0,.3,0,.43V613h-1.77V602.2h1.28Z"/><path d="M368.09,137.66a.12.12,0,0,1-.11.08.29.29,0,0,1-.16-.09l-.25-.18a1.77,1.77,0,0,0-.39-.19,1.68,1.68,0,0,0-.59-.08,1.91,1.91,0,0,0-.61.09,1.48,1.48,0,0,0-.44.27,1.18,1.18,0,0,0-.27.4,1.27,1.27,0,0,0-.09.47,1,1,0,0,0,.13.54,1.27,1.27,0,0,0,.37.36,2.42,2.42,0,0,0,.51.25l.59.2.58.22a2,2,0,0,1,.52.3,1.29,1.29,0,0,1,.36.44,1.42,1.42,0,0,1,.14.65,2.14,2.14,0,0,1-.14.76,1.8,1.8,0,0,1-.4.61,1.76,1.76,0,0,1-.64.41,2.13,2.13,0,0,1-.86.16,2.47,2.47,0,0,1-1.09-.23,2.33,2.33,0,0,1-.79-.61l.12-.2a.18.18,0,0,1,.13-.06.19.19,0,0,1,.1.05l.16.13.21.18.29.17a3,3,0,0,0,.39.13,1.85,1.85,0,0,0,.49.05,2.06,2.06,0,0,0,.68-.11,1.69,1.69,0,0,0,.5-.31,1.42,1.42,0,0,0,.31-.48,1.58,1.58,0,0,0,.11-.58,1,1,0,0,0-.14-.55,1.16,1.16,0,0,0-.36-.37,2.4,2.4,0,0,0-.51-.24l-.59-.2a5.89,5.89,0,0,1-.59-.21,2.14,2.14,0,0,1-.51-.3,1.33,1.33,0,0,1-.36-.45,1.4,1.4,0,0,1-.14-.68,1.63,1.63,0,0,1,.12-.62,1.43,1.43,0,0,1,.36-.52,1.56,1.56,0,0,1,.58-.37,2.13,2.13,0,0,1,.78-.14,2.48,2.48,0,0,1,.89.16,2.39,2.39,0,0,1,.72.48Z"/><path d="M373.87,136.89v.39h-2.24v6h-.45v-6h-2.25v-.39Z"/><path d="M377.33,142.93a2.14,2.14,0,0,0,.82-.16,1.83,1.83,0,0,0,.61-.45,1.94,1.94,0,0,0,.39-.67,2.45,2.45,0,0,0,.13-.83v-3.93h.46v3.93a2.94,2.94,0,0,1-.17,1,2.27,2.27,0,0,1-.48.79,2.19,2.19,0,0,1-.76.54,2.75,2.75,0,0,1-2,0,2.19,2.19,0,0,1-.76-.54,2.27,2.27,0,0,1-.48-.79,2.94,2.94,0,0,1-.17-1v-3.93h.47v3.93a2.49,2.49,0,0,0,.13.83,2.09,2.09,0,0,0,.38.67,1.8,1.8,0,0,0,.61.44A2,2,0,0,0,377.33,142.93Z"/><path d="M386.93,140.07a3.66,3.66,0,0,1-.22,1.32,2.73,2.73,0,0,1-.62,1,2.63,2.63,0,0,1-1,.63,3.24,3.24,0,0,1-1.23.22h-2.33v-6.36h2.33a3.24,3.24,0,0,1,1.23.22,2.51,2.51,0,0,1,1,.63,2.77,2.77,0,0,1,.62,1A3.75,3.75,0,0,1,386.93,140.07Zm-.47,0a3.38,3.38,0,0,0-.19-1.19,2.34,2.34,0,0,0-.52-.88,2.08,2.08,0,0,0-.81-.55,2.68,2.68,0,0,0-1-.19H382v5.62h1.86a2.68,2.68,0,0,0,1-.19,2.2,2.2,0,0,0,.81-.55,2.34,2.34,0,0,0,.52-.88A3.42,3.42,0,0,0,386.46,140.07Z"/><path d="M389,143.25h-.46v-6.36H389Z"/><path d="M396.78,140.07a3.81,3.81,0,0,1-.22,1.34,2.77,2.77,0,0,1-.62,1,2.62,2.62,0,0,1-1,.66,3.4,3.4,0,0,1-2.46,0,2.81,2.81,0,0,1-1.58-1.68,4,4,0,0,1,0-2.68,2.77,2.77,0,0,1,.62-1,2.66,2.66,0,0,1,1-.66,3.07,3.07,0,0,1,1.23-.24A3.25,3.25,0,0,1,395,137a2.64,2.64,0,0,1,1,.67,2.77,2.77,0,0,1,.62,1A3.81,3.81,0,0,1,396.78,140.07Zm-.47,0a3.44,3.44,0,0,0-.19-1.2,2.5,2.5,0,0,0-.52-.9,2.11,2.11,0,0,0-.81-.56,2.8,2.8,0,0,0-2.08,0,2.27,2.27,0,0,0-.81.56,2.68,2.68,0,0,0-.53.9,3.69,3.69,0,0,0-.18,1.2,3.78,3.78,0,0,0,.18,1.2,2.54,2.54,0,0,0,.53.89,2.3,2.3,0,0,0,.81.57,2.94,2.94,0,0,0,2.08,0,2.13,2.13,0,0,0,.81-.57,2.38,2.38,0,0,0,.52-.89A3.51,3.51,0,0,0,396.31,140.07Z"/><path d="M400.46,142.93h1.47v-5.17c0-.11,0-.22,0-.33l-1.4,1.25a.15.15,0,0,1-.11,0,.14.14,0,0,1-.12-.06l-.13-.18,1.84-1.62h.33v6.07h1.39v.32h-3.28Z"/><path d="M408.81,138v2h1.94v.33h-1.94v2h-.35v-2h-1.94v-.33h1.94v-2Z"/><path d="M417,137.66a.12.12,0,0,1-.11.08.25.25,0,0,1-.15-.09l-.25-.18a2.14,2.14,0,0,0-.4-.19,1.66,1.66,0,0,0-.58-.08,1.93,1.93,0,0,0-.62.09,1.48,1.48,0,0,0-.44.27,1.18,1.18,0,0,0-.27.4,1.27,1.27,0,0,0-.09.47.91.91,0,0,0,.14.54,1.23,1.23,0,0,0,.36.36,2.42,2.42,0,0,0,.51.25l.59.2.59.22a2.14,2.14,0,0,1,.51.3,1.29,1.29,0,0,1,.36.44,1.42,1.42,0,0,1,.14.65,2.14,2.14,0,0,1-.14.76,1.66,1.66,0,0,1-.4.61,1.68,1.68,0,0,1-.64.41,2.13,2.13,0,0,1-.86.16,2.41,2.41,0,0,1-1.88-.84l.12-.2a.18.18,0,0,1,.13-.06.19.19,0,0,1,.1.05l.16.13.21.18.3.17a2.8,2.8,0,0,0,.38.13,1.85,1.85,0,0,0,.49.05,2.06,2.06,0,0,0,.68-.11,1.57,1.57,0,0,0,.5-.31,1.28,1.28,0,0,0,.31-.48,1.58,1.58,0,0,0,.11-.58,1,1,0,0,0-.14-.55,1.16,1.16,0,0,0-.36-.37,2.4,2.4,0,0,0-.51-.24l-.59-.2a5.89,5.89,0,0,1-.59-.21,2.14,2.14,0,0,1-.51-.3,1.33,1.33,0,0,1-.36-.45,1.52,1.52,0,0,1-.14-.68,1.63,1.63,0,0,1,.12-.62,1.43,1.43,0,0,1,.36-.52,1.65,1.65,0,0,1,.58-.37,2.13,2.13,0,0,1,.78-.14,2.48,2.48,0,0,1,.89.16,2.16,2.16,0,0,1,.72.48Z"/><path d="M422.79,136.89v.39h-2.23v6h-.46v-6h-2.25v-.39Z"/><path d="M426.25,142.93a2.14,2.14,0,0,0,.82-.16,1.73,1.73,0,0,0,.61-.45,1.94,1.94,0,0,0,.39-.67,2.45,2.45,0,0,0,.13-.83v-3.93h.46v3.93a2.71,2.71,0,0,1-.17,1,2.4,2.4,0,0,1-.47.79,2.23,2.23,0,0,1-.77.54,2.44,2.44,0,0,1-1,.19,2.53,2.53,0,0,1-1-.19,2.19,2.19,0,0,1-.76-.54,2.27,2.27,0,0,1-.48-.79,2.94,2.94,0,0,1-.16-1v-3.93h.46v3.93a2.49,2.49,0,0,0,.13.83,1.94,1.94,0,0,0,.39.67,1.71,1.71,0,0,0,.61.44A1.94,1.94,0,0,0,426.25,142.93Z"/><path d="M435.86,140.07a3.88,3.88,0,0,1-.22,1.32,2.89,2.89,0,0,1-.63,1,2.59,2.59,0,0,1-.95.63,3.33,3.33,0,0,1-1.24.22H430.5v-6.36h2.32a3.33,3.33,0,0,1,1.24.22,2.47,2.47,0,0,1,.95.63,2.94,2.94,0,0,1,.63,1A4,4,0,0,1,435.86,140.07Zm-.48,0a3.38,3.38,0,0,0-.19-1.19,2.34,2.34,0,0,0-.52-.88,2.12,2.12,0,0,0-.8-.55,2.76,2.76,0,0,0-1.05-.19H431v5.62h1.86a2.76,2.76,0,0,0,1.05-.19,2.24,2.24,0,0,0,.8-.55,2.34,2.34,0,0,0,.52-.88A3.42,3.42,0,0,0,435.38,140.07Z"/><path d="M438,143.25h-.47v-6.36H438Z"/><path d="M445.71,140.07a4,4,0,0,1-.22,1.34,2.93,2.93,0,0,1-.63,1,2.66,2.66,0,0,1-.95.66,3.34,3.34,0,0,1-1.24.23,3.25,3.25,0,0,1-1.23-.23,2.79,2.79,0,0,1-1-.66,2.91,2.91,0,0,1-.62-1,4.19,4.19,0,0,1,0-2.68,2.91,2.91,0,0,1,.62-1,2.66,2.66,0,0,1,1-.66,3.07,3.07,0,0,1,1.23-.24,3.34,3.34,0,0,1,1.24.23,2.69,2.69,0,0,1,.95.67,2.93,2.93,0,0,1,.63,1A4,4,0,0,1,445.71,140.07Zm-.48,0a3.44,3.44,0,0,0-.19-1.2,2.64,2.64,0,0,0-.51-.9,2.27,2.27,0,0,0-.81-.56,2.77,2.77,0,0,0-1.05-.2,2.68,2.68,0,0,0-1,.2,2.27,2.27,0,0,0-.81.56,2.66,2.66,0,0,0-.52.9,3.44,3.44,0,0,0-.19,1.2,3.51,3.51,0,0,0,.19,1.2,2.52,2.52,0,0,0,.52.89,2.3,2.3,0,0,0,.81.57,2.68,2.68,0,0,0,1,.19,2.76,2.76,0,0,0,1.05-.19,2.3,2.3,0,0,0,.81-.57,2.5,2.5,0,0,0,.51-.89A3.51,3.51,0,0,0,445.23,140.07Z"/><path d="M450.71,136.81a2.26,2.26,0,0,1,.69.11,1.64,1.64,0,0,1,.58.32,1.47,1.47,0,0,1,.4.54,1.73,1.73,0,0,1,.15.75,1.85,1.85,0,0,1-.11.67,2.53,2.53,0,0,1-.3.59,3.66,3.66,0,0,1-.44.55c-.16.18-.34.36-.52.55l-2,2,.3,0a1.56,1.56,0,0,1,.31,0h2.75a.14.14,0,0,1,.11,0,.16.16,0,0,1,.05.11v.25h-4.11v-.15a.36.36,0,0,1,0-.1.7.7,0,0,1,.06-.09l2.18-2.2c.18-.18.34-.36.5-.53a3.71,3.71,0,0,0,.39-.52,2.41,2.41,0,0,0,.27-.53,1.92,1.92,0,0,0,.1-.59,1.48,1.48,0,0,0-.12-.61,1.21,1.21,0,0,0-.31-.42,1.24,1.24,0,0,0-.45-.25,1.91,1.91,0,0,0-.54-.08,1.63,1.63,0,0,0-.55.09,1.43,1.43,0,0,0-.45.26,1.55,1.55,0,0,0-.33.39,1.64,1.64,0,0,0-.17.5.18.18,0,0,1-.18.15H449l-.22,0a2.15,2.15,0,0,1,.23-.73,1.87,1.87,0,0,1,.42-.54,1.93,1.93,0,0,1,.6-.33A2.11,2.11,0,0,1,450.71,136.81Z"/><path d="M457.73,138v2h1.94v.33h-1.94v2h-.35v-2h-1.94v-.33h1.94v-2Z"/><path d="M465.94,137.66a.14.14,0,0,1-.12.08.25.25,0,0,1-.15-.09l-.25-.18a2.14,2.14,0,0,0-.4-.19,1.66,1.66,0,0,0-.58-.08,1.87,1.87,0,0,0-.61.09,1.42,1.42,0,0,0-.45.27,1.56,1.56,0,0,0-.27.4,1.27,1.27,0,0,0-.09.47,1,1,0,0,0,.14.54,1.23,1.23,0,0,0,.36.36,2.42,2.42,0,0,0,.51.25l.59.2.59.22a2.14,2.14,0,0,1,.51.3,1.29,1.29,0,0,1,.36.44,1.42,1.42,0,0,1,.14.65,2.14,2.14,0,0,1-.14.76,1.77,1.77,0,0,1-.39.61,1.85,1.85,0,0,1-.64.41,2.18,2.18,0,0,1-.87.16,2.41,2.41,0,0,1-1.88-.84l.13-.2a.16.16,0,0,1,.12-.06.25.25,0,0,1,.11.05l.15.13a2.38,2.38,0,0,0,.22.18,2.48,2.48,0,0,0,.29.17,2.8,2.8,0,0,0,.38.13,1.89,1.89,0,0,0,.49.05,2,2,0,0,0,.68-.11,1.47,1.47,0,0,0,.5-.31,1.44,1.44,0,0,0,.32-.48,1.57,1.57,0,0,0,.1-.58,1,1,0,0,0-.13-.55,1.3,1.3,0,0,0-.37-.37,2.4,2.4,0,0,0-.51-.24l-.59-.2a5.71,5.71,0,0,1-.58-.21,2,2,0,0,1-.52-.3,1.33,1.33,0,0,1-.36-.45,1.52,1.52,0,0,1-.14-.68,1.47,1.47,0,0,1,.13-.62,1.41,1.41,0,0,1,.35-.52,1.65,1.65,0,0,1,.58-.37,2.14,2.14,0,0,1,.79-.14,2.52,2.52,0,0,1,.89.16,2.39,2.39,0,0,1,.72.48Z"/><path d="M471.72,136.89v.39h-2.24v6H469v-6h-2.25v-.39Z"/><path d="M475.17,142.93a2.1,2.1,0,0,0,.82-.16,1.87,1.87,0,0,0,.62-.45,2.09,2.09,0,0,0,.38-.67,2.45,2.45,0,0,0,.13-.83v-3.93h.46v3.93a2.94,2.94,0,0,1-.16,1,2.27,2.27,0,0,1-.48.79,2.19,2.19,0,0,1-.76.54,2.53,2.53,0,0,1-1,.19,2.44,2.44,0,0,1-1-.19,2.23,2.23,0,0,1-.77-.54,2.4,2.4,0,0,1-.47-.79,2.71,2.71,0,0,1-.17-1v-3.93h.46v3.93a2.49,2.49,0,0,0,.14.83,1.77,1.77,0,0,0,.38.67,1.71,1.71,0,0,0,.61.44A1.94,1.94,0,0,0,475.17,142.93Z"/><path d="M484.78,140.07a3.88,3.88,0,0,1-.22,1.32,3,3,0,0,1-.62,1,2.72,2.72,0,0,1-1,.63,3.3,3.3,0,0,1-1.24.22h-2.32v-6.36h2.32a3.3,3.3,0,0,1,1.24.22,2.59,2.59,0,0,1,1,.63,3.07,3.07,0,0,1,.62,1A4,4,0,0,1,484.78,140.07Zm-.48,0a3.63,3.63,0,0,0-.18-1.19,2.63,2.63,0,0,0-.52-.88,2.24,2.24,0,0,0-.81-.55,2.76,2.76,0,0,0-1.05-.19h-1.86v5.62h1.86a2.76,2.76,0,0,0,1.05-.19,2.38,2.38,0,0,0,.81-.55,2.63,2.63,0,0,0,.52-.88A3.67,3.67,0,0,0,484.3,140.07Z"/><path d="M486.89,143.25h-.46v-6.36h.46Z"/><path d="M494.63,140.07a3.81,3.81,0,0,1-.22,1.34,3.06,3.06,0,0,1-.62,1,2.79,2.79,0,0,1-1,.66,3.43,3.43,0,0,1-2.47,0,2.79,2.79,0,0,1-1-.66,3.06,3.06,0,0,1-.62-1,4.19,4.19,0,0,1,0-2.68,3.06,3.06,0,0,1,.62-1,2.66,2.66,0,0,1,1-.66,3.1,3.1,0,0,1,1.23-.24,3.3,3.3,0,0,1,1.24.23,2.82,2.82,0,0,1,1,.67,3.06,3.06,0,0,1,.62,1A3.81,3.81,0,0,1,494.63,140.07Zm-.48,0a3.69,3.69,0,0,0-.18-1.2,2.84,2.84,0,0,0-.52-.9,2.27,2.27,0,0,0-.81-.56,2.83,2.83,0,0,0-2.09,0,2.27,2.27,0,0,0-.81.56,2.66,2.66,0,0,0-.52.9,3.44,3.44,0,0,0-.19,1.2,3.51,3.51,0,0,0,.19,1.2,2.52,2.52,0,0,0,.52.89,2.3,2.3,0,0,0,.81.57,3,3,0,0,0,2.09,0,2.3,2.3,0,0,0,.81-.57,2.68,2.68,0,0,0,.52-.89A3.78,3.78,0,0,0,494.15,140.07Z"/><path d="M499.68,136.81a2.26,2.26,0,0,1,.69.11,1.56,1.56,0,0,1,.57.3,1.36,1.36,0,0,1,.38.5,1.57,1.57,0,0,1,.15.7,1.43,1.43,0,0,1-.1.56,1.39,1.39,0,0,1-.26.44,2.08,2.08,0,0,1-.4.32,2,2,0,0,1-.5.19,1.82,1.82,0,0,1,1.06.54,1.52,1.52,0,0,1,.36,1,1.77,1.77,0,0,1-.16.73,1.91,1.91,0,0,1-.43.58,2.1,2.1,0,0,1-.65.38,2.38,2.38,0,0,1-.81.14,2.4,2.4,0,0,1-.91-.15,1.67,1.67,0,0,1-.59-.38,1.84,1.84,0,0,1-.37-.52,3.71,3.71,0,0,1-.21-.58l.17-.08.1,0,.1,0a.22.22,0,0,1,.07.09l0,.09.07.2.13.25a1.46,1.46,0,0,0,.2.25,1,1,0,0,0,.28.23,1.61,1.61,0,0,0,.4.17,2.06,2.06,0,0,0,.52.06,1.73,1.73,0,0,0,.71-.13,1.59,1.59,0,0,0,.51-.35,1.33,1.33,0,0,0,.31-.47,1.53,1.53,0,0,0,.1-.5,1.57,1.57,0,0,0-.09-.54,1.14,1.14,0,0,0-.31-.44,1.69,1.69,0,0,0-.57-.28,2.79,2.79,0,0,0-.87-.11v-.31a2.67,2.67,0,0,0,.73-.11,1.52,1.52,0,0,0,.52-.28,1.1,1.1,0,0,0,.32-.42,1.32,1.32,0,0,0,.11-.53,1.51,1.51,0,0,0-.11-.59,1.4,1.4,0,0,0-.3-.41,1.24,1.24,0,0,0-.44-.23,1.76,1.76,0,0,0-1.08,0,1.41,1.41,0,0,0-.45.25,1.34,1.34,0,0,0-.32.39,1.94,1.94,0,0,0-.2.51.16.16,0,0,1-.16.15h-.05l-.22,0a2.39,2.39,0,0,1,.22-.73,1.87,1.87,0,0,1,.42-.54,2.05,2.05,0,0,1,.6-.33A2.15,2.15,0,0,1,499.68,136.81Z"/><path d="M406.88,127.79V132h-2V121.21h3.3a7,7,0,0,1,1.89.23,3.39,3.39,0,0,1,1.29.64,2.35,2.35,0,0,1,.74,1,3.22,3.22,0,0,1,.24,1.26,3.17,3.17,0,0,1-.16,1,2.87,2.87,0,0,1-.47.88,3.09,3.09,0,0,1-.74.7,4,4,0,0,1-1,.48,1.85,1.85,0,0,1,.66.62l2.71,4H411.5a.91.91,0,0,1-.45-.11,1,1,0,0,1-.31-.3l-2.27-3.46a.71.71,0,0,0-.28-.27.89.89,0,0,0-.45-.09Zm0-1.44h1.26a3.24,3.24,0,0,0,1-.14,1.92,1.92,0,0,0,.69-.39,1.65,1.65,0,0,0,.41-.6,2,2,0,0,0,.13-.75,1.52,1.52,0,0,0-.54-1.26,2.54,2.54,0,0,0-1.65-.45h-1.29Z"/><path d="M424.6,126.61a5.82,5.82,0,0,1-.4,2.2,5,5,0,0,1-2.84,2.91,6.3,6.3,0,0,1-4.47,0,5,5,0,0,1-2.85-2.91,6,6,0,0,1-.4-2.2,6.1,6.1,0,0,1,.4-2.2,5.15,5.15,0,0,1,1.12-1.75,5,5,0,0,1,1.73-1.15,6.16,6.16,0,0,1,4.47,0,5,5,0,0,1,2.84,2.9A5.89,5.89,0,0,1,424.6,126.61Zm-2.06,0a4.92,4.92,0,0,0-.24-1.59,3.36,3.36,0,0,0-.68-1.2,2.94,2.94,0,0,0-1.07-.76,3.74,3.74,0,0,0-1.42-.26,3.8,3.8,0,0,0-1.43.26,3.07,3.07,0,0,0-1.08.76,3.36,3.36,0,0,0-.68,1.2,5.42,5.42,0,0,0,0,3.19,3.23,3.23,0,0,0,.68,1.19,3.07,3.07,0,0,0,1.08.76,3.8,3.8,0,0,0,1.43.26,3.74,3.74,0,0,0,1.42-.26,2.94,2.94,0,0,0,1.07-.76,3.23,3.23,0,0,0,.68-1.19A4.94,4.94,0,0,0,422.54,126.61Z"/><path d="M436.55,126.61a6,6,0,0,1-.4,2.2,5.32,5.32,0,0,1-1.11,1.76,5.19,5.19,0,0,1-1.73,1.15,6.3,6.3,0,0,1-4.47,0,5.23,5.23,0,0,1-1.74-1.15,5.17,5.17,0,0,1-1.11-1.76,5.82,5.82,0,0,1-.4-2.2,5.89,5.89,0,0,1,.4-2.2,5,5,0,0,1,2.85-2.9,6.16,6.16,0,0,1,4.47,0,5.19,5.19,0,0,1,1.73,1.15,5.38,5.38,0,0,1,1.11,1.75A6.1,6.1,0,0,1,436.55,126.61Zm-2.07,0a5.21,5.21,0,0,0-.23-1.59,3.36,3.36,0,0,0-.68-1.2,2.94,2.94,0,0,0-1.07-.76,4,4,0,0,0-2.85,0,3,3,0,0,0-1.08.76,3.21,3.21,0,0,0-.68,1.2,5.42,5.42,0,0,0,0,3.19,3.1,3.1,0,0,0,.68,1.19,3,3,0,0,0,1.08.76,4,4,0,0,0,2.85,0,2.94,2.94,0,0,0,1.07-.76,3.23,3.23,0,0,0,.68-1.19A5.23,5.23,0,0,0,434.48,126.61Z"/><path d="M443.79,128l.21.52c.07-.18.15-.36.22-.53a3.85,3.85,0,0,1,.24-.5l3.2-6a1.4,1.4,0,0,1,.12-.18.42.42,0,0,1,.14-.09.48.48,0,0,1,.18,0h1.75V132h-1.77v-7c0-.13,0-.27,0-.43s0-.31,0-.47l-3.26,6.13a.93.93,0,0,1-.3.32.73.73,0,0,1-.41.12h-.28a.74.74,0,0,1-.42-.12.82.82,0,0,1-.29-.32l-3.31-6.15c0,.16,0,.32,0,.48s0,.3,0,.44v7h-1.77V121.21h1.75a.47.47,0,0,1,.17,0,.46.46,0,0,1,.15.09,1.4,1.4,0,0,1,.13.18l3.22,6A4.59,4.59,0,0,1,443.79,128Z"/><path d="M460.86,127.94h1.36V129a.35.35,0,0,1-.1.26.36.36,0,0,1-.28.11h-1V132h-1.61v-2.64h-4.56a.48.48,0,0,1-.33-.12.45.45,0,0,1-.18-.29L454,128l5.12-6.84h1.75Zm-1.61-3.53c0-.16,0-.33,0-.52s0-.37.05-.57L456,127.94h3.29Z"/><rect class="cls-16" x="621.99" y="60.45" width="58.53" height="451.88"/><path d="M654.88,197.36V199h-4.79v3h3.77v1.55h-3.77v3.05h4.79v1.61h-6.82v-10.8Z"/><path d="M649.32,217.82h3.87v1.54h-3.87Z"/><path d="M649.75,234.25v3.8h-2v-10.8h3.52a6.09,6.09,0,0,1,1.87.25,3.64,3.64,0,0,1,1.31.71,2.76,2.76,0,0,1,.76,1.09,3.7,3.7,0,0,1,.25,1.39,4,4,0,0,1-.26,1.44,3,3,0,0,1-.79,1.12,3.57,3.57,0,0,1-1.3.74,6,6,0,0,1-1.84.26Zm0-1.57h1.51a3,3,0,0,0,1-.14,1.75,1.75,0,0,0,.68-.4,1.64,1.64,0,0,0,.41-.62,2.45,2.45,0,0,0,.13-.83,2.13,2.13,0,0,0-.13-.78,1.5,1.5,0,0,0-.41-.6,1.72,1.72,0,0,0-.68-.38,3.05,3.05,0,0,0-1-.13h-1.51Z"/><path d="M656.73,247.59a6.06,6.06,0,0,1-.39,2.2,5.2,5.2,0,0,1-1.12,1.75,5,5,0,0,1-1.72,1.16,6.32,6.32,0,0,1-4.48,0,5.07,5.07,0,0,1-1.73-1.16,5.2,5.2,0,0,1-1.12-1.75,6.4,6.4,0,0,1,0-4.4,5.3,5.3,0,0,1,1.12-1.75,5.21,5.21,0,0,1,1.73-1.16,6,6,0,0,1,2.24-.41,5.8,5.8,0,0,1,2.24.42,5.14,5.14,0,0,1,1.72,1.15,5.3,5.3,0,0,1,1.12,1.75A6.1,6.1,0,0,1,656.73,247.59Zm-2.06,0a4.92,4.92,0,0,0-.24-1.59,3.34,3.34,0,0,0-.67-1.2,3,3,0,0,0-1.07-.76,4.06,4.06,0,0,0-2.86,0,2.94,2.94,0,0,0-1.07.76,3.37,3.37,0,0,0-.69,1.2,4.92,4.92,0,0,0-.24,1.59,5,5,0,0,0,.24,1.6,3.25,3.25,0,0,0,.69,1.19,2.81,2.81,0,0,0,1.07.75,3.92,3.92,0,0,0,2.86,0,2.88,2.88,0,0,0,1.07-.75,3.21,3.21,0,0,0,.67-1.19A5,5,0,0,0,654.67,247.59Z"/><path d="M654.12,259.1a.45.45,0,0,1-.19.23.49.49,0,0,1-.25.07.64.64,0,0,1-.34-.12l-.44-.26a3.39,3.39,0,0,0-.6-.25,2.36,2.36,0,0,0-.8-.12,2.3,2.3,0,0,0-.73.1,1.62,1.62,0,0,0-.52.28,1.13,1.13,0,0,0-.32.43,1.42,1.42,0,0,0-.1.55,1,1,0,0,0,.21.64,1.77,1.77,0,0,0,.56.43,5.33,5.33,0,0,0,.8.32l.92.3a8.1,8.1,0,0,1,.92.38,3.31,3.31,0,0,1,.79.53,2.43,2.43,0,0,1,.57.8,2.8,2.8,0,0,1,.21,1.14,3.63,3.63,0,0,1-.25,1.37,3.24,3.24,0,0,1-.73,1.12,3.72,3.72,0,0,1-1.18.75,4.34,4.34,0,0,1-1.59.27,5.87,5.87,0,0,1-1-.1,6.26,6.26,0,0,1-1-.29,5.41,5.41,0,0,1-.86-.45,4.49,4.49,0,0,1-.71-.58l.58-1a.82.82,0,0,1,.2-.17.46.46,0,0,1,.26-.07.71.71,0,0,1,.4.15l.51.34a3.51,3.51,0,0,0,.7.34,2.76,2.76,0,0,0,1,.15,2,2,0,0,0,1.33-.4,1.47,1.47,0,0,0,.47-1.17,1.1,1.1,0,0,0-.21-.7,1.63,1.63,0,0,0-.57-.45,3.92,3.92,0,0,0-.8-.31l-.91-.28c-.31-.1-.61-.22-.91-.35a3.16,3.16,0,0,1-.8-.55,2.43,2.43,0,0,1-.56-.84,3.24,3.24,0,0,1-.22-1.24,2.94,2.94,0,0,1,.24-1.16,3.05,3.05,0,0,1,.69-1,3.27,3.27,0,0,1,1.11-.69,3.9,3.9,0,0,1,1.5-.27,5,5,0,0,1,1.76.3,4,4,0,0,1,1.38.84Z"/><path d="M655.51,272.08v1.65h-3.25v9.15h-2v-9.15H647v-1.65Z"/><path d="M654.88,287v1.6h-4.79v3h3.77v1.54h-3.77v3.06h4.79v1.61h-6.82V287Z"/><path d="M649.52,308.55v4.22h-2V302h3.3a6.91,6.91,0,0,1,1.89.22,3.85,3.85,0,0,1,1.3.64,2.56,2.56,0,0,1,.74,1,3.4,3.4,0,0,1,.23,1.26,3.12,3.12,0,0,1-.62,1.91,3.11,3.11,0,0,1-.75.69,3.93,3.93,0,0,1-1,.48,2.15,2.15,0,0,1,.66.62l2.7,4h-1.81a.87.87,0,0,1-.44-.1.89.89,0,0,1-.31-.3l-2.27-3.46a.93.93,0,0,0-.28-.28,1.12,1.12,0,0,0-.46-.08Zm0-1.44h1.26a3.24,3.24,0,0,0,1-.14,1.93,1.93,0,0,0,.69-.4,1.43,1.43,0,0,0,.41-.59,2.06,2.06,0,0,0,.14-.76,1.53,1.53,0,0,0-.55-1.26,2.6,2.6,0,0,0-1.65-.44h-1.29Z"/><path d="M655.45,319.8v.74a1.08,1.08,0,0,1-.19.62L649.71,329h5.61v1.61H647.1v-.79a.72.72,0,0,1,.06-.29,1.26,1.26,0,0,1,.13-.26l5.56-7.87h-5.4V319.8Z"/><path d="M656.73,340.14a6.06,6.06,0,0,1-.39,2.2,5.35,5.35,0,0,1-1.12,1.76,5.14,5.14,0,0,1-1.72,1.15,6.32,6.32,0,0,1-4.48,0,5.19,5.19,0,0,1-1.73-1.15,5.35,5.35,0,0,1-1.12-1.76,6.4,6.4,0,0,1,0-4.4,5.3,5.3,0,0,1,1.12-1.75A5,5,0,0,1,649,335a6.18,6.18,0,0,1,4.48,0,5.14,5.14,0,0,1,1.72,1.15,5.3,5.3,0,0,1,1.12,1.75A6.1,6.1,0,0,1,656.73,340.14Zm-2.06,0a4.92,4.92,0,0,0-.24-1.59,3.34,3.34,0,0,0-.67-1.2,3,3,0,0,0-1.07-.76,4.06,4.06,0,0,0-2.86,0,2.94,2.94,0,0,0-1.07.76,3.37,3.37,0,0,0-.69,1.2,5.42,5.42,0,0,0,0,3.19,3.25,3.25,0,0,0,.69,1.19,2.81,2.81,0,0,0,1.07.75,3.92,3.92,0,0,0,2.86,0,2.88,2.88,0,0,0,1.07-.75,3.21,3.21,0,0,0,.67-1.19A4.94,4.94,0,0,0,654.67,340.14Z"/><path d="M648,349.7a.42.42,0,0,1,.16,0,.41.41,0,0,1,.14.1l.15.17,5.67,7.22c0-.17,0-.34,0-.51s0-.32,0-.47v-6.57h1.77v10.81h-1a1,1,0,0,1-.4-.08.78.78,0,0,1-.3-.26l-5.65-7.2,0,.47c0,.16,0,.3,0,.43v6.64h-1.77V349.68h1.06Z"/><path d="M654.88,364.63v1.6h-4.79v3h3.77v1.55h-3.77v3.06h4.79v1.6h-6.82v-10.8Z"/><polygon class="cls-17" points="865.29 560.01 812.64 560.01 813.73 668.88 57.05 668.8 57.05 560.01 3 560.01 3 46.02 865.29 46.02 865.29 560.01"/><polyline class="cls-18" points="416.32 487.61 416.32 512.34 251.74 512.34 251.74 380.92 416.32 380.92 416.32 405.8"/><polyline class="cls-18" points="94.84 479.81 94.84 380.92 215.39 380.92 215.39 397.3"/><polyline class="cls-18" points="215.39 487.61 215.39 512.34 94.84 512.34 94.84 493.94"/><line class="cls-18" x1="416.32" y1="451.9" x2="416.32" y2="475.68"/><line class="cls-18" x1="416.32" y1="417.81" x2="416.32" y2="441.13"/><line class="cls-18" x1="457.31" y1="440.66" x2="457.31" y2="418.74"/><line class="cls-18" x1="457.31" y1="475.17" x2="457.31" y2="452.94"/><polyline class="cls-18" points="540.21 512.34 457.31 512.34 457.31 487.61"/><polyline class="cls-18" points="578.8 380.92 610.07 380.92 610.07 512.34 566.47 512.34"/><polyline class="cls-18" points="457.31 405.71 457.31 380.92 567.64 380.92"/><line class="cls-18" x1="215.39" y1="416.24" x2="215.39" y2="434.35"/><line class="cls-18" x1="215.39" y1="450.49" x2="215.39" y2="468.6"/><polyline class="cls-18" points="3 296.2 132.71 296.2 132.71 378.92"/><polyline class="cls-18" points="57.05 560.01 74.37 560.01 74.37 472.33"/><polyline class="cls-18" points="74.29 458.05 74.29 452.83 60.17 452.83 60.17 400.01 73.35 400.01 73.35 371.71 42.94 371.71"/><polyline class="cls-18" points="336.92 560.01 369.44 560.01 369.44 615.45 392.3 615.45 392.3 609.06 410.55 609.06"/><line class="cls-18" x1="425.84" y1="608.99" x2="445.42" y2="608.99"/><line class="cls-18" x1="234.58" y1="560.01" x2="305.45" y2="560.01"/><line class="cls-18" x1="132.15" y1="560.01" x2="203.01" y2="560.01"/><line class="cls-18" x1="74.39" y1="560.01" x2="102.37" y2="560.01"/><line class="cls-18" x1="536.79" y1="608.99" x2="556.37" y2="608.99"/><polyline class="cls-18" points="570.33 608.99 589.91 608.99 589.91 644.9 599.93 644.9 599.93 668.86"/><line class="cls-18" x1="459.38" y1="608.68" x2="522.17" y2="608.68"/><polyline class="cls-18" points="132.56 296.2 132.56 243.2 188.6 243.2"/><polyline class="cls-18" points="202.6 242.57 209.93 242.57 209.93 341.7"/><line class="cls-18" x1="209.93" y1="361.48" x2="209.93" y2="381.39"/><polyline class="cls-18" points="251.12 384.14 239.46 384.14 239.46 318.47"/><line class="cls-18" x1="239.46" y1="296.32" x2="239.46" y2="217.82"/><line class="cls-18" x1="163.29" y1="217.38" x2="297.36" y2="217.38"/><line class="cls-18" x1="348.77" y1="217.38" x2="406.49" y2="217.38"/><line class="cls-18" x1="459.34" y1="217.38" x2="517.06" y2="217.38"/><polyline class="cls-18" points="569.25 217.38 600.09 217.38 600.09 46.45"/><line class="cls-18" x1="265.12" y1="45.05" x2="265.12" y2="216.85"/><line class="cls-19" x1="378.55" y1="45.05" x2="378.55" y2="216.85"/><line class="cls-19" x1="488.2" y1="45.05" x2="488.2" y2="216.85"/><rect class="cls-18" x="371.82" y="273.64" width="12.25" height="62.7"/><rect class="cls-18" x="407.59" y="273.64" width="12.25" height="62.7"/><rect class="cls-18" x="443.35" y="273.64" width="12.25" height="62.7"/><rect class="cls-18" x="479.11" y="273.64" width="12.25" height="62.7"/><line class="cls-18" x1="698.21" y1="46.45" x2="698.21" y2="93.1"/><line class="cls-18" x1="698.21" y1="190.25" x2="698.21" y2="233.88"/><line class="cls-18" x1="698.21" y1="265.76" x2="698.21" y2="339.42"/><line class="cls-18" x1="698.21" y1="366.04" x2="698.21" y2="439.69"/><line class="cls-18" x1="698.21" y1="544.2" x2="698.21" y2="579.54"/><line class="cls-18" x1="698.21" y1="612.12" x2="698.21" y2="668.21"/><polyline class="cls-18" points="698.22 470.46 698.22 512.34 862.87 512.34"/><line class="cls-18" x1="698.21" y1="125.34" x2="698.21" y2="161.15"/><line class="cls-18" x1="698.25" y1="212.06" x2="864.35" y2="212.06"/><line class="cls-19" x1="698.25" y1="310.55" x2="864.35" y2="310.55"/><line class="cls-18" x1="698.25" y1="402.86" x2="864.35" y2="402.86"/><line class="cls-19" x1="167.58" y1="560.01" x2="167.58" y2="668.34"/><line class="cls-19" x1="270.01" y1="560.01" x2="270.01" y2="668.34"/><polygon points="3.25 17.25 3.25 0.07 5.53 0.07 5.53 15.22 13.99 15.22 13.99 17.25 3.25 17.25"/><polygon points="16.74 17.25 16.74 0.07 29.17 0.07 29.17 2.1 19.02 2.1 19.02 7.36 28.52 7.36 28.52 9.38 19.02 9.38 19.02 15.22 29.56 15.22 29.56 17.25 16.74 17.25"/><path d="M37.61,17.25,31,.07h2.46l4.46,12.48c.36,1,.66,1.94.91,2.81.26-.93.57-1.87.92-2.81L44.35.07h2.32L40,17.25Z"/><polygon points="48.76 17.25 48.76 0.07 61.18 0.07 61.18 2.1 51.03 2.1 51.03 7.36 60.54 7.36 60.54 9.38 51.03 9.38 51.03 15.22 61.58 15.22 61.58 17.25 48.76 17.25"/><polygon points="64.63 17.25 64.63 0.07 66.9 0.07 66.9 15.22 75.36 15.22 75.36 17.25 64.63 17.25"/><path d="M93.93,4.28l-2.09.16a4,4,0,0,0-.8-1.8,2.8,2.8,0,0,0-2.11-.91,2.88,2.88,0,0,0-1.77.57,4.79,4.79,0,0,0-1.57,2.12,11.22,11.22,0,0,0-.6,4,4.86,4.86,0,0,1,1.87-1.72,4.92,4.92,0,0,1,2.31-.56,4.77,4.77,0,0,1,3.59,1.55,5.55,5.55,0,0,1,1.48,4,6.57,6.57,0,0,1-.7,3,5.05,5.05,0,0,1-1.91,2.12,5.2,5.2,0,0,1-2.77.74,5.38,5.38,0,0,1-4.3-1.94Q82.9,13.67,82.9,9.21q0-5,1.84-7.24a5.29,5.29,0,0,1,4.32-2,4.83,4.83,0,0,1,3.32,1.14,4.78,4.78,0,0,1,1.55,3.14m-8.61,7.4a5,5,0,0,0,.46,2.09,3.48,3.48,0,0,0,1.3,1.52,3.22,3.22,0,0,0,1.75.52,3,3,0,0,0,2.29-1.08,4.24,4.24,0,0,0,1-2.93,4,4,0,0,0-1-2.81,3.12,3.12,0,0,0-2.39-1,3.25,3.25,0,0,0-2.42,1,3.7,3.7,0,0,0-1,2.69"/></g></g></svg>