<svg xmlns="http://www.w3.org/2000/svg" viewBox="0 0 88 28"><defs><style>.cls-1{fill:#adf002;}.cls-2{fill:none;stroke:#fff;stroke-miterlimit:10;}</style></defs><title>dia_icon</title><g id="레이어_2" data-name="레이어 2"><g id="레이어_1-2" data-name="레이어 1"><path class="cls-1" d="M0,14a13.89,13.89,0,0,1,.27-2.73,13.52,13.52,0,0,1,.8-2.63A13.94,13.94,0,0,1,8.64,1.07a13.52,13.52,0,0,1,2.63-.8A13.89,13.89,0,0,1,14,0H74a13.89,13.89,0,0,1,2.73.27,13.52,13.52,0,0,1,2.63.8,13.94,13.94,0,0,1,7.57,7.57,13.52,13.52,0,0,1,.8,2.63,13.94,13.94,0,0,1,0,5.46,13.52,13.52,0,0,1-.8,2.63,13.94,13.94,0,0,1-7.57,7.57,13.52,13.52,0,0,1-2.63.8A13.89,13.89,0,0,1,74,28H14a13.89,13.89,0,0,1-2.73-.27,13.52,13.52,0,0,1-2.63-.8,13.94,13.94,0,0,1-7.57-7.57,13.52,13.52,0,0,1-.8-2.63A13.89,13.89,0,0,1,0,14Z"/><path class="cls-2" d="M1.58,14a12.66,12.66,0,0,1,.24-2.46,12.84,12.84,0,0,1,.71-2.36A12.69,12.69,0,0,1,3.7,7,12.46,12.46,0,0,1,5.27,5.09,12.26,12.26,0,0,1,9.35,2.36a12.45,12.45,0,0,1,2.37-.72,12.66,12.66,0,0,1,2.46-.24H73.83a12.64,12.64,0,0,1,2.45.24,12.45,12.45,0,0,1,2.37.72,12.26,12.26,0,0,1,4.08,2.73A12.46,12.46,0,0,1,84.3,7a12.69,12.69,0,0,1,1.17,2.18,12.84,12.84,0,0,1,.71,2.36A13.5,13.5,0,0,1,86.43,14a13.5,13.5,0,0,1-.25,2.46,12.84,12.84,0,0,1-.71,2.36A12.69,12.69,0,0,1,84.3,21a12.46,12.46,0,0,1-1.57,1.91,12.26,12.26,0,0,1-4.08,2.73,12.45,12.45,0,0,1-2.37.72,12.64,12.64,0,0,1-2.45.24H14.18a12.66,12.66,0,0,1-2.46-.24,12.45,12.45,0,0,1-2.37-.72,12.26,12.26,0,0,1-4.08-2.73A12.46,12.46,0,0,1,3.7,21a12.69,12.69,0,0,1-1.17-2.18,12.84,12.84,0,0,1-.71-2.36A12.66,12.66,0,0,1,1.58,14Z"/><path d="M15.93,9.44a17.88,17.88,0,0,1,2.83-.21,6,6,0,0,1,4,1.13A4.38,4.38,0,0,1,24.26,14a5,5,0,0,1-1.52,3.88,6.53,6.53,0,0,1-4.41,1.33,19.79,19.79,0,0,1-2.4-.13Zm1.78,8.26a7.1,7.1,0,0,0,1,0c2.31,0,3.69-1.26,3.69-3.73,0-2.16-1.23-3.39-3.46-3.39a6.22,6.22,0,0,0-1.21.1Z"/><path d="M27.67,10a1,1,0,0,1-2,0,1,1,0,0,1,2,0Zm-1.89,9V12h1.79v7Z"/><path d="M33.44,19.06l-.11-.79h0a2.61,2.61,0,0,1-2.08.94A2.08,2.08,0,0,1,29,17.12c0-1.78,1.57-2.68,4.18-2.66v-.12c0-.46-.19-1.23-1.43-1.23a3.78,3.78,0,0,0-1.9.52l-.35-1.16A5.19,5.19,0,0,1,32,11.85c2.26,0,2.91,1.43,2.91,3v2.54a11.77,11.77,0,0,0,.1,1.7Zm-.23-3.45c-1.26,0-2.46.25-2.46,1.32a.93.93,0,0,0,1,1,1.44,1.44,0,0,0,1.39-1,1.09,1.09,0,0,0,.06-.39Z"/><path d="M36.83,14.11c0-.81,0-1.49-.06-2.1H38.3l.07,1h.05a2.42,2.42,0,0,1,2.17-1.2,2,2,0,0,1,1.95,1.3h0a2.53,2.53,0,0,1,.87-.88,2.38,2.38,0,0,1,1.41-.42c1.18,0,2.36.8,2.36,3.05v4.16H45.48v-3.9c0-1.17-.41-1.86-1.26-1.86a1.36,1.36,0,0,0-1.25.94,2.71,2.71,0,0,0-.08.59v4.23H41.15V15c0-1-.39-1.68-1.21-1.68a1.39,1.39,0,0,0-1.28,1,1.57,1.57,0,0,0-.1.58v4.17H36.83Z"/><path d="M55.79,15.47a3.48,3.48,0,0,1-3.62,3.74,3.41,3.41,0,0,1-3.53-3.63,3.48,3.48,0,0,1,3.65-3.73A3.39,3.39,0,0,1,55.79,15.47Zm-5.31.07c0,1.36.66,2.39,1.75,2.39s1.72-1,1.72-2.42c0-1.1-.49-2.36-1.71-2.36S50.48,14.37,50.48,15.54Z"/><path d="M57.25,14.11c0-.81,0-1.49-.06-2.1h1.56l.09,1.06h0a2.55,2.55,0,0,1,2.25-1.22c1.22,0,2.5.8,2.5,3v4.18H61.85v-4c0-1-.38-1.78-1.35-1.78a1.49,1.49,0,0,0-1.39,1,2.1,2.1,0,0,0-.07.58v4.14H57.25Z"/><path d="M72,8.79v8.28c0,.73,0,1.51,0,2H70.48l-.07-1.12h0a2.53,2.53,0,0,1-2.3,1.27c-1.68,0-3-1.43-3-3.6,0-2.36,1.46-3.76,3.16-3.76a2.25,2.25,0,0,1,2,.93h0v-4ZM70.24,15a2.5,2.5,0,0,0,0-.47,1.55,1.55,0,0,0-1.53-1.25c-1.14,0-1.78,1-1.78,2.33s.64,2.22,1.77,2.22a1.56,1.56,0,0,0,1.53-1.26,2.06,2.06,0,0,0,.06-.52Z"/></g></g></svg>