<?xml version="1.0" encoding="utf-8"?>
<!-- Generator: Adobe Illustrator 24.0.1, SVG Export Plug-In . SVG Version: 6.00 Build 0)  -->
<svg version="1.1" id="레이어_1" xmlns="http://www.w3.org/2000/svg" xmlns:xlink="http://www.w3.org/1999/xlink" x="0px"
	 y="0px" viewBox="0 0 160 160" style="enable-background:new 0 0 160 160;" xml:space="preserve">
<style type="text/css">
	.st0{fill:#ADF002;}
	.st1{fill:#A8D128;}
	.st2{fill:#FFFFFF;}
	.st3{opacity:0.9;}
</style>
<circle class="st0" cx="80" cy="80" r="60"/>
<circle class="st1" cx="80" cy="80" r="50"/>
<g>
	<path class="st2" d="M80,35c24.8,0,45,20.2,45,45s-20.2,45-45,45s-45-20.2-45-45S55.2,35,80,35 M80,30c-27.6,0-50,22.4-50,50
		s22.4,50,50,50s50-22.4,50-50S107.6,30,80,30L80,30z"/>
</g>
<g class="st3">
	<path class="st2" d="M97.1,75.2c-1.5,0-2.7,1.2-2.7,2.7v17.9H64.8V66.1h17.9c1.5,0,2.7-1.2,2.7-2.7c0-1.5-1.2-2.7-2.7-2.7H62.1
		c-1.5,0-2.7,1.2-2.7,2.7v35.1c0,1.5,1.2,2.7,2.7,2.7h35.1c1.5,0,2.7-1.2,2.7-2.7V77.9C99.8,76.4,98.6,75.2,97.1,75.2z"/>
	<path class="st2" d="M101.5,59c-0.5-0.5-1.2-0.8-1.9-0.8h-9.4c-1.5,0-2.7,1.2-2.7,2.7s1.2,2.7,2.7,2.7h2.9l-9.7,9.7
		c-0.5,0.5-0.8,1.2-0.8,1.9s0.3,1.4,0.8,1.9s1.2,0.8,1.9,0.8c0.7,0,1.4-0.3,1.9-0.8l9.7-9.7v2.9c0,1.5,1.2,2.7,2.7,2.7
		s2.7-1.2,2.7-2.7v-9.4C102.3,60.2,102,59.5,101.5,59z"/>
</g>
</svg>
