<svg xmlns="http://www.w3.org/2000/svg" viewBox="0 0 88 28"><defs><style>.cls-1{fill:#adf002;}.cls-2{fill:none;stroke:#fff;stroke-miterlimit:10;}</style></defs><title>pla_icon</title><g id="레이어_2" data-name="레이어 2"><g id="레이어_1-2" data-name="레이어 1"><path class="cls-1" d="M0,14a13.89,13.89,0,0,1,.27-2.73,13.52,13.52,0,0,1,.8-2.63A13.94,13.94,0,0,1,8.64,1.07a13.52,13.52,0,0,1,2.63-.8A13.89,13.89,0,0,1,14,0H74a13.89,13.89,0,0,1,2.73.27,13.52,13.52,0,0,1,2.63.8,13.94,13.94,0,0,1,7.57,7.57,13.52,13.52,0,0,1,.8,2.63,13.94,13.94,0,0,1,0,5.46,13.52,13.52,0,0,1-.8,2.63,13.94,13.94,0,0,1-7.57,7.57,13.52,13.52,0,0,1-2.63.8A13.89,13.89,0,0,1,74,28H14a13.89,13.89,0,0,1-2.73-.27,13.52,13.52,0,0,1-2.63-.8,13.94,13.94,0,0,1-7.57-7.57,13.52,13.52,0,0,1-.8-2.63A13.89,13.89,0,0,1,0,14Z"/><path class="cls-2" d="M1.57,14a12.67,12.67,0,0,1,.25-2.46,12.84,12.84,0,0,1,.71-2.36A12.69,12.69,0,0,1,3.7,7,12.46,12.46,0,0,1,5.27,5.09,12.26,12.26,0,0,1,9.35,2.36a12.45,12.45,0,0,1,2.37-.72,12.64,12.64,0,0,1,2.45-.24H73.82a12.66,12.66,0,0,1,2.46.24,12.45,12.45,0,0,1,2.37.72,12.26,12.26,0,0,1,4.08,2.73A12.46,12.46,0,0,1,84.3,7a12.69,12.69,0,0,1,1.17,2.18,12.84,12.84,0,0,1,.71,2.36,12.73,12.73,0,0,1,0,4.92,12.84,12.84,0,0,1-.71,2.36A12.69,12.69,0,0,1,84.3,21a12.46,12.46,0,0,1-1.57,1.91,12.26,12.26,0,0,1-4.08,2.73,12.45,12.45,0,0,1-2.37.72,12.66,12.66,0,0,1-2.46.24H14.17a12.64,12.64,0,0,1-2.45-.24,12.45,12.45,0,0,1-2.37-.72,12.26,12.26,0,0,1-4.08-2.73A12.46,12.46,0,0,1,3.7,21a12.69,12.69,0,0,1-1.17-2.18,12.84,12.84,0,0,1-.71-2.36A12.67,12.67,0,0,1,1.57,14Z"/><path d="M16.69,9.44a14.93,14.93,0,0,1,2.72-.21,4.42,4.42,0,0,1,2.88.8,2.75,2.75,0,0,1,1,2.15,3,3,0,0,1-.84,2.22,4.31,4.31,0,0,1-3.08,1,5.3,5.3,0,0,1-.87-.06v3.68H16.69ZM18.46,14a3.45,3.45,0,0,0,.87.07c1.33,0,2.14-.65,2.14-1.79s-.76-1.67-2-1.67a5,5,0,0,0-1,.09Z"/><path d="M24.66,8.79h1.8V19.06h-1.8Z"/><path d="M32.34,19.06l-.11-.79h0a2.61,2.61,0,0,1-2.08.94,2.08,2.08,0,0,1-2.21-2.09c0-1.78,1.57-2.68,4.18-2.66v-.12c0-.46-.19-1.23-1.43-1.23a3.78,3.78,0,0,0-1.9.52l-.35-1.16a5.19,5.19,0,0,1,2.55-.62c2.26,0,2.91,1.43,2.91,3v2.54a11.77,11.77,0,0,0,.1,1.7Zm-.23-3.45c-1.26,0-2.46.25-2.46,1.32a.93.93,0,0,0,1,1,1.44,1.44,0,0,0,1.39-1,1.09,1.09,0,0,0,.06-.39Z"/><path d="M37.68,10v2h1.69v1.33H37.68v3.11c0,.86.23,1.3.91,1.3a2.76,2.76,0,0,0,.69-.08l0,1.36A3.93,3.93,0,0,1,38,19.2a2.1,2.1,0,0,1-1.54-.58,2.83,2.83,0,0,1-.55-2V13.34h-1V12h1V10.42Z"/><path d="M42.61,10a1,1,0,0,1-2,0,1,1,0,0,1,2,0Zm-1.89,9V12h1.79v7Z"/><path d="M44.42,14.11c0-.81,0-1.49-.06-2.1h1.56L46,13.07h0a2.55,2.55,0,0,1,2.25-1.22c1.23,0,2.5.8,2.5,3v4.18H49v-4c0-1-.38-1.78-1.35-1.78a1.49,1.49,0,0,0-1.39,1,2.1,2.1,0,0,0-.07.58v4.14H44.42Z"/><path d="M59,16.94c0,.84,0,1.54.06,2.12H57.49L57.41,18h0a2.57,2.57,0,0,1-2.26,1.22c-1.29,0-2.46-.76-2.46-3.06V12h1.78v3.83c0,1.18.38,1.93,1.32,1.93a1.5,1.5,0,0,0,1.36-1,1.54,1.54,0,0,0,.1-.55V12H59Z"/><path d="M60.92,14.11c0-.81,0-1.49-.06-2.1H62.4l.07,1h0a2.45,2.45,0,0,1,2.17-1.2,2,2,0,0,1,1.95,1.3h0a2.71,2.71,0,0,1,.87-.88A2.39,2.39,0,0,1,69,11.85c1.17,0,2.36.8,2.36,3.05v4.16H69.57v-3.9c0-1.17-.4-1.86-1.26-1.86a1.36,1.36,0,0,0-1.24.94,2.7,2.7,0,0,0-.09.59v4.23H65.25V15c0-1-.39-1.68-1.22-1.68a1.39,1.39,0,0,0-1.27,1,1.57,1.57,0,0,0-.1.58v4.17H60.92Z"/></g></g></svg>