<?xml version="1.0" encoding="utf-8"?>
<!-- Generator: Adobe Illustrator 24.0.1, SVG Export Plug-In . SVG Version: 6.00 Build 0)  -->
<svg version="1.1" id="레이어_1" xmlns="http://www.w3.org/2000/svg" xmlns:xlink="http://www.w3.org/1999/xlink" x="0px"
	 y="0px" viewBox="0 0 178.6 45.5" style="enable-background:new 0 0 178.6 45.5;" xml:space="preserve">
<style type="text/css">
	.st0{fill:#355273;enable-background:new    ;}
	.st1{fill:#FFFFFF;}
</style>
<g id="레이어_2_1_">
	<g id="레이어_1-2">
		<path class="st0" d="M164.3,45.5h-150C6.4,45.5,0,40.8,0,35V20C0,14.3,6.4,9.6,14.3,9.6h128.6l-3.5-0.1c6-8.7,18.9-9.6,25.5-9.5
			c1.1,0,1.5,1.1,0.6,1.5c-5,2.7-5.3,7-5.2,8h4c7.9,0,14.3,4.7,14.3,10.4v15C178.6,40.8,172.1,45.5,164.3,45.5z"/>
		<path class="st1" d="M13.1,20.2c0,0.4,0,0.9-0.1,1.3c0,0.4-0.1,0.8-0.2,1.2c0.4,0.7,0.9,1.4,1.6,2c0.7,0.6,1.4,1.1,2.3,1.5
			l-0.8,0.9c-1.4-0.7-2.6-1.8-3.5-3.2c-0.4,0.7-0.9,1.4-1.5,2c-0.6,0.6-1.3,1.1-2.1,1.5l-0.9-0.9c0.6-0.3,1.2-0.7,1.8-1.2
			c0.5-0.4,0.9-0.9,1.3-1.4c0.3-0.5,0.6-1.1,0.7-1.7c0.2-0.7,0.2-1.4,0.2-2.1L13.1,20.2z M19.5,33.8h-8.8v-5h8.8V33.8z M18.2,30.1
			H12v2.6h6.2L18.2,30.1z M18.2,19.9h1.3v8.2h-1.3V19.9z"/>
		<path class="st1" d="M21.6,29.2v-1.1h13.2v1.1H29V34h-1.4v-4.8H21.6z M32.8,26.4h-9.1v-6.2h1.3v2h6.4v-2h1.3V26.4z M31.5,25.3
			v-1.9h-6.5v1.9L31.5,25.3z"/>
		<path class="st1" d="M41.5,24.7c0.2,0.3,0.4,0.5,0.7,0.8c0.3,0.2,0.5,0.5,0.8,0.7s0.6,0.4,0.9,0.6s0.6,0.3,0.9,0.5l-0.9,1
			c-0.6-0.3-1.2-0.7-1.7-1.2c-0.5-0.4-1.1-0.9-1.5-1.5c-0.6,0.6-1.3,1.2-2,1.7c-0.7,0.5-1.5,0.9-2.3,1.3l-0.8-1
			c0.8-0.3,1.5-0.7,2.3-1.2c0.6-0.4,1.2-0.9,1.7-1.4c0.5-0.5,0.9-1,1.2-1.5c0.3-0.5,0.5-1,0.6-1.5h-1.7h-3.1v-1.1h4.4H43
			c-0.1,0.7-0.3,1.4-0.5,2.1C42.2,23.5,41.9,24.1,41.5,24.7z M47.6,33.8h-9v-4.2h1.4v3h7.7L47.6,33.8z M43.4,24.7v-1.2h2.5v-3.6h1.3
			v10.6h-1.3v-5.8L43.4,24.7z"/>
		<path class="st1" d="M53,23.4c0-0.5,0.1-0.9,0.3-1.3c0.2-0.4,0.4-0.8,0.8-1c0.3-0.3,0.7-0.5,1.2-0.7c0.9-0.3,1.9-0.3,2.9,0
			c0.4,0.2,0.8,0.4,1.1,0.7c0.3,0.3,0.6,0.7,0.8,1c0.2,0.4,0.3,0.9,0.3,1.3c0,0.5-0.1,0.9-0.3,1.3c-0.2,0.4-0.4,0.8-0.8,1.1
			c-0.3,0.3-0.7,0.5-1.1,0.7c-0.9,0.3-1.9,0.3-2.9,0c-0.4-0.2-0.8-0.4-1.2-0.7c-0.3-0.3-0.6-0.7-0.8-1.1C53.1,24.3,53,23.9,53,23.4z
			 M54.4,23.4c0,0.3,0.1,0.6,0.2,0.9c0.1,0.3,0.3,0.5,0.5,0.7c0.2,0.2,0.5,0.3,0.7,0.5c0.6,0.2,1.2,0.2,1.8,0
			c0.3-0.1,0.5-0.3,0.7-0.5c0.2-0.2,0.4-0.4,0.5-0.7c0.1-0.3,0.2-0.6,0.2-0.9c0-0.3,0-0.6-0.2-0.9c-0.1-0.3-0.3-0.5-0.5-0.7
			c-0.2-0.2-0.4-0.3-0.7-0.4c-0.3-0.1-0.6-0.2-0.9-0.2c-0.3,0-0.6,0.1-0.9,0.2c-0.3,0.1-0.5,0.3-0.7,0.4c-0.2,0.2-0.4,0.4-0.5,0.7
			C54.4,22.9,54.4,23.2,54.4,23.4L54.4,23.4z M64.2,33.9h-9.1v-3.6h7.5V29h-7.5v-1.1h8.8v3.6h-7.5v1.3h7.8V33.9z M66.1,23.9h-2.2V27
			h-1.3v-7.2h1.3v2.9h2.2V23.9z"/>
		<path class="st1" d="M68.8,29.6H71c0.5,0,1.1,0,1.6,0s1-0.1,1.4-0.1s0.8-0.1,1.2-0.2s0.7-0.1,1-0.2v1.1c-0.3,0.1-0.7,0.2-1.1,0.2
			s-0.9,0.1-1.3,0.2s-1,0.1-1.5,0.1s-1,0.1-1.5,0.1h-3.4v-5.6h4.8v-2.9h-4.9V21h6.2v5.2h-4.8V29.6z M77.1,19.9h1.3v14.2h-1.3V19.9z"
			/>
		<path class="st1" d="M80.7,30c0.9-0.4,1.7-0.9,2.4-1.5c0.7-0.5,1.3-1.2,1.8-1.9c0.5-0.7,0.9-1.4,1.2-2.1c0.3-0.7,0.5-1.5,0.6-2.3
			h-1.9h-3.5v-1.1h4.7c0.7,0,1.5,0,2.2,0c-0.1,2-0.7,4-1.8,5.7c-1.2,1.8-2.8,3.2-4.7,4.2L80.7,30z M90.9,19.9h1.3v14.2h-1.3V19.9z"
			/>
		<path class="st1" d="M98.4,31l-1-0.9c0.6-0.5,1.2-1,1.8-1.6c0.5-0.6,1-1.3,1.4-2c0.4-0.8,0.7-1.7,0.8-2.6c0.2-1,0.2-2.1,0.1-3.2
			h1.5c0,0.6,0,1.3-0.1,1.9c-0.1,0.6-0.2,1.2-0.3,1.8c0.7,2.1,2.1,3.9,4,5.2l-0.9,1c-0.8-0.6-1.5-1.2-2.1-2
			c-0.6-0.8-1.2-1.6-1.6-2.5c-0.4,1-0.9,1.9-1.5,2.7C100,29.7,99.3,30.4,98.4,31z M108.3,19.9h1.3v14.1h-1.3V19.9z"/>
		<path class="st1" d="M113.8,29.6h2.2c0.5,0,1.1,0,1.6,0s1-0.1,1.4-0.1s0.8-0.1,1.2-0.2s0.7-0.1,1-0.2v1.1
			c-0.3,0.1-0.7,0.2-1.1,0.2s-0.9,0.1-1.3,0.2s-1,0.1-1.5,0.1s-1,0.1-1.5,0.1h-3.3v-5.6h4.8v-2.9h-4.9V21h6.2v5.2h-4.8L113.8,29.6z
			 M122.1,19.9h1.3v14.2h-1.3V19.9z"/>
		<path class="st1" d="M138.7,30.8v1.1h-13.2v-1.1H138.7z M133.3,25.1c0.7,0.4,1.4,0.8,2.1,1.2c0.8,0.4,1.6,0.7,2.5,1l-0.9,1.1
			c-0.8-0.3-1.6-0.7-2.4-1.1c-0.8-0.4-1.5-0.9-2.2-1.4c-0.8,0.6-1.6,1.1-2.4,1.5c-0.9,0.5-1.8,0.9-2.7,1.2l-0.8-1.1
			c0.9-0.3,1.7-0.6,2.6-1c0.8-0.4,1.5-0.8,2.3-1.3c0.6-0.4,1.2-0.9,1.7-1.5c0.4-0.4,0.8-0.9,1.1-1.4c-0.6,0-1.2,0-1.7,0h-4.7v-1.2
			h6.3h2.1c-0.2,0.8-0.5,1.5-1,2.1C134.6,23.9,134,24.5,133.3,25.1L133.3,25.1z"/>
		<path class="st1" d="M149.9,21.5h3.4v-1.6h1.3v8.3h-1.3v-2.4H150c-0.3,0.4-0.8,0.8-1.3,1.1c-1,0.5-2.1,0.5-3.1,0.1
			c-0.8-0.3-1.5-1-1.9-1.9c-0.4-0.9-0.4-1.9,0-2.8c0.2-0.4,0.4-0.8,0.8-1.1c0.3-0.3,0.7-0.6,1.1-0.8c1-0.4,2.1-0.3,3,0.1
			C149.1,20.8,149.5,21.1,149.9,21.5z M144.8,23.7c0,0.3,0,0.6,0.2,0.9c0.1,0.3,0.3,0.5,0.5,0.8c0.2,0.2,0.4,0.4,0.7,0.5
			c0.6,0.2,1.3,0.2,1.9,0c0.3-0.1,0.5-0.3,0.7-0.5c0.2-0.2,0.4-0.5,0.5-0.8c0.2-0.6,0.2-1.3,0-1.9c-0.1-0.3-0.3-0.5-0.5-0.8
			c-0.2-0.2-0.5-0.4-0.7-0.5c-0.6-0.2-1.3-0.2-1.8,0c-0.3,0.1-0.5,0.3-0.7,0.5c-0.2,0.2-0.4,0.5-0.5,0.8
			C144.8,23.1,144.8,23.4,144.8,23.7z M154.7,31.2c0,0.4-0.1,0.8-0.3,1.2c-0.2,0.4-0.5,0.7-0.9,0.9c-0.4,0.3-0.9,0.5-1.4,0.6
			c-0.7,0.2-1.3,0.2-2,0.2c-0.7,0-1.3-0.1-2-0.2c-0.5-0.1-1-0.3-1.4-0.6c-0.4-0.2-0.7-0.6-0.9-0.9c-0.4-0.7-0.4-1.6,0-2.4
			c0.2-0.4,0.5-0.7,0.9-0.9c0.4-0.3,0.9-0.5,1.4-0.6c0.7-0.2,1.3-0.2,2-0.2c0.7,0,1.3,0.1,2,0.2c0.5,0.1,1,0.3,1.4,0.6
			c0.4,0.2,0.7,0.6,0.9,0.9C154.6,30.4,154.7,30.8,154.7,31.2L154.7,31.2z M153.3,31.2c0-0.2-0.1-0.5-0.2-0.7
			c-0.1-0.2-0.3-0.4-0.6-0.6c-0.3-0.2-0.6-0.3-1-0.4c-0.9-0.2-1.9-0.2-2.9,0c-0.4,0.1-0.7,0.2-1,0.4c-0.2,0.1-0.4,0.3-0.6,0.6
			c-0.3,0.4-0.3,1,0,1.4c0.1,0.2,0.3,0.4,0.6,0.6c0.3,0.2,0.6,0.3,1,0.4c0.9,0.2,1.9,0.2,2.9,0c0.4-0.1,0.7-0.2,1-0.4
			c0.2-0.1,0.4-0.3,0.6-0.6C153.2,31.7,153.3,31.5,153.3,31.2L153.3,31.2z M150.5,24.7h2.8v-2.2h-2.8c0.1,0.4,0.2,0.8,0.2,1.2
			C150.6,24.1,150.6,24.4,150.5,24.7L150.5,24.7z"/>
		<path class="st1" d="M161.7,20.2c0,0.9-0.1,1.7-0.3,2.6c0.4,0.8,0.9,1.5,1.6,2.1c0.6,0.6,1.4,1.2,2.2,1.5l-0.8,1
			c-0.7-0.4-1.4-0.8-2-1.4c-0.6-0.5-1.1-1.2-1.5-1.8c-0.4,0.8-0.8,1.5-1.4,2.1c-0.6,0.6-1.3,1.1-2.1,1.6l-0.9-0.9
			c1.2-0.6,2.3-1.6,3-2.8c0.7-1.2,1-2.6,0.9-4L161.7,20.2z M167.9,31.4c0,0.4-0.1,0.8-0.3,1.1c-0.2,0.4-0.5,0.7-0.9,0.9
			c-0.4,0.3-0.9,0.5-1.4,0.6c-0.7,0.1-1.3,0.2-2,0.2c-0.7,0-1.3-0.1-2-0.2c-0.5-0.1-1-0.3-1.4-0.6c-0.4-0.2-0.6-0.5-0.9-0.9
			c-0.2-0.3-0.3-0.7-0.3-1.1c0-0.8,0.4-1.6,1.1-2c2.2-1,4.7-1,6.9,0C167.5,29.8,167.9,30.6,167.9,31.4L167.9,31.4z M166.5,31.4
			c0-0.2-0.1-0.4-0.2-0.6c-0.1-0.2-0.3-0.4-0.6-0.5c-0.3-0.2-0.7-0.3-1-0.3c-0.5-0.1-0.9-0.1-1.4-0.1c-0.8-0.1-1.7,0.1-2.4,0.5
			c-0.6,0.2-1,0.9-0.7,1.6c0.1,0.3,0.4,0.6,0.7,0.7c1.6,0.6,3.3,0.6,4.9,0C166.2,32.3,166.5,31.9,166.5,31.4L166.5,31.4z M170,24.7
			h-2.2v3.8h-1.3v-8.6h1.3v3.6h2.2V24.7z"/>
	</g>
</g>
</svg>
