<svg xmlns="http://www.w3.org/2000/svg" viewBox="0 0 868.29 671.88"><defs><style>.cls-1{fill:#ffdcdc;}.cls-2{fill:#999;}.cls-12,.cls-13,.cls-14,.cls-15,.cls-19,.cls-20,.cls-21,.cls-3{fill:none;}.cls-3{stroke:#999;}.cls-12,.cls-13,.cls-14,.cls-19,.cls-20,.cls-21,.cls-3,.cls-8{stroke-linecap:round;stroke-linejoin:round;}.cls-14,.cls-3{stroke-width:1.35px;}.cls-4{fill:#def2ff;}.cls-5{fill:#c5ffd8;}.cls-6{fill:#ffc7e0;}.cls-7{fill:#d4dfff;}.cls-8,.cls-9{fill:#f7931e;}.cls-12,.cls-13,.cls-14,.cls-8{stroke:#000;}.cls-8{stroke-width:3px;}.cls-10{fill:#efe7d5;}.cls-11{fill:#d5f463;}.cls-12{stroke-width:1.34px;}.cls-13{stroke-width:1.21px;}.cls-16{fill:#f6ffcf;}.cls-17{fill:#fff6d2;}.cls-18{fill:#f4d4ff;}.cls-19,.cls-20,.cls-21{stroke:#232322;}.cls-19{stroke-width:3.68px;}.cls-20{stroke-width:6px;}.cls-21{stroke-width:4px;}</style></defs><g id="Layer_2" data-name="Layer 2"><g id="Layer_2-2" data-name="Layer 2"><rect class="cls-1" x="276.11" y="56.25" width="102.81" height="161.13"/><path d="M34,349.42v3.39H32.4v-8.68H35a5.61,5.61,0,0,1,1.52.18,3,3,0,0,1,1,.52,1.89,1.89,0,0,1,.59.79,2.75,2.75,0,0,1,.06,1.84,2.24,2.24,0,0,1-.37.7,2.3,2.3,0,0,1-.6.56,3.38,3.38,0,0,1-.81.39,1.64,1.64,0,0,1,.53.49l2.17,3.21H37.72a.69.69,0,0,1-.36-.09.64.64,0,0,1-.25-.24l-1.82-2.77a.72.72,0,0,0-.23-.23.84.84,0,0,0-.36-.06Zm0-1.16h1a2.64,2.64,0,0,0,.79-.11,1.68,1.68,0,0,0,.56-.32,1.15,1.15,0,0,0,.33-.48,1.64,1.64,0,0,0,.11-.6,1.25,1.25,0,0,0-.44-1,2.11,2.11,0,0,0-1.33-.35H34Z"/><path d="M45.67,344.13v1.29H41.83v2.4h3v1.24h-3v2.46h3.84v1.29H40.2v-8.68Z"/><path d="M51.72,345.71a.42.42,0,0,1-.15.19.46.46,0,0,1-.21.05.54.54,0,0,1-.27-.09l-.35-.21a2.67,2.67,0,0,0-.48-.21,2.27,2.27,0,0,0-1.23,0,1.06,1.06,0,0,0-.42.23.84.84,0,0,0-.25.34,1,1,0,0,0-.09.44.77.77,0,0,0,.17.51,1.51,1.51,0,0,0,.46.35,3.87,3.87,0,0,0,.64.26l.73.24c.25.09.5.19.74.3a2.57,2.57,0,0,1,.64.43,2,2,0,0,1,.45.64,2.13,2.13,0,0,1,.17.92,2.87,2.87,0,0,1-.2,1.1,2.54,2.54,0,0,1-.58.89,2.66,2.66,0,0,1-1,.6,3.4,3.4,0,0,1-1.28.22,3.65,3.65,0,0,1-.81-.08,4.12,4.12,0,0,1-.78-.23,4,4,0,0,1-.68-.36,3,3,0,0,1-.58-.47l.47-.77a.54.54,0,0,1,.16-.14.37.37,0,0,1,.21-.06.58.58,0,0,1,.32.12l.41.28a2.92,2.92,0,0,0,.56.27,2.18,2.18,0,0,0,.77.12,1.63,1.63,0,0,0,1.07-.32,1.18,1.18,0,0,0,.38-.94.84.84,0,0,0-.18-.56,1.26,1.26,0,0,0-.45-.36,3.41,3.41,0,0,0-.64-.25l-.73-.22a6.52,6.52,0,0,1-.73-.29,2.4,2.4,0,0,1-.65-.44,2.07,2.07,0,0,1-.45-.68,2.62,2.62,0,0,1-.17-1,2.31,2.31,0,0,1,.19-.93,2.39,2.39,0,0,1,.55-.8,2.74,2.74,0,0,1,.89-.55A3.26,3.26,0,0,1,49.6,344a4,4,0,0,1,1.41.25,3.17,3.17,0,0,1,1.11.67Z"/><path d="M59.62,344.13v1.33H57v7.35H55.4v-7.35H52.78v-1.33Z"/><path d="M62.32,349.42v3.39H60.7v-8.68h2.65a5.61,5.61,0,0,1,1.52.18,3.07,3.07,0,0,1,1,.52,1.89,1.89,0,0,1,.59.79,2.75,2.75,0,0,1,.06,1.84,2.24,2.24,0,0,1-.37.7,2.3,2.3,0,0,1-.6.56,3.38,3.38,0,0,1-.81.39,1.64,1.64,0,0,1,.53.49l2.17,3.21H66a.69.69,0,0,1-.36-.09.64.64,0,0,1-.25-.24l-1.82-2.77a.72.72,0,0,0-.23-.23.84.84,0,0,0-.36-.06Zm0-1.16h1a2.71,2.71,0,0,0,.8-.11,1.68,1.68,0,0,0,.56-.32,1.37,1.37,0,0,0,.33-.48,1.64,1.64,0,0,0,.1-.6,1.25,1.25,0,0,0-.43-1,2.13,2.13,0,0,0-1.33-.35h-1Z"/><path d="M76.54,348.47a4.88,4.88,0,0,1-.31,1.77,4.16,4.16,0,0,1-.9,1.4,3.91,3.91,0,0,1-1.38.93,4.73,4.73,0,0,1-1.8.33,4.8,4.8,0,0,1-1.8-.33,4,4,0,0,1-1.39-.93,4.14,4.14,0,0,1-.89-1.4,5.06,5.06,0,0,1,0-3.54,4.14,4.14,0,0,1,.89-1.4,4,4,0,0,1,1.39-.93,4.81,4.81,0,0,1,1.8-.34,4.73,4.73,0,0,1,1.8.34,4,4,0,0,1,1.38.93,4.16,4.16,0,0,1,.9,1.4A4.84,4.84,0,0,1,76.54,348.47Zm-1.65,0a4.2,4.2,0,0,0-.19-1.28,2.79,2.79,0,0,0-.54-1,2.33,2.33,0,0,0-.87-.61,2.9,2.9,0,0,0-1.14-.21,3,3,0,0,0-1.14.21,2.33,2.33,0,0,0-.87.61,2.66,2.66,0,0,0-.55,1,4.41,4.41,0,0,0,0,2.56,2.66,2.66,0,0,0,.55,1,2.42,2.42,0,0,0,.87.6,3,3,0,0,0,1.14.21,2.9,2.9,0,0,0,1.14-.21,2.42,2.42,0,0,0,.87-.6,2.79,2.79,0,0,0,.54-1A4.2,4.2,0,0,0,74.89,348.47Z"/><path d="M86.14,348.47a4.88,4.88,0,0,1-.32,1.77,4.14,4.14,0,0,1-.89,1.4,4,4,0,0,1-1.39.93,5,5,0,0,1-3.59,0,4,4,0,0,1-1.39-.93,4,4,0,0,1-.9-1.4,5.06,5.06,0,0,1,0-3.54,4,4,0,0,1,.9-1.4,4,4,0,0,1,1.39-.93,4.91,4.91,0,0,1,3.59,0,4.19,4.19,0,0,1,1.39.93,4.14,4.14,0,0,1,.89,1.4A4.84,4.84,0,0,1,86.14,348.47Zm-1.66,0a3.91,3.91,0,0,0-.19-1.28,2.5,2.5,0,0,0-.54-1,2.29,2.29,0,0,0-.86-.61,3.23,3.23,0,0,0-2.29,0,2.33,2.33,0,0,0-.87.61,2.66,2.66,0,0,0-.55,1,4.41,4.41,0,0,0,0,2.56,2.66,2.66,0,0,0,.55,1,2.42,2.42,0,0,0,.87.6,3.23,3.23,0,0,0,2.29,0,2.38,2.38,0,0,0,.86-.6,2.5,2.5,0,0,0,.54-1A3.91,3.91,0,0,0,84.48,348.47Z"/><path d="M92,349.61l.18.41c.05-.14.11-.28.17-.42a3.71,3.71,0,0,1,.19-.4l2.57-4.81a.39.39,0,0,1,.1-.14.21.21,0,0,1,.11-.08.32.32,0,0,1,.14,0h1.41v8.68H95.4v-5.95l0-.38-2.62,4.92a.66.66,0,0,1-.23.26.57.57,0,0,1-.34.1H92a.57.57,0,0,1-.34-.1.66.66,0,0,1-.23-.26l-2.66-4.93a2.53,2.53,0,0,1,0,.38c0,.13,0,.25,0,.35v5.61H87.41v-8.68h1.4a.29.29,0,0,1,.14,0,.2.2,0,0,1,.12.08.39.39,0,0,1,.1.14l2.6,4.82C91.83,349.34,91.9,349.47,92,349.61Z"/><path class="cls-2" d="M521.93,565.94a.42.42,0,0,1-.15.19.46.46,0,0,1-.21,0,.54.54,0,0,1-.27-.09l-.35-.21a3.63,3.63,0,0,0-.48-.21,2.08,2.08,0,0,0-.65-.09,2,2,0,0,0-.58.08,1.06,1.06,0,0,0-.42.23.84.84,0,0,0-.25.34,1.08,1.08,0,0,0-.09.44.77.77,0,0,0,.17.51,1.51,1.51,0,0,0,.46.35,3.87,3.87,0,0,0,.64.26l.73.24c.25.09.5.19.74.3a2.87,2.87,0,0,1,.64.43,2,2,0,0,1,.45.64,2.13,2.13,0,0,1,.17.92,2.87,2.87,0,0,1-.2,1.1,2.56,2.56,0,0,1-.59.9,2.64,2.64,0,0,1-.94.59,3.4,3.4,0,0,1-1.28.22,3.74,3.74,0,0,1-.82-.08,4.25,4.25,0,0,1-.77-.23,4.52,4.52,0,0,1-.69-.36,3.24,3.24,0,0,1-.57-.47l.47-.77a.54.54,0,0,1,.16-.14.36.36,0,0,1,.2-.06.56.56,0,0,1,.33.13l.41.27a2.92,2.92,0,0,0,.56.27,2.18,2.18,0,0,0,.77.12,1.65,1.65,0,0,0,1.07-.32,1.18,1.18,0,0,0,.37-.94.83.83,0,0,0-.17-.56,1.38,1.38,0,0,0-.45-.36,3.41,3.41,0,0,0-.64-.25l-.73-.22a5.84,5.84,0,0,1-.73-.29,2.26,2.26,0,0,1-.65-.44,1.84,1.84,0,0,1-.45-.68,2.59,2.59,0,0,1-.17-1,2.31,2.31,0,0,1,.19-.93,2.39,2.39,0,0,1,.55-.8,2.74,2.74,0,0,1,.89-.55,3.23,3.23,0,0,1,1.21-.21,4,4,0,0,1,1.41.24,3.26,3.26,0,0,1,1.11.67Z"/><path class="cls-2" d="M531,573h-1.63v-3.79h-4.07V573h-1.62v-8.68h1.62v3.73h4.07v-3.73H531Z"/><path class="cls-2" d="M536.28,571.74a2.24,2.24,0,0,0,.84-.16,1.63,1.63,0,0,0,.62-.44,1.89,1.89,0,0,0,.39-.68,2.83,2.83,0,0,0,.14-.9v-5.2h1.61v5.2a4,4,0,0,1-.25,1.43,3.15,3.15,0,0,1-.71,1.13,3.33,3.33,0,0,1-1.14.75,4.14,4.14,0,0,1-1.5.26,4.22,4.22,0,0,1-1.5-.26,3.29,3.29,0,0,1-1.13-.75,3.15,3.15,0,0,1-.71-1.13,4,4,0,0,1-.25-1.43v-5.2h1.61v5.19a2.83,2.83,0,0,0,.14.9,2.09,2.09,0,0,0,.38.69,1.71,1.71,0,0,0,.62.44A2.24,2.24,0,0,0,536.28,571.74Z"/><path class="cls-2" d="M547.64,564.36v1.33H545V573h-1.61v-7.35h-2.63v-1.33Z"/><path class="cls-2" d="M554.78,564.36v1.33h-2.61V573h-1.61v-7.35h-2.63v-1.33Z"/><path class="cls-2" d="M557.42,571.71h3.47V573h-5.08v-8.68h1.61Z"/><path class="cls-2" d="M567.48,564.36v1.29h-3.84v2.4h3v1.24h-3v2.46h3.84V573H562v-8.68Z"/><path class="cls-2" d="M525.29,583.35h3.47v1.34h-5.08V576h1.61Z"/><path class="cls-2" d="M537.72,580.35a4.72,4.72,0,0,1-.32,1.77,4,4,0,0,1-2.28,2.33,4.68,4.68,0,0,1-1.79.33,4.77,4.77,0,0,1-1.8-.33,4,4,0,0,1-1.39-.93,4.32,4.32,0,0,1-.9-1.4,4.92,4.92,0,0,1-.31-1.77,4.84,4.84,0,0,1,.31-1.77,4.48,4.48,0,0,1,.9-1.41,4.17,4.17,0,0,1,1.39-.92,4.77,4.77,0,0,1,1.8-.34,4.68,4.68,0,0,1,1.79.34,4,4,0,0,1,2.28,2.33A4.64,4.64,0,0,1,537.72,580.35Zm-1.65,0a4.2,4.2,0,0,0-.19-1.28,2.79,2.79,0,0,0-.55-1,2.3,2.3,0,0,0-.86-.6,2.93,2.93,0,0,0-1.14-.21,3,3,0,0,0-1.14.21,2.34,2.34,0,0,0-.87.6,2.79,2.79,0,0,0-.55,1,3.91,3.91,0,0,0-.19,1.28,4,4,0,0,0,.19,1.28,2.66,2.66,0,0,0,.55,1,2.34,2.34,0,0,0,.87.6,3,3,0,0,0,1.14.21,2.93,2.93,0,0,0,1.14-.21,2.3,2.3,0,0,0,.86-.6,2.66,2.66,0,0,0,.55-1A4.25,4.25,0,0,0,536.07,580.35Z"/><path class="cls-2" d="M539,584.69V576h3a5.53,5.53,0,0,1,1.45.16,2.68,2.68,0,0,1,1,.46,1.82,1.82,0,0,1,.57.73,2.42,2.42,0,0,1,.18,1,2,2,0,0,1-.09.59,1.65,1.65,0,0,1-.28.52,1.87,1.87,0,0,1-.48.44,2.77,2.77,0,0,1-.69.33c1.19.27,1.79.92,1.79,1.94a2.52,2.52,0,0,1-.21,1,2.19,2.19,0,0,1-.62.8,2.6,2.6,0,0,1-1,.53,4.24,4.24,0,0,1-1.34.2Zm1.62-4.92h1.29a2.18,2.18,0,0,0,1.25-.3,1.1,1.1,0,0,0,.42-1,1.13,1.13,0,0,0-.38-1,2,2,0,0,0-1.2-.29h-1.38Zm0,1.11v2.55h1.64a2.28,2.28,0,0,0,.75-.11,1.39,1.39,0,0,0,.49-.29,1,1,0,0,0,.26-.42,1.7,1.7,0,0,0,.08-.51,1.36,1.36,0,0,0-.09-.51.94.94,0,0,0-.28-.38A1.18,1.18,0,0,0,543,581a2.6,2.6,0,0,0-.73-.09Z"/><path class="cls-2" d="M546.81,584.69V576h3a5.58,5.58,0,0,1,1.45.16,2.84,2.84,0,0,1,1,.46,1.82,1.82,0,0,1,.57.73,2.42,2.42,0,0,1,.18,1,2,2,0,0,1-.09.59,1.65,1.65,0,0,1-.28.52,2.27,2.27,0,0,1-.48.44,3,3,0,0,1-.69.33c1.19.27,1.78.92,1.78,1.94a2.52,2.52,0,0,1-.21,1,2.17,2.17,0,0,1-.61.8,2.76,2.76,0,0,1-1,.53,4.24,4.24,0,0,1-1.34.2Zm1.62-4.92h1.29a2.14,2.14,0,0,0,1.24-.3,1.08,1.08,0,0,0,.43-1,1.13,1.13,0,0,0-.38-1,2,2,0,0,0-1.2-.29h-1.38Zm0,1.11v2.55h1.63a2.35,2.35,0,0,0,.76-.11,1.26,1.26,0,0,0,.48-.29,1,1,0,0,0,.27-.42,1.7,1.7,0,0,0,.08-.51,1.36,1.36,0,0,0-.09-.51,1,1,0,0,0-.28-.38,1.23,1.23,0,0,0-.5-.24,2.53,2.53,0,0,0-.72-.09Z"/><path class="cls-2" d="M558.49,581.31v3.38h-1.62v-3.38l-3.16-5.3h1.42a.51.51,0,0,1,.34.1.86.86,0,0,1,.2.26l1.59,2.9a3.15,3.15,0,0,1,.24.49c.07.15.13.3.19.45,0-.15.11-.3.18-.46a5.12,5.12,0,0,1,.23-.48l1.58-2.9a.92.92,0,0,1,.2-.25.53.53,0,0,1,.34-.11h1.42Z"/><path class="cls-3" d="M557.88,239.35h1.35v-5.41a2.7,2.7,0,0,0-2.71-2.7h-4a2.7,2.7,0,0,0-2.71,2.7v5.41h5.41"/><path class="cls-3" d="M555.17,239.35V236a1.34,1.34,0,0,0-1.35-1.35h-2.7a1.35,1.35,0,0,0-1.36,1.35"/><path class="cls-3" d="M558.55,239.35l.85.85a2,2,0,0,1,.58,1.21l.43,3.84a2,2,0,0,1-1.26,2.11l-3.92,1.56a2.73,2.73,0,0,1-2.63-.34l-1.48-1.12,4.73-2.7v-2"/><line class="cls-3" x1="551.12" y1="247.46" x2="543.6" y2="247.46"/><path class="cls-3" d="M560.58,252.87h2a1.36,1.36,0,0,0,1.35-1.35V238a1.35,1.35,0,0,0-1.35-1.35h-3.38"/><line class="cls-3" x1="558.55" y1="247.87" x2="558.55" y2="261.66"/><line class="cls-3" x1="549.76" y1="250.05" x2="549.76" y2="261.66"/><polyline class="cls-3" points="553.14 261.66 553.14 252.53 552.17 251.58"/><path class="cls-3" d="M547.06,245.43l2.7-2v-2.14a1.39,1.39,0,0,1,.4-1l1-1"/><line class="cls-3" x1="537.6" y1="245.43" x2="536.92" y2="245.43"/><line class="cls-3" x1="537.6" y1="249.49" x2="536.92" y2="249.49"/><line class="cls-3" x1="534.22" y1="247.46" x2="533.54" y2="247.46"/><line class="cls-3" x1="540.98" y1="247.46" x2="540.3" y2="247.46"/><line class="cls-3" x1="534.22" y1="243.4" x2="533.54" y2="243.4"/><line class="cls-3" x1="534.22" y1="251.52" x2="533.54" y2="251.52"/><rect class="cls-4" x="708.21" y="56.25" width="157.08" height="155.81"/><rect class="cls-5" x="708.21" y="320.55" width="157.08" height="191.79"/><rect class="cls-6" x="461.67" y="527.09" width="149.44" height="19.91"/><rect class="cls-7" x="708.21" y="222.06" width="157.08" height="88.49"/><path class="cls-2" d="M434.47,412a3.85,3.85,0,0,0,.1.95,3.9,3.9,0,0,0,.27.77h1.58v-1.08a.33.33,0,0,1,.09-.25.26.26,0,0,1,.21-.09h.91v2.88h-3.51a4.29,4.29,0,0,1-.42-.68,5.7,5.7,0,0,1-.29-.76,7.06,7.06,0,0,1-.17-.87,7.87,7.87,0,0,1-.05-1,4.32,4.32,0,0,1,.33-1.74,4.2,4.2,0,0,1,.91-1.38,4.13,4.13,0,0,1,1.41-.91,4.7,4.7,0,0,1,1.78-.33,4.91,4.91,0,0,1,1.79.32,4.06,4.06,0,0,1,1.41.9,4.17,4.17,0,0,1,.91,1.42,5.28,5.28,0,0,1,.32,1.87,4.89,4.89,0,0,1-.31,1.84,4.35,4.35,0,0,1-.82,1.32l-.73-.47a.41.41,0,0,1-.23-.36.6.6,0,0,1,.1-.3l.23-.39a3.79,3.79,0,0,0,.2-.45,3.57,3.57,0,0,0,.13-.54,3.65,3.65,0,0,0,.06-.7,2.86,2.86,0,0,0-.22-1.16,2.52,2.52,0,0,0-.61-.89,2.9,2.9,0,0,0-1-.56,3.87,3.87,0,0,0-1.26-.2,4,4,0,0,0-1.34.21,2.82,2.82,0,0,0-1,.59,2.46,2.46,0,0,0-.62.9A3,3,0,0,0,434.47,412Z"/><path class="cls-2" d="M434.58,420.16a2.06,2.06,0,0,0,.16.84,1.63,1.63,0,0,0,.44.62,1.81,1.81,0,0,0,.68.39,2.83,2.83,0,0,0,.9.14H442v1.61h-5.2a3.91,3.91,0,0,1-1.43-.25,3.06,3.06,0,0,1-1.13-.71,3.33,3.33,0,0,1-.75-1.14,3.93,3.93,0,0,1-.26-1.5,4,4,0,0,1,.26-1.5,3.29,3.29,0,0,1,.75-1.13,3.06,3.06,0,0,1,1.13-.71,3.91,3.91,0,0,1,1.43-.25H442v1.61h-5.19a2.79,2.79,0,0,0-.9.14,2.09,2.09,0,0,0-.69.38,1.67,1.67,0,0,0-.44.63A2,2,0,0,0,434.58,420.16Z"/><path class="cls-2" d="M442,430.88h-1.29V427h-2.4v3H437v-3h-2.46v3.85h-1.29v-5.47H442Z"/><path class="cls-2" d="M440.38,436.93a.52.52,0,0,1-.19-.16.39.39,0,0,1-.05-.2.54.54,0,0,1,.09-.27l.21-.36a3,3,0,0,0,.21-.47,2.13,2.13,0,0,0,.09-.65,2,2,0,0,0-.08-.58,1.2,1.2,0,0,0-.23-.42.86.86,0,0,0-.34-.26,1.08,1.08,0,0,0-.44-.08.72.72,0,0,0-.51.17,1.24,1.24,0,0,0-.35.45,4.26,4.26,0,0,0-.26.64l-.24.74c-.09.25-.19.49-.3.73a2.66,2.66,0,0,1-.43.64,2.14,2.14,0,0,1-.64.46,2.32,2.32,0,0,1-.92.17,3.07,3.07,0,0,1-1.1-.2,2.7,2.7,0,0,1-.9-.59,2.86,2.86,0,0,1-.6-.95,3.56,3.56,0,0,1-.21-1.27,3.74,3.74,0,0,1,.08-.82,4,4,0,0,1,.23-.77,3.75,3.75,0,0,1,.36-.69,3.28,3.28,0,0,1,.46-.57l.78.46a1.07,1.07,0,0,1,.14.16.39.39,0,0,1,.06.21.51.51,0,0,1-.13.32l-.27.42a2.82,2.82,0,0,0-.27.55,2.21,2.21,0,0,0-.13.77,1.57,1.57,0,0,0,.33,1.07,1.18,1.18,0,0,0,.94.38.89.89,0,0,0,.56-.17,1.49,1.49,0,0,0,.36-.45,3.52,3.52,0,0,0,.25-.65c.07-.24.14-.48.22-.73a6.52,6.52,0,0,1,.29-.73,2.35,2.35,0,0,1,.44-.64,1.88,1.88,0,0,1,.67-.45,2.6,2.6,0,0,1,1.93,0,2.28,2.28,0,0,1,.79.56,2.51,2.51,0,0,1,.56.89,3.21,3.21,0,0,1,.21,1.2,4.07,4.07,0,0,1-.24,1.42,3.13,3.13,0,0,1-.67,1.1Z"/><path class="cls-2" d="M442,444.83h-1.33v-2.61h-7.35V440.6h7.35V438H442Z"/><path class="cls-2" d="M434.61,449.78v3.48h-1.33v-5.09H442v1.61Z"/><path class="cls-2" d="M437.62,462.22a4.84,4.84,0,0,1-1.77-.32,4.15,4.15,0,0,1-1.41-.9,4,4,0,0,1-.92-1.38,5,5,0,0,1,0-3.59,4.07,4.07,0,0,1,.92-1.39,4.15,4.15,0,0,1,1.41-.9,4.84,4.84,0,0,1,1.77-.32,4.92,4.92,0,0,1,1.77.32,4,4,0,0,1,1.4.9,4,4,0,0,1,.93,1.39,5,5,0,0,1,0,3.59,4.2,4.2,0,0,1-.93,1.38,4,4,0,0,1-1.4.9A4.92,4.92,0,0,1,437.62,462.22Zm0-1.66a3.91,3.91,0,0,0,1.28-.19,2.79,2.79,0,0,0,1-.54,2.29,2.29,0,0,0,.61-.86,3.23,3.23,0,0,0,0-2.29,2.33,2.33,0,0,0-.61-.87,2.66,2.66,0,0,0-1-.55,4.41,4.41,0,0,0-2.56,0,2.66,2.66,0,0,0-1,.55,2.3,2.3,0,0,0-.6.87,3.23,3.23,0,0,0,0,2.29,2.27,2.27,0,0,0,.6.86,2.79,2.79,0,0,0,1,.54A3.91,3.91,0,0,0,437.62,460.56Z"/><path class="cls-2" d="M433.28,463.49H442v3a5.63,5.63,0,0,1-.17,1.46,2.67,2.67,0,0,1-.46,1,1.77,1.77,0,0,1-.72.56,2.49,2.49,0,0,1-1,.18,1.92,1.92,0,0,1-.59-.09,1.84,1.84,0,0,1-.52-.27,2.27,2.27,0,0,1-.44-.48,3.51,3.51,0,0,1-.34-.7c-.27,1.19-.91,1.79-1.93,1.79a2.45,2.45,0,0,1-1-.21,2.28,2.28,0,0,1-.81-.61,3.11,3.11,0,0,1-.53-1,4.27,4.27,0,0,1-.19-1.35Zm3.8,1.61h-2.54v1.64a2.28,2.28,0,0,0,.11.75,1.23,1.23,0,0,0,.29.49,1,1,0,0,0,.42.26,1.44,1.44,0,0,0,.51.08,1.31,1.31,0,0,0,.5-.09,1,1,0,0,0,.39-.28,1.49,1.49,0,0,0,.24-.49,2.58,2.58,0,0,0,.08-.73Zm1.12,0v1.29a2.16,2.16,0,0,0,.3,1.25,1.1,1.1,0,0,0,.95.43,1.12,1.12,0,0,0,1-.39,2,2,0,0,0,.29-1.2V465.1Z"/><path class="cls-2" d="M433.28,471.31H442v3a5.63,5.63,0,0,1-.17,1.46,2.55,2.55,0,0,1-.46,1,1.79,1.79,0,0,1-.72.57,2.49,2.49,0,0,1-1,.18,1.92,1.92,0,0,1-.59-.09,1.65,1.65,0,0,1-.52-.28,1.87,1.87,0,0,1-.44-.48,3.17,3.17,0,0,1-.34-.69c-.27,1.19-.91,1.79-1.93,1.79a2.45,2.45,0,0,1-1-.21,2.41,2.41,0,0,1-.81-.61,3.11,3.11,0,0,1-.53-1,4.32,4.32,0,0,1-.19-1.35Zm3.8,1.61h-2.54v1.64a2.28,2.28,0,0,0,.11.75,1.3,1.3,0,0,0,.29.49,1,1,0,0,0,.42.26,1.44,1.44,0,0,0,.51.08,1.31,1.31,0,0,0,.5-.09,1,1,0,0,0,.39-.28,1.49,1.49,0,0,0,.24-.49,2.58,2.58,0,0,0,.08-.73Zm1.12,0v1.29a2.18,2.18,0,0,0,.3,1.25,1.09,1.09,0,0,0,.95.42,1.11,1.11,0,0,0,1-.38,2,2,0,0,0,.29-1.2v-1.38Z"/><path class="cls-2" d="M436.65,483h-3.37v-1.61h3.37l5.31-3.16v1.42a.54.54,0,0,1-.1.33,1.09,1.09,0,0,1-.26.21l-2.9,1.59-.49.24-.45.18.46.18.48.24,2.9,1.58a.72.72,0,0,1,.24.19.49.49,0,0,1,.12.34v1.43Z"/><path class="cls-8" d="M88.63,417.35l-8.83-8.83a2.47,2.47,0,0,0-3.39,0l-8.83,8.83a2.4,2.4,0,0,0,3.39,3.4L75.71,416v25.53a2.4,2.4,0,1,0,4.8,0V416l4.73,4.74a2.4,2.4,0,1,0,3.39-3.4Z"/><path class="cls-9" d="M88.63,417.35l-8.83-8.83a2.47,2.47,0,0,0-3.39,0l-8.83,8.83a2.4,2.4,0,0,0,3.39,3.4L75.71,416v25.53a2.4,2.4,0,1,0,4.8,0V416l4.73,4.74a2.4,2.4,0,1,0,3.39-3.4Z"/><path class="cls-8" d="M481.92,563.58l-8.83,8.83a2.47,2.47,0,0,0,0,3.39l8.83,8.83a2.4,2.4,0,0,0,3.39-3.39l-4.73-4.73h25.53a2.4,2.4,0,0,0,0-4.8H480.58l4.73-4.74a2.4,2.4,0,0,0-3.39-3.39Z"/><path class="cls-9" d="M481.92,563.58l-8.83,8.83a2.47,2.47,0,0,0,0,3.39l8.83,8.83a2.4,2.4,0,0,0,3.39-3.39l-4.73-4.73h25.53a2.4,2.4,0,0,0,0-4.8H480.58l4.73-4.74a2.4,2.4,0,0,0-3.39-3.39Z"/><path d="M759.71,129.91v4.22h-2V123.32H761a7,7,0,0,1,1.89.23,3.39,3.39,0,0,1,1.29.64,2.35,2.35,0,0,1,.74,1,3.22,3.22,0,0,1,.24,1.26,3.47,3.47,0,0,1-.16,1,2.87,2.87,0,0,1-.47.88,3.09,3.09,0,0,1-.74.7,4,4,0,0,1-1,.48,1.85,1.85,0,0,1,.66.62l2.71,4h-1.81a.91.91,0,0,1-.45-.11,1,1,0,0,1-.31-.3l-2.27-3.46A.71.71,0,0,0,761,130a.91.91,0,0,0-.45-.08Zm0-1.45H761a3,3,0,0,0,1-.14,1.78,1.78,0,0,0,.69-.39,1.65,1.65,0,0,0,.41-.6,2,2,0,0,0,.13-.75,1.52,1.52,0,0,0-.54-1.26,2.54,2.54,0,0,0-1.65-.44h-1.29Z"/><path d="M777.43,128.72a5.82,5.82,0,0,1-.4,2.2,5.17,5.17,0,0,1-1.11,1.76,5,5,0,0,1-1.73,1.15,5.72,5.72,0,0,1-2.23.42,5.8,5.8,0,0,1-2.24-.42,5,5,0,0,1-1.73-1.15,5.19,5.19,0,0,1-1.12-1.76,6,6,0,0,1-.4-2.2,6.1,6.1,0,0,1,.4-2.2,5.15,5.15,0,0,1,1.12-1.75,5,5,0,0,1,1.73-1.15,5.8,5.8,0,0,1,2.24-.42,5.72,5.72,0,0,1,2.23.42,5.06,5.06,0,0,1,2.84,2.9A5.89,5.89,0,0,1,777.43,128.72Zm-2.07,0a4.92,4.92,0,0,0-.23-1.59,3.36,3.36,0,0,0-.68-1.2,2.94,2.94,0,0,0-1.07-.76,3.74,3.74,0,0,0-1.42-.26,3.8,3.8,0,0,0-1.43.26,3.07,3.07,0,0,0-1.08.76,3.36,3.36,0,0,0-.68,1.2,5.42,5.42,0,0,0,0,3.19,3.36,3.36,0,0,0,.68,1.2,3.18,3.18,0,0,0,1.08.75,3.8,3.8,0,0,0,1.43.26,3.74,3.74,0,0,0,1.42-.26,3,3,0,0,0,1.07-.75,3.36,3.36,0,0,0,.68-1.2A5,5,0,0,0,775.36,128.72Z"/><path d="M789.38,128.72a6,6,0,0,1-.4,2.2,5.32,5.32,0,0,1-1.11,1.76,5,5,0,0,1-1.73,1.15,6.16,6.16,0,0,1-4.47,0,5,5,0,0,1-1.74-1.15,5.17,5.17,0,0,1-1.11-1.76,5.82,5.82,0,0,1-.4-2.2,5.89,5.89,0,0,1,.4-2.2,5.13,5.13,0,0,1,1.11-1.75,5,5,0,0,1,1.74-1.15,6.16,6.16,0,0,1,4.47,0,5.07,5.07,0,0,1,1.73,1.16,5.24,5.24,0,0,1,1.11,1.74A6.1,6.1,0,0,1,789.38,128.72Zm-2.07,0a5.21,5.21,0,0,0-.23-1.59,3.51,3.51,0,0,0-.68-1.2,2.94,2.94,0,0,0-1.07-.76,4,4,0,0,0-2.85,0,3,3,0,0,0-1.08.76,3.37,3.37,0,0,0-.69,1.2,5.65,5.65,0,0,0,0,3.19,3.37,3.37,0,0,0,.69,1.2,3.08,3.08,0,0,0,1.08.75,4,4,0,0,0,2.85,0,3,3,0,0,0,1.07-.75,3.51,3.51,0,0,0,.68-1.2A5.23,5.23,0,0,0,787.31,128.72Z"/><path d="M796.62,130.14l.21.52c.07-.18.14-.36.22-.53a3.85,3.85,0,0,1,.24-.5l3.2-6a1.4,1.4,0,0,1,.12-.18.42.42,0,0,1,.14-.09.48.48,0,0,1,.18,0h1.75v10.81H800.9v-7c0-.13,0-.27,0-.43s0-.31,0-.47l-3.27,6.13a.75.75,0,0,1-.29.32.74.74,0,0,1-.42.12h-.27a.74.74,0,0,1-.42-.12.75.75,0,0,1-.29-.32l-3.31-6.15c0,.16,0,.32,0,.48s0,.3,0,.44v7H791V123.32h1.75a.47.47,0,0,1,.17,0,.46.46,0,0,1,.15.09,1.4,1.4,0,0,1,.13.18l3.22,6A4.59,4.59,0,0,1,796.62,130.14Z"/><path d="M813.69,130.05h1.36v1.07a.35.35,0,0,1-.1.26.36.36,0,0,1-.28.11h-1v2.64h-1.61v-2.64h-4.56a.48.48,0,0,1-.33-.12.43.43,0,0,1-.18-.28l-.19-.94,5.12-6.84h1.75Zm-1.61-3.53c0-.16,0-.33,0-.52s0-.37,0-.57l-3.35,4.62h3.29Z"/><path d="M759.71,262.17v4.22h-2v-10.8H761a7,7,0,0,1,1.89.23,3.39,3.39,0,0,1,1.29.64,2.35,2.35,0,0,1,.74,1,3.22,3.22,0,0,1,.24,1.26,3.47,3.47,0,0,1-.16,1,2.87,2.87,0,0,1-.47.88,3.3,3.3,0,0,1-.74.7,4.35,4.35,0,0,1-1,.47,2.05,2.05,0,0,1,.66.62l2.71,4h-1.81a.91.91,0,0,1-.45-.1,1,1,0,0,1-.31-.3l-2.27-3.46a.83.83,0,0,0-.28-.28,1,1,0,0,0-.45-.08Zm0-1.44H761a3.33,3.33,0,0,0,1-.14,2.08,2.08,0,0,0,.69-.39,1.65,1.65,0,0,0,.41-.6,2,2,0,0,0,.13-.75,1.56,1.56,0,0,0-.54-1.27,2.6,2.6,0,0,0-1.65-.44h-1.29Z"/><path d="M777.43,261a5.86,5.86,0,0,1-.4,2.2,5,5,0,0,1-2.84,2.91,5.72,5.72,0,0,1-2.23.41,5.8,5.8,0,0,1-2.24-.41A5.09,5.09,0,0,1,768,265a5.19,5.19,0,0,1-1.12-1.76,6.25,6.25,0,0,1,0-4.4,5.1,5.1,0,0,1,2.85-2.91,6,6,0,0,1,2.24-.41,5.72,5.72,0,0,1,2.23.42,5.19,5.19,0,0,1,1.73,1.15,5.13,5.13,0,0,1,1.11,1.75A5.89,5.89,0,0,1,777.43,261Zm-2.07,0a4.92,4.92,0,0,0-.23-1.59,3.36,3.36,0,0,0-.68-1.2,2.94,2.94,0,0,0-1.07-.76,3.74,3.74,0,0,0-1.42-.26,3.8,3.8,0,0,0-1.43.26,3.07,3.07,0,0,0-1.08.76,3.36,3.36,0,0,0-.68,1.2,4.92,4.92,0,0,0-.24,1.59,5,5,0,0,0,.24,1.6,3.23,3.23,0,0,0,.68,1.19,2.92,2.92,0,0,0,1.08.75,3.61,3.61,0,0,0,1.43.27,3.56,3.56,0,0,0,1.42-.27,2.81,2.81,0,0,0,1.07-.75,3.23,3.23,0,0,0,.68-1.19A5,5,0,0,0,775.36,261Z"/><path d="M789.38,261a6.06,6.06,0,0,1-.4,2.2,5.32,5.32,0,0,1-1.11,1.76,5.19,5.19,0,0,1-1.73,1.15,6.3,6.3,0,0,1-4.47,0,4.95,4.95,0,0,1-2.85-2.91,6.25,6.25,0,0,1,0-4.4,5,5,0,0,1,2.85-2.91,6,6,0,0,1,2.24-.41,5.75,5.75,0,0,1,2.23.42,5.19,5.19,0,0,1,1.73,1.15,5.28,5.28,0,0,1,1.11,1.75A6.1,6.1,0,0,1,789.38,261Zm-2.07,0a5.21,5.21,0,0,0-.23-1.59,3.51,3.51,0,0,0-.68-1.2,2.94,2.94,0,0,0-1.07-.76,4,4,0,0,0-2.85,0,3,3,0,0,0-1.08.76,3.37,3.37,0,0,0-.69,1.2,5.21,5.21,0,0,0-.23,1.59,5.28,5.28,0,0,0,.23,1.6,3.25,3.25,0,0,0,.69,1.19,2.84,2.84,0,0,0,1.08.75,3.9,3.9,0,0,0,2.85,0,2.81,2.81,0,0,0,1.07-.75,3.37,3.37,0,0,0,.68-1.19A5.28,5.28,0,0,0,787.31,261Z"/><path d="M796.62,262.41l.21.52c.07-.18.14-.36.22-.53a3.85,3.85,0,0,1,.24-.5l3.2-6a1.4,1.4,0,0,1,.12-.18.45.45,0,0,1,.14-.1.48.48,0,0,1,.18,0h1.75v10.8H800.9v-7c0-.12,0-.27,0-.42s0-.31,0-.47l-3.27,6.13a.89.89,0,0,1-.29.32.74.74,0,0,1-.42.12h-.27a.74.74,0,0,1-.42-.12.89.89,0,0,1-.29-.32l-3.31-6.15c0,.16,0,.32,0,.48s0,.3,0,.43v7H791v-10.8h1.75a.47.47,0,0,1,.17,0,.49.49,0,0,1,.15.1,1.4,1.4,0,0,1,.13.18l3.22,6A4.59,4.59,0,0,1,796.62,262.41Z"/><path d="M814,256.37a.87.87,0,0,1-.25.65,1.18,1.18,0,0,1-.83.24h-3l-.39,2.26a6.78,6.78,0,0,1,1.34-.15,4.07,4.07,0,0,1,1.5.25,3.17,3.17,0,0,1,1.09.71,3,3,0,0,1,.66,1.05,3.65,3.65,0,0,1,.23,1.29,3.79,3.79,0,0,1-.31,1.57,3.5,3.5,0,0,1-.84,1.22,4,4,0,0,1-1.27.78,4.63,4.63,0,0,1-1.6.27,4.37,4.37,0,0,1-1-.1,4.46,4.46,0,0,1-.85-.28,4.71,4.71,0,0,1-.74-.4,5.22,5.22,0,0,1-.61-.49l.57-.78a.56.56,0,0,1,.47-.26.62.62,0,0,1,.38.13l.45.26a4.15,4.15,0,0,0,.59.26,2.39,2.39,0,0,0,.81.12,2.29,2.29,0,0,0,.9-.17,1.67,1.67,0,0,0,.64-.46,1.72,1.72,0,0,0,.39-.7,2.8,2.8,0,0,0,.13-.88,1.83,1.83,0,0,0-.51-1.38,2.07,2.07,0,0,0-1.5-.5,4.62,4.62,0,0,0-1.58.28l-1.15-.33.9-5.24H814Z"/><path d="M755.51,405.66v3.8h-2V398.65H757a6.12,6.12,0,0,1,1.87.26,3.5,3.5,0,0,1,1.31.71,2.76,2.76,0,0,1,.76,1.09,3.7,3.7,0,0,1,.25,1.39,4,4,0,0,1-.26,1.44,3,3,0,0,1-.79,1.12,3.5,3.5,0,0,1-1.3.73,5.7,5.7,0,0,1-1.84.27Zm0-1.57H757a3,3,0,0,0,1-.14,1.75,1.75,0,0,0,.68-.4,1.6,1.6,0,0,0,.41-.63,2.61,2.61,0,0,0,.13-.82,2.47,2.47,0,0,0-.13-.79,1.53,1.53,0,0,0-.41-.59,1.72,1.72,0,0,0-.68-.38,3.05,3.05,0,0,0-1-.13h-1.51Z"/><path d="M764.85,405.24v4.22h-2V398.65h3.29a7,7,0,0,1,1.9.23,3.71,3.71,0,0,1,1.29.64,2.43,2.43,0,0,1,.74,1,3.22,3.22,0,0,1,.24,1.26,3.13,3.13,0,0,1-.17,1,2.9,2.9,0,0,1-.46.89,3.11,3.11,0,0,1-.75.69,3.78,3.78,0,0,1-1,.48,1.85,1.85,0,0,1,.66.62l2.7,4h-1.8a.88.88,0,0,1-.45-.11,1,1,0,0,1-.31-.29l-2.27-3.46a.75.75,0,0,0-.28-.28.91.91,0,0,0-.45-.08Zm0-1.45h1.25a3,3,0,0,0,1-.14,1.82,1.82,0,0,0,.7-.39,1.61,1.61,0,0,0,.41-.59,2.06,2.06,0,0,0,.13-.76,1.52,1.52,0,0,0-.54-1.26,2.61,2.61,0,0,0-1.66-.44h-1.28Z"/><path d="M779.37,398.65v1.6h-4.79v3h3.78v1.55h-3.78v3.05h4.79v1.61h-6.81V398.65Z"/><path d="M780.05,398.65h1.63a.7.7,0,0,1,.42.13.9.9,0,0,1,.25.33l2.54,6.59c.08.21.16.45.24.71s.15.52.22.81a9.63,9.63,0,0,1,.43-1.52l2.53-6.59a.79.79,0,0,1,.24-.31.63.63,0,0,1,.43-.15h1.62l-4.37,10.81h-1.81Z"/><path d="M794,409.46h-2V398.65h2Z"/><path d="M803.23,398.65v1.6h-4.79v3h3.78v1.55h-3.78v3.05h4.79v1.61h-6.81V398.65Z"/><path d="M804,398.65h1.69a.76.76,0,0,1,.44.13.56.56,0,0,1,.23.33l1.84,6.46a4,4,0,0,1,.12.52c0,.19.08.39.11.6,0-.21.09-.41.13-.6s.1-.36.16-.52l2.12-6.46a.68.68,0,0,1,.23-.31.66.66,0,0,1,.43-.15h.6a.75.75,0,0,1,.43.13.68.68,0,0,1,.24.33l2.1,6.46a9,9,0,0,1,.29,1.06c0-.19.07-.38.11-.56s.07-.34.11-.5l1.84-6.46a.64.64,0,0,1,.23-.32.72.72,0,0,1,.44-.14h1.57l-3.35,10.81h-1.82l-2.36-7.38-.09-.31a3.57,3.57,0,0,1-.1-.35l-.09.35-.09.31-2.39,7.38h-1.81Z"/><path d="M765.49,419.39v4.22h-2V412.8h3.29a7,7,0,0,1,1.9.23,3.71,3.71,0,0,1,1.29.64,2.53,2.53,0,0,1,.74,1,3.21,3.21,0,0,1,.23,1.26,3.13,3.13,0,0,1-.16,1,2.9,2.9,0,0,1-.46.89,3.11,3.11,0,0,1-.75.69,3.78,3.78,0,0,1-1,.48,2,2,0,0,1,.66.62l2.7,4H770.1a.87.87,0,0,1-.44-.11.89.89,0,0,1-.31-.3l-2.27-3.46a.88.88,0,0,0-.28-.27.93.93,0,0,0-.45-.08Zm0-1.45h1.25a3,3,0,0,0,1-.14,1.9,1.9,0,0,0,.7-.39,1.67,1.67,0,0,0,.4-.59,2.06,2.06,0,0,0,.14-.76,1.52,1.52,0,0,0-.54-1.26,2.57,2.57,0,0,0-1.66-.44h-1.28Z"/><path d="M783.2,418.21a6.1,6.1,0,0,1-.39,2.2,5.3,5.3,0,0,1-1.12,1.75,4.91,4.91,0,0,1-1.72,1.15,6.16,6.16,0,0,1-4.47,0,5,5,0,0,1-1.74-1.15,5.13,5.13,0,0,1-1.11-1.75,5.89,5.89,0,0,1-.4-2.2,5.82,5.82,0,0,1,.4-2.2,5.17,5.17,0,0,1,1.11-1.76,5,5,0,0,1,1.74-1.15,6.16,6.16,0,0,1,4.47,0,5.07,5.07,0,0,1,1.72,1.16,5.2,5.2,0,0,1,1.12,1.75A6,6,0,0,1,783.2,418.21Zm-2.06,0a5.23,5.23,0,0,0-.23-1.6,3.51,3.51,0,0,0-.68-1.2,2.81,2.81,0,0,0-1.07-.75,4,4,0,0,0-2.85,0,2.77,2.77,0,0,0-1.08.75,3.37,3.37,0,0,0-.69,1.2,5.42,5.42,0,0,0,0,3.19,3.37,3.37,0,0,0,.69,1.2,3,3,0,0,0,1.08.75,4,4,0,0,0,2.85,0,3,3,0,0,0,1.07-.75,3.51,3.51,0,0,0,.68-1.2A5.21,5.21,0,0,0,781.14,418.21Z"/><path d="M795.15,418.21a6.1,6.1,0,0,1-.39,2.2,5.3,5.3,0,0,1-1.12,1.75,5,5,0,0,1-1.72,1.15,6.18,6.18,0,0,1-4.48,0,5,5,0,0,1-1.73-1.15,5.3,5.3,0,0,1-1.12-1.75,6.1,6.1,0,0,1-.39-2.2,6,6,0,0,1,.39-2.2,5.35,5.35,0,0,1,1.12-1.76,5,5,0,0,1,1.73-1.15,6.18,6.18,0,0,1,4.48,0,5.12,5.12,0,0,1,2.84,2.91A6,6,0,0,1,795.15,418.21Zm-2.06,0a4.94,4.94,0,0,0-.24-1.6,3.34,3.34,0,0,0-.67-1.2,2.88,2.88,0,0,0-1.07-.75,4.06,4.06,0,0,0-2.86,0,2.92,2.92,0,0,0-1.08.75,3.51,3.51,0,0,0-.68,1.2,5.42,5.42,0,0,0,0,3.19,3.51,3.51,0,0,0,.68,1.2,3.18,3.18,0,0,0,1.08.75,4.06,4.06,0,0,0,2.86,0,3.14,3.14,0,0,0,1.07-.75,3.34,3.34,0,0,0,.67-1.2A4.92,4.92,0,0,0,793.09,418.21Z"/><path d="M802.4,419.62l.21.52.21-.53.24-.5,3.2-6a.59.59,0,0,1,.13-.17.33.33,0,0,1,.14-.1l.17,0h1.75v10.81h-1.77v-7c0-.13,0-.27,0-.43s0-.31,0-.47l-3.27,6.13a.75.75,0,0,1-.29.32.74.74,0,0,1-.42.12h-.28a.71.71,0,0,1-.41-.12.85.85,0,0,1-.3-.32l-3.31-6.15a3.88,3.88,0,0,1,0,.48c0,.16,0,.3,0,.44v7h-1.77V412.8h1.74l.18,0a.44.44,0,0,1,.15.1.83.83,0,0,1,.12.17l3.23,6Z"/><rect class="cls-10" x="360.94" y="266.78" width="141.52" height="75.98"/><rect class="cls-11" x="413.89" y="618.8" width="20.69" height="24.92" rx="2"/><line class="cls-12" x1="417.71" y1="628.6" x2="417.71" y2="639.1"/><line class="cls-12" x1="421.59" y1="628.6" x2="421.59" y2="639.1"/><path class="cls-12" d="M424.17,631.88V628c0-1.59-2.3-2.63-4.52-2.63s-4.53,1-4.53,2.63v3.93"/><rect class="cls-12" x="411.89" y="616.8" width="20.69" height="24.92" rx="2"/><line class="cls-12" x1="427.41" y1="622.7" x2="429.99" y2="622.7"/><line class="cls-12" x1="427.41" y1="625.98" x2="429.99" y2="625.98"/><line class="cls-12" x1="427.41" y1="629.26" x2="429.99" y2="629.26"/><line class="cls-12" x1="427.41" y1="632.54" x2="429.99" y2="632.54"/><line class="cls-12" x1="422.23" y1="616.8" x2="422.23" y2="614.17"/><line class="cls-12" x1="422.23" y1="644.34" x2="422.23" y2="641.72"/><ellipse class="cls-12" cx="419.65" cy="621.39" rx="1.94" ry="1.97"/><rect class="cls-11" x="384.43" y="436.4" width="20.69" height="24.92" rx="2"/><line class="cls-12" x1="388.25" y1="446.21" x2="388.25" y2="456.7"/><line class="cls-12" x1="392.13" y1="446.21" x2="392.13" y2="456.7"/><path class="cls-12" d="M394.72,449.48v-3.93c0-1.59-2.31-2.62-4.53-2.62s-4.53,1-4.53,2.62v3.93"/><rect class="cls-12" x="382.43" y="434.4" width="20.69" height="24.92" rx="2"/><line class="cls-12" x1="397.95" y1="440.3" x2="400.54" y2="440.3"/><line class="cls-12" x1="397.95" y1="443.58" x2="400.54" y2="443.58"/><line class="cls-12" x1="397.95" y1="446.86" x2="400.54" y2="446.86"/><line class="cls-12" x1="397.95" y1="450.14" x2="400.54" y2="450.14"/><line class="cls-12" x1="392.78" y1="434.4" x2="392.78" y2="431.78"/><line class="cls-12" x1="392.78" y1="461.95" x2="392.78" y2="459.32"/><ellipse class="cls-12" cx="390.19" cy="438.99" rx="1.94" ry="1.97"/><rect class="cls-11" x="550.36" y="618.8" width="20.69" height="24.92" rx="2"/><line class="cls-12" x1="554.18" y1="628.6" x2="554.18" y2="639.1"/><line class="cls-12" x1="558.06" y1="628.6" x2="558.06" y2="639.1"/><path class="cls-12" d="M560.64,631.88V628c0-1.59-2.3-2.63-4.52-2.63s-4.53,1-4.53,2.63v3.93"/><rect class="cls-12" x="548.36" y="616.8" width="20.69" height="24.92" rx="2"/><line class="cls-12" x1="563.88" y1="622.7" x2="566.46" y2="622.7"/><line class="cls-12" x1="563.88" y1="625.98" x2="566.46" y2="625.98"/><line class="cls-12" x1="563.88" y1="629.26" x2="566.46" y2="629.26"/><line class="cls-12" x1="563.88" y1="632.54" x2="566.46" y2="632.54"/><line class="cls-12" x1="558.7" y1="616.8" x2="558.7" y2="614.17"/><line class="cls-12" x1="558.7" y1="644.34" x2="558.7" y2="641.72"/><ellipse class="cls-12" cx="556.12" cy="621.39" rx="1.94" ry="1.97"/><path d="M462.17,626.54v1.6h-4.79v3h3.77v1.55h-3.77v3h4.79v1.61h-6.82V626.54Z"/><path d="M465.92,635.69h4.32v1.66h-6.33V626.54h2Z"/><path d="M478.45,626.54v1.6h-4.79v3h3.77v1.55h-3.77v3h4.79v1.61h-6.82V626.54Z"/><path d="M479.13,626.54h1.62a.73.73,0,0,1,.43.13.78.78,0,0,1,.24.33l2.54,6.59a7.24,7.24,0,0,1,.25.71c.07.25.15.52.22.81a8.7,8.7,0,0,1,.42-1.52l2.54-6.59a.68.68,0,0,1,.23-.31.64.64,0,0,1,.43-.15h1.62l-4.36,10.81h-1.82Z"/><path d="M499,637.35h-1.55a.73.73,0,0,1-.43-.13.78.78,0,0,1-.24-.33l-.81-2.2h-4.47l-.81,2.2a.71.71,0,0,1-.24.32.69.69,0,0,1-.43.14h-1.56l4.25-10.81h2.05Zm-7-4.08h3.45l-1.32-3.6c-.06-.15-.13-.34-.2-.56s-.14-.45-.21-.71c-.07.26-.14.5-.21.71s-.13.42-.19.58Z"/><path d="M506.66,626.54v1.66h-3.25v9.15h-2V628.2h-3.26v-1.66Z"/><path d="M517.72,632a6.1,6.1,0,0,1-.39,2.2,5.3,5.3,0,0,1-1.12,1.75,4.91,4.91,0,0,1-1.72,1.15,6.18,6.18,0,0,1-4.48,0,5,5,0,0,1-1.73-1.15,5.3,5.3,0,0,1-1.12-1.75,6.1,6.1,0,0,1-.39-2.2,6,6,0,0,1,.39-2.2,5.35,5.35,0,0,1,1.12-1.76,5.19,5.19,0,0,1,1.73-1.15,6.18,6.18,0,0,1,4.48,0,5.07,5.07,0,0,1,1.72,1.16,5.2,5.2,0,0,1,1.12,1.75A6,6,0,0,1,517.72,632Zm-2.06,0a4.94,4.94,0,0,0-.24-1.6,3.34,3.34,0,0,0-.67-1.2,2.88,2.88,0,0,0-1.07-.75,3.61,3.61,0,0,0-1.43-.26,3.56,3.56,0,0,0-1.42.26,2.77,2.77,0,0,0-1.08.75,3.37,3.37,0,0,0-.69,1.2,5.42,5.42,0,0,0,0,3.19,3.37,3.37,0,0,0,.69,1.2,3,3,0,0,0,1.08.75,3.74,3.74,0,0,0,1.42.26,3.8,3.8,0,0,0,1.43-.26,3.14,3.14,0,0,0,1.07-.75,3.34,3.34,0,0,0,.67-1.2A4.92,4.92,0,0,0,515.66,632Z"/><path d="M521.38,633.13v4.22h-2V626.54h3.3a6.88,6.88,0,0,1,1.89.23,3.68,3.68,0,0,1,1.3.64,2.53,2.53,0,0,1,.74,1,3.4,3.4,0,0,1,.23,1.26,3,3,0,0,1-1.37,2.61,3.93,3.93,0,0,1-1,.48,2,2,0,0,1,.66.62l2.7,4H526a.87.87,0,0,1-.44-.11.86.86,0,0,1-.31-.29L523,633.49a.77.77,0,0,0-.29-.28.91.91,0,0,0-.45-.08Zm0-1.45h1.26a3,3,0,0,0,1-.14,1.78,1.78,0,0,0,.69-.39,1.58,1.58,0,0,0,.41-.59,2.06,2.06,0,0,0,.14-.76,1.5,1.5,0,0,0-.55-1.26,2.54,2.54,0,0,0-1.65-.44h-1.29Z"/><path class="cls-11" d="M415.1,576V580a2.35,2.35,0,0,0,2.35,2.35h13.36a2.35,2.35,0,0,0,2.35-2.35V555.61a2.35,2.35,0,0,0-2.35-2.35H417.45a2.35,2.35,0,0,0-2.35,2.35V576Z"/><path class="cls-13" d="M430,559.64l-.13-.14c-.68-.71-.87-1.64-.43-2.06l1.88-1.77a1.75,1.75,0,0,1,2.47.12l.13.14a1.75,1.75,0,0,1,0,2.47l-1.88,1.77C431.62,560.59,430.71,560.35,430,559.64Z"/><path class="cls-13" d="M430.52,574.34l-.13-.11c-.68-.59-.93-1.42-.56-1.85l1.57-1.81a1.61,1.61,0,0,1,2.27-.13l.13.11a1.6,1.6,0,0,1,.2,2.26l-1.57,1.82C432.06,575.06,431.2,574.93,430.52,574.34Z"/><path class="cls-13" d="M415.1,580.36a12.22,12.22,0,0,0-1.51-11.2,22.4,22.4,0,0,0,1.13-5.62,4.88,4.88,0,0,0-1-3.26,1.37,1.37,0,0,0-2.34.29c-1.28,4.11-1.52,5.23-2.32,7.29-.89,2.31-.38,5.55-.82,6.5-.09.19-1.77,2.86-1.77,2.86"/><path class="cls-13" d="M430.53,569.4l-.13-.11c-.69-.6-.95-1.44-.57-1.88l1.6-1.84a1.64,1.64,0,0,1,2.31-.14l.13.11a1.66,1.66,0,0,1,.21,2.31l-1.61,1.84C432.1,570.13,431.22,570,430.53,569.4Z"/><path class="cls-13" d="M430.53,564.59l-.13-.12c-.69-.59-.95-1.44-.57-1.87l1.6-1.85a1.65,1.65,0,0,1,2.31-.14l.13.12a1.64,1.64,0,0,1,.2,2.3l-1.6,1.85C432.1,565.31,431.22,565.18,430.53,564.59Z"/><line class="cls-13" x1="420.59" y1="576.43" x2="422.95" y2="576.43"/><path class="cls-13" d="M430.81,556v-3.93a2.36,2.36,0,0,0-2.36-2.36H415.1a2.35,2.35,0,0,0-2.36,2.36v7.85"/><path class="cls-13" d="M415.1,578.79h13.35a2.36,2.36,0,0,0,2.36-2.36h0v-1.57"/><path class="cls-13" d="M407.24,585.86,401,579.57l3.93-3.92,9.82,9.81s1.14-1.18,2-2a9.86,9.86,0,0,0,9.42-4.71"/><line class="cls-13" x1="404.88" y1="579.57" x2="405.67" y2="580.36"/><line class="cls-13" x1="417.45" y1="558.36" x2="417.45" y2="567.79"/><line class="cls-13" x1="426.09" y1="558.36" x2="426.09" y2="567.79"/><line class="cls-13" x1="420.59" y1="558.36" x2="420.59" y2="567.79"/><line class="cls-13" x1="423.74" y1="558.36" x2="423.74" y2="567.79"/><path d="M411.45,591.74v-3.61h1.25a2.15,2.15,0,0,1,.6.07.92.92,0,0,1,.41.19.7.7,0,0,1,.24.3,1,1,0,0,1,.08.4.93.93,0,0,1,0,.24.94.94,0,0,1-.12.22.7.7,0,0,1-.2.18.87.87,0,0,1-.29.14c.5.12.75.38.75.81a1,1,0,0,1-.09.42.94.94,0,0,1-.26.34,1.14,1.14,0,0,1-.41.22,1.89,1.89,0,0,1-.56.08Zm.67-2h.54a.93.93,0,0,0,.52-.12.46.46,0,0,0,.18-.4.46.46,0,0,0-.17-.4.8.8,0,0,0-.49-.12h-.58Zm0,.47v1.06h.68a1,1,0,0,0,.32-.05.56.56,0,0,0,.2-.12.45.45,0,0,0,.11-.17.78.78,0,0,0,0-.22.66.66,0,0,0,0-.21.61.61,0,0,0-.12-.16.59.59,0,0,0-.21-.1,1.26,1.26,0,0,0-.3,0Z"/><path d="M417.88,591.74h-.52a.2.2,0,0,1-.14,0,.31.31,0,0,1-.09-.11l-.27-.74h-1.49l-.27.74a.19.19,0,0,1-.08.1.24.24,0,0,1-.14,0h-.53l1.42-3.61h.69Zm-2.34-1.36h1.15l-.44-1.21-.06-.18a2.17,2.17,0,0,1-.07-.24,2.17,2.17,0,0,0-.07.24c0,.07-.05.13-.07.19Z"/><path d="M419,590.33v1.41h-.68v-3.61h1.11a2.38,2.38,0,0,1,.63.07,1.24,1.24,0,0,1,.43.22.81.81,0,0,1,.25.33,1.08,1.08,0,0,1,.08.42,1,1,0,0,1-.06.34.85.85,0,0,1-.15.3,1.1,1.1,0,0,1-.25.23,1.19,1.19,0,0,1-.34.16.73.73,0,0,1,.22.21l.9,1.33h-.6a.24.24,0,0,1-.15,0,.28.28,0,0,1-.1-.09l-.76-1.16a.21.21,0,0,0-.1-.09.28.28,0,0,0-.15,0Zm0-.48h.41a1.16,1.16,0,0,0,.34-.05.73.73,0,0,0,.23-.13.53.53,0,0,0,.13-.2.7.7,0,0,0,.05-.25.52.52,0,0,0-.18-.43.93.93,0,0,0-.55-.14H419Z"/><path d="M423.89,590.89a.12.12,0,0,1,.09,0l.27.29a1.58,1.58,0,0,1-.54.42,2.05,2.05,0,0,1-.78.14,1.89,1.89,0,0,1-.72-.14,1.75,1.75,0,0,1-.55-.38,1.68,1.68,0,0,1-.34-.58,2,2,0,0,1-.13-.75,2,2,0,0,1,.14-.74,1.54,1.54,0,0,1,.38-.58,1.8,1.8,0,0,1,.58-.39,2.06,2.06,0,0,1,.76-.13,1.7,1.7,0,0,1,1.22.47l-.23.31-.05,0a.12.12,0,0,1-.09,0,.21.21,0,0,1-.11-.05l-.16-.1-.23-.1a1.19,1.19,0,0,0-.36,0,1.23,1.23,0,0,0-.47.09,1.08,1.08,0,0,0-.6.65,1.51,1.51,0,0,0-.09.53,1.55,1.55,0,0,0,.09.55,1.13,1.13,0,0,0,.23.4,1,1,0,0,0,.35.24,1,1,0,0,0,.43.09h.25l.2-.05a.76.76,0,0,0,.18-.09.83.83,0,0,0,.16-.12l.06,0Z"/><path d="M428.22,589.93a2.21,2.21,0,0,1-.13.74,1.81,1.81,0,0,1-.38.59,1.73,1.73,0,0,1-.57.38,2.08,2.08,0,0,1-1.5,0,1.77,1.77,0,0,1-.58-.38,1.79,1.79,0,0,1-.37-.59,2,2,0,0,1-.13-.74,1.93,1.93,0,0,1,.13-.73,1.79,1.79,0,0,1,.37-.59,1.77,1.77,0,0,1,.58-.38,2.08,2.08,0,0,1,1.5,0,1.73,1.73,0,0,1,.57.38,1.81,1.81,0,0,1,.38.59A2.15,2.15,0,0,1,428.22,589.93Zm-.69,0a1.78,1.78,0,0,0-.08-.53,1.05,1.05,0,0,0-.23-.4.86.86,0,0,0-.36-.25,1.16,1.16,0,0,0-.47-.09,1.21,1.21,0,0,0-.48.09,1,1,0,0,0-.36.25,1.2,1.2,0,0,0-.23.4,1.83,1.83,0,0,0,0,1.07,1.31,1.31,0,0,0,.23.4,1,1,0,0,0,.36.25,1.21,1.21,0,0,0,.48.09,1.16,1.16,0,0,0,.47-.09.86.86,0,0,0,.36-.25,1.13,1.13,0,0,0,.23-.4A1.8,1.8,0,0,0,427.53,589.93Z"/><path d="M432,589.93a1.9,1.9,0,0,1-.13.73,1.75,1.75,0,0,1-.37.58,1.65,1.65,0,0,1-.58.37,2,2,0,0,1-.74.13h-1.38v-3.61h1.38a2,2,0,0,1,.74.13,1.65,1.65,0,0,1,.58.37,1.7,1.7,0,0,1,.37.57A2,2,0,0,1,432,589.93Zm-.68,0a1.78,1.78,0,0,0-.08-.53,1.2,1.2,0,0,0-.23-.4,1,1,0,0,0-.36-.25,1.19,1.19,0,0,0-.47-.09h-.71v2.55h.71a1.19,1.19,0,0,0,.47-.09,1,1,0,0,0,.36-.25,1.31,1.31,0,0,0,.23-.4A1.8,1.8,0,0,0,431.27,589.93Z"/><path d="M434.76,588.13v.53h-1.6v1h1.26v.52h-1.26v1h1.6v.54h-2.28v-3.61Z"/><path d="M406.23,595.91v1.42h-.68v-3.62h1.1a2.38,2.38,0,0,1,.64.08,1.23,1.23,0,0,1,.43.21,1,1,0,0,1,.25.33,1.16,1.16,0,0,1,.08.42,1,1,0,0,1-.06.35,1,1,0,0,1-.15.29.92.92,0,0,1-.25.23,1.19,1.19,0,0,1-.34.16.73.73,0,0,1,.22.21l.9,1.34h-.6a.33.33,0,0,1-.15,0,.24.24,0,0,1-.1-.1l-.76-1.16a.27.27,0,0,0-.25-.12Zm0-.48h.41a1.18,1.18,0,0,0,.34,0,.74.74,0,0,0,.23-.14.5.5,0,0,0,.13-.19.75.75,0,0,0,.05-.26.52.52,0,0,0-.18-.42.87.87,0,0,0-.56-.15h-.42Z"/><path d="M411.08,593.71v.54h-1.6v1h1.26v.52h-1.26v1h1.6v.54H408.8v-3.62Z"/><path d="M413.32,596.83a1.59,1.59,0,0,0,.4,0l.32-.11V596h-.45a.14.14,0,0,1-.11,0,.12.12,0,0,1,0-.09v-.37h1.2V597l-.29.17a1.52,1.52,0,0,1-.32.12,1.91,1.91,0,0,1-.36.07,2.54,2.54,0,0,1-.41,0,1.94,1.94,0,0,1-.73-.14,1.73,1.73,0,0,1-.57-.38,1.81,1.81,0,0,1-.38-.59,2,2,0,0,1-.14-.74,2,2,0,0,1,.14-.75,1.6,1.6,0,0,1,.37-.58,1.71,1.71,0,0,1,.59-.38,2.13,2.13,0,0,1,.78-.14,2,2,0,0,1,.77.14,1.7,1.7,0,0,1,.55.34l-.2.3a.18.18,0,0,1-.15.09.19.19,0,0,1-.12,0l-.17-.09a.75.75,0,0,0-.18-.08.86.86,0,0,0-.23-.06,1.28,1.28,0,0,0-.29,0,1.21,1.21,0,0,0-.48.09,1,1,0,0,0-.37.25,1.33,1.33,0,0,0-.24.4,1.78,1.78,0,0,0-.08.53,1.64,1.64,0,0,0,.09.56,1.38,1.38,0,0,0,.24.41,1.09,1.09,0,0,0,.38.25A1.19,1.19,0,0,0,413.32,596.83Z"/><path d="M416,597.33h-.67v-3.62H416Z"/><path d="M418.78,594.37a.28.28,0,0,1-.06.08l-.09,0a.19.19,0,0,1-.11,0l-.15-.08a.93.93,0,0,0-.2-.09.7.7,0,0,0-.27,0,.88.88,0,0,0-.24,0,.55.55,0,0,0-.17.1.36.36,0,0,0-.11.14.58.58,0,0,0,0,.19.38.38,0,0,0,.07.21.94.94,0,0,0,.19.14,1.69,1.69,0,0,0,.27.11l.31.1.3.13a.8.8,0,0,1,.27.18.83.83,0,0,1,.19.26.89.89,0,0,1,.07.38,1.34,1.34,0,0,1-.08.46,1.19,1.19,0,0,1-.25.38,1.53,1.53,0,0,1-.39.25,1.47,1.47,0,0,1-.53.09,1.86,1.86,0,0,1-.34,0,1.5,1.5,0,0,1-.32-.09l-.29-.15a1.59,1.59,0,0,1-.24-.2l.19-.32.07-.06a.13.13,0,0,1,.09,0,.2.2,0,0,1,.13,0l.17.11.23.12a1,1,0,0,0,.33.05.66.66,0,0,0,.44-.14.5.5,0,0,0,.16-.39.39.39,0,0,0-.07-.23.58.58,0,0,0-.19-.15,1.69,1.69,0,0,0-.27-.11l-.3-.09a1.66,1.66,0,0,1-.31-.12,1.27,1.27,0,0,1-.27-.18,1.15,1.15,0,0,1-.19-.28,1.27,1.27,0,0,1-.07-.42,1,1,0,0,1,.08-.38A1.13,1.13,0,0,1,417,594a1.26,1.26,0,0,1,.88-.32,1.87,1.87,0,0,1,.59.1,1.37,1.37,0,0,1,.45.28Z"/><path d="M422.07,593.71v.56H421v3.06h-.67v-3.06h-1.09v-.56Z"/><path d="M423.19,595.91v1.42h-.67v-3.62h1.1a2.25,2.25,0,0,1,.63.08,1.29,1.29,0,0,1,.44.21.85.85,0,0,1,.24.33,1,1,0,0,1,.08.42,1.34,1.34,0,0,1-.05.35,1,1,0,0,1-.16.29.79.79,0,0,1-.25.23,1.19,1.19,0,0,1-.34.16.63.63,0,0,1,.22.21l.91,1.34h-.61a.33.33,0,0,1-.14,0,.27.27,0,0,1-.11-.1l-.76-1.16-.09-.09a.33.33,0,0,0-.15,0Zm0-.48h.42a1.06,1.06,0,0,0,.33,0,.64.64,0,0,0,.23-.14.52.52,0,0,0,.14-.19.75.75,0,0,0,.05-.26.52.52,0,0,0-.19-.42.84.84,0,0,0-.55-.15h-.43Z"/><path d="M428.94,597.33h-.52a.24.24,0,0,1-.14-.05.23.23,0,0,1-.08-.11l-.27-.73h-1.5l-.27.73a.21.21,0,0,1-.08.11.2.2,0,0,1-.14.05h-.52l1.42-3.62h.69ZM426.61,596h1.15l-.44-1.2s0-.12-.07-.19-.05-.15-.07-.23c0,.08-.05.16-.07.23s0,.14-.06.2Z"/><path d="M431.49,593.71v.56h-1.08v3.06h-.67v-3.06h-1.1v-.56Z"/><path d="M432.68,597.33H432v-3.62h.68Z"/><path d="M437,595.52a2,2,0,0,1-.13.74,1.75,1.75,0,0,1-.37.58,1.69,1.69,0,0,1-.58.39,2.05,2.05,0,0,1-1.49,0,1.69,1.69,0,0,1-.58-.39,1.77,1.77,0,0,1-.38-.58,2.26,2.26,0,0,1-.13-.74,2.21,2.21,0,0,1,.13-.74,1.77,1.77,0,0,1,.38-.58,1.69,1.69,0,0,1,.58-.39,2.05,2.05,0,0,1,1.49,0,1.85,1.85,0,0,1,.58.39,1.75,1.75,0,0,1,.37.58A2,2,0,0,1,437,595.52Zm-.69,0a1.7,1.7,0,0,0-.07-.53,1.2,1.2,0,0,0-.23-.4,1,1,0,0,0-.36-.26,1.4,1.4,0,0,0-.47-.08,1.42,1.42,0,0,0-.48.08,1,1,0,0,0-.36.26,1.05,1.05,0,0,0-.23.4,1.8,1.8,0,0,0,0,1.06,1.05,1.05,0,0,0,.23.4.9.9,0,0,0,.36.25,1.21,1.21,0,0,0,.48.09,1.19,1.19,0,0,0,.47-.09.9.9,0,0,0,.36-.25,1.2,1.2,0,0,0,.23-.4A1.7,1.7,0,0,0,436.26,595.52Z"/><path d="M437.91,593.72h0a.1.1,0,0,1,.05,0l.05.05,1.9,2.42a1.11,1.11,0,0,1,0-.17v-2.36h.59v3.62h-.35a.28.28,0,0,1-.13,0,.41.41,0,0,1-.1-.09l-1.89-2.4a.76.76,0,0,1,0,.15c0,.06,0,.1,0,.15v2.22h-.6v-3.62h.43Z"/><path class="cls-11" d="M61.5,311a2.75,2.75,0,1,1-2.72-2.73A2.73,2.73,0,0,1,61.5,311Z"/><path class="cls-11" d="M77.29,311a2.75,2.75,0,1,1-2.72-2.73A2.73,2.73,0,0,1,77.29,311Z"/><line class="cls-14" x1="54.04" y1="319.48" x2="54.04" y2="337.08"/><line class="cls-14" x1="60.91" y1="319.48" x2="60.91" y2="337.08"/><line class="cls-14" x1="57.47" y1="326.92" x2="57.47" y2="337.08"/><path class="cls-14" d="M63.65,326.25V318.8c0-2-1.5-4.06-3.43-4.06H54.73c-1.93,0-3.43,2.07-3.43,4.06v7.45"/><path class="cls-14" d="M80.13,325.57s-1-5.37-1.38-7.45c-.33-1.79-1.15-3.38-3.43-3.38H71.2c-2.27,0-3.09,1.59-3.43,3.38-.39,2.08-1.37,7.45-1.37,7.45"/><polyline class="cls-14" points="76.01 318.12 78.07 330.98 73.26 330.98 68.46 330.98 70.52 318.12"/><line class="cls-14" x1="71.2" y1="330.98" x2="71.2" y2="337.08"/><line class="cls-14" x1="75.32" y1="330.98" x2="75.32" y2="337.08"/><path class="cls-14" d="M60.22,310a2.75,2.75,0,1,1-2.72-2.73A2.74,2.74,0,0,1,60.22,310Z"/><path class="cls-14" d="M76,310a2.75,2.75,0,1,1-2.72-2.73A2.74,2.74,0,0,1,76,310Z"/><path class="cls-3" d="M839.24,76.54h1.35V71.13a2.7,2.7,0,0,0-2.7-2.7h-4.06a2.7,2.7,0,0,0-2.7,2.7v5.41h5.4"/><path class="cls-3" d="M836.53,76.54V73.16a1.34,1.34,0,0,0-1.35-1.35h-2.7a1.34,1.34,0,0,0-1.35,1.35"/><path class="cls-3" d="M839.91,76.54l.85.85a2,2,0,0,1,.58,1.21l.43,3.84a2,2,0,0,1-1.26,2.11l-3.92,1.56a2.68,2.68,0,0,1-2.62-.34l-1.49-1.12,4.73-2.7v-2"/><line class="cls-3" x1="832.48" y1="84.65" x2="824.96" y2="84.65"/><path class="cls-3" d="M841.94,90.06h2a1.35,1.35,0,0,0,1.35-1.35V75.19A1.34,1.34,0,0,0,844,73.84h-3.38"/><line class="cls-3" x1="839.91" y1="85.06" x2="839.91" y2="98.85"/><line class="cls-3" x1="831.13" y1="87.24" x2="831.13" y2="98.85"/><polyline class="cls-3" points="834.51 98.85 834.51 89.72 833.53 88.77"/><path class="cls-3" d="M828.42,82.62l2.71-2V78.45a1.34,1.34,0,0,1,.39-1l1-1"/><line class="cls-3" x1="818.96" y1="82.62" x2="818.28" y2="82.62"/><line class="cls-3" x1="818.96" y1="86.68" x2="818.28" y2="86.68"/><line class="cls-3" x1="815.58" y1="84.65" x2="814.9" y2="84.65"/><line class="cls-3" x1="822.34" y1="84.65" x2="821.66" y2="84.65"/><line class="cls-3" x1="815.58" y1="80.6" x2="814.9" y2="80.6"/><line class="cls-3" x1="815.58" y1="88.71" x2="814.9" y2="88.71"/><path class="cls-3" d="M286.84,86.34h-1.35V80.93a2.7,2.7,0,0,1,2.7-2.7h4.06a2.7,2.7,0,0,1,2.7,2.7v5.41h-5.4"/><path class="cls-3" d="M289.55,86.34V83a1.34,1.34,0,0,1,1.35-1.35h2.7A1.34,1.34,0,0,1,295,83"/><path class="cls-3" d="M286.17,86.34l-.85.85a2,2,0,0,0-.58,1.21l-.43,3.84a2,2,0,0,0,1.26,2.11l3.92,1.57a2.71,2.71,0,0,0,2.62-.35l1.49-1.12-4.73-2.7v-2"/><line class="cls-3" x1="293.6" y1="94.45" x2="301.12" y2="94.45"/><path class="cls-3" d="M284.14,99.86h-2a1.35,1.35,0,0,1-1.35-1.35V85a1.34,1.34,0,0,1,1.35-1.35h3.38"/><line class="cls-3" x1="286.17" y1="94.86" x2="286.17" y2="108.65"/><line class="cls-3" x1="294.95" y1="97.04" x2="294.95" y2="108.65"/><polyline class="cls-3" points="291.57 108.65 291.57 99.52 292.55 98.57"/><path class="cls-3" d="M297.66,92.42l-2.71-2V88.25a1.34,1.34,0,0,0-.39-1l-1-1"/><line class="cls-3" x1="307.12" y1="92.42" x2="307.8" y2="92.42"/><line class="cls-3" x1="307.12" y1="96.48" x2="307.8" y2="96.48"/><line class="cls-3" x1="310.5" y1="94.45" x2="311.18" y2="94.45"/><line class="cls-3" x1="303.74" y1="94.45" x2="304.42" y2="94.45"/><line class="cls-3" x1="310.5" y1="90.4" x2="311.18" y2="90.4"/><line class="cls-3" x1="310.5" y1="98.51" x2="311.18" y2="98.51"/><path d="M401.14,259.41a.38.38,0,0,1,.28.12l.8.86a4.42,4.42,0,0,1-1.62,1.25,5.57,5.57,0,0,1-2.31.43,5.33,5.33,0,0,1-2.16-.41,4.65,4.65,0,0,1-1.64-1.14,5,5,0,0,1-1-1.75,6.63,6.63,0,0,1-.37-2.22,5.94,5.94,0,0,1,.41-2.23,5,5,0,0,1,2.89-2.88,5.85,5.85,0,0,1,2.25-.41,5.43,5.43,0,0,1,2.1.38,5.09,5.09,0,0,1,1.55,1l-.68.94a.54.54,0,0,1-.15.15.4.4,0,0,1-.26.07.59.59,0,0,1-.35-.13,3.94,3.94,0,0,0-.45-.29,3.58,3.58,0,0,0-.7-.3,3.66,3.66,0,0,0-1.08-.13,3.79,3.79,0,0,0-1.4.26,3.24,3.24,0,0,0-1.1.76,3.57,3.57,0,0,0-.71,1.2,4.65,4.65,0,0,0-.26,1.59,4.75,4.75,0,0,0,.26,1.62,3.46,3.46,0,0,0,.7,1.2,3,3,0,0,0,1,.74,3.27,3.27,0,0,0,1.29.26,5.5,5.5,0,0,0,.74-.05,2.8,2.8,0,0,0,1.15-.39,3.25,3.25,0,0,0,.49-.38.7.7,0,0,1,.16-.1A.37.37,0,0,1,401.14,259.41Z"/><path d="M414.1,256.55a6.06,6.06,0,0,1-.4,2.2,5,5,0,0,1-2.84,2.91,6.3,6.3,0,0,1-4.47,0,5.11,5.11,0,0,1-1.74-1.16,5,5,0,0,1-1.11-1.75,6.25,6.25,0,0,1,0-4.4,5,5,0,0,1,1.11-1.75,5.11,5.11,0,0,1,1.74-1.16,6,6,0,0,1,2.24-.41,5.75,5.75,0,0,1,2.23.42,5.19,5.19,0,0,1,1.73,1.15,5,5,0,0,1,1.11,1.75A6.1,6.1,0,0,1,414.1,256.55Zm-2.07,0a5,5,0,0,0-.23-1.6,3.23,3.23,0,0,0-.68-1.19,2.94,2.94,0,0,0-1.07-.76,4,4,0,0,0-2.85,0,3.07,3.07,0,0,0-1.08.76,3.23,3.23,0,0,0-.68,1.19,5.45,5.45,0,0,0,0,3.2,3.23,3.23,0,0,0,.68,1.19,2.92,2.92,0,0,0,1.08.75,4,4,0,0,0,2.85,0,2.81,2.81,0,0,0,1.07-.75,3.23,3.23,0,0,0,.68-1.19A5,5,0,0,0,412,256.55Z"/><path d="M422.5,251.15v1.6h-4.79V256h4v1.6h-4V262h-2v-10.8Z"/><path d="M430.89,251.15v1.6H426.1V256h4v1.6h-4V262h-2v-10.8Z"/><path d="M439.28,251.15v1.6h-4.79v3h3.77v1.55h-3.77v3.06h4.79V262h-6.82v-10.8Z"/><path d="M447.83,251.15v1.6H443v3h3.78v1.55H443v3.06h4.79V262H441v-10.8Z"/><path d="M452.46,262v-10.8h3.73a7.3,7.3,0,0,1,1.81.2,3.35,3.35,0,0,1,1.23.58,2.21,2.21,0,0,1,.71.9,3,3,0,0,1,.22,1.2,2.46,2.46,0,0,1-.11.72,1.87,1.87,0,0,1-.35.65,2.13,2.13,0,0,1-.6.55,3.28,3.28,0,0,1-.86.42c1.49.33,2.23,1.14,2.23,2.41a3.13,3.13,0,0,1-.26,1.27,2.77,2.77,0,0,1-.77,1,3.61,3.61,0,0,1-1.23.66,5.34,5.34,0,0,1-1.67.24Zm2-6.12h1.6a2.68,2.68,0,0,0,1.56-.38,1.36,1.36,0,0,0,.53-1.19,1.4,1.4,0,0,0-.48-1.2,2.5,2.5,0,0,0-1.49-.36h-1.72Zm0,1.39v3.16h2a2.88,2.88,0,0,0,.94-.13,1.6,1.6,0,0,0,.6-.36,1.36,1.36,0,0,0,.33-.52,1.91,1.91,0,0,0,.1-.64,1.81,1.81,0,0,0-.11-.63,1.2,1.2,0,0,0-.35-.48,1.71,1.71,0,0,0-.62-.3,3.34,3.34,0,0,0-.9-.1Z"/><path d="M464.27,257.73V262h-2v-10.8h3.3a6.56,6.56,0,0,1,1.89.23,3.53,3.53,0,0,1,1.29.63,2.44,2.44,0,0,1,.74,1,3.41,3.41,0,0,1,.08,2.29,3.08,3.08,0,0,1-.46.88,3.54,3.54,0,0,1-.75.69,4.09,4.09,0,0,1-1,.48,2,2,0,0,1,.65.62l2.71,4h-1.81a.93.93,0,0,1-.45-.1,1,1,0,0,1-.31-.3l-2.27-3.46a.75.75,0,0,0-.28-.28,1,1,0,0,0-.45-.08Zm0-1.44h1.26a3.24,3.24,0,0,0,1-.14,1.93,1.93,0,0,0,.69-.4,1.53,1.53,0,0,0,.41-.59,2,2,0,0,0,.13-.75,1.56,1.56,0,0,0-.54-1.27,2.6,2.6,0,0,0-1.65-.44h-1.29Z"/><path d="M478.8,251.15v1.6H474v3h3.77v1.55H474v3.06h4.79V262H472v-10.8Z"/><path d="M490,262h-1.55a.67.67,0,0,1-.43-.13.7.7,0,0,1-.24-.32l-.81-2.21h-4.47l-.81,2.21a.69.69,0,0,1-.24.31.62.62,0,0,1-.43.14h-1.56l4.25-10.8h2.05Zm-7-4.08h3.45l-1.32-3.59c-.06-.16-.13-.35-.2-.57s-.14-.45-.21-.7c-.07.25-.14.49-.21.71s-.13.41-.19.57Z"/><path d="M493.23,255.68h.47a1.28,1.28,0,0,0,.47-.08.85.85,0,0,0,.32-.25l3-3.78a1.06,1.06,0,0,1,.39-.33,1.31,1.31,0,0,1,.52-.09h1.73l-3.63,4.49a3.89,3.89,0,0,1-.33.35,1.85,1.85,0,0,1-.34.23,1.56,1.56,0,0,1,.45.26,2.52,2.52,0,0,1,.38.41l3.75,5.06h-1.78a1.06,1.06,0,0,1-.53-.1.83.83,0,0,1-.3-.29l-3-4a.81.81,0,0,0-.34-.28,1.23,1.23,0,0,0-.53-.09h-.63V262h-2V251.14h2Z"/><path class="cls-11" d="M389.51,251.88a2.2,2.2,0,0,0-2.76,1.13h0c.05-.61.07-1.22.07-1.81V250H366.18v1.18c0,5.1,1.55,11.2,9.44,11.2h1.76c3.39,0,5.6-1.13,7-2.81v0c3.27-2.3,5.72-2.35,6.4-4.69C391.25,253.39,390.65,252.21,389.51,251.88Z"/><path class="cls-12" d="M364.18,249.21c0,5.1,1.55,11.2,9.44,11.2h1.76c7.89,0,9.44-6.1,9.44-11.2V248H364.18Z"/><path class="cls-12" d="M384.75,251a2.2,2.2,0,0,1,2.76-1.13c1.14.33,1.74,1.51,1.29,3.05-.68,2.34-3.13,2.39-6.4,4.69"/><line class="cls-12" x1="363.59" y1="262.18" x2="385.41" y2="262.18"/><path class="cls-12" d="M370.44,245.67c2.83-3.54-2.9-3.43.59-7.07"/><path class="cls-12" d="M374.28,245.67c2.82-3.54-2.9-3.43.59-7.07"/><path class="cls-12" d="M378.11,245.67c2.82-3.54-2.9-3.43.59-7.07"/><line class="cls-12" x1="366.54" y1="252.16" x2="384.82" y2="252.16"/><path d="M295.62,131.82V136h-2V125.23h3.29a7,7,0,0,1,1.9.23,3.62,3.62,0,0,1,1.29.64,2.43,2.43,0,0,1,.74,1,3.22,3.22,0,0,1,.24,1.26,3.42,3.42,0,0,1-.16,1,2.92,2.92,0,0,1-.47.89,3.26,3.26,0,0,1-.74.69,4,4,0,0,1-1,.48,1.85,1.85,0,0,1,.66.62l2.71,4h-1.81a.88.88,0,0,1-.45-.11.85.85,0,0,1-.31-.29l-2.27-3.46a.75.75,0,0,0-.28-.28.91.91,0,0,0-.45-.08Zm0-1.45h1.25a3,3,0,0,0,1-.14,1.75,1.75,0,0,0,.7-.39,1.61,1.61,0,0,0,.41-.59,2.06,2.06,0,0,0,.13-.76,1.52,1.52,0,0,0-.54-1.26,2.61,2.61,0,0,0-1.66-.44h-1.28Z"/><path d="M313.34,130.64a6.1,6.1,0,0,1-.4,2.2,5.13,5.13,0,0,1-1.11,1.75,5,5,0,0,1-1.73,1.15,6.16,6.16,0,0,1-4.47,0,5,5,0,0,1-1.73-1.15,5,5,0,0,1-1.12-1.75,5.89,5.89,0,0,1-.4-2.2,5.82,5.82,0,0,1,.4-2.2,5,5,0,0,1,2.85-2.91,6.16,6.16,0,0,1,4.47,0,5.21,5.21,0,0,1,1.73,1.16,5,5,0,0,1,1.11,1.75A6,6,0,0,1,313.34,130.64Zm-2.07,0A5,5,0,0,0,311,129a3.36,3.36,0,0,0-.68-1.2,2.81,2.81,0,0,0-1.07-.75,3.56,3.56,0,0,0-1.42-.26,3.61,3.61,0,0,0-1.43.26,2.92,2.92,0,0,0-1.08.75,3.36,3.36,0,0,0-.68,1.2,5.42,5.42,0,0,0,0,3.19,3.36,3.36,0,0,0,.68,1.2,3.18,3.18,0,0,0,1.08.75,3.8,3.8,0,0,0,1.43.26,3.74,3.74,0,0,0,1.42-.26,3,3,0,0,0,1.07-.75,3.36,3.36,0,0,0,.68-1.2A4.92,4.92,0,0,0,311.27,130.64Z"/><path d="M325.28,130.64a6.1,6.1,0,0,1-.39,2.2,5.44,5.44,0,0,1-1.11,1.75,5,5,0,0,1-1.73,1.15,6.16,6.16,0,0,1-4.47,0,5,5,0,0,1-1.74-1.15,5.13,5.13,0,0,1-1.11-1.75,5.89,5.89,0,0,1-.4-2.2,5.82,5.82,0,0,1,.4-2.2,4.95,4.95,0,0,1,2.85-2.91,6.16,6.16,0,0,1,4.47,0,5.21,5.21,0,0,1,1.73,1.16,5.34,5.34,0,0,1,1.11,1.75A6,6,0,0,1,325.28,130.64Zm-2.06,0A5.23,5.23,0,0,0,323,129a3.51,3.51,0,0,0-.68-1.2,2.81,2.81,0,0,0-1.07-.75,4,4,0,0,0-2.85,0,2.77,2.77,0,0,0-1.08.75,3.37,3.37,0,0,0-.69,1.2,5.65,5.65,0,0,0,0,3.19,3.37,3.37,0,0,0,.69,1.2,3,3,0,0,0,1.08.75,4,4,0,0,0,2.85,0,3,3,0,0,0,1.07-.75,3.51,3.51,0,0,0,.68-1.2A5.21,5.21,0,0,0,323.22,130.64Z"/><path d="M332.53,132.05l.21.52c.07-.18.14-.35.22-.53a4.59,4.59,0,0,1,.24-.5l3.2-6a.7.7,0,0,1,.12-.18.33.33,0,0,1,.14-.1l.18,0h1.74V136h-1.77v-7c0-.13,0-.27,0-.43a3.83,3.83,0,0,1,0-.47l-3.27,6.13a.85.85,0,0,1-.29.33.82.82,0,0,1-.42.11h-.27a.82.82,0,0,1-.42-.11.85.85,0,0,1-.29-.33l-3.31-6.15c0,.17,0,.33,0,.48s0,.31,0,.44v7h-1.77V125.23h1.75l.17,0a.36.36,0,0,1,.15.1.7.7,0,0,1,.13.18l3.22,6A3.71,3.71,0,0,1,332.53,132.05Z"/><path d="M344.57,134.66h2.19v-6.3c0-.25,0-.5,0-.77l-1.55,1.3a.66.66,0,0,1-.2.11.69.69,0,0,1-.2,0,.6.6,0,0,1-.27-.06.55.55,0,0,1-.18-.15l-.59-.8,3.3-2.8h1.52v9.44h1.94V136h-6Z"/><rect class="cls-15" x="265.12" y="45.05" width="113.43" height="171.8"/><rect class="cls-16" x="389.54" y="56.25" width="98.66" height="161.13"/><path d="M409.05,131.82V136h-2V125.23h3.3a7,7,0,0,1,1.89.23,3.54,3.54,0,0,1,1.29.64,2.35,2.35,0,0,1,.74,1,3.22,3.22,0,0,1,.24,1.26,3.42,3.42,0,0,1-.16,1,2.92,2.92,0,0,1-.47.89,3.26,3.26,0,0,1-.74.69,4,4,0,0,1-1,.48,1.85,1.85,0,0,1,.66.62l2.71,4h-1.81a.91.91,0,0,1-.45-.11.85.85,0,0,1-.31-.29l-2.27-3.46a.75.75,0,0,0-.28-.28.91.91,0,0,0-.45-.08Zm0-1.45h1.26a3,3,0,0,0,1-.14,1.78,1.78,0,0,0,.69-.39,1.61,1.61,0,0,0,.41-.59,2.06,2.06,0,0,0,.13-.76,1.52,1.52,0,0,0-.54-1.26,2.6,2.6,0,0,0-1.65-.44h-1.29Z"/><path d="M426.77,130.64a5.89,5.89,0,0,1-.4,2.2,5.13,5.13,0,0,1-1.11,1.75,5,5,0,0,1-1.73,1.15,6.16,6.16,0,0,1-4.47,0,5,5,0,0,1-1.73-1.15,5.15,5.15,0,0,1-1.12-1.75,5.89,5.89,0,0,1-.4-2.2,5.82,5.82,0,0,1,.4-2.2,5.19,5.19,0,0,1,1.12-1.76,5.09,5.09,0,0,1,1.73-1.15,6.16,6.16,0,0,1,4.47,0,5.21,5.21,0,0,1,1.73,1.16,5,5,0,0,1,1.11,1.75A5.82,5.82,0,0,1,426.77,130.64Zm-2.07,0a5,5,0,0,0-.23-1.6,3.36,3.36,0,0,0-.68-1.2,2.81,2.81,0,0,0-1.07-.75,3.56,3.56,0,0,0-1.42-.26,3.61,3.61,0,0,0-1.43.26,2.92,2.92,0,0,0-1.08.75,3.36,3.36,0,0,0-.68,1.2,5.42,5.42,0,0,0,0,3.19,3.36,3.36,0,0,0,.68,1.2,3.18,3.18,0,0,0,1.08.75,3.8,3.8,0,0,0,1.43.26,3.74,3.74,0,0,0,1.42-.26,3,3,0,0,0,1.07-.75,3.36,3.36,0,0,0,.68-1.2A4.92,4.92,0,0,0,424.7,130.64Z"/><path d="M438.72,130.64a6.1,6.1,0,0,1-.4,2.2,5.28,5.28,0,0,1-1.11,1.75,5,5,0,0,1-1.73,1.15,6.16,6.16,0,0,1-4.47,0,5,5,0,0,1-1.74-1.15,5.13,5.13,0,0,1-1.11-1.75,5.89,5.89,0,0,1-.4-2.2,5.82,5.82,0,0,1,.4-2.2,4.95,4.95,0,0,1,2.85-2.91,6.16,6.16,0,0,1,4.47,0,5,5,0,0,1,2.84,2.91A6,6,0,0,1,438.72,130.64Zm-2.07,0a5.23,5.23,0,0,0-.23-1.6,3.51,3.51,0,0,0-.68-1.2,2.81,2.81,0,0,0-1.07-.75,4,4,0,0,0-2.85,0,2.84,2.84,0,0,0-1.08.75,3.37,3.37,0,0,0-.69,1.2,5.65,5.65,0,0,0,0,3.19,3.37,3.37,0,0,0,.69,1.2,3.08,3.08,0,0,0,1.08.75,4,4,0,0,0,2.85,0,3,3,0,0,0,1.07-.75,3.51,3.51,0,0,0,.68-1.2A5.21,5.21,0,0,0,436.65,130.64Z"/><path d="M446,132.05l.21.52c.07-.18.14-.35.22-.53a4.59,4.59,0,0,1,.24-.5l3.2-6a.7.7,0,0,1,.12-.18.33.33,0,0,1,.14-.1l.18,0H452V136h-1.78v-7c0-.13,0-.27,0-.43s0-.31,0-.47L447,134.29a.85.85,0,0,1-.29.33.82.82,0,0,1-.42.11H446a.82.82,0,0,1-.42-.11.85.85,0,0,1-.29-.33L442,128.14c0,.17,0,.33,0,.48s0,.31,0,.44v7H440.3V125.23h1.75l.17,0a.36.36,0,0,1,.15.1.7.7,0,0,1,.13.18l3.22,6A3.71,3.71,0,0,1,446,132.05Z"/><path d="M460.49,125.11a4.28,4.28,0,0,1,1.37.22,3.21,3.21,0,0,1,1.06.63,3,3,0,0,1,.69,1,3.22,3.22,0,0,1,.24,1.26,3.59,3.59,0,0,1-.17,1.11,4.61,4.61,0,0,1-.48,1,5.68,5.68,0,0,1-.69.9c-.26.29-.54.58-.83.88l-2.43,2.49a4.68,4.68,0,0,1,.7-.16,3.85,3.85,0,0,1,.66-.06h2.77a.69.69,0,0,1,.48.17.6.6,0,0,1,.17.44V136h-7.41v-.61a.91.91,0,0,1,.08-.39,1,1,0,0,1,.25-.38l3.28-3.28c.27-.28.52-.55.73-.8a5.77,5.77,0,0,0,.55-.76,3.41,3.41,0,0,0,.34-.76,3,3,0,0,0,.11-.81,2,2,0,0,0-.11-.68,1.43,1.43,0,0,0-.32-.5,1.48,1.48,0,0,0-.5-.3,1.89,1.89,0,0,0-.65-.1,1.64,1.64,0,0,0-1.69,1.24.82.82,0,0,1-.25.41.7.7,0,0,1-.42.12l-.24,0-1-.18a3.81,3.81,0,0,1,.43-1.36,3.22,3.22,0,0,1,.8-1,3.29,3.29,0,0,1,1.11-.59A4.43,4.43,0,0,1,460.49,125.11Z"/><rect class="cls-15" x="378.55" y="45.05" width="113.43" height="171.8"/><rect class="cls-17" x="499.19" y="56.25" width="100.9" height="161.13"/><path d="M518.7,131.82V136h-2V125.23H520a7,7,0,0,1,1.9.23,3.71,3.71,0,0,1,1.29.64,2.53,2.53,0,0,1,.74,1,3.21,3.21,0,0,1,.23,1.26,3.13,3.13,0,0,1-.16,1,2.9,2.9,0,0,1-.46.89,3.11,3.11,0,0,1-.75.69,3.78,3.78,0,0,1-1,.48,2,2,0,0,1,.66.62l2.7,4h-1.81a.87.87,0,0,1-.44-.11.78.78,0,0,1-.31-.29l-2.27-3.46a.83.83,0,0,0-.28-.28,1,1,0,0,0-.45-.08Zm0-1.45H520a3,3,0,0,0,1-.14,1.9,1.9,0,0,0,.7-.39,1.59,1.59,0,0,0,.4-.59,2.06,2.06,0,0,0,.14-.76,1.52,1.52,0,0,0-.54-1.26,2.63,2.63,0,0,0-1.66-.44H518.7Z"/><path d="M536.41,130.64a6.1,6.1,0,0,1-.39,2.2,5.3,5.3,0,0,1-1.12,1.75,4.91,4.91,0,0,1-1.72,1.15,6.18,6.18,0,0,1-4.48,0,5,5,0,0,1-1.73-1.15,5.3,5.3,0,0,1-1.12-1.75,6.1,6.1,0,0,1-.39-2.2,6,6,0,0,1,.39-2.2,5.35,5.35,0,0,1,1.12-1.76,5.19,5.19,0,0,1,1.73-1.15,6.18,6.18,0,0,1,4.48,0,5.07,5.07,0,0,1,1.72,1.16,5.2,5.2,0,0,1,1.12,1.75A6,6,0,0,1,536.41,130.64Zm-2.06,0a4.94,4.94,0,0,0-.24-1.6,3.34,3.34,0,0,0-.67-1.2,2.81,2.81,0,0,0-1.07-.75,3.61,3.61,0,0,0-1.43-.26,3.56,3.56,0,0,0-1.42.26,2.77,2.77,0,0,0-1.08.75,3.37,3.37,0,0,0-.69,1.2,5.42,5.42,0,0,0,0,3.19,3.37,3.37,0,0,0,.69,1.2,3,3,0,0,0,1.08.75,3.74,3.74,0,0,0,1.42.26,3.8,3.8,0,0,0,1.43-.26,3,3,0,0,0,1.07-.75,3.34,3.34,0,0,0,.67-1.2A4.92,4.92,0,0,0,534.35,130.64Z"/><path d="M548.36,130.64a5.89,5.89,0,0,1-.4,2.2,5.13,5.13,0,0,1-1.11,1.75,5,5,0,0,1-1.73,1.15,5.72,5.72,0,0,1-2.23.42,5.8,5.8,0,0,1-2.24-.42,5,5,0,0,1-1.73-1.15,5.3,5.3,0,0,1-1.12-1.75,6.1,6.1,0,0,1-.39-2.2,6,6,0,0,1,.39-2.2,5.35,5.35,0,0,1,1.12-1.76,5.19,5.19,0,0,1,1.73-1.15,5.8,5.8,0,0,1,2.24-.42,5.72,5.72,0,0,1,2.23.42,5.11,5.11,0,0,1,1.73,1.16,5,5,0,0,1,1.11,1.75A5.82,5.82,0,0,1,548.36,130.64Zm-2.06,0a4.94,4.94,0,0,0-.24-1.6,3.34,3.34,0,0,0-.67-1.2,2.84,2.84,0,0,0-1.08-.75,3.56,3.56,0,0,0-1.42-.26,3.64,3.64,0,0,0-1.43.26,2.92,2.92,0,0,0-1.08.75,3.51,3.51,0,0,0-.68,1.2,5.42,5.42,0,0,0,0,3.19,3.51,3.51,0,0,0,.68,1.2,3.18,3.18,0,0,0,1.08.75,3.83,3.83,0,0,0,1.43.26,3.74,3.74,0,0,0,1.42-.26,3.08,3.08,0,0,0,1.08-.75,3.34,3.34,0,0,0,.67-1.2A4.92,4.92,0,0,0,546.3,130.64Z"/><path d="M555.61,132.05l.21.52L556,132l.24-.5,3.2-6a.52.52,0,0,1,.13-.18.33.33,0,0,1,.14-.1l.17,0h1.75V136h-1.77v-7c0-.13,0-.27,0-.43s0-.31,0-.47l-3.27,6.13a.85.85,0,0,1-.29.33.82.82,0,0,1-.42.11h-.28a.76.76,0,0,1-.41-.11,1,1,0,0,1-.3-.33l-3.31-6.15a4.23,4.23,0,0,1,0,.48c0,.16,0,.31,0,.44v7h-1.78V125.23h1.75l.18,0a.33.33,0,0,1,.14.1.52.52,0,0,1,.13.18l3.23,6C555.45,131.71,555.53,131.88,555.61,132.05Z"/><path d="M570.31,125.11a4,4,0,0,1,1.34.22,3,3,0,0,1,1,.59,2.58,2.58,0,0,1,.66.88,2.7,2.7,0,0,1,.22,1.1,3.15,3.15,0,0,1-.11.91,2.07,2.07,0,0,1-.34.68,1.85,1.85,0,0,1-.54.5,3.41,3.41,0,0,1-.72.33,2.85,2.85,0,0,1,1.45.94,2.51,2.51,0,0,1,.48,1.57,3.23,3.23,0,0,1-.3,1.43,3.08,3.08,0,0,1-.81,1,3.41,3.41,0,0,1-1.17.64,4.44,4.44,0,0,1-1.42.22,4.69,4.69,0,0,1-1.42-.19,3.09,3.09,0,0,1-1-.55,3.34,3.34,0,0,1-.76-.9,6,6,0,0,1-.54-1.22l.81-.34a1.07,1.07,0,0,1,.43-.09.82.82,0,0,1,.35.08.59.59,0,0,1,.23.24,5.39,5.39,0,0,0,.3.52,1.82,1.82,0,0,0,.38.45,1.87,1.87,0,0,0,.53.32,1.94,1.94,0,0,0,.72.12,2.07,2.07,0,0,0,.82-.15,1.67,1.67,0,0,0,.59-.4,1.77,1.77,0,0,0,.35-.55,1.62,1.62,0,0,0,.12-.61,2.53,2.53,0,0,0-.09-.7,1,1,0,0,0-.34-.54,2,2,0,0,0-.75-.36,5.78,5.78,0,0,0-1.31-.12v-1.33a4.35,4.35,0,0,0,1.12-.12,1.85,1.85,0,0,0,.72-.33,1.09,1.09,0,0,0,.37-.51,2,2,0,0,0,.1-.66,1.55,1.55,0,0,0-.41-1.16,1.62,1.62,0,0,0-1.15-.39,1.64,1.64,0,0,0-1.09.35,1.73,1.73,0,0,0-.6.89.81.81,0,0,1-.25.4.61.61,0,0,1-.41.13l-.26,0-1-.17a4,4,0,0,1,.44-1.37,3.22,3.22,0,0,1,.8-1,3.47,3.47,0,0,1,1.11-.59A4.43,4.43,0,0,1,570.31,125.11Z"/><rect class="cls-15" x="488.2" y="45.05" width="113.43" height="171.8"/><circle class="cls-18" cx="289.44" cy="357.45" r="17.55"/><circle class="cls-18" cx="266.84" cy="326.49" r="17.55"/><circle class="cls-18" cx="558.27" cy="357.45" r="17.55"/><circle class="cls-18" cx="580.87" cy="326.49" r="17.55"/><path d="M269,334.58a6.1,6.1,0,0,1-.39,2.2,5.2,5.2,0,0,1-1.12,1.75,5,5,0,0,1-1.72,1.16,6.32,6.32,0,0,1-4.48,0,5.07,5.07,0,0,1-1.73-1.16,5.2,5.2,0,0,1-1.12-1.75,6.4,6.4,0,0,1,0-4.4,5.2,5.2,0,0,1,1.12-1.75,5.07,5.07,0,0,1,1.73-1.16,6,6,0,0,1,2.24-.41,5.8,5.8,0,0,1,2.24.42,5,5,0,0,1,1.72,1.15,5.2,5.2,0,0,1,1.12,1.75A6.06,6.06,0,0,1,269,334.58Zm-2.06,0a5,5,0,0,0-.24-1.6,3.34,3.34,0,0,0-.67-1.2A3,3,0,0,0,265,331a4.06,4.06,0,0,0-2.86,0,2.92,2.92,0,0,0-1.07.75,3.37,3.37,0,0,0-.69,1.2,5,5,0,0,0-.24,1.6,4.92,4.92,0,0,0,.24,1.59,3.29,3.29,0,0,0,.69,1.2,2.81,2.81,0,0,0,1.07.75,4.06,4.06,0,0,0,2.86,0,2.88,2.88,0,0,0,1.07-.75,3.26,3.26,0,0,0,.67-1.2A4.92,4.92,0,0,0,267,334.58Z"/><path d="M272.68,336.18V340h-2v-10.8h3.52a6.2,6.2,0,0,1,1.88.25,3.73,3.73,0,0,1,1.31.71,2.87,2.87,0,0,1,.76,1.09,3.94,3.94,0,0,1,.24,1.39,3.73,3.73,0,0,1-.26,1.44,2.84,2.84,0,0,1-.78,1.12,3.7,3.7,0,0,1-1.31.74,5.92,5.92,0,0,1-1.84.26Zm0-1.57h1.51a3.15,3.15,0,0,0,1-.14,1.81,1.81,0,0,0,.68-.39,1.74,1.74,0,0,0,.4-.63,2.45,2.45,0,0,0,.13-.83,2.13,2.13,0,0,0-.13-.78,1.48,1.48,0,0,0-.4-.6,1.94,1.94,0,0,0-.68-.38,3.16,3.16,0,0,0-1-.13h-1.51Z"/><path d="M286.76,329.18v1.6H282v3h3.77v1.55H282v3.06h4.79V340H280v-10.8Z"/><path d="M289.78,329.19l.16,0a.61.61,0,0,1,.14.1l.15.17,5.67,7.22a4.38,4.38,0,0,1,0-.51c0-.16,0-.32,0-.47v-6.56h1.77V340h-1a1,1,0,0,1-.4-.07.92.92,0,0,1-.3-.27l-5.65-7.2,0,.48c0,.15,0,.3,0,.43V340H288.5v-10.8h1.28Z"/><path d="M262.52,345.29a.57.57,0,0,1-.19.23.46.46,0,0,1-.26.07.74.74,0,0,1-.34-.11c-.12-.08-.27-.17-.44-.26a3.6,3.6,0,0,0-.59-.26,2.47,2.47,0,0,0-.81-.12,2.5,2.5,0,0,0-.72.1,1.57,1.57,0,0,0-.53.28,1.34,1.34,0,0,0-.32.43,1.63,1.63,0,0,0-.1.55,1,1,0,0,0,.21.64,1.82,1.82,0,0,0,.57.43,4.6,4.6,0,0,0,.8.32l.91.31a8,8,0,0,1,.92.37,3.13,3.13,0,0,1,.8.54,2.4,2.4,0,0,1,.56.79,2.85,2.85,0,0,1,.21,1.15,3.66,3.66,0,0,1-.25,1.37,3.15,3.15,0,0,1-.73,1.11A3.32,3.32,0,0,1,261,354a4.34,4.34,0,0,1-1.59.27,5.19,5.19,0,0,1-2-.39,4.13,4.13,0,0,1-.86-.45,3.73,3.73,0,0,1-.72-.58l.59-1a.7.7,0,0,1,.2-.18.43.43,0,0,1,.25-.07.74.74,0,0,1,.41.15,5,5,0,0,0,.51.34,3.7,3.7,0,0,0,.69.34,2.54,2.54,0,0,0,1,.16,2,2,0,0,0,1.33-.41,1.44,1.44,0,0,0,.47-1.17,1.12,1.12,0,0,0-.21-.7,1.82,1.82,0,0,0-.56-.45,4.94,4.94,0,0,0-.8-.31c-.3-.08-.61-.17-.91-.27a8,8,0,0,1-.92-.36,2.93,2.93,0,0,1-.8-.55,2.43,2.43,0,0,1-.56-.84,3.21,3.21,0,0,1-.21-1.24,3,3,0,0,1,.23-1.15,3,3,0,0,1,.69-1,3.27,3.27,0,0,1,1.11-.69,3.93,3.93,0,0,1,1.5-.26,5.06,5.06,0,0,1,1.77.3,4,4,0,0,1,1.37.83Z"/><path d="M266.82,350.33v3.8h-2v-10.8h3.52a6.2,6.2,0,0,1,1.88.25,3.68,3.68,0,0,1,1.3.71,2.79,2.79,0,0,1,.77,1.09,3.94,3.94,0,0,1,.24,1.39,3.76,3.76,0,0,1-.26,1.44,2.94,2.94,0,0,1-.78,1.12,3.7,3.7,0,0,1-1.31.74,6,6,0,0,1-1.84.26Zm0-1.57h1.51a3,3,0,0,0,1-.14,1.7,1.7,0,0,0,1.09-1,2.41,2.41,0,0,0,.13-.83,2.13,2.13,0,0,0-.13-.78,1.5,1.5,0,0,0-.41-.6,1.72,1.72,0,0,0-.68-.38,3.05,3.05,0,0,0-1-.13h-1.51Z"/><path d="M282.42,354.13h-1.55a.65.65,0,0,1-.43-.13.73.73,0,0,1-.24-.33l-.81-2.2h-4.48l-.8,2.2a.66.66,0,0,1-.24.32.69.69,0,0,1-.43.14h-1.56l4.24-10.8h2.06Zm-7-4.08h3.44l-1.31-3.59c-.06-.16-.13-.35-.2-.57s-.14-.45-.21-.7c-.07.25-.14.49-.21.71s-.13.41-.2.57Z"/><path d="M290.58,351.58a.41.41,0,0,1,.29.13l.79.86a4.42,4.42,0,0,1-1.62,1.25,6.16,6.16,0,0,1-4.47,0,4.88,4.88,0,0,1-1.64-1.14,5,5,0,0,1-1-1.75,6.63,6.63,0,0,1-.36-2.22,5.94,5.94,0,0,1,.4-2.23,5.1,5.1,0,0,1,1.14-1.75,5.25,5.25,0,0,1,1.75-1.14,6,6,0,0,1,2.25-.4,5.33,5.33,0,0,1,2.11.38,5,5,0,0,1,1.54,1l-.67.94a.57.57,0,0,1-.16.15.39.39,0,0,1-.25.07.59.59,0,0,1-.36-.13l-.45-.3a4.36,4.36,0,0,0-.7-.29,3.59,3.59,0,0,0-1.07-.13,3.71,3.71,0,0,0-1.4.26,3.06,3.06,0,0,0-1.1.76,3.43,3.43,0,0,0-.72,1.2,4.65,4.65,0,0,0-.26,1.59,4.75,4.75,0,0,0,.26,1.62,3.55,3.55,0,0,0,.7,1.2,3,3,0,0,0,1,.74,3.22,3.22,0,0,0,1.28.26,5.66,5.66,0,0,0,.75-.05,3.64,3.64,0,0,0,.61-.14,2.57,2.57,0,0,0,.53-.25,3.31,3.31,0,0,0,.5-.38l.15-.11A.58.58,0,0,1,290.58,351.58Z"/><path d="M300,343.33v1.59H295.2v3H299v1.55H295.2v3H300v1.61h-6.81v-10.8Z"/><path d="M560.45,334.58a6.1,6.1,0,0,1-.39,2.2,5.2,5.2,0,0,1-1.12,1.75,4.93,4.93,0,0,1-1.72,1.16,6.3,6.3,0,0,1-4.47,0,5,5,0,0,1-2.85-2.91,6.25,6.25,0,0,1,0-4.4,5,5,0,0,1,2.85-2.91,5.94,5.94,0,0,1,2.23-.41,5.77,5.77,0,0,1,2.24.42,4.91,4.91,0,0,1,1.72,1.15,5.2,5.2,0,0,1,1.12,1.75A6.06,6.06,0,0,1,560.45,334.58Zm-2.06,0a5.28,5.28,0,0,0-.23-1.6,3.51,3.51,0,0,0-.68-1.2,2.92,2.92,0,0,0-1.07-.75,4,4,0,0,0-2.85,0,2.88,2.88,0,0,0-1.08.75,3.37,3.37,0,0,0-.69,1.2,5,5,0,0,0-.24,1.6,4.92,4.92,0,0,0,.24,1.59,3.29,3.29,0,0,0,.69,1.2,2.77,2.77,0,0,0,1.08.75,4,4,0,0,0,2.85,0,2.81,2.81,0,0,0,1.07-.75,3.42,3.42,0,0,0,.68-1.2A5.21,5.21,0,0,0,558.39,334.58Z"/><path d="M564.11,336.18V340h-2v-10.8h3.51a6.16,6.16,0,0,1,1.88.25,3.73,3.73,0,0,1,1.31.71,2.76,2.76,0,0,1,.76,1.09,4.05,4.05,0,0,1,0,2.83,3,3,0,0,1-.79,1.12,3.62,3.62,0,0,1-1.31.74,5.92,5.92,0,0,1-1.84.26Zm0-1.57h1.51a3.1,3.1,0,0,0,1-.14,1.81,1.81,0,0,0,.68-.39,1.74,1.74,0,0,0,.4-.63,2.45,2.45,0,0,0,.14-.83,2.13,2.13,0,0,0-.14-.78,1.48,1.48,0,0,0-.4-.6,1.94,1.94,0,0,0-.68-.38,3.12,3.12,0,0,0-1-.13h-1.51Z"/><path d="M578.19,329.18v1.6H573.4v3h3.78v1.55H573.4v3.06h4.79V340h-6.81v-10.8Z"/><path d="M581.21,329.19l.16,0a.45.45,0,0,1,.14.1.86.86,0,0,1,.15.17l5.67,7.22c0-.17,0-.34,0-.51s0-.32,0-.47v-6.56h1.77V340h-1a1,1,0,0,1-.4-.07.92.92,0,0,1-.3-.27l-5.65-7.2c0,.16,0,.32,0,.48s0,.3,0,.43V340h-1.77v-10.8h1.28Z"/><path d="M554,345.29a.57.57,0,0,1-.19.23.44.44,0,0,1-.26.07.74.74,0,0,1-.34-.11c-.12-.08-.27-.17-.44-.26a3.26,3.26,0,0,0-.59-.26,2.41,2.41,0,0,0-.8-.12,2.57,2.57,0,0,0-.73.1,1.67,1.67,0,0,0-.53.28,1.18,1.18,0,0,0-.31.43,1.42,1.42,0,0,0-.11.55.92.92,0,0,0,.22.64,1.77,1.77,0,0,0,.56.43,4.6,4.6,0,0,0,.8.32l.91.31a7.36,7.36,0,0,1,.92.37,3,3,0,0,1,.8.54,2.4,2.4,0,0,1,.56.79,2.68,2.68,0,0,1,.22,1.15,3.87,3.87,0,0,1-.25,1.37,3.18,3.18,0,0,1-.74,1.11,3.36,3.36,0,0,1-1.17.75,4.42,4.42,0,0,1-1.59.27,4.9,4.9,0,0,1-1-.1,5.31,5.31,0,0,1-1-.29,4.39,4.39,0,0,1-.86-.45,3.67,3.67,0,0,1-.71-.58l.58-1a.7.7,0,0,1,.2-.18.43.43,0,0,1,.25-.07.74.74,0,0,1,.41.15,5,5,0,0,0,.51.34,3.51,3.51,0,0,0,.7.34,2.45,2.45,0,0,0,1,.16,2,2,0,0,0,1.34-.41,1.47,1.47,0,0,0,.47-1.17,1.07,1.07,0,0,0-.22-.7,1.82,1.82,0,0,0-.56-.45,4.61,4.61,0,0,0-.8-.31l-.91-.27a7.82,7.82,0,0,1-.91-.36,2.78,2.78,0,0,1-.8-.55,2.31,2.31,0,0,1-.57-.84,3.21,3.21,0,0,1-.21-1.24,2.86,2.86,0,0,1,.24-1.15,2.82,2.82,0,0,1,.68-1,3.27,3.27,0,0,1,1.11-.69,3.93,3.93,0,0,1,1.5-.26,5.06,5.06,0,0,1,1.77.3,3.93,3.93,0,0,1,1.37.83Z"/><path d="M558.25,350.33v3.8h-2v-10.8h3.52a6.16,6.16,0,0,1,1.88.25,3.73,3.73,0,0,1,1.31.71,2.87,2.87,0,0,1,.76,1.09,3.94,3.94,0,0,1,.24,1.39,3.76,3.76,0,0,1-.26,1.44,2.84,2.84,0,0,1-.78,1.12,3.7,3.7,0,0,1-1.31.74,6,6,0,0,1-1.84.26Zm0-1.57h1.51a3.15,3.15,0,0,0,1-.14,1.71,1.71,0,0,0,.68-.4,1.62,1.62,0,0,0,.4-.62,2.41,2.41,0,0,0,.13-.83,2.13,2.13,0,0,0-.13-.78,1.48,1.48,0,0,0-.4-.6,1.8,1.8,0,0,0-.68-.38,3.16,3.16,0,0,0-1-.13h-1.51Z"/><path d="M573.86,354.13H572.3a.67.67,0,0,1-.43-.13.73.73,0,0,1-.24-.33l-.81-2.2h-4.47l-.81,2.2a.66.66,0,0,1-.24.32.67.67,0,0,1-.43.14h-1.56l4.25-10.8h2.05Zm-7-4.08h3.45L569,346.46c-.06-.16-.13-.35-.2-.57s-.14-.45-.21-.7c-.07.25-.14.49-.21.71s-.13.41-.19.57Z"/><path d="M582,351.58a.41.41,0,0,1,.29.13l.79.86a4.42,4.42,0,0,1-1.62,1.25,6.16,6.16,0,0,1-4.47,0,4.88,4.88,0,0,1-1.64-1.14,5,5,0,0,1-1-1.75,6.63,6.63,0,0,1-.36-2.22,5.94,5.94,0,0,1,.4-2.23,5.1,5.1,0,0,1,1.14-1.75,5.25,5.25,0,0,1,1.75-1.14,6,6,0,0,1,2.25-.4,5.27,5.27,0,0,1,2.11.38,5,5,0,0,1,1.54,1l-.67.94a.46.46,0,0,1-.16.15.37.37,0,0,1-.25.07.56.56,0,0,1-.35-.13c-.12-.09-.28-.19-.46-.3a4,4,0,0,0-.7-.29,3.59,3.59,0,0,0-1.07-.13,3.71,3.71,0,0,0-1.4.26,3.15,3.15,0,0,0-1.1.76,3.43,3.43,0,0,0-.72,1.2,4.65,4.65,0,0,0-.26,1.59,4.75,4.75,0,0,0,.26,1.62,3.72,3.72,0,0,0,.7,1.2,3,3,0,0,0,1,.74,3.25,3.25,0,0,0,1.28.26,5.54,5.54,0,0,0,.75-.05,3.64,3.64,0,0,0,.61-.14,2.57,2.57,0,0,0,.53-.25,3.31,3.31,0,0,0,.5-.38.91.91,0,0,1,.16-.11A.47.47,0,0,1,582,351.58Z"/><path d="M591.42,343.33v1.59h-4.79v3h3.78v1.55h-3.78v3h4.79v1.61h-6.81v-10.8Z"/><rect class="cls-19" x="456.06" y="523.15" width="155.05" height="23.84"/><path d="M483.31,536.35v4.22h-2v-10.8h3.29a7,7,0,0,1,1.9.22,3.89,3.89,0,0,1,1.29.64,2.46,2.46,0,0,1,.74,1,3.2,3.2,0,0,1,.24,1.25,3.54,3.54,0,0,1-.16,1,3.06,3.06,0,0,1-1.21,1.57,4,4,0,0,1-1,.48,2,2,0,0,1,.66.62l2.71,4h-1.81a.88.88,0,0,1-.45-.1,1,1,0,0,1-.31-.3l-2.27-3.46a.83.83,0,0,0-.28-.28,1,1,0,0,0-.45-.08Zm0-1.44h1.25a3.24,3.24,0,0,0,1-.14,1.89,1.89,0,0,0,.7-.4,1.53,1.53,0,0,0,.41-.59,2.06,2.06,0,0,0,.13-.76,1.55,1.55,0,0,0-.54-1.26,2.61,2.61,0,0,0-1.66-.44h-1.28Z"/><path d="M497.84,529.77v1.6h-4.79v3h3.77v1.55h-3.77V539h4.79v1.61H491v-10.8Z"/><path d="M504.54,539.09a5.1,5.1,0,0,0,1.18-.12,5,5,0,0,0,1-.34v-2h-1.35a.41.41,0,0,1-.31-.11.36.36,0,0,1-.11-.26v-1.14h3.6v4.38a6.27,6.27,0,0,1-.86.51,5.68,5.68,0,0,1-.95.37,8.61,8.61,0,0,1-1.08.21,9.64,9.64,0,0,1-1.24.07,5.67,5.67,0,0,1-2.17-.41,5.07,5.07,0,0,1-2.85-2.89,5.77,5.77,0,0,1-.41-2.22,6.24,6.24,0,0,1,.39-2.24,5,5,0,0,1,1.13-1.74,4.91,4.91,0,0,1,1.77-1.14,6.36,6.36,0,0,1,2.33-.4,6.13,6.13,0,0,1,2.29.39,5.3,5.3,0,0,1,1.64,1l-.59.91a.5.5,0,0,1-.45.28.7.7,0,0,1-.37-.12l-.49-.29a3.5,3.5,0,0,0-.55-.24,4,4,0,0,0-.68-.17,4.51,4.51,0,0,0-.87-.07,3.78,3.78,0,0,0-1.45.27,3,3,0,0,0-1.1.77,3.39,3.39,0,0,0-.7,1.2,4.83,4.83,0,0,0-.25,1.57,4.74,4.74,0,0,0,.27,1.66,3.27,3.27,0,0,0,.73,1.23,3.16,3.16,0,0,0,1.12.77A3.86,3.86,0,0,0,504.54,539.09Z"/><path d="M512.65,540.57h-2v-10.8h2Z"/><path d="M520.86,531.73a.45.45,0,0,1-.19.23.41.41,0,0,1-.25.07.64.64,0,0,1-.34-.12l-.44-.25a3.38,3.38,0,0,0-.6-.26,2.36,2.36,0,0,0-.8-.12,2.63,2.63,0,0,0-.73.1,1.62,1.62,0,0,0-.52.28,1.21,1.21,0,0,0-.32.43,1.42,1.42,0,0,0-.1.55,1,1,0,0,0,.21.64,1.77,1.77,0,0,0,.56.43,5.33,5.33,0,0,0,.8.32l.92.31a8,8,0,0,1,.92.37,3.07,3.07,0,0,1,.79.54,2.29,2.29,0,0,1,.57.79,2.85,2.85,0,0,1,.21,1.15,3.7,3.7,0,0,1-.25,1.37,3.25,3.25,0,0,1-1.91,1.86,4.34,4.34,0,0,1-1.59.27,5,5,0,0,1-1-.1,5.31,5.31,0,0,1-1-.29,4.69,4.69,0,0,1-.86-.45,4,4,0,0,1-.71-.58l.58-1a.86.86,0,0,1,.2-.18.46.46,0,0,1,.26-.07.71.71,0,0,1,.4.15c.15.11.32.22.52.34a3.17,3.17,0,0,0,.69.34,2.54,2.54,0,0,0,1,.16,2,2,0,0,0,1.33-.41,1.47,1.47,0,0,0,.47-1.17,1.07,1.07,0,0,0-.21-.69,1.77,1.77,0,0,0-.57-.46,4.61,4.61,0,0,0-.8-.31l-.91-.27a7.82,7.82,0,0,1-.91-.36,2.93,2.93,0,0,1-.8-.55,2.43,2.43,0,0,1-.56-.84,3.2,3.2,0,0,1-.22-1.24,2.86,2.86,0,0,1,.24-1.15,3,3,0,0,1,.69-1,3.27,3.27,0,0,1,1.11-.69,3.93,3.93,0,0,1,1.5-.26,5,5,0,0,1,1.76.3,4,4,0,0,1,1.38.83Z"/><path d="M530.7,529.77v1.65h-3.25v9.15h-2v-9.15h-3.26v-1.65Z"/><path d="M534.06,536.35v4.22h-2v-10.8h3.3a7,7,0,0,1,1.89.22,3.8,3.8,0,0,1,1.29.64,2.46,2.46,0,0,1,.74,1,3.2,3.2,0,0,1,.24,1.25,3.54,3.54,0,0,1-.16,1,3.06,3.06,0,0,1-1.21,1.57,4,4,0,0,1-1,.48,2,2,0,0,1,.66.62l2.71,4h-1.81a.91.91,0,0,1-.45-.1,1,1,0,0,1-.31-.3l-2.27-3.46a.83.83,0,0,0-.28-.28,1,1,0,0,0-.45-.08Zm0-1.44h1.26a3.33,3.33,0,0,0,1-.14,1.93,1.93,0,0,0,.69-.4,1.53,1.53,0,0,0,.41-.59,2.06,2.06,0,0,0,.13-.76,1.55,1.55,0,0,0-.54-1.26,2.6,2.6,0,0,0-1.65-.44h-1.29Z"/><path d="M551.27,540.57h-1.56a.69.69,0,0,1-.43-.13.82.82,0,0,1-.24-.32l-.81-2.21h-4.47l-.81,2.21a.81.81,0,0,1-.23.31.69.69,0,0,1-.43.14h-1.56l4.24-10.8h2Zm-7-4.08h3.45l-1.32-3.59c-.06-.16-.12-.35-.19-.57s-.15-.45-.22-.7l-.2.71c-.07.22-.14.41-.2.57Z"/><path d="M558.9,529.77v1.65h-3.25v9.15h-2v-9.15h-3.27v-1.65Z"/><path d="M562.44,540.57h-2v-10.8h2Z"/><path d="M575.23,535.17a6.1,6.1,0,0,1-.39,2.2,5.3,5.3,0,0,1-1.12,1.75,5,5,0,0,1-1.72,1.16,6.32,6.32,0,0,1-4.48,0,5.07,5.07,0,0,1-1.73-1.16,5.3,5.3,0,0,1-1.12-1.75,6.4,6.4,0,0,1,0-4.4,5.2,5.2,0,0,1,1.12-1.75,5.07,5.07,0,0,1,1.73-1.16,6.25,6.25,0,0,1,4.48,0,5,5,0,0,1,1.72,1.15,5.2,5.2,0,0,1,1.12,1.75A6.06,6.06,0,0,1,575.23,535.17Zm-2.06,0a5,5,0,0,0-.24-1.6,3.34,3.34,0,0,0-.67-1.2,3,3,0,0,0-1.07-.75,4.06,4.06,0,0,0-2.86,0,3,3,0,0,0-1.08.75,3.51,3.51,0,0,0-.68,1.2,5,5,0,0,0-.24,1.6,4.92,4.92,0,0,0,.24,1.59,3.42,3.42,0,0,0,.68,1.2,2.92,2.92,0,0,0,1.08.75,4.06,4.06,0,0,0,2.86,0,2.88,2.88,0,0,0,1.07-.75,3.26,3.26,0,0,0,.67-1.2A4.92,4.92,0,0,0,573.17,535.17Z"/><path d="M578.09,529.78a.38.38,0,0,1,.16,0,.45.45,0,0,1,.14.1.86.86,0,0,1,.15.17l5.67,7.22c0-.17,0-.34,0-.51s0-.32,0-.47v-6.56h1.77v10.8h-1a.88.88,0,0,1-.39-.07.85.85,0,0,1-.31-.27l-5.65-7.2a3.87,3.87,0,0,1,0,.48c0,.15,0,.3,0,.43v6.63h-1.77v-10.8h1.27Z"/><polygon class="cls-20" points="865.29 560.01 812.64 560.01 813.73 668.88 57.05 668.8 57.05 560.01 3 560.01 3 46.02 865.29 46.02 865.29 560.01"/><polyline class="cls-21" points="416.32 487.61 416.32 512.34 251.74 512.34 251.74 380.92 416.32 380.92 416.32 405.8"/><polyline class="cls-21" points="94.84 479.81 94.84 380.92 215.39 380.92 215.39 397.3"/><polyline class="cls-21" points="215.39 487.61 215.39 512.34 94.84 512.34 94.84 493.94"/><line class="cls-21" x1="416.32" y1="451.9" x2="416.32" y2="475.68"/><line class="cls-21" x1="416.32" y1="417.81" x2="416.32" y2="441.13"/><line class="cls-21" x1="457.31" y1="440.66" x2="457.31" y2="418.74"/><line class="cls-21" x1="457.31" y1="475.17" x2="457.31" y2="452.94"/><polyline class="cls-21" points="540.21 512.34 457.31 512.34 457.31 487.61"/><polyline class="cls-21" points="578.8 380.92 610.07 380.92 610.07 512.34 566.47 512.34"/><polyline class="cls-21" points="457.31 405.71 457.31 380.92 567.64 380.92"/><line class="cls-21" x1="215.39" y1="416.24" x2="215.39" y2="434.35"/><line class="cls-21" x1="215.39" y1="450.49" x2="215.39" y2="468.6"/><polyline class="cls-21" points="3 296.2 132.71 296.2 132.71 378.92"/><polyline class="cls-21" points="57.05 560.01 74.37 560.01 74.37 472.33"/><polyline class="cls-21" points="74.29 458.05 74.29 452.83 60.17 452.83 60.17 400.01 73.35 400.01 73.35 371.71 42.94 371.71"/><polyline class="cls-21" points="336.92 560.01 369.44 560.01 369.44 615.45 392.3 615.45 392.3 609.06 410.55 609.06"/><line class="cls-21" x1="425.84" y1="608.99" x2="445.42" y2="608.99"/><line class="cls-21" x1="234.58" y1="560.01" x2="305.45" y2="560.01"/><line class="cls-21" x1="132.15" y1="560.01" x2="203.01" y2="560.01"/><line class="cls-21" x1="74.39" y1="560.01" x2="102.37" y2="560.01"/><line class="cls-21" x1="536.79" y1="608.99" x2="556.37" y2="608.99"/><polyline class="cls-21" points="570.33 608.99 589.91 608.99 589.91 644.9 599.93 644.9 599.93 668.86"/><line class="cls-21" x1="459.38" y1="608.68" x2="522.17" y2="608.68"/><polyline class="cls-21" points="132.56 296.2 132.56 243.2 188.6 243.2"/><polyline class="cls-21" points="202.6 242.57 209.93 242.57 209.93 341.7"/><line class="cls-21" x1="209.93" y1="361.48" x2="209.93" y2="381.39"/><polyline class="cls-21" points="251.12 384.14 239.46 384.14 239.46 318.47"/><line class="cls-21" x1="239.46" y1="296.32" x2="239.46" y2="217.82"/><line class="cls-21" x1="163.29" y1="217.38" x2="297.36" y2="217.38"/><line class="cls-21" x1="348.77" y1="217.38" x2="406.49" y2="217.38"/><line class="cls-21" x1="459.34" y1="217.38" x2="517.06" y2="217.38"/><polyline class="cls-21" points="569.25 217.38 600.09 217.38 600.09 46.45"/><line class="cls-21" x1="265.12" y1="45.05" x2="265.12" y2="216.85"/><path class="cls-20" d="M378.55,49v0Z"/><path class="cls-20" d="M488.2,49v0Z"/><line class="cls-15" x1="488.2" y1="45.05" x2="488.2" y2="216.85"/><rect class="cls-21" x="371.82" y="273.64" width="12.25" height="62.7"/><rect class="cls-21" x="407.59" y="273.64" width="12.25" height="62.7"/><rect class="cls-21" x="443.35" y="273.64" width="12.25" height="62.7"/><rect class="cls-21" x="479.11" y="273.64" width="12.25" height="62.7"/><line class="cls-21" x1="698.21" y1="46.45" x2="698.21" y2="93.1"/><line class="cls-21" x1="698.21" y1="190.25" x2="698.21" y2="233.88"/><line class="cls-21" x1="698.21" y1="265.76" x2="698.21" y2="339.42"/><line class="cls-21" x1="698.21" y1="366.04" x2="698.21" y2="439.69"/><line class="cls-21" x1="698.21" y1="544.2" x2="698.21" y2="579.54"/><line class="cls-21" x1="698.21" y1="612.12" x2="698.21" y2="668.21"/><polyline class="cls-21" points="698.22 470.46 698.22 512.34 862.87 512.34"/><line class="cls-21" x1="698.21" y1="125.34" x2="698.21" y2="161.15"/><line class="cls-21" x1="698.25" y1="212.06" x2="864.35" y2="212.06"/><line class="cls-15" x1="698.25" y1="310.55" x2="864.35" y2="310.55"/><line class="cls-21" x1="698.25" y1="310.55" x2="864.35" y2="310.55"/><line class="cls-15" x1="167.58" y1="560.01" x2="167.58" y2="668.34"/><line class="cls-15" x1="270.01" y1="560.01" x2="270.01" y2="668.34"/><polygon points="3.25 17.25 3.25 0.07 5.53 0.07 5.53 15.22 13.99 15.22 13.99 17.25 3.25 17.25"/><polygon points="16.74 17.25 16.74 0.07 29.17 0.07 29.17 2.1 19.02 2.1 19.02 7.36 28.52 7.36 28.52 9.38 19.02 9.38 19.02 15.22 29.56 15.22 29.56 17.25 16.74 17.25"/><path d="M37.61,17.25,31,.07h2.46l4.46,12.48c.36,1,.66,1.94.91,2.81.26-.93.57-1.87.92-2.81L44.35.07h2.32L40,17.25Z"/><polygon points="48.76 17.25 48.76 0.07 61.18 0.07 61.18 2.1 51.03 2.1 51.03 7.36 60.54 7.36 60.54 9.38 51.03 9.38 51.03 15.22 61.58 15.22 61.58 17.25 48.76 17.25"/><polygon points="64.63 17.25 64.63 0.07 66.9 0.07 66.9 15.22 75.36 15.22 75.36 17.25 64.63 17.25"/><path d="M93.93,4.28l-2.09.16a4,4,0,0,0-.8-1.8,2.8,2.8,0,0,0-2.11-.91,2.88,2.88,0,0,0-1.77.57,4.79,4.79,0,0,0-1.57,2.12,11.22,11.22,0,0,0-.6,4,4.86,4.86,0,0,1,1.87-1.72,4.92,4.92,0,0,1,2.31-.56,4.77,4.77,0,0,1,3.59,1.55,5.55,5.55,0,0,1,1.48,4,6.57,6.57,0,0,1-.7,3,5.05,5.05,0,0,1-1.91,2.12,5.2,5.2,0,0,1-2.77.74,5.38,5.38,0,0,1-4.3-1.94Q82.9,13.67,82.9,9.21q0-5,1.84-7.24a5.29,5.29,0,0,1,4.32-2,4.83,4.83,0,0,1,3.32,1.14,4.78,4.78,0,0,1,1.55,3.14m-8.61,7.4a5,5,0,0,0,.46,2.09,3.48,3.48,0,0,0,1.3,1.52,3.22,3.22,0,0,0,1.75.52,3,3,0,0,0,2.29-1.08,4.24,4.24,0,0,0,1-2.93,4,4,0,0,0-1-2.81,3.12,3.12,0,0,0-2.39-1,3.25,3.25,0,0,0-2.42,1,3.7,3.7,0,0,0-1,2.69"/></g></g></svg>