<svg xmlns="http://www.w3.org/2000/svg" xmlns:xlink="http://www.w3.org/1999/xlink" width="85.505" height="18.658" viewBox="0 0 85.505 18.658">
  <defs>
    <clipPath id="clip-path">
      <path id="패스_684" data-name="패스 684" d="M142.917,3.968a2.177,2.177,0,0,0-.9.951,1.291,1.291,0,0,0-.113.848.621.621,0,0,0,.342.43,2.256,2.256,0,0,0,1.092-.032,2.942,2.942,0,0,1,.49-.012c.15.007.3.019.485.031a.711.711,0,0,0,.077,0c.027,0,.057.005.089.007a.8.8,0,0,1,.105.011.991.991,0,0,1,.118.015,2.371,2.371,0,0,1,.6.173,3.215,3.215,0,0,1,.7.423,4.285,4.285,0,0,1,.663.664,5.764,5.764,0,0,1,.518.8c.069.136.137.27.2.4s.112.254.158.371c.085.221.161.414.222.571.06.14.109.22.144.22s.091-.08.142-.228a2.558,2.558,0,0,0,.08-.274c.023-.107.045-.229.067-.363s.028-.286.04-.449,0-.335,0-.519a5.692,5.692,0,0,0-.2-1.184,5.109,5.109,0,0,0-.55-1.229,4.591,4.591,0,0,0-.9-1.056,3.95,3.95,0,0,0-1.1-.678,3.194,3.194,0,0,0-1-.241c-.067-.005-.133-.008-.2-.008a2.749,2.749,0,0,0-1.365.355" transform="translate(-141.872 -3.613)" fill="none"/>
    </clipPath>
    <linearGradient id="linear-gradient" x1="-25.243" y1="10.422" x2="-25.065" y2="10.422" gradientUnits="objectBoundingBox">
      <stop offset="0" stop-color="#a57b5e"/>
      <stop offset="0.459" stop-color="#f0dab6"/>
      <stop offset="1" stop-color="#d5a984"/>
    </linearGradient>
    <clipPath id="clip-path-2">
      <path id="패스_685" data-name="패스 685" d="M148.867,0a.11.11,0,0,0-.084.056c-.453.75-2.462,4.343-2.454,4.361a20.674,20.674,0,0,1,1.294,5.847c0,.027.019.045.036.045l.972,1.1a.324.324,0,0,0,.485,0l.971-1.1c.019,0,.035-.019.036-.045a20.841,20.841,0,0,1,1.294-5.847c.009-.019-2-3.612-2.454-4.361A.11.11,0,0,0,148.881,0Z" transform="translate(-146.33 -0.001)" fill="none"/>
    </clipPath>
    <linearGradient id="linear-gradient-2" x1="-26.884" y1="6.58" x2="-26.7" y2="6.58" xlink:href="#linear-gradient"/>
    <clipPath id="clip-path-3">
      <path id="패스_686" data-name="패스 686" d="M153.681,3.621a3.186,3.186,0,0,0-1,.241,3.95,3.95,0,0,0-1.1.678,4.6,4.6,0,0,0-.9,1.056,5.155,5.155,0,0,0-.549,1.229,5.691,5.691,0,0,0-.2,1.184c-.007.184-.008.358,0,.519s.02.312.04.449.044.257.065.363a2.527,2.527,0,0,0,.081.274c.052.148.1.228.142.228s.084-.08.142-.22c.063-.157.137-.35.224-.571.045-.117.1-.24.158-.371s.126-.264.2-.4a5.768,5.768,0,0,1,.518-.8,4.229,4.229,0,0,1,.663-.664,3.184,3.184,0,0,1,.7-.423,2.363,2.363,0,0,1,.6-.173,1.047,1.047,0,0,1,.12-.015.761.761,0,0,1,.105-.011c.032,0,.063,0,.089-.007a.71.71,0,0,0,.077,0c.185-.012.334-.024.483-.031a2.954,2.954,0,0,1,.491.012,2.251,2.251,0,0,0,1.09.032.619.619,0,0,0,.343-.43,1.285,1.285,0,0,0-.115-.848,2.166,2.166,0,0,0-.9-.951,2.749,2.749,0,0,0-1.365-.355c-.065,0-.132,0-.2.008" transform="translate(-149.927 -3.613)" fill="none"/>
    </clipPath>
    <linearGradient id="linear-gradient-3" x1="-26.684" y1="10.423" x2="-26.506" y2="10.423" xlink:href="#linear-gradient"/>
    <clipPath id="clip-path-4">
      <path id="패스_688" data-name="패스 688" d="M151.363,9.444c.049-.029.114-.068.192-.109.06-.013.121-.025.182-.036l-.181.072-.218.088.025-.015m26.08,7.02c-.177-.015-.357-.033-.535-.051l-.538-.057-.533-.069-.266-.036c-.088-.012-.177-.029-.266-.044l-.53-.093c-.177-.033-.353-.076-.53-.113-.354-.071-.7-.166-1.056-.254-.176-.043-.349-.1-.525-.146s-.35-.1-.523-.154c-.346-.11-.695-.217-1.037-.339-.69-.234-1.371-.5-2.048-.762s-1.343-.551-2-.836-1.318-.571-1.968-.853-1.3-.56-1.93-.831c-1.265-.545-2.495-1.093-3.7-1.558-.6-.234-1.2-.441-1.787-.627s-1.169-.333-1.737-.458a13.777,13.777,0,0,0-1.95-.254,9.3,9.3,0,0,1,.984-.118c.114-.013.233-.011.351-.016s.238-.009.359-.009c.244.007.49,0,.743.02a15.013,15.013,0,0,1,1.554.161,28.535,28.535,0,0,1,3.9.941c.566.169,1.084.333,1.543.474.228.072.443.136.638.2s.374.122.535.177l.513.232c.184.093.385.192.6.3.433.2.908.467,1.434.743,1.044.566,2.249,1.258,3.557,1.974.961.529,1.9,1.005,2.778,1.387a15.074,15.074,0,0,0,2.423.759c.354.071.67.15.956.18a3.522,3.522,0,0,1,.706.137l.012.005-.125-.011M183.4,3.75a8.037,8.037,0,0,0-1.018.132c-.168.028-.33.072-.494.11-.081.019-.161.045-.242.068s-.16.044-.238.073-.157.053-.236.08l-.23.089-.116.047-.112.051-.225.1-.216.113-.108.056-.107.061-.208.124-.2.134c-.068.044-.132.092-.2.14s-.128.1-.19.145c-.12.107-.245.2-.355.318a5.138,5.138,0,0,0-.612.708c-.044.064-.085.128-.129.192l-.063.1-.057.1c-.037.068-.075.133-.111.2l-.1.206-.047.1c-.015.035-.027.071-.04.107-.025.071-.052.141-.077.21s-.04.144-.061.214l-.028.107c-.009.037-.015.073-.023.109-.012.072-.027.144-.04.214s-.017.144-.024.216l-.012.108,0,.107c0,.071,0,.141-.005.212s.007.14.011.209c0,.035,0,.069.005.1l.012.1c.009.069.017.137.027.2s.028.133.041.2l.02.1.028.095c.017.064.036.125.053.188l.068.182.033.089c.013.029.027.059.039.087.027.057.053.114.079.17s.06.108.089.162a3.385,3.385,0,0,0,.19.306,3.532,3.532,0,0,0,.937.931,3.235,3.235,0,0,0,1.036.462,3,3,0,0,0,.936.081c.035,0,.069,0,.1-.007l.1-.013.189-.028c.12-.029.233-.053.334-.085l.277-.1.091-.041a1.32,1.32,0,1,0-1.369-1.458,1.33,1.33,0,0,0,.72,1.329c-.032,0-.063.005-.1.009l-.173,0h-.089c-.031,0-.06,0-.092-.005a2.794,2.794,0,0,1-.8-.152,2.874,2.874,0,0,1-.844-.461,3.068,3.068,0,0,1-.735-.827c-.048-.087-.1-.17-.144-.264-.021-.045-.045-.089-.065-.137s-.039-.1-.059-.144c-.008-.024-.019-.048-.028-.073l-.023-.076c-.016-.051-.033-.1-.048-.15s-.025-.105-.037-.157l-.019-.08c-.005-.027-.009-.052-.013-.08-.008-.055-.017-.108-.025-.161s-.009-.11-.013-.166l-.008-.084c0-.027,0-.056,0-.084v-.17l.012-.169.005-.087.013-.085c.009-.057.017-.114.027-.173s.025-.113.04-.17c.007-.029.012-.059.021-.087l.025-.085c.02-.056.036-.114.056-.172s.045-.11.068-.168c.012-.027.021-.056.035-.084l.043-.083.083-.165.1-.16.048-.08.055-.079c.037-.051.073-.1.111-.156a5.355,5.355,0,0,1,2.725-1.78c.071-.023.142-.041.214-.06s.142-.041.216-.056c.144-.032.29-.068.441-.091a7.56,7.56,0,0,1,.911-.1,7.363,7.363,0,0,1,1.872.136,5.993,5.993,0,0,1,.92.264,4.76,4.76,0,0,1,.861.417l.1.063.1.068a2.219,2.219,0,0,1,.192.141l.093.075c.032.024.063.049.093.077l.182.168a5.318,5.318,0,0,1,.655.751,4.812,4.812,0,0,1,.522.932,4.442,4.442,0,0,1,.31,1.169,4.981,4.981,0,0,1-.019,1.354c-.013.118-.043.237-.065.357s-.06.237-.089.358a6.157,6.157,0,0,1-.262.719,6.725,6.725,0,0,1-.363.708,6.816,6.816,0,0,1-.467.676,6.6,6.6,0,0,1-.562.634c-.105.1-.206.2-.32.293-.055.047-.108.1-.165.141l-.172.136c-.059.047-.118.088-.178.13s-.12.085-.182.126l-.393.249c-.067.041-.132.085-.2.124l-.2.117-.2.117c-.068.039-.137.079-.208.113l-.423.214c-.142.069-.29.129-.437.2s-.3.122-.446.178l-.226.084c-.075.031-.154.049-.23.075l-.233.072c-.079.024-.156.048-.236.065l-.478.117-.49.089c-.08.019-.164.027-.246.037l-.249.032a15.342,15.342,0,0,1-2.053.1c-.173,0-.349-.012-.525-.016l-.264-.009-.265-.016-.533-.035-.232-.02a1.055,1.055,0,0,0-.16-.095,3.3,3.3,0,0,0-.707-.22c-.274-.059-.579-.169-.92-.27a19.31,19.31,0,0,1-2.32-.908c-.837-.414-1.749-.915-2.709-1.443-1.307-.712-2.548-1.358-3.633-1.859-.547-.241-1.045-.467-1.5-.634-.224-.088-.434-.169-.627-.242s-.375-.125-.538-.178c-.156-.072-.329-.149-.518-.234s-.4-.168-.618-.26c-.446-.184-.951-.389-1.508-.6a20,20,0,0,0-3.945-1.092,12.118,12.118,0,0,0-1.611-.144c-.262-.013-.519,0-.771,0-.126.007-.25.019-.373.027s-.245.013-.365.033a9.977,9.977,0,0,0-2.242.555c-.136.009-.268.023-.4.039.276-.124.6-.257.972-.389.083-.027.165-.057.25-.087l.262-.084c.178-.06.367-.109.56-.165.39-.1.808-.206,1.251-.286a12.546,12.546,0,0,1,1.4-.18c.244-.017.487-.023.738-.017.126,0,.252.008.381.012s.256.019.385.025a21.93,21.93,0,0,1,3.816.7c1.1.3,2.01.6,2.632.805.3.141.666.306,1.078.521s.884.451,1.4.708c.5.278,1.05.58,1.631.892l1.8,1.037c.455.272.9.533,1.337.783s.816.519,1.193.781.736.519,1.078.75.67.437.975.612a6.939,6.939,0,0,0,1.526.663c.095.024.178.048.252.065l.186.033.153.027-.148-.048-.18-.057c-.071-.027-.15-.06-.24-.1a7.824,7.824,0,0,1-1.419-.805c-.282-.2-.587-.426-.908-.679s-.668-.527-1.029-.813a14.531,14.531,0,0,0-1.2-.853c-.43-.264-.875-.534-1.333-.807-.627-.365-1.249-.694-1.833-1.01-.6-.293-1.165-.566-1.689-.812-.535-.224-1.026-.423-1.459-.6s-.816-.3-1.128-.409A26.36,26.36,0,0,0,162.4,8.147a16.168,16.168,0,0,0-3.881-.853c-.134-.008-.266-.021-.4-.027l-.4-.008c-.264,0-.526.012-.78.036a10.67,10.67,0,0,0-1.444.245,12.958,12.958,0,0,0-1.267.374c-.193.073-.382.138-.558.213l-.261.108-.246.112a10.162,10.162,0,0,0-1.25.679,5.938,5.938,0,0,0-.638.142,3.629,3.629,0,0,0-.99.446.946.946,0,0,1,.071.148.142.142,0,0,0,.009.025,3.367,3.367,0,0,1,.965-.4c.033-.009.068-.015.1-.024l-.084.065-.073.056-.4.161-.494.186.005.012.513-.122c.193-.053.43-.12.7-.194l.929-.265.25-.068a12.058,12.058,0,0,1,3.073.326c.554.136,1.122.294,1.7.489s1.158.415,1.748.66c1.182.486,2.394,1.057,3.654,1.63.632.288,1.266.572,1.912.869s1.294.6,1.953.893,1.329.592,2,.88,1.363.56,2.062.811c.346.13.7.246,1.052.366.176.063.355.11.534.168s.354.112.534.16c.359.1.718.2,1.082.281.181.04.362.088.543.125l.548.105c.092.017.182.037.274.051l.276.043.551.081.543.067c.181.021.363.043.545.06s.363.036.544.056l.543.043.273.021.272.013c.181.009.362.023.543.025a16.007,16.007,0,0,0,2.161-.067c.089-.011.178-.02.268-.032s.178-.017.266-.035c.177-.031.353-.061.529-.089l.519-.118c.087-.019.172-.044.257-.068l.254-.075c.084-.027.168-.047.252-.077s.165-.059.246-.089c.165-.059.329-.114.487-.185s.319-.132.474-.205l.458-.225c.076-.036.149-.077.224-.117l.22-.122.217-.122c.073-.041.142-.085.213-.128l.418-.26c.069-.044.138-.093.206-.14s.14-.095.205-.146l.2-.15c.064-.052.126-.107.19-.16.128-.1.245-.22.365-.329a7.165,7.165,0,0,0,.651-.718,7.067,7.067,0,0,0,.972-1.586,6.281,6.281,0,0,0,.539-3.322,5.5,5.5,0,0,0-.375-1.438,5.748,5.748,0,0,0-.634-1.136,6.125,6.125,0,0,0-.779-.893l-.216-.2c-.035-.032-.073-.065-.112-.095L188.1,5a2.808,2.808,0,0,0-.24-.173l-.12-.084-.125-.076a5.667,5.667,0,0,0-1.032-.493,7.091,7.091,0,0,0-1.065-.3,8.1,8.1,0,0,0-1.538-.146q-.292,0-.579.02" transform="translate(-150.287 -3.73)" fill="none"/>
    </clipPath>
    <linearGradient id="linear-gradient-4" x1="-4.736" y1="3.762" x2="-4.704" y2="3.762" xlink:href="#linear-gradient"/>
    <clipPath id="clip-path-5">
      <path id="패스_689" data-name="패스 689" d="M165.979,1.913a4.44,4.44,0,0,0-.584.076c-.1.017-.19.041-.284.064-.047.011-.092.027-.138.039s-.092.025-.137.041l-.134.047c-.045.016-.088.035-.133.052l-.065.027-.065.028c-.041.02-.085.039-.128.059l-.125.064-.061.032-.06.037-.12.071-.114.076c-.04.025-.076.053-.113.081l-.109.083c-.068.06-.14.117-.2.182a2.892,2.892,0,0,0-.351.406c-.025.036-.049.072-.073.109l-.036.056-.032.057c-.023.039-.044.076-.065.114s-.036.08-.055.118l-.027.059c-.009.021-.016.041-.023.061-.015.041-.031.081-.045.121s-.023.081-.035.122l-.016.063a.459.459,0,0,0-.012.061c-.009.041-.016.083-.024.122s-.009.084-.013.124l-.008.061v.061c0,.041,0,.081,0,.122s0,.08.005.12c0,.019,0,.039,0,.059l.007.059c.005.04.011.077.015.116l.024.113.012.056.016.056c.009.036.02.072.031.108s.025.069.039.1l.019.051.023.051c.015.032.029.064.045.1s.033.063.051.095a1.921,1.921,0,0,0,.109.174,2,2,0,0,0,.538.533,1.8,1.8,0,0,0,.592.265,1.676,1.676,0,0,0,.537.048c.02,0,.04,0,.06,0l.057-.008.108-.016c.069-.017.133-.032.193-.048l.157-.057.052-.024a.756.756,0,1,0-.784-.836.762.762,0,0,0,.413.762l-.055.005h-.15c-.017,0-.036,0-.052,0a1.56,1.56,0,0,1-.462-.087,1.707,1.707,0,0,1-.485-.264,1.757,1.757,0,0,1-.419-.474c-.028-.049-.06-.1-.084-.15-.012-.027-.024-.052-.036-.08s-.023-.055-.035-.083-.011-.027-.015-.041l-.015-.044c-.008-.028-.019-.057-.027-.085s-.015-.06-.021-.091l-.011-.045-.008-.045c0-.032-.009-.063-.015-.095l-.008-.095,0-.048c0-.015,0-.032,0-.048v-.1c0-.033,0-.067.005-.1l0-.049.008-.049c.005-.032.009-.067.015-.1s.016-.065.023-.1c.005-.016.007-.033.012-.051l.016-.047c.011-.033.02-.067.031-.1s.027-.064.04-.1.012-.033.019-.049l.024-.047c.016-.032.033-.063.048-.095l.056-.092.027-.047.033-.044c.02-.031.041-.06.063-.091a3.069,3.069,0,0,1,1.562-1.02c.04-.012.081-.024.122-.035s.081-.023.124-.032c.084-.017.168-.039.252-.052a4.349,4.349,0,0,1,1.6.02,3.436,3.436,0,0,1,.526.15,2.768,2.768,0,0,1,.494.238l.059.036.057.04c.037.027.075.051.109.08l.053.044a.387.387,0,0,1,.053.044l.105.1a3.018,3.018,0,0,1,.374.429,2.76,2.76,0,0,1,.3.534,2.6,2.6,0,0,1,.178.67,2.94,2.94,0,0,1-.011.777c-.008.067-.024.134-.037.2s-.035.136-.052.206a3.549,3.549,0,0,1-.15.41,3.892,3.892,0,0,1-.208.406,3.824,3.824,0,0,1-.269.389,3.881,3.881,0,0,1-.322.363c-.06.055-.117.114-.182.168-.031.025-.061.055-.095.081l-.1.076c-.033.027-.068.051-.1.075s-.068.049-.1.073l-.225.142c-.037.024-.075.049-.114.072l-.116.067-.117.067c-.039.023-.079.045-.12.067l-.241.121c-.081.041-.166.075-.25.113s-.169.069-.256.1c-.043.015-.087.032-.13.047s-.088.029-.132.044-.089.027-.133.041-.091.027-.136.037l-.274.067-.28.052c-.047.011-.095.015-.142.021l-.142.017a8.987,8.987,0,0,1-1.176.056c-.1,0-.2-.007-.3-.011l-.152,0-.15-.009-.3-.02c-.044,0-.089-.008-.134-.012a.562.562,0,0,0-.089-.052c-.117-.005-.234-.015-.347-.027a1.579,1.579,0,0,1,.329.068l.008,0-.072-.007c-.1-.008-.205-.017-.308-.029s-.2-.02-.309-.032-.2-.025-.3-.04l-.153-.02c-.051-.007-.1-.017-.152-.025l-.3-.055c-.1-.019-.2-.043-.3-.064-.2-.04-.4-.1-.6-.145-.1-.025-.2-.057-.3-.084s-.2-.056-.3-.089-.224-.071-.335-.108c-.278-.039-.554-.085-.828-.137.009.087.021.173.029.261.137.053.276.108.414.158.2.075.4.141.6.209.1.036.2.064.3.1s.2.065.308.092c.206.056.411.116.62.161.1.024.208.051.312.072s.21.041.314.06c.052.011.1.021.157.031l.158.023.314.048.313.036q.156.02.312.036l.312.032.312.025.156.012.156.007c.105.005.208.013.312.015a9.155,9.155,0,0,0,1.239-.039l.153-.017c.051-.007.1-.011.152-.021l.3-.051.3-.068c.051-.011.1-.025.148-.039l.145-.043c.048-.016.1-.028.145-.044l.141-.051c.095-.033.188-.065.28-.107s.181-.076.27-.117l.262-.129c.044-.021.087-.045.128-.068l.126-.071c.041-.023.084-.045.125-.069s.081-.049.121-.073l.24-.149c.04-.025.08-.053.118-.08s.081-.055.118-.084l.113-.087c.037-.029.073-.061.109-.091.075-.06.141-.126.209-.189a4.453,4.453,0,0,0,.686-.853,4.008,4.008,0,0,0,.245-.467,3.6,3.6,0,0,0,.309-1.9,3.2,3.2,0,0,0-.214-.824,3.279,3.279,0,0,0-.363-.651,3.678,3.678,0,0,0-.446-.513q-.064-.056-.124-.112a.645.645,0,0,0-.065-.055l-.067-.053c-.044-.036-.092-.068-.138-.1l-.069-.048-.071-.043a3.176,3.176,0,0,0-.592-.284,4.033,4.033,0,0,0-.61-.169,4.653,4.653,0,0,0-.884-.084c-.11,0-.22,0-.328.011" transform="translate(-158.361 -1.902)" fill="none"/>
    </clipPath>
    <linearGradient id="linear-gradient-5" x1="-16.242" y1="7.972" x2="-16.139" y2="7.972" xlink:href="#linear-gradient"/>
    <clipPath id="clip-path-6">
      <path id="패스_690" data-name="패스 690" d="M154.994,9.371c-.057-.024-.118-.048-.18-.072.063.011.122.023.184.036.076.041.141.08.192.109l.024.015-.22-.088m-26,7.1a3.507,3.507,0,0,1,.7-.137c.286-.029.6-.109.956-.18a14.992,14.992,0,0,0,2.423-.759c.884-.382,1.817-.859,2.778-1.387,1.31-.716,2.515-1.409,3.559-1.974.525-.276,1-.539,1.432-.743.216-.109.415-.208.6-.3l.514-.232c.16-.055.338-.113.533-.177s.411-.128.64-.2c.457-.141.975-.3,1.542-.474a28.611,28.611,0,0,1,3.9-.941,15.038,15.038,0,0,1,1.555-.161c.252-.02.5-.013.742-.02.122,0,.242.007.361.009s.237,0,.351.016a9.27,9.27,0,0,1,.983.118,13.76,13.76,0,0,0-1.949.254c-.568.125-1.15.273-1.739.458s-1.185.393-1.787.627c-1.2.465-2.435,1.013-3.7,1.558-.632.27-1.281.547-1.929.831s-1.306.57-1.968.853-1.331.562-2.006.836-1.355.527-2.046.762c-.343.122-.691.229-1.038.339-.173.059-.349.1-.522.154s-.349.1-.526.146c-.35.088-.7.184-1.056.254-.176.037-.351.08-.529.113l-.531.093c-.089.015-.176.032-.265.044l-.268.036-.53.069-.538.057c-.18.017-.358.036-.538.051l-.125.011.013-.005M121.031,3.876a7.107,7.107,0,0,0-1.066.3,5.7,5.7,0,0,0-1.03.493l-.125.076-.121.084c-.08.055-.162.11-.24.173l-.117.095c-.039.029-.079.063-.113.095l-.214.2a6.213,6.213,0,0,0-.78.893,5.813,5.813,0,0,0-.632,1.136,5.451,5.451,0,0,0-.377,1.438,6.294,6.294,0,0,0,.539,3.322,7.342,7.342,0,0,0,.429.815,7.754,7.754,0,0,0,.543.771,7.506,7.506,0,0,0,.651.718c.121.109.237.226.366.329.064.053.125.108.192.16s.132.1.2.15.134.1.2.146.138.1.209.14c.137.087.277.173.418.26.069.043.138.087.21.128l.22.122c.073.04.145.081.218.122s.146.081.224.117c.152.076.3.149.459.225s.314.136.473.205.322.126.486.185l.248.089c.083.031.169.051.253.077l.254.075c.084.024.168.049.256.068l.519.118c.176.028.351.059.529.089.088.017.177.024.266.035s.178.021.268.032a16.02,16.02,0,0,0,2.162.067c.181,0,.361-.016.542-.025l.273-.013.27-.021.546-.043c.18-.02.361-.037.542-.056s.363-.039.544-.06l.545-.067c.184-.028.367-.053.55-.081L131.1,17c.092-.013.182-.033.274-.051l.547-.105c.184-.037.363-.085.545-.125.365-.08.722-.185,1.081-.281.181-.048.357-.108.535-.16s.358-.105.533-.168c.353-.12.706-.236,1.053-.366.7-.25,1.383-.53,2.061-.811s1.346-.58,2-.88,1.31-.6,1.954-.893,1.278-.582,1.91-.869c1.261-.572,2.471-1.144,3.653-1.63.591-.245,1.174-.463,1.748-.66s1.142-.353,1.7-.489a12.064,12.064,0,0,1,3.073-.326l.25.068.928.265c.276.075.511.141.706.194l.513.122.005-.012-.5-.186-.4-.161c-.02-.015-.043-.032-.072-.056l-.084-.065c.033.009.068.015.1.024a3.376,3.376,0,0,1,.967.4l.011-.025a.751.751,0,0,1,.069-.148,3.657,3.657,0,0,0-.989-.446,5.963,5.963,0,0,0-.639-.142,10.093,10.093,0,0,0-1.251-.679l-.245-.112-.261-.108c-.177-.075-.365-.14-.559-.213a13.009,13.009,0,0,0-1.265-.374,10.726,10.726,0,0,0-1.446-.245c-.254-.024-.517-.037-.781-.036l-.4.008c-.133.005-.266.019-.4.027a16.183,16.183,0,0,0-3.881.853,26.451,26.451,0,0,0-2.573,1.046c-.31.108-.695.234-1.128.409s-.924.375-1.459.6c-.526.246-1.092.519-1.689.812-.586.317-1.206.646-1.832,1.01-.459.273-.905.543-1.333.807a13.675,13.675,0,0,0-1.2.853l-1.03.813q-.483.379-.909.679a7.776,7.776,0,0,1-1.418.805c-.091.036-.169.069-.24.1l-.178.057-.15.048.154-.027.188-.033c.073-.017.156-.041.252-.065a6.988,6.988,0,0,0,1.524-.663c.3-.176.632-.381.975-.612s.7-.486,1.078-.75.771-.534,1.193-.781.88-.511,1.337-.783l1.8-1.037c.58-.312,1.128-.614,1.632-.892.514-.257.983-.5,1.4-.708s.781-.379,1.077-.521c.622-.21,1.53-.506,2.633-.805a21.883,21.883,0,0,1,3.816-.7c.129-.007.257-.02.386-.025s.253-.009.379-.012c.25-.005.5,0,.738.017a12.522,12.522,0,0,1,1.4.18c.445.08.863.184,1.251.286.194.056.383.105.562.165l.264.084c.084.029.168.06.249.087.373.132.7.265.973.389-.132-.016-.264-.029-.4-.039a10.039,10.039,0,0,0-2.245-.555c-.12-.02-.241-.023-.363-.033s-.248-.02-.373-.027c-.25,0-.509-.017-.771,0a12.118,12.118,0,0,0-1.611.144,19.973,19.973,0,0,0-3.945,1.092c-.559.208-1.064.413-1.508.6-.221.092-.43.176-.619.26s-.362.162-.517.234c-.161.053-.341.112-.538.178s-.4.154-.628.242c-.453.166-.949.393-1.5.634-1.085.5-2.326,1.146-3.632,1.859-.96.529-1.873,1.029-2.712,1.443a19.213,19.213,0,0,1-2.319.908c-.341.1-.646.212-.921.27a3.283,3.283,0,0,0-.706.22,1.124,1.124,0,0,0-.16.095l-.233.02-.531.035-.265.016-.264.009c-.176,0-.351.016-.526.016a15.312,15.312,0,0,1-2.05-.1l-.25-.032c-.083-.011-.166-.019-.248-.037l-.489-.089-.478-.117c-.08-.017-.157-.041-.236-.065l-.232-.072c-.079-.025-.156-.044-.232-.075l-.226-.084c-.15-.056-.3-.111-.447-.178s-.293-.126-.435-.2l-.423-.214c-.071-.035-.138-.075-.208-.113l-.205-.117-.2-.117c-.068-.039-.133-.083-.2-.124l-.391-.249c-.064-.041-.122-.085-.184-.126s-.121-.084-.177-.13l-.173-.136c-.057-.045-.112-.095-.166-.141-.112-.092-.213-.2-.318-.293a6.8,6.8,0,0,1-.563-.634,7.041,7.041,0,0,1-.467-.676,6.692,6.692,0,0,1-.361-.708,5.927,5.927,0,0,1-.262-.719c-.031-.121-.067-.24-.091-.358s-.052-.238-.065-.357a4.984,4.984,0,0,1-.02-1.354,4.5,4.5,0,0,1,.312-1.169,4.815,4.815,0,0,1,.523-.932,5.3,5.3,0,0,1,.652-.751c.061-.055.124-.11.185-.168.029-.028.061-.053.092-.077l.092-.075a2.24,2.24,0,0,1,.193-.141l.1-.068.1-.063a4.8,4.8,0,0,1,.861-.417,6.02,6.02,0,0,1,.919-.264,7.38,7.38,0,0,1,1.874-.136,7.6,7.6,0,0,1,.909.1c.149.023.3.059.442.091.073.015.144.037.216.056s.144.037.213.06a5.349,5.349,0,0,1,2.725,1.78c.036.052.073.105.11.156l.055.079.049.08c.032.055.064.107.1.16s.055.112.083.165l.04.083c.013.028.024.057.035.084.024.057.047.113.071.168s.036.116.053.172l.028.085.02.087.04.17c.009.059.017.116.027.173l.012.085.007.087.012.169c0,.059,0,.114,0,.17,0,.028,0,.057,0,.084l-.007.084c-.005.056-.011.11-.015.166s-.017.107-.025.161c-.005.028-.008.053-.013.08l-.019.08-.036.157c-.017.049-.033.1-.048.15l-.024.076c-.009.025-.02.049-.029.073-.019.048-.039.1-.057.144s-.045.092-.067.137a2.642,2.642,0,0,1-.144.264,3.06,3.06,0,0,1-.732.827,2.88,2.88,0,0,1-.845.461,2.794,2.794,0,0,1-.8.152c-.031,0-.063.005-.092.005h-.091l-.172,0c-.033,0-.064-.008-.1-.009a1.333,1.333,0,0,0,.722-1.329A1.3,1.3,0,0,0,124.32,9.56a1.326,1.326,0,0,0,.051,2.635c.028.013.057.028.088.041l.277.1c.1.032.214.056.334.085l.19.028.1.013c.033,0,.068.005.1.007a2.985,2.985,0,0,0,.935-.081,3.241,3.241,0,0,0,1.037-.462,3.555,3.555,0,0,0,.939-.931c.064-.1.133-.2.19-.306.028-.055.06-.108.087-.162l.08-.17c.013-.028.027-.057.039-.087l.033-.089c.023-.06.044-.121.067-.182s.036-.124.056-.188l.025-.095c.009-.033.015-.067.021-.1.015-.065.027-.13.04-.2s.019-.133.027-.2l.013-.1c0-.035,0-.069.007-.1,0-.069.005-.14.009-.209s0-.141-.007-.212l0-.107-.012-.108-.024-.216c-.013-.071-.027-.142-.041-.214-.008-.036-.013-.072-.021-.109l-.029-.107c-.02-.071-.039-.142-.06-.214s-.052-.14-.076-.21c-.015-.036-.027-.072-.041-.107l-.047-.1-.1-.206-.112-.2-.056-.1-.064-.1c-.041-.064-.085-.128-.126-.192a5.157,5.157,0,0,0-.615-.708c-.111-.114-.234-.212-.354-.318-.063-.049-.126-.1-.19-.145s-.128-.1-.2-.14l-.2-.134-.209-.124-.105-.061-.108-.056-.218-.113-.224-.1-.112-.051-.114-.047-.232-.089c-.079-.027-.157-.055-.236-.08s-.158-.051-.24-.073-.16-.049-.241-.068c-.164-.039-.327-.083-.494-.11a8.036,8.036,0,0,0-1.018-.132q-.288-.02-.579-.02a8.08,8.08,0,0,0-1.538.146" transform="translate(-116.174 -3.73)" fill="none"/>
    </clipPath>
    <linearGradient id="linear-gradient-6" x1="-3.654" y1="3.764" x2="-3.622" y2="3.764" xlink:href="#linear-gradient"/>
    <clipPath id="clip-path-7">
      <path id="패스_691" data-name="패스 691" d="M132.274,1.986a4.093,4.093,0,0,0-.611.169,3.248,3.248,0,0,0-.591.284L131,2.481l-.069.048c-.047.032-.093.064-.138.1l-.067.053a.813.813,0,0,0-.064.055l-.122.112a3.518,3.518,0,0,0-.447.513,3.28,3.28,0,0,0-.363.651,3.144,3.144,0,0,0-.216.824,3.6,3.6,0,0,0,.31,1.9,4.232,4.232,0,0,0,.245.467,4.3,4.3,0,0,0,.312.443,4.484,4.484,0,0,0,.373.41c.069.063.136.129.209.189.037.029.072.061.109.091s.077.057.114.087.077.056.117.084.079.055.12.08l.24.149c.04.024.079.051.121.073s.083.047.124.069l.126.071c.041.023.084.047.128.068.088.043.176.085.262.129s.181.077.273.117.184.073.278.107l.142.051c.047.016.1.028.144.044l.145.043c.048.013.1.028.146.039l.3.068c.1.017.2.035.3.051.051.011.1.015.152.021l.153.017a9.148,9.148,0,0,0,1.239.039c.1,0,.206-.009.31-.015l.156-.007.156-.012.312-.025.312-.032c.1-.011.209-.023.313-.036l.312-.036.316-.048.158-.023.157-.031c.105-.019.209-.04.313-.06s.209-.048.313-.072c.209-.045.414-.105.619-.161.1-.027.205-.061.308-.092s.205-.06.3-.1c.2-.068.4-.134.6-.209.14-.051.278-.105.415-.158.009-.088.02-.174.029-.261-.276.052-.551.1-.828.137-.112.037-.224.072-.335.108s-.2.059-.3.089-.2.059-.3.084c-.2.049-.4.105-.6.145-.1.021-.2.045-.3.064l-.3.055c-.051.008-.1.019-.152.025l-.152.02c-.1.015-.2.028-.306.04s-.205.023-.308.032-.205.021-.308.029l-.072.007.008,0a1.574,1.574,0,0,1,.33-.068c-.116.012-.23.021-.349.027a.578.578,0,0,0-.091.052c-.044,0-.089.009-.133.012l-.3.02-.153.009-.15,0c-.1,0-.2.011-.3.011a9.019,9.019,0,0,1-1.177-.056l-.142-.017c-.047-.007-.095-.011-.141-.021l-.281-.052-.274-.067c-.045-.011-.089-.024-.134-.037s-.088-.028-.133-.041-.089-.027-.132-.044-.087-.032-.13-.047c-.085-.033-.173-.064-.256-.1s-.168-.072-.249-.113-.164-.081-.244-.121c-.041-.021-.08-.044-.118-.067s-.079-.044-.117-.067l-.117-.067c-.037-.023-.075-.048-.113-.072l-.225-.142c-.036-.024-.071-.048-.105-.073s-.069-.048-.1-.075l-.1-.076c-.032-.027-.063-.056-.095-.081-.064-.053-.122-.113-.182-.168a3.993,3.993,0,0,1-.591-.752,3.636,3.636,0,0,1-.206-.406,3.54,3.54,0,0,1-.15-.41c-.017-.071-.039-.138-.051-.206s-.031-.137-.037-.2a2.832,2.832,0,0,1-.012-.777,2.6,2.6,0,0,1,.178-.67,2.758,2.758,0,0,1,.3-.534,3.02,3.02,0,0,1,.374-.429c.036-.032.071-.065.105-.1a.482.482,0,0,1,.052-.044l.055-.044c.035-.029.073-.053.111-.08l.056-.04.059-.036a2.757,2.757,0,0,1,.493-.238,3.539,3.539,0,0,1,.527-.15,4.242,4.242,0,0,1,1.073-.079,4.2,4.2,0,0,1,.522.059c.087.013.17.035.253.052.041.009.083.021.124.032s.083.023.121.035a3.073,3.073,0,0,1,1.563,1.02c.02.031.041.06.064.091l.031.044.028.047.056.092.047.095.024.047c.008.016.013.032.02.049s.027.063.039.1.021.065.032.1l.016.047.011.051c.009.033.016.065.023.1s.011.067.016.1l.007.049,0,.049.008.1c0,.032,0,.064,0,.1,0,.016,0,.033,0,.048l0,.048c0,.032-.007.064-.008.095s-.011.063-.015.095c0,.015-.005.031-.007.045l-.012.045c-.007.031-.013.06-.021.091s-.017.057-.028.085l-.012.044-.017.041-.032.083c-.012.028-.027.053-.039.08-.024.052-.055.1-.083.15a1.76,1.76,0,0,1-.421.474,1.655,1.655,0,0,1-.485.264,1.536,1.536,0,0,1-.459.087c-.019,0-.036,0-.053,0h-.15l-.056-.005a.763.763,0,0,0,.414-.762.742.742,0,0,0-.812-.674.76.76,0,0,0,.028,1.51c.017.007.033.015.052.024l.158.057c.059.016.122.031.192.048l.109.016.056.008c.02,0,.04,0,.06,0a1.676,1.676,0,0,0,.537-.048,1.819,1.819,0,0,0,.594-.265,2.016,2.016,0,0,0,.537-.533c.037-.056.077-.113.111-.174.016-.032.035-.061.049-.095l.045-.1c.007-.017.015-.035.023-.051l.019-.051c.013-.035.025-.069.039-.1s.02-.072.031-.108l.016-.056c.005-.017.008-.037.012-.056.008-.037.016-.075.023-.113s.011-.076.016-.116l.007-.059,0-.059c0-.04,0-.081.005-.12s0-.081,0-.122l0-.061-.007-.061c0-.04-.009-.081-.013-.124l-.024-.122-.012-.061-.017-.063c-.011-.041-.021-.081-.035-.122s-.029-.08-.043-.121a.477.477,0,0,1-.023-.061l-.028-.059c-.019-.039-.036-.079-.056-.118s-.041-.076-.063-.114l-.033-.057-.036-.056-.073-.109a3.076,3.076,0,0,0-.351-.406c-.064-.065-.134-.122-.2-.182-.035-.028-.072-.056-.109-.083s-.073-.056-.112-.081-.076-.052-.114-.076l-.12-.071-.06-.037-.063-.032-.125-.064c-.041-.02-.084-.039-.128-.059l-.064-.028-.067-.027c-.043-.017-.088-.036-.132-.052l-.136-.047c-.044-.016-.091-.028-.136-.041s-.093-.028-.14-.039c-.093-.023-.186-.047-.282-.064a4.447,4.447,0,0,0-.583-.076c-.109-.007-.218-.011-.329-.011a4.663,4.663,0,0,0-.884.084" transform="translate(-129.49 -1.902)" fill="none"/>
    </clipPath>
    <linearGradient id="linear-gradient-7" x1="-13.266" y1="7.972" x2="-13.164" y2="7.972" xlink:href="#linear-gradient"/>
  </defs>
  <g id="그룹_1347" data-name="그룹 1347" transform="translate(-154.663)">
    <g id="그룹_1330" data-name="그룹 1330" transform="translate(188.875 4.809)">
      <g id="그룹_1329" data-name="그룹 1329" clip-path="url(#clip-path)">
        <rect id="사각형_678" data-name="사각형 678" width="7.46" height="7.329" transform="translate(-1.189 0.224) rotate(-10.954)" fill="url(#linear-gradient)"/>
      </g>
    </g>
    <g id="그룹_1332" data-name="그룹 1332" transform="translate(194.81)">
      <g id="그룹_1331" data-name="그룹 1331" clip-path="url(#clip-path-2)">
        <rect id="사각형_679" data-name="사각형 679" width="7.207" height="12.314" transform="translate(-2.164 0.417) rotate(-10.954)" fill="url(#linear-gradient-2)"/>
      </g>
    </g>
    <g id="그룹_1334" data-name="그룹 1334" transform="translate(199.598 4.809)">
      <g id="그룹_1333" data-name="그룹 1333" clip-path="url(#clip-path-3)">
        <rect id="사각형_680" data-name="사각형 680" width="7.46" height="7.329" transform="translate(-1.164 0.224) rotate(-10.954)" fill="url(#linear-gradient-3)"/>
      </g>
    </g>
    <g id="그룹_1338" data-name="그룹 1338" transform="translate(200.078 4.964)">
      <g id="그룹_1337" data-name="그룹 1337" clip-path="url(#clip-path-4)">
        <rect id="사각형_682" data-name="사각형 682" width="42.048" height="21.093" transform="translate(-2.557 0.495) rotate(-10.954)" fill="url(#linear-gradient-4)"/>
      </g>
    </g>
    <g id="그룹_1340" data-name="그룹 1340" transform="translate(210.827 2.531)">
      <g id="그룹_1339" data-name="그룹 1339" clip-path="url(#clip-path-5)">
        <rect id="사각형_683" data-name="사각형 683" width="12.941" height="9.929" transform="matrix(0.982, -0.19, 0.19, 0.982, -1.466, 0.283)" fill="url(#linear-gradient-5)"/>
      </g>
    </g>
    <g id="그룹_1342" data-name="그룹 1342" transform="translate(154.663 4.964)">
      <g id="그룹_1341" data-name="그룹 1341" clip-path="url(#clip-path-6)">
        <rect id="사각형_684" data-name="사각형 684" width="42.048" height="21.093" transform="translate(-2.642 0.495) rotate(-10.954)" fill="url(#linear-gradient-6)"/>
      </g>
    </g>
    <g id="그룹_1344" data-name="그룹 1344" transform="translate(172.391 2.531)">
      <g id="그룹_1343" data-name="그룹 1343" clip-path="url(#clip-path-7)">
        <rect id="사각형_685" data-name="사각형 685" width="12.943" height="9.929" transform="matrix(0.982, -0.19, 0.19, 0.982, -1.514, 0.283)" fill="url(#linear-gradient-7)"/>
      </g>
    </g>
  </g>
</svg>
