<svg xmlns="http://www.w3.org/2000/svg" viewBox="0 0 159.79 170.48"><defs><style>.cls-1{fill:#a4ffb9;}.cls-2{fill:#ffe045;}.cls-3,.cls-4{fill:none;stroke:#000;stroke-width:4.5px;}.cls-3{stroke-linecap:round;stroke-linejoin:round;}.cls-4{stroke-miterlimit:10;}</style></defs><g id="Layer_2" data-name="Layer 2"><g id="Layer_1-2" data-name="Layer 1"><polygon class="cls-1" points="75.79 82.26 49.91 56.38 49.91 11.08 127.55 11.08 127.55 56.38 101.67 82.26 75.79 82.26"/><circle class="cls-2" cx="86.37" cy="125.19" r="45.29"/><line class="cls-3" x1="21.66" y1="76.66" x2="28.13" y2="76.66"/><line class="cls-3" x1="2.25" y1="76.66" x2="8.72" y2="76.66"/><line class="cls-3" x1="15.19" y1="70.19" x2="15.19" y2="63.72"/><line class="cls-3" x1="15.19" y1="89.6" x2="15.19" y2="83.13"/><line class="cls-3" x1="131.66" y1="147.83" x2="138.13" y2="147.83"/><line class="cls-3" x1="151.07" y1="147.83" x2="157.54" y2="147.83"/><line class="cls-3" x1="144.6" y1="141.36" x2="144.6" y2="134.89"/><line class="cls-3" x1="144.6" y1="160.78" x2="144.6" y2="154.31"/><line class="cls-3" x1="138.13" y1="60.48" x2="141.36" y2="60.48"/><line class="cls-3" x1="121.95" y1="60.48" x2="125.19" y2="60.48"/><line class="cls-3" x1="131.66" y1="54.01" x2="131.66" y2="50.78"/><line class="cls-3" x1="131.66" y1="70.19" x2="131.66" y2="66.95"/><circle class="cls-3" cx="79.9" cy="115.48" r="45.29"/><path class="cls-3" d="M67.59,132.54h9.7V107.07c0-1.25,0-2.56.11-3.92l-5.72,4.74a3.57,3.57,0,0,1-1.11.65,3.23,3.23,0,0,1-1.07.19,3.32,3.32,0,0,1-1.62-.4,3.49,3.49,0,0,1-1-.85l-3.4-4.5L79.17,89.77H88v42.77h8.32v7.76H67.59Z"/><polyline class="cls-4" points="66.95 73.42 41.07 47.54 41.07 2.25 118.72 2.25 118.72 47.54 92.84 73.42"/><line class="cls-4" x1="66.95" y1="2.25" x2="66.95" y2="73.42"/><line class="cls-4" x1="92.84" y1="2.25" x2="92.84" y2="73.42"/></g></g></svg>