<svg xmlns="http://www.w3.org/2000/svg" viewBox="0 0 159.79 170.48"><defs><style>.cls-1,.cls-4{fill:none;stroke:#000;stroke-width:4.5px;}.cls-1{stroke-linecap:round;stroke-linejoin:round;}.cls-2{fill:#a4ffb9;}.cls-3{fill:#cecccc;}.cls-4{stroke-miterlimit:10;}</style></defs><g id="Layer_2" data-name="Layer 2"><g id="Layer_1-2" data-name="Layer 1"><line class="cls-1" x1="21.66" y1="76.66" x2="28.13" y2="76.66"/><line class="cls-1" x1="2.25" y1="76.66" x2="8.72" y2="76.66"/><line class="cls-1" x1="15.19" y1="70.19" x2="15.19" y2="63.72"/><line class="cls-1" x1="15.19" y1="89.6" x2="15.19" y2="83.13"/><line class="cls-1" x1="131.66" y1="147.83" x2="138.13" y2="147.83"/><line class="cls-1" x1="151.07" y1="147.83" x2="157.54" y2="147.83"/><line class="cls-1" x1="144.6" y1="141.36" x2="144.6" y2="134.89"/><line class="cls-1" x1="144.6" y1="160.78" x2="144.6" y2="154.31"/><polygon class="cls-2" points="75.79 82.26 49.91 56.38 49.91 11.08 127.55 11.08 127.55 56.38 101.67 82.26 75.79 82.26"/><circle class="cls-3" cx="86.37" cy="125.19" r="45.29"/><circle class="cls-1" cx="79.9" cy="115.48" r="45.29"/><polyline class="cls-4" points="66.95 73.42 41.07 47.54 41.07 2.25 118.72 2.25 118.72 47.54 92.84 73.42"/><line class="cls-4" x1="66.95" y1="2.25" x2="66.95" y2="73.42"/><line class="cls-4" x1="92.84" y1="2.25" x2="92.84" y2="73.42"/><path class="cls-1" d="M80.73,89.25a19.57,19.57,0,0,1,6.74,1.09,15.17,15.17,0,0,1,5.11,3A13.11,13.11,0,0,1,95.82,98,15.15,15.15,0,0,1,97,103.91a16.23,16.23,0,0,1-.78,5.13A20.27,20.27,0,0,1,94,113.53a32.31,32.31,0,0,1-3.14,4.12q-1.79,2-3.8,4l-9.87,10.12a35.73,35.73,0,0,1,3.76-.88,19.81,19.81,0,0,1,3.48-.33H93.9a3.85,3.85,0,0,1,2.74,1,3.32,3.32,0,0,1,1,2.52v6.23H62.15v-3.46a6.46,6.46,0,0,1,.41-2.15A5.32,5.32,0,0,1,64,132.61L78.58,118c1.25-1.25,2.33-2.44,3.26-3.57A22.12,22.12,0,0,0,84.12,111a15.08,15.08,0,0,0,1.36-3.29,13.6,13.6,0,0,0,.45-3.48,6.77,6.77,0,0,0-1.44-4.63A5.6,5.6,0,0,0,80.1,98a6.45,6.45,0,0,0-2.21.35,6.58,6.58,0,0,0-1.81.93,6.4,6.4,0,0,0-1.37,1.38,7.59,7.59,0,0,0-.91,1.74,5,5,0,0,1-1.41,2.25,3.49,3.49,0,0,1-2.3.7,6.63,6.63,0,0,1-.75,0,7.46,7.46,0,0,1-.81-.1l-5.69-1A19,19,0,0,1,65,97.64a15.53,15.53,0,0,1,9.28-7.47A21.88,21.88,0,0,1,80.73,89.25Z"/></g></g></svg>