<svg xmlns="http://www.w3.org/2000/svg" width="875" height="252" viewBox="0 0 875 252">
  <g id="그룹_580" data-name="그룹 580" transform="translate(-417.717 -810.999)">
    <g id="그룹_579" data-name="그룹 579" transform="translate(418 811)">
      <rect id="사각형_601" data-name="사각형 601" width="875" height="252" transform="translate(-0.283 -0.001)" fill="#fff"/>
      <g id="그룹_578" data-name="그룹 578" transform="translate(174.244 40.011)">
        <g id="그룹_567" data-name="그룹 567">
          <path id="패스_1089" data-name="패스 1089" d="M292.864,132.274l-26.816-26.816V58.529H346.5v46.929L319.68,132.274Z" transform="translate(-216.67 -49.376)" fill="#a4ffb9"/>
          <circle id="타원_166" data-name="타원 166" cx="46.929" cy="46.929" r="46.929" transform="translate(40.225 80.449)" fill="#ffe045"/>
          <g id="그룹_563" data-name="그룹 563" transform="translate(0 63.689)">
            <line id="선_12" data-name="선 12" x2="6.704" transform="translate(20.112 13.408)" fill="none" stroke="#000" stroke-linecap="round" stroke-linejoin="round" stroke-width="5.551"/>
            <g id="그룹_562" data-name="그룹 562">
              <line id="선_13" data-name="선 13" x2="6.704" transform="translate(0 13.408)" fill="none" stroke="#000" stroke-linecap="round" stroke-linejoin="round" stroke-width="5.551"/>
              <line id="선_14" data-name="선 14" y1="6.704" transform="translate(13.408)" fill="none" stroke="#000" stroke-linecap="round" stroke-linejoin="round" stroke-width="5.551"/>
              <line id="선_15" data-name="선 15" y1="6.704" transform="translate(13.408 20.112)" fill="none" stroke="#000" stroke-linecap="round" stroke-linejoin="round" stroke-width="5.551"/>
            </g>
          </g>
          <g id="그룹_564" data-name="그룹 564" transform="translate(134.082 137.434)">
            <line id="선_16" data-name="선 16" x2="6.704" transform="translate(0 13.408)" fill="none" stroke="#000" stroke-linecap="round" stroke-linejoin="round" stroke-width="5.551"/>
            <line id="선_17" data-name="선 17" x2="6.704" transform="translate(20.112 13.408)" fill="none" stroke="#000" stroke-linecap="round" stroke-linejoin="round" stroke-width="5.551"/>
            <line id="선_18" data-name="선 18" y1="6.704" transform="translate(13.408)" fill="none" stroke="#000" stroke-linecap="round" stroke-linejoin="round" stroke-width="5.551"/>
            <line id="선_19" data-name="선 19" y1="6.704" transform="translate(13.408 20.112)" fill="none" stroke="#000" stroke-linecap="round" stroke-linejoin="round" stroke-width="5.551"/>
          </g>
          <g id="그룹_565" data-name="그룹 565" transform="translate(124.026 50.281)">
            <line id="선_20" data-name="선 20" x2="3.352" transform="translate(16.76 10.056)" fill="none" stroke="#000" stroke-linecap="round" stroke-linejoin="round" stroke-width="5.551"/>
            <line id="선_21" data-name="선 21" x2="3.352" transform="translate(0 10.056)" fill="none" stroke="#000" stroke-linecap="round" stroke-linejoin="round" stroke-width="5.551"/>
            <line id="선_22" data-name="선 22" y1="3.352" transform="translate(10.056)" fill="none" stroke="#000" stroke-linecap="round" stroke-linejoin="round" stroke-width="5.551"/>
            <line id="선_23" data-name="선 23" y1="3.352" transform="translate(10.056 16.76)" fill="none" stroke="#000" stroke-linecap="round" stroke-linejoin="round" stroke-width="5.551"/>
          </g>
          <circle id="타원_167" data-name="타원 167" cx="46.929" cy="46.929" r="46.929" transform="translate(33.521 70.393)" fill="none" stroke="#000" stroke-linecap="round" stroke-linejoin="round" stroke-width="5.551"/>
          <g id="그룹_566" data-name="그룹 566" transform="translate(63.39 90.679)">
            <path id="패스_1090" data-name="패스 1090" d="M287.04,199.9h10.054v-26.4c0-1.292.038-2.648.108-4.056l-5.924,4.916a3.687,3.687,0,0,1-1.152.666,3.416,3.416,0,0,1-2.782-.216,3.555,3.555,0,0,1-1.1-.877l-3.519-4.67,16.305-13.684h9.191V199.9h8.622v8.043H287.04Z" transform="translate(-282.729 -155.585)" fill="none" stroke="#000" stroke-linecap="round" stroke-linejoin="round" stroke-width="5.551"/>
          </g>
          <path id="패스_1091" data-name="패스 1091" d="M281.967,121.378,255.151,94.562V47.633H335.6V94.562l-26.816,26.816" transform="translate(-214.926 -47.633)" fill="none" stroke="#000" stroke-miterlimit="10" stroke-width="5.551"/>
          <line id="선_24" data-name="선 24" y2="73.745" transform="translate(67.041)" fill="none" stroke="#000" stroke-miterlimit="10" stroke-width="5.551"/>
          <line id="선_25" data-name="선 25" y2="73.745" transform="translate(93.857)" fill="none" stroke="#000" stroke-miterlimit="10" stroke-width="5.551"/>
        </g>
        <g id="그룹_573" data-name="그룹 573" transform="translate(203.474)">
          <g id="그룹_569" data-name="그룹 569" transform="translate(0 63.689)">
            <line id="선_26" data-name="선 26" x2="6.704" transform="translate(20.112 13.408)" fill="none" stroke="#000" stroke-linecap="round" stroke-linejoin="round" stroke-width="5.551"/>
            <g id="그룹_568" data-name="그룹 568">
              <line id="선_27" data-name="선 27" x2="6.704" transform="translate(0 13.408)" fill="none" stroke="#000" stroke-linecap="round" stroke-linejoin="round" stroke-width="5.551"/>
              <line id="선_28" data-name="선 28" y1="6.704" transform="translate(13.408)" fill="none" stroke="#000" stroke-linecap="round" stroke-linejoin="round" stroke-width="5.551"/>
              <line id="선_29" data-name="선 29" y1="6.704" transform="translate(13.408 20.112)" fill="none" stroke="#000" stroke-linecap="round" stroke-linejoin="round" stroke-width="5.551"/>
            </g>
          </g>
          <g id="그룹_570" data-name="그룹 570" transform="translate(120.674 137.434)">
            <line id="선_30" data-name="선 30" x2="6.704" transform="translate(0 13.408)" fill="none" stroke="#000" stroke-linecap="round" stroke-linejoin="round" stroke-width="5.551"/>
            <line id="선_31" data-name="선 31" x2="6.704" transform="translate(20.112 13.408)" fill="none" stroke="#000" stroke-linecap="round" stroke-linejoin="round" stroke-width="5.551"/>
            <line id="선_32" data-name="선 32" y1="6.704" transform="translate(13.408)" fill="none" stroke="#000" stroke-linecap="round" stroke-linejoin="round" stroke-width="5.551"/>
            <line id="선_33" data-name="선 33" y1="6.704" transform="translate(13.408 20.112)" fill="none" stroke="#000" stroke-linecap="round" stroke-linejoin="round" stroke-width="5.551"/>
          </g>
          <g id="그룹_572" data-name="그룹 572" transform="translate(20.112)">
            <path id="패스_1092" data-name="패스 1092" d="M519.134,132.274l-26.816-26.816V58.529h80.449v46.929L545.95,132.274Z" transform="translate(-476.46 -49.376)" fill="#a4ffb9"/>
            <circle id="타원_168" data-name="타원 168" cx="46.929" cy="46.929" r="46.929" transform="translate(6.704 80.449)" fill="#cecccc"/>
            <circle id="타원_169" data-name="타원 169" cx="46.929" cy="46.929" r="46.929" transform="translate(0 70.393)" fill="none" stroke="#000" stroke-linecap="round" stroke-linejoin="round" stroke-width="5.551"/>
            <path id="패스_1093" data-name="패스 1093" d="M508.237,121.378,481.421,94.562V47.633H561.87V94.562l-26.817,26.816" transform="translate(-474.717 -47.633)" fill="none" stroke="#000" stroke-miterlimit="10" stroke-width="5.551"/>
            <line id="선_34" data-name="선 34" y2="73.745" transform="translate(33.521)" fill="none" stroke="#000" stroke-miterlimit="10" stroke-width="5.551"/>
            <line id="선_35" data-name="선 35" y2="73.745" transform="translate(60.337)" fill="none" stroke="#000" stroke-miterlimit="10" stroke-width="5.551"/>
            <g id="그룹_571" data-name="그룹 571" transform="translate(28.542 90.142)">
              <path id="패스_1094" data-name="패스 1094" d="M526.666,154.945a20.3,20.3,0,0,1,6.985,1.128,15.681,15.681,0,0,1,5.3,3.145,13.579,13.579,0,0,1,3.357,4.793,15.705,15.705,0,0,1,1.167,6.125,16.806,16.806,0,0,1-.807,5.314,21.047,21.047,0,0,1-2.209,4.653,32.739,32.739,0,0,1-3.25,4.272q-1.85,2.061-3.934,4.186l-10.234,10.486a36.732,36.732,0,0,1,3.9-.917,20.551,20.551,0,0,1,3.606-.339h9.771a3.953,3.953,0,0,1,2.838.988,3.418,3.418,0,0,1,1.041,2.6v6.465H507.418v-3.589a6.541,6.541,0,0,1,.429-2.227,5.431,5.431,0,0,1,1.511-2.157l15.084-15.191a49.978,49.978,0,0,0,3.375-3.7,22.939,22.939,0,0,0,2.37-3.466,15.824,15.824,0,0,0,1.4-3.408,13.709,13.709,0,0,0,.468-3.612,6.981,6.981,0,0,0-1.49-4.793,5.8,5.8,0,0,0-4.545-1.672,6.99,6.99,0,0,0-2.3.362,6.828,6.828,0,0,0-1.868.97,6.414,6.414,0,0,0-1.42,1.432,7.666,7.666,0,0,0-.95,1.8,5.187,5.187,0,0,1-1.456,2.333,3.667,3.667,0,0,1-2.387.719q-.36,0-.772-.035c-.278-.024-.559-.059-.845-.111l-5.888-1.041a19.7,19.7,0,0,1,2.207-6.822,16.059,16.059,0,0,1,9.609-7.739A22.843,22.843,0,0,1,526.666,154.945Z" transform="translate(-507.418 -154.945)" fill="none" stroke="#000" stroke-linecap="round" stroke-linejoin="round" stroke-width="5.551"/>
            </g>
          </g>
        </g>
        <g id="그룹_577" data-name="그룹 577" transform="translate(415.328)">
          <g id="그룹_574" data-name="그룹 574" transform="translate(90.505 70.393)">
            <line id="선_36" data-name="선 36" x2="3.352" transform="translate(16.76 10.056)" fill="none" stroke="#000" stroke-linecap="round" stroke-linejoin="round" stroke-width="5.551"/>
            <line id="선_37" data-name="선 37" x2="3.352" transform="translate(0 10.056)" fill="none" stroke="#000" stroke-linecap="round" stroke-linejoin="round" stroke-width="5.551"/>
            <line id="선_38" data-name="선 38" y1="3.352" transform="translate(10.056)" fill="none" stroke="#000" stroke-linecap="round" stroke-linejoin="round" stroke-width="5.551"/>
            <line id="선_39" data-name="선 39" y1="3.352" transform="translate(10.056 16.76)" fill="none" stroke="#000" stroke-linecap="round" stroke-linejoin="round" stroke-width="5.551"/>
          </g>
          <g id="그룹_576" data-name="그룹 576">
            <path id="패스_1095" data-name="패스 1095" d="M747.4,132.274l-26.816-26.816V58.529h80.449v46.929l-26.816,26.816Z" transform="translate(-704.726 -49.376)" fill="#a4ffb9"/>
            <circle id="타원_170" data-name="타원 170" cx="46.929" cy="46.929" r="46.929" transform="translate(6.704 80.449)" fill="#ff9876"/>
            <circle id="타원_171" data-name="타원 171" cx="46.929" cy="46.929" r="46.929" transform="translate(0 70.393)" fill="none" stroke="#000" stroke-linecap="round" stroke-linejoin="round" stroke-width="5.551"/>
            <path id="패스_1096" data-name="패스 1096" d="M736.5,121.378,709.686,94.562V47.633h80.449V94.562l-26.816,26.816" transform="translate(-702.982 -47.633)" fill="none" stroke="#000" stroke-miterlimit="10" stroke-width="5.551"/>
            <line id="선_40" data-name="선 40" y2="73.745" transform="translate(33.521)" fill="none" stroke="#000" stroke-miterlimit="10" stroke-width="5.551"/>
            <line id="선_41" data-name="선 41" y2="73.745" transform="translate(60.337)" fill="none" stroke="#000" stroke-miterlimit="10" stroke-width="5.551"/>
            <g id="그룹_575" data-name="그룹 575" transform="translate(28.361 90.124)">
              <path id="패스_1097" data-name="패스 1097" d="M755.437,154.924a20.149,20.149,0,0,1,6.9,1.093,15.461,15.461,0,0,1,5.1,2.964,12.506,12.506,0,0,1,3.159,4.332,12.755,12.755,0,0,1,1.079,5.184,17.138,17.138,0,0,1-.5,4.366,10.049,10.049,0,0,1-1.491,3.268,9.258,9.258,0,0,1-2.443,2.349,14.516,14.516,0,0,1-3.323,1.62q8.693,3.015,8.691,11.813a16.351,16.351,0,0,1-1.508,7.253,14.921,14.921,0,0,1-4.04,5.138,17.394,17.394,0,0,1-5.872,3.069,23.6,23.6,0,0,1-6.967,1.023,24.942,24.942,0,0,1-6.646-.806,15.245,15.245,0,0,1-5.17-2.513,16.632,16.632,0,0,1-3.969-4.367,29.287,29.287,0,0,1-2.964-6.318l4.957-2.01a5.572,5.572,0,0,1,1.274-.4,7.568,7.568,0,0,1,1.239-.105,4.652,4.652,0,0,1,2.066.45,3.065,3.065,0,0,1,1.383,1.31,13.028,13.028,0,0,0,3.428,4.325,6.928,6.928,0,0,0,4.255,1.35,7.78,7.78,0,0,0,3.252-.631,6.986,6.986,0,0,0,2.3-1.614A6.719,6.719,0,0,0,761,194.823a7.3,7.3,0,0,0,.467-2.549,18.03,18.03,0,0,0-.234-3.039,3.97,3.97,0,0,0-1.312-2.315,7.469,7.469,0,0,0-3.25-1.49,27.4,27.4,0,0,0-6.05-.52v-7.687a22.3,22.3,0,0,0,5.278-.5,8.081,8.081,0,0,0,3.107-1.38,4.178,4.178,0,0,0,1.456-2.139,10.038,10.038,0,0,0,.359-2.765,6.908,6.908,0,0,0-1.49-4.758,5.8,5.8,0,0,0-4.544-1.672,7,7,0,0,0-2.3.362,6.811,6.811,0,0,0-1.867.97,6.4,6.4,0,0,0-1.42,1.432,7.666,7.666,0,0,0-.95,1.8A5.181,5.181,0,0,1,746.8,170.9a3.666,3.666,0,0,1-2.387.719c-.24,0-.5-.012-.772-.035s-.558-.059-.844-.111l-5.889-1.041a19.659,19.659,0,0,1,2.209-6.821,16.047,16.047,0,0,1,9.607-7.74A22.837,22.837,0,0,1,755.437,154.924Z" transform="translate(-735.469 -154.924)" fill="none" stroke="#000" stroke-linecap="round" stroke-linejoin="round" stroke-width="5.551"/>
            </g>
          </g>
        </g>
      </g>
    </g>
  </g>
</svg>
