<svg xmlns="http://www.w3.org/2000/svg" viewBox="0 0 163.45 184.33"><defs><style>.cls-1,.cls-5{fill:none;stroke:#000;stroke-width:4.5px;}.cls-1{stroke-miterlimit:10;}.cls-2{fill:#ededed;}.cls-3{fill:#a4ffb9;}.cls-4{fill:#cecccc;}.cls-5{stroke-linecap:round;stroke-linejoin:round;}</style></defs><g id="Layer_2" data-name="Layer 2"><g id="Layer_1-2" data-name="Layer 1"><line class="cls-1" x1="26.86" y1="36.58" x2="26.86" y2="36.32"/><polygon class="cls-2" points="107.23 161.01 36.86 160.41 36.86 46.47 57.26 25.19 137.7 25.19 137.7 161.01 107.23 161.01"/><polygon class="cls-3" points="118.15 142.96 118.15 184.33 132.78 174.5 147.05 184.33 147.05 142.96 118.15 142.96"/><path class="cls-4" d="M163.45,125.71c0,4-5.23,6.81-6.59,10.26s.31,9.45-2.26,12.14-8.17.89-11.58,2.37-6,6.91-9.78,6.91-6.5-5.48-9.79-6.91-9,.33-11.57-2.37-.85-8.56-2.26-12.14S103,129.68,103,125.71s5.22-6.81,6.59-10.26-.31-9.45,2.26-12.14,8.17-.89,11.58-2.37,6-6.91,9.78-6.91,6.49,5.48,9.78,6.91,9-.33,11.58,2.37.85,8.57,2.26,12.14S163.45,121.74,163.45,125.71Z"/><path class="cls-5" d="M79.34,46.47a19.57,19.57,0,0,1,6.74,1.09,15,15,0,0,1,5.11,3,13,13,0,0,1,3.24,4.63,15.15,15.15,0,0,1,1.13,5.91,16.23,16.23,0,0,1-.78,5.13,20.27,20.27,0,0,1-2.13,4.49,31.41,31.41,0,0,1-3.14,4.12q-1.79,2-3.79,4L75.84,89a35.73,35.73,0,0,1,3.76-.88,19.89,19.89,0,0,1,3.48-.33h9.43a3.85,3.85,0,0,1,2.74,1,3.31,3.31,0,0,1,1,2.51v6.24H60.76V94.06a6.24,6.24,0,0,1,.42-2.15,5.12,5.12,0,0,1,1.45-2.08L77.19,75.17c1.25-1.25,2.33-2.44,3.26-3.57a23,23,0,0,0,2.29-3.35A15,15,0,0,0,84.09,65a13.19,13.19,0,0,0,.45-3.49,6.71,6.71,0,0,0-1.44-4.62,5.6,5.6,0,0,0-4.39-1.62,6.74,6.74,0,0,0-2.21.35,7,7,0,0,0-1.8.94,6.23,6.23,0,0,0-1.38,1.38,7.39,7.39,0,0,0-.91,1.74A5,5,0,0,1,71,61.89a3.53,3.53,0,0,1-2.3.7c-.23,0-.48,0-.75,0a5.82,5.82,0,0,1-.81-.11l-5.69-1a18.94,18.94,0,0,1,2.13-6.58,15.44,15.44,0,0,1,9.28-7.47A21.88,21.88,0,0,1,79.34,46.47Z"/><path class="cls-1" d="M153.45,115.71c0,4-5.23,6.81-6.59,10.26s.31,9.45-2.26,12.14-8.17.89-11.58,2.37-6,6.91-9.78,6.91-6.5-5.48-9.79-6.91-9,.33-11.57-2.37S101,129.55,99.62,126,93,119.68,93,115.71s5.22-6.81,6.59-10.26-.31-9.45,2.26-12.14,8.17-.89,11.58-2.37,6-6.91,9.78-6.91,6.49,5.48,9.78,6.91,9-.33,11.58,2.37.85,8.57,2.26,12.14S153.45,111.74,153.45,115.71Z"/><path class="cls-1" d="M136.51,105.28c10,17-7,34.86-23.22,24.35a10.57,10.57,0,0,1-3.32-3.49c-10-17,7-34.86,23.22-24.35A10.66,10.66,0,0,1,136.51,105.28Z"/><polyline class="cls-1" points="108.15 142.96 108.15 174.33 122.78 164.5 137.05 174.33 137.05 142.96"/><polyline class="cls-1" points="97.23 151.01 26.86 150.41 26.86 36.58 47.26 15.19 127.7 15.19 127.7 74.79"/><path class="cls-1" d="M49,15.19V32.28a6,6,0,0,1-5.86,6.15H26.86"/><line class="cls-5" x1="21.66" y1="15.19" x2="28.13" y2="15.19"/><line class="cls-5" x1="2.25" y1="15.19" x2="8.72" y2="15.19"/><line class="cls-5" x1="15.19" y1="8.72" x2="15.19" y2="2.25"/><line class="cls-5" x1="15.19" y1="28.13" x2="15.19" y2="21.66"/></g></g></svg>