<?xml version="1.0" encoding="utf-8"?>
<!-- Generator: Adobe Illustrator 24.0.1, SVG Export Plug-In . SVG Version: 6.00 Build 0)  -->
<svg version="1.1" id="레이어_1" xmlns="http://www.w3.org/2000/svg" xmlns:xlink="http://www.w3.org/1999/xlink" x="0px"
	 y="0px" viewBox="0 0 368.5 129.7" style="enable-background:new 0 0 368.5 129.7;" xml:space="preserve">
<style type="text/css">
	.st0{fill:#2C2D2C;}
	.st1{fill:#505050;}
</style>
<g id="Layer_2">
	<g id="Layer_1-2">
		<path class="st0" d="M285.3,77.9v-0.3v0.1l0.1-0.3l0,0l0-0.3l0,0l0.1-0.3v-0.1v-0.3v-0.3V76v-0.2v0.2l0,0c0.1-0.3,0-0.5-0.2-0.7
			l-0.1-0.1l-0.3-0.2l-0.1-0.1l-0.3-0.1h-0.3l-0.4,0.1l-0.3,0.2h0.1l-0.5,0.2H283l-0.6,0.3h0.1l-0.8,0.4l-0.1,0.1l-0.9,0.6h0.1
			l-1,0.6l-0.1,0.1l-1.1,0.8l0,0l-1.2,0.9l0,0l-1.3,0.9l0,0l-1.3,1l0,0l-1.3,1.1h-0.1l-1.1,1.1l0,0l-1,1l-0.1,0.1l-0.8,1l0,0
			l-0.7,0.8l-0.1,0.1l-0.4,0.7l0,0l-0.3,0.6l-0.1,0.3l-0.1,0.5v0.4l0.1,0.5c0,0.3,0.2,0.5,0.4,0.7l0.3,0.3l0.2,0.1l0.6,0.3l0.4,0.2
			l0.9,0.1l0,0h1.1h0.2l1.3-0.2h0.1l1.4-0.3h0.1l1.6-0.6l0,0l1.6-0.6l0,0l1.8-0.7l1.6-0.6l0,0l1.8-0.8l0,0l1.5-0.7l1.4-0.7l0,0
			l1.2-0.7l0,0l0.9-0.5h0.1l0.8-0.5l0,0l0.6-0.3l0.2-0.2l0.4-0.5l0,0l0.3-0.4l0.1-0.1l0.3-0.5l0.1-0.2l0.1-0.4l0.1-0.5v-0.5
			l-0.1-0.4l-0.2-0.4l-0.3-0.4l-0.4-0.4l-0.2-0.2l-0.5-0.3l-0.2-0.1l-0.7-0.3h-0.1l-0.8-0.3h-0.2l-1-0.2h-0.1l-1-0.1h-0.1h-1h-2
			l-0.8,0.1h0.1l-0.6,0.1l-0.4,0.1l-0.4,0.2l-0.3,0.3l-0.2,0.3c-0.2,0.3-0.2,0.7,0.1,1l0.2,0l0.3,0.2l0.5,0.2h0.1l0.7,0.1h1.1l1-0.1
			l0,0l1.1-0.2c0.4-0.1,0.6-0.4,0.6-0.8c-0.1-0.4-0.4-0.6-0.8-0.6l0,0l-1.1,0.2l0,0l-1,0.1h0.1h-0.9h0.1l-0.7-0.1l0.2,0.1l-0.5-0.3
			l0.3,0.3l-0.1-0.2c-0.2-0.4-0.6-0.6-1.1-0.4c-0.4,0.2-0.6,0.6-0.4,1.1c0.2,0.4,0.6,0.6,1,0.5l0.3-0.1h-0.2h0.5H282l0.6,0.1h-0.1
			l0.8,0.1h0.2h1.7h1l0,0l1,0.1h-0.1l1,0.2H288l0.8,0.3h-0.1l0.7,0.3l-0.1-0.1l0.5,0.3l-0.2-0.1l0.4,0.4l-0.3-0.3l0.2,0.4l-0.2-0.4
			l0.1,0.5v-0.4l-0.1,0.4l0.1-0.3l-0.2,0.5l0.1-0.2l-0.3,0.4l0,0l-0.4,0.5l0.2-0.2l-0.5,0.4l0,0l-0.7,0.6l0.1-0.1l-0.9,0.5l-1.1,0.7
			l0,0l-1.4,0.7l-1.5,0.7l0,0l-1.6,0.7l0,0l-1.6,0.6l-1.8,0.7l0,0l-1.6,0.6l0,0L275,88h0.1l-1.4,0.3h0l-1.3,0.2h0.2l-1.1-0.1h0
			l-0.9-0.1l0.5,0.2l-0.6-0.4l0.1,0.1l-0.3-0.3l0.4,0.6l-0.1-0.5v0.4l0.1-0.5l-0.1,0.3l0.4-0.6l0,0l0.4-0.7l-0.1,0.1l0.6-0.8l0,0
			l0.8-1l-0.1,0.1l1-1l0,0l1.1-1.1h-0.1l1.3-1.1h0l1.3-1l0,0l1.2-0.9l0,0l1.2-0.9l0,0l1.1-0.9l-0.1,0.1l1-0.6h0.1l0.9-0.7l-0.1,0.1
			l0.8-0.4h0.1l0.6-0.4l-0.1,0.1l0.5-0.2l0.1-0.1l0.3-0.2l-0.4,0.1h0.3h-0.2h0.1l-0.4-0.2l0.1,0.1l-0.3-0.4l0,0v-0.2V76v0.2l0,0v0.3
			v0.3v0.1l0.1,0.3l0,0l0,0.3l0,0l0.1,0.3v0.2c-0.1,0.3,0.1,0.5,0.4,0.6c0.3,0.1,0.5-0.1,0.6-0.4c0-0.1,0-0.1,0-0.2L285.3,77.9z"/>
		<path class="st0" d="M297.2,70.9l-0.1,0.3v0.1l-0.1,0.5V72v1.2l-0.1,0.9l0,0l-0.1,1l0,0l-0.2,1.3l0,0l-0.1,1.3v-0.1l-0.2,1.3v0.1
			l-0.2,1.3v-0.1l-0.2,1.2l0,0l-0.2,1.3l0,0l-0.2,1.2l0,0l-0.3,1.3V85l-0.3,1.2v0.1l-0.2,1.2v-0.1l-0.3,1.2v0.1l-0.3,1.3v-0.1
			l-0.3,1.1v0.2l-0.2,1.3l0,0l-0.2,1.1l0,0l-0.1,1l0,0l-0.1,1v-0.2l-0.2,0.9v0.1l-0.1,0.7V97l-0.1,0.7v0.2v1.8
			c-0.1,0.7,0.5,1.3,1.2,1.4s1.3-0.5,1.4-1.2c0-0.1,0-0.2,0-0.2V98c0-0.2,0-0.4-0.1-0.6l-0.2-0.3l0.1,0.5v-0.3l-0.1,0.5l0.3-0.6
			v-0.1l0.3-0.8c0.2-0.6-0.1-1.2-0.6-1.4c-0.6-0.2-1.2,0.1-1.4,0.6l-0.3,0.8v-0.1l-0.3,0.6l-0.1,0.5v0.3l0.1-0.5l-0.2,0.3
			c-0.1,0.2-0.1,0.4-0.1,0.6v1.8c-0.1,0.7,0.5,1.3,1.2,1.4s1.3-0.5,1.4-1.2c0-0.1,0-0.2,0-0.2V98v0.2l0.1-0.7v-0.1l0.1-0.7v0.1
			l0.2-0.9v-0.2l0.1-1l0,0l0.1-1l0,0l0.2-1.1l0,0l0.1-1.3v0.2l0.3-1.1v-0.1l0.2-1.3v0.1L297,88v-0.1l0.2-1.2v0.1l0.3-1.2v-0.1
			l0.3-1.3l0,0L298,83l0,0l0.2-1.3l0,0l0.2-1.2l0,0l0.1-1.3v0.1l0.2-1.3v-0.1l0.1-1.3V75l-0.1-1l0,0l-0.1-0.9v-0.6V72v-0.2l-0.1-0.5
			v-0.1l-0.1-0.3c-0.1-0.3-0.5-0.4-0.8-0.3C297.4,70.7,297.3,70.8,297.2,70.9L297.2,70.9z"/>
		<path class="st0" d="M311.7,81.9l0.3-0.3l0,0l0.3-0.3c0.2-0.2,0.2-0.5,0-0.7c-0.2-0.2-0.5-0.2-0.7,0l-0.3,0.3l0,0l-0.3,0.3
			c-0.2,0.2-0.2,0.5,0,0.7c0,0,0,0,0,0C311.1,82,311.5,82.1,311.7,81.9C311.7,81.9,311.7,81.9,311.7,81.9z"/>
		<path class="st0" d="M311.7,69.4h-0.3h0.1l-0.3-0.1h0.1l-0.2-0.1l-0.2-0.1l0.1,0.1l-0.2-0.2h-0.1l-0.1-0.1l0.1,0.8l0,0
			c0.2-0.2,0.2-0.5,0.1-0.8l-0.1-0.2c-0.1-0.2-0.3-0.3-0.5-0.4l-0.2-0.1c-0.4-0.2-0.9,0.1-1.1,0.5c-0.2,0.4,0.1,0.9,0.5,1.1
			c0.4,0.2,0.9-0.1,1.1-0.5l0.1-0.2c0.1-0.3,0.1-0.7-0.2-1l-0.1-0.1l0.2,0.3l-0.1-0.3l-0.1-0.3l0,0l-0.2-0.2l-0.1-0.1
			c-0.5-0.4-1.1-0.3-1.5,0.2s-0.3,1.1,0.2,1.5c0.2,0.1,0.4,0.2,0.6,0.2h0.4h0.3h1.2h0.5l0,0h0.5L311.7,69.4l0.6,0.1h0.1h0.5
			l-0.3-0.1l0.6,0.2l0.3,0.1h0.5l-0.4-0.1l0.5,0.2l0.2,0.1l0.6,0.1l-0.2-0.1l0.4,0.2l0-0.1l0.4,0.2l0,0l0.5,0.3l-0.2-0.2l0.3,0.4
			l0.1,0.1l0.4,0.3l-0.2-0.2l0.3,0.5l0,0l0.2,0.4l0.1,0.2l0.3,0.3l-0.1-0.2l0.2,0.5c0.1,0.4,0.6,0.5,0.9,0.4s0.5-0.6,0.4-0.9l0,0
			l-0.2-0.5l-0.1-0.2l-0.3-0.3l0.1,0.2l-0.2-0.4l0,0l-0.3-0.5l-0.1-0.2l-0.4-0.4l0.1,0.1l-0.3-0.4l-0.2-0.2l-0.4-0.3l0,0l-0.4-0.3
			L316,69l-0.3-0.4c-0.1-0.2-0.3-0.3-0.5-0.4l-0.6-0.2l0.2,0.1l-0.4-0.3l-0.4-0.2l-0.5-0.1l0.4,0.2l-0.5-0.3l-0.5-0.2h-0.5h0.1
			l-0.6-0.1H312h-0.5l0,0H311h-1.4l0,0h-0.3c-0.5,0-0.9,0.3-1,0.8c-0.1,0.4,0,0.9,0.4,1.2l0.1,0.1l0,0h0l-0.3-0.4l0.1,0.3
			c0.2,0.4,0.7,0.7,1.2,0.6h0.1l-1-0.3l0.1,0.2c0.2,0.2,0.4,0.3,0.7,0.3h0.3l-0.5-0.2l0.2,0.2c0.2,0.2,0.5,0.2,0.7,0.1h0.1l-0.5-0.1
			l0.1,0.1l0-0.1l0.2,0.2l0.1,0.1l0.2,0.1l0.2,0.1h0.1l0.3,0.1h0.1h0.3c0.2,0,0.4-0.1,0.5-0.2c0.1-0.2,0.2-0.4,0.1-0.6
			C312.1,69.5,311.9,69.4,311.7,69.4z"/>
		<path class="st0" d="M305.8,76.2H305h0.1l-0.7-0.1l0,0l-0.6-0.1h0.1l-0.4-0.2h-0.1l-0.4-0.1l0.4,0.2l-0.1-0.1
			c-0.1-0.1-0.3-0.2-0.5-0.3h-0.3l0.5,0.2l0,0c-0.3-0.2-0.7-0.2-1-0.1c-0.3,0.2-0.5,0.5-0.5,0.9c0,0.4,0.2,0.7,0.6,0.8l0,0l0.3,0.1
			h0.3h0.4h0.7l0.7-0.1h0l0.8-0.1l0,0l0.9-0.1l0.9-0.1H307h1.1h0L309,77h0h0.9h2h0.6h-0.1l0.5,0.1l0,0l0.5,0.1l-0.3-0.1l0.4,0.2
			h-0.1l0.4,0.2l-0.4-0.4l0.2,0.3l0.2,0.3l-0.1-0.3l0.1,0.3v-0.2v0.3V78l0.1,0.4v-0.6l-0.1,0.5v-0.1l-0.3,0.6l0.1-0.1l-0.4,0.6
			l0.1-0.2l-0.5,0.6l0,0l-0.5,0.6l0.1-0.1l-0.6,0.6l-0.7,0.7l-0.7,0.7l0,0l-0.8,0.7l0,0l-0.7,0.6h0l-0.7,0.5l0,0l-0.6,0.5l-0.1,0.1
			l-0.4,0.4l0,0l-0.4,0.4l0.1-0.1l-0.3,0.2l0.2-0.1l-0.3,0.1l0.3-0.1h-0.2l1,0.6v-0.1l-0.2,0.8l0.2-0.2l0,0L308,86l0.5-0.5v0.1
			l0.5-0.5l0,0l0.6-0.5l-0.1,0.1l0.5-0.3l0,0l0.5-0.3l0.5-0.3h-0.1l0.4-0.1h-0.1l0.4-0.1h-0.2h0.3l0,0l0.3,0.1h-0.1l0.3,0.1
			l-0.4-0.3l0.2,0.2l-0.1-0.2l0.2,0.4l0,0l0.2,0.3l0.3,0.5l0,0l0.3,0.5l-0.1-0.2l0.2,0.6l0,0l0.2,0.6v-0.2l0.1,0.6l0,0v0.5v0.2
			L313,88v-0.2v0.5v0.4l0.1,0.3l0.1,0.3l0.1,0.2l0.1,0.2c0.1,0.2,0.3,0.3,0.5,0.4h0.1l-0.6-0.8v0.2v0.2l0,0c0.1,0.3,0.3,0.5,0.5,0.6
			l0.2,0.1c0.4,0.1,0.7,0,1-0.2l0.2-0.2l-0.1,0.1l0.3-0.2l0.2-0.2l0.4-0.5l-0.1,0.1l0.5-0.6l0.1-0.1l0.5-0.7l0,0l0.5-0.8l-0.1,0.1
			l0.6-0.7l0.1-0.1l0.5-0.8l0.5-0.7l0.4-0.7l-0.1,0.1l0.5-0.6v-0.1l0.4-0.5v0.1l0.4-0.5l0,0.1l0.4-0.4l0.1-0.1l0.2-0.3l-0.1,0.2
			l0.3-0.2l0.3-0.4l0.1-0.2l-0.1,0.2l0.1-0.2l-0.8,0.5h0.2c0.5-0.1,0.9-0.6,0.9-1.1v-0.2c0-0.5-0.3-0.9-0.8-1.1
			c-0.6-0.2-1.2,0.2-1.4,0.7c-0.1,0.4,0,0.8,0.3,1.1l0.1,0.2l-0.3-0.8v0.2l0,0v0.3c0,0.2,0.1,0.4,0.1,0.6l0.1,0.2l0.2,0.2l0.2,0.2
			l0.2,0.2l0.3,0.2l0,0l0.3,0.2h0.1l0.4,0.2l0.3,0.1l0.5,0.1h0.2h0.6h0.2l0.7-0.1h0.1l0.8-0.2h0.1l0.9-0.3l0,0l0.8-0.3l0,0l0.8-0.3
			l0.2-0.1l0.7-0.5l0,0l0.8-0.4l0,0l0.7-0.4h0l0.5-0.3l0.1-0.1l0.4-0.4l0,0l0.3-0.3l-0.2,0.2l0.4-0.2l0.3-0.3V79
			c0.1-0.3-0.1-0.6-0.3-0.8c-0.3-0.1-0.6,0-0.8,0.3l-0.2,0.3l0.1-0.1l-0.3,0.3c-0.2,0.2-0.2,0.6,0,0.9c0.2,0.2,0.6,0.2,0.9,0l0,0
			l0.3-0.3l0.1-0.1l0.1-0.3c0.1-0.2,0.1-0.5,0-0.7c-0.1-0.2-0.4-0.3-0.6-0.3c-0.2,0-0.4,0.2-0.5,0.4v0.1l0.3-0.3l-0.3,0.2l0,0
			l-0.4,0.2l0.1-0.1l-0.5,0.2H330l-0.5,0.3l0,0l-0.7,0.3l0,0l-0.8,0.3l0,0l-0.8,0.4h0.1l-0.8,0.3l0,0l-0.8,0.3l0,0l-0.9,0.3h0.1
			l-0.8,0.1h0.1l-0.7,0.1h0.2h-0.6h0.2L323,81l0.3,0.1l-0.4-0.3l0,0l-0.3-0.2l0,0l-0.3-0.2l0.2,0.2l-0.2-0.2l0.2,0.2l-0.1-0.2
			l0.2,0.6v-0.3l0,0v-0.1c0-0.3-0.1-0.6-0.3-0.8l-0.2-0.2c-0.3-0.3-0.8-0.4-1.2-0.2c-0.4,0.2-0.7,0.6-0.7,1v0.2l0.9-1.1h-0.2
			c-0.4,0.1-0.7,0.4-0.8,0.8l-0.1,0.2v0.3v0.2l0.3-0.7l-0.3,0.3l-0.1,0.2l-0.2,0.3l0,0l-0.2,0.5l0.1-0.1l-0.4,0.5l0,0l-0.3,0.6
			l0.1-0.1l-0.5,0.6l-0.1,0.1l-0.4,0.7l0,0l-0.5,0.7l0,0l-0.5,0.8l0.1-0.1l-0.6,0.7l-0.1,0.1l-0.5,0.8l0,0l-0.5,0.7l0.1-0.1
			l-0.5,0.6h-0.1l-0.4,0.5l0.2-0.2l-0.4,0.2l-0.1,0.1l-0.2,0.2l1-0.1l-0.1-0.1l0.4,1l0,0v-0.2v-0.2l-0.1-0.4v-0.1l-0.1-0.1l-0.1-0.2
			l0.1,0.2l-0.1-0.3l0.1,0.4v-0.4v-0.5v-0.3l-0.1-0.5v0.2v-0.5v0l-0.1-0.6l0-0.2l-0.2-0.6l-0.2-0.6l-0.1-0.2L314,84l0,0l-0.3-0.5
			l0,0l-0.2-0.3l-0.3-0.4l-0.2-0.2l-0.2-0.2l-0.3-0.2l-0.3-0.1h-0.1h-0.3h-0.2h-0.3h-0.1l-0.4,0.1l0,0l-0.4,0.1l-0.1,0.1l-0.5,0.3
			l0,0l-0.5,0.3l0,0l-0.5,0.4l0,0l-0.6,0.5l0,0l-0.5,0.4l0,0l-0.5,0.5l0,0l-0.4,0.4l0.1-0.1l-0.3,0.2c-0.2,0.1-0.3,0.3-0.3,0.5v0.1
			c-0.1,0.5,0.2,0.9,0.6,1.1c0,0,0.1,0,0.1,0h0.2h0.4l0.3-0.1l0,0l0.4-0.1l0.4-0.2l0.4-0.4l-0.1,0.1l0.5-0.3l0,0l0.6-0.5l0,0
			l0.7-0.5h0l0.7-0.6l0,0l0.8-0.7l0,0l0.7-0.7l0.7-0.7l0.6-0.6l0.1-0.1l0.5-0.6l0,0l0.5-0.6l0.1-0.2l0.3-0.6l0.1-0.1l0.3-0.6v-0.1
			l0.1-0.5c0.1-0.2,0.1-0.4,0-0.6l-0.1-0.4v0.2v-0.3V77l-0.1-0.3l-0.1-0.3l-0.2-0.3l-0.2-0.3l-0.4-0.3l-0.4-0.2l0,0l-0.4-0.2
			l-0.3-0.1l-0.5-0.1l0,0l-0.5-0.1h-0.1h-0.6h-0.1h-0.7h-0.6h-0.9h-0.9l0,0l-0.9,0.1H308h-1.1h-0.1l-0.9,0.1l-0.9,0.1l0,0l-0.8,0.1
			l0,0l-0.7,0.1h-1.2l-0.3,0.1l0,0c-0.3,0.1-0.6,0.5-0.6,0.8c0,0.4,0.2,0.7,0.5,0.9c0.3,0.2,0.7,0.1,1-0.1l0,0l-0.5,0.2h0.3
			c0.2,0,0.4-0.1,0.5-0.3l0.1-0.1l-0.4,0.2l0.4-0.1h-0.3l0.5,0.1h0h0.6h0.8h0.8c0.3,0,0.5-0.2,0.5-0.5
			C306.3,76.4,306,76.2,305.8,76.2z"/>
		<path class="st0" d="M324.3,88.2l-0.5,0.4l0,0l-0.4,0.3l0,0l-0.3,0.2l0.3-0.1h-0.3h-0.3l-0.3,0.2l0.3-0.1h-0.3l-0.4,0.1l-0.2,0.1
			l0.5-0.1h-0.1h-0.1h-0.1c-0.2,0-0.5,0.1-0.6,0.3l-0.1,0.1l0.5-0.3h-0.1c-0.3,0-0.5,0.2-0.6,0.4v0.1c-0.3,0.5-0.1,1,0.4,1.3
			c0.1,0.1,0.3,0.1,0.5,0.1h0.2l-0.8-0.4l0.1,0.2c0.2,0.2,0.4,0.4,0.7,0.4h0.1l-0.8-0.5l0.1,0.2c0.2,0.3,0.5,0.5,0.9,0.5h0.1h0.1
			h0.3h0.2h0.1h0.3l0.4-0.1l0.2-0.1l-0.3,0.1h0.2c0.3-0.1,0.5-0.2,0.6-0.5l0.1-0.2l0.1-0.2l0.1-0.2l0-0.3V90v-0.2l0,0v-0.3v-0.2
			v-0.3l0-0.3l-0.1-0.3l-0.2-0.3l-0.1-0.1l-0.2-0.2l-0.1-0.1l-0.2-0.2l-0.4-0.3l-0.2-0.1l0,0l-0.3-0.1l-0.4-0.1h-0.6h-0.1l-0.3,0.1
			h-0.1c-0.2,0.1-0.3,0.2-0.4,0.3l0,0c-0.2,0.3-0.3,0.7-0.1,1.1c0.2,0.4,0.5,0.6,0.9,0.7c0.4,0,0.8-0.1,1-0.4l0.2-0.2l-0.4,0.3
			l0.3-0.1h-0.1h0.3h0.3h0.2l0.2-0.1h-0.2h0.6h-0.1l0.4,0.1l0,0l0.5,0.2c0.3,0.1,0.6-0.1,0.6-0.3c0-0.1,0-0.2,0-0.2
			c0-0.2-0.2-0.3-0.3-0.4l-0.5-0.2l0,0l-0.4-0.1h-0.8h0.2l-0.2-0.1h-0.2h-0.3H323l-0.3-0.1l0.4,0.3l-0.2-0.2c-0.3-0.5-1-0.6-1.5-0.2
			c-0.2,0.1-0.3,0.3-0.4,0.5c-0.1,0.4-0.1,0.8,0.1,1.1l0,0c0.1,0.2,0.3,0.3,0.4,0.3h0.1l0.3,0.1h0.1h0.6l-0.4-0.1l0.3,0.1l0,0
			l0.2,0.1l-0.4-0.2l0.2,0.2l0.1,0.1l0.2,0.2l-0.2-0.2l0.2,0.3l-0.1-0.2l0.1,0.3v0.1l0.1,0.2l-0.1-0.4v0.2l0,0V90v0.2v-0.3l-0.1,0.2
			l0.1-0.2l0,0.1l0.7-0.4h-0.3l-0.3,0.1l-0.2,0.1l0.4-0.1H323h0.2H323h-0.3h-0.1h-0.1l0.9,0.5l-0.1-0.2c-0.2-0.3-0.5-0.5-0.9-0.5
			h-0.1l0.8,0.3l-0.1-0.2c-0.2-0.2-0.4-0.3-0.7-0.3H322l0.8,0.5l0-0.1c-0.2-0.4-0.8-0.6-1.2-0.3c-0.4,0.2-0.6,0.8-0.3,1.2
			c0.2,0.4,0.8,0.6,1.2,0.3l0.1-0.1l0.4-0.4l0-0.1l-0.3,0.3l0.1-0.1l-0.4,0.2h0.1l0.4-0.1l0.2-0.1l-0.2,0.1l0.3-0.1l0.4-0.2l0.2-0.3
			l-0.2,0.1l0.3-0.1l0.2-0.2l0.3-0.3l-0.1,0.1l0.4-0.3h0L325,89c0.2-0.2,0.2-0.5,0-0.7c0,0,0,0,0,0
			C324.8,88.1,324.5,88.1,324.3,88.2z"/>
		<path class="st0" d="M333.5,78.8V77l-0.1,0.3l0.2-0.3l0.1-0.2l0.1-0.3v-0.1v-0.2v0.1V76c0.1-0.5-0.2-1-0.7-1.1
			c-0.3-0.1-0.7,0.1-0.9,0.3l-0.1,0.2l-0.2,0.3l-0.1,0.4v0.1l-0.1,0.5v-0.1l-0.2,0.7v0.1l-0.1,0.8v-0.1l-0.2,0.9l0,0l-0.1,0.9v-0.1
			l-0.2,0.9v0.2l-0.1,0.9l0,0l-0.1,0.9v0.1v0.8v0.8l0,0v0.6l0,0v1v0.3l0.1,0.5l0.1,0.3l0.2,0.3l0.1,0.2l0.3,0.3l0.4,0.3l0.3,0.1
			l0.3,0.1l0.4,0.1h0.6h0.2l0.5-0.1l0.2-0.1l0.5-0.2l0.2-0.1l0.6-0.4h0l0.6-0.3l0.1-0.1l0.6-0.5l0,0l0.6-0.5l0.2-0.2l0.5-0.7l0,0
			l0.5-0.7l0.1-0.2l0.3-0.7v0.1l0.3-0.6l0,0l0.3-0.6l0.1-0.5v-0.6v0.1l0.1-0.6v-2v-0.3l-0.1-0.6l-0.1-0.3l-0.2-0.5l0,0l-0.2-0.5
			c-0.1-0.3-0.4-0.5-0.7-0.6l-0.5-0.2l0,0l-0.4-0.1h-0.4h-0.6h-0.5l0,0l-0.7,0.1h-0.2l-0.6,0.2l-0.3,0.1l-0.7,0.4l-0.1,0.1l-0.6,0.5
			l-0.1,0.1l-0.6,0.7l0,0l-0.6,0.7l0,0l-0.5,0.6l-0.1,0.1l-0.5,0.7l-0.1,0.2l-0.3,0.7l0.1-0.1l-0.4,0.6l-0.1,0.4l-0.1,0.5l0.1-0.2
			l-0.1,0.4l-0.1,0.4V84v0.4l0.2,0.5l0.1,0.2l0.2,0.3l0.3,0.3c0.2,0.1,0.3,0.3,0.5,0.3l0.5,0.2h0.2l0.6,0.1h1h0.2l0.8-0.1h0.2
			l0.9-0.3l0.1-0.1l1-0.5l0.1-0.1l1-0.6l-0.1,0.1l1.3-0.6l0.2-0.1l1.1-0.7h-0.1l1-0.6l0.1-0.1l1.1-0.9l0,0l0.9-0.6l0.1-0.1l0.9-0.7
			l-0.1,0.1l0.8-0.6l0.1-0.1l0.6-0.6l-0.1,0.1l0.6-0.4h0.1l0.5-0.4l0,0l0.3-0.2l0.3-0.4l0.2-0.3l-0.7,0.6l0.3-0.1
			c0.4-0.1,0.8-0.5,0.9-0.9v-0.2l-1.2,1h0.1c0.6,0,1.1-0.4,1.3-1c0.1-0.7-0.4-1.4-1.1-1.5c-0.5-0.1-1,0.1-1.3,0.6l-0.1,0.2l0.1-0.1
			l-0.2,0.3l0,0l-0.4,0.6v0.1l-0.5,0.8l-0.1,0.2l-0.4,0.9l0,0l-0.5,1l-0.1,0.2l-0.4,1l0,0l-0.5,1.1V82l-0.4,1l0.1-0.1l-0.4,0.9
			l0,0.1l-0.3,1l0,0.2l-0.1,0.9l0-0.2l-0.3,0.8l-0.1,0.3v0.7v-0.2l-0.1,0.6v0.3V90c0,0.7,0.6,1.3,1.3,1.3l0,0h0.6l0.5-0.1l0.3-0.1
			h0.1l0.3-0.2c0.2-0.1,0.4-0.3,0.5-0.5l0.3-0.4l-0.2,0.2l0.5-0.5l0.2-0.2l0.3-0.5l-0.2,0.2l0.6-0.6l0,0l0.5-0.5l-0.1,0.1l0.6-0.5
			l-0.1,0.1l0.6-0.5l0,0l0.5-0.4l-0.2,0.1l0.5-0.3l0.2-0.1l0.4-0.3l-0.2,0.2l0.5-0.3l0.1-0.1L349,86l-0.5,0.2l0.4-0.1h-0.1h0.3h0.1
			l-0.7-0.2l0.2,0.2l-0.4-0.4l0.2,0.3l-0.2-0.6l0,0.4V86l0.2,0.6v-0.3v5.3l0.1,0.4l0.1,0.3v-0.2v0.2c0.1,0.4,0.4,0.7,0.8,0.9
			l0.3,0.1l0.5,0.1h0.3h0.4h0.1l0.5-0.1l0.4-0.2l0.6-0.3l0.1-0.1l0.7-0.5l0.1-0.1l0.6-0.6l0.8-0.7l0,0l0.7-0.6l-0.1,0.1l0.8-0.6
			l0.2-0.2l0.5-0.6l-0.2,0.2l0.6-0.5l0.1-0.2l0.4-0.5l-0.1,0.1l0.4-0.4l-0.1,0.1l0.3-0.2l0.3-0.3l0.1-0.2l0,0L359,87
			c0.3-0.5,0.1-1.2-0.4-1.5c-0.5-0.3-1.2-0.2-1.5,0.4c0,0,0,0,0,0l-0.1,0.2l0,0l-0.2,0.2L357,86l-0.3,0.2l-0.1,0.1l-0.4,0.4l0,0
			l-0.4,0.5l0.1-0.1l-0.7,0.5l-0.2,0.2l-0.5,0.6l0.2-0.2l-0.8,0.6l0,0l-0.7,0.6h0.1l-0.8,0.6l-0.1,0.1l-0.6,0.6l0.1-0.1l-0.7,0.5
			l0.1-0.1l-0.6,0.3l0.4-0.1l-0.5,0.1h0.1h-0.4l0,0l0.5,0.1l-0.3-0.1l0.7,0.9v-0.2l0-0.1l-0.1-0.3l0.1,0.5v-5.5v-0.3l-0.1-0.6v0.2
			v-0.4c0-0.2-0.1-0.4-0.2-0.6l-0.2-0.3l-0.4-0.4l-0.2-0.2c-0.2-0.1-0.5-0.2-0.7-0.2h-0.4h-0.3h-0.1l-0.3,0.1l-0.5,0.2l-0.3,0.2h0.1
			l-0.5,0.3l-0.2,0.1l-0.4,0.3l0.2-0.1l-0.5,0.3l-0.2,0.1l-0.5,0.4l0,0l-0.6,0.5l-0.1,0.1l-0.6,0.5l-0.1,0.1l-0.5,0.5l0,0l-0.6,0.6
			l-0.2,0.2l-0.3,0.5l0.2-0.2l-0.5,0.5l-0.2,0.2l-0.3,0.4l0.5-0.5l-0.3,0.2l0.1-0.1l-0.3,0.1l0.5-0.1h-0.6c-0.5,0-1,0.3-1.2,0.8
			c-0.2,0.5-0.1,1,0.3,1.4c0.6,0.4,1.4,0.3,1.8-0.3c0.2-0.2,0.2-0.5,0.3-0.7v-1.8v0.3l0.1-0.5v-0.2V87l-0.1,0.4l0.3-0.8l0.1-0.2
			l0.2-0.9l0,0.2l0.3-1l-0.1,0.1l0.4-0.9l0.1-0.1l0.4-1.2v0.1l0.5-1.1v-0.1l0.4-1l-0.1,0.2l0.5-1v-0.1l0.4-0.9l-0.1,0.2l0.5-0.8l0,0
			l0.4-0.6l0,0l0.2-0.3l0.1-0.1l0.1-0.2c0.4-0.6,0.2-1.4-0.4-1.8c-0.2-0.1-0.4-0.2-0.7-0.2h-0.1c-0.6,0-1.1,0.4-1.3,1v0.2l0.4-0.7
			l-0.2,0.2l-0.3,0.4l-0.1,0.3l0.3-0.3l-0.3,0.3l-0.1,0.1l-0.4,0.5l0.1-0.1l-0.5,0.5l0,0l-0.6,0.6l0.1-0.1l-0.9,0.6l-0.1,0.1
			l-0.9,0.7l0.1-0.1l-0.9,0.6h-0.1l-1.2,0.9l0.1-0.1l-1,0.6l0,0l-1.1,0.7l0.2-0.1l-1.3,0.6h-0.1l-1,0.5l0.2-0.1l-1.1,0.4l0,0
			l-0.9,0.3h0.2l-0.8,0.1h0.2h-0.7h0.2l-0.6-0.1h0.2l-0.5-0.2l0.5,0.3l-0.3-0.3l0.2,0.2l-0.1-0.2l0.2,0.5v-0.4v0.1v-0.2V83v0.3
			l0.1-0.4v-0.2v-0.5l-0.1,0.4l0.3-0.6V82l0.3-0.7l-0.1,0.2l0.5-0.7l0,0.2l0.5-0.6l0,0l0.6-0.7l0,0l0.6-0.7l-0.1,0.1l0.6-0.5
			l-0.1,0.1l0.7-0.4l-0.3,0.1l0.6-0.2h-0.2l0.7-0.1l0,0h0.5h-0.1h0.5l-0.4-0.1l0.3,0.1l0,0l0.5,0.2l-0.7-0.6l0.2,0.5l0.2,0.5
			l-0.1-0.3l0.1,0.6v-0.2v1.6l-0.1,0.6v0.1v0.6l0.1-0.5l-0.3,0.6v0.1l-0.3,0.6l0,0l-0.3,0.7l0.1-0.2l-0.5,0.7l0,0l-0.5,0.7l0.2-0.2
			l-0.6,0.5l0,0l-0.6,0.5L335,85l-0.6,0.3l0,0l-0.6,0.4l0.2-0.1l-0.5,0.2h0.2l-0.5,0.1h0.2H333h0.2l-0.4-0.1L333,86l-0.3-0.1
			l0.4,0.3l-0.3-0.3L333,86l-0.2-0.3l0.1,0.3l-0.2-0.5l0.1,0.3v-0.4v-0.6l0,0v-0.6l0,0v-1.6v0.1l0.1-0.9l0,0L333,81v0.2l0.2-0.9
			v-0.1l0.1-0.9l0,0l0.1-0.9v-0.1l0.1-0.8v0.1l0.1-0.7v-0.1l0.1-0.5l0,0V76l-0.2,0.4l0.1-0.2c0.3-0.4,0.2-1-0.3-1.3
			c-0.3-0.2-0.6-0.2-0.9-0.1c-0.4,0.2-0.6,0.6-0.5,1v0.2v-0.1v0.2v0.1l0.1,0.3l0.1,0.2l0.2,0.3l-0.1-0.3v1.9c0,0.3,0.3,0.6,0.6,0.6
			C333.2,79.5,333.5,79.2,333.5,78.8C333.5,78.9,333.5,78.9,333.5,78.8z"/>
		<path class="st1" d="M251.2,32.3c1.4,0.1,2.9-0.1,4.3-0.4l0.1,0.6c-1.4,0.3-2.9,0.4-4.4,0.4h-0.7v-7.1h4.3v0.6h-3.6L251.2,32.3
			L251.2,32.3z M259.7,24.4v11.5h-0.7v-6.2h-2v5.6h-0.7V24.7h0.7v4.5h2v-4.7L259.7,24.4z"/>
		<path class="st1" d="M268.6,26.5h-6.8v-0.6h3.1v-1.5h0.7v1.5h3.1V26.5z M265.2,31.5c-1.6,0-2.7-0.8-2.7-2.1s1.1-2.1,2.7-2.1
			s2.7,0.8,2.7,2.1S266.8,31.5,265.2,31.5L265.2,31.5z M265.2,30.9c1.2,0,2.1-0.6,2.1-1.5s-0.8-1.6-2.1-1.6s-2.1,0.6-2.1,1.6
			S263.9,30.9,265.2,30.9L265.2,30.9z M264.2,35h6.9v0.6h-7.6v-3.3h0.7V35z M272.4,28.3v0.6h-1.8V33h-0.7v-8.6h0.7v4L272.4,28.3z"/>
		<path class="st1" d="M274.8,25.4v3.2h3.9v-3.2h0.7v7.7h-5.3v-7.7H274.8z M274.8,32.5h3.9v-3.4h-3.9V32.5z M282.8,24.4v11.6h-0.7
			V24.4L282.8,24.4z"/>
		<path class="st1" d="M290.9,30.6h-5.2v-5.2h5.2V30.6z M290.2,26h-3.9v4.1h3.9V26z M287.6,35h6.9v0.6H287V32h0.7L287.6,35z
			 M295.8,28v0.6H294v4.3h-0.7v-8.5h0.7V28H295.8z"/>
		<path class="st1" d="M303.7,26.3h-6.8v-0.6h3.1v-1.4h0.7v1.4h3.1V26.3z M300.3,31.1c-1.6,0-2.7-0.8-2.7-2s1.1-2.1,2.7-2.1
			s2.7,0.8,2.7,2.1S301.9,31.1,300.3,31.1L300.3,31.1z M300.3,30.6c1.2,0,2.1-0.6,2.1-1.5s-0.8-1.5-2.1-1.5s-2.1,0.6-2.1,1.5
			S299,30.6,300.3,30.6L300.3,30.6z M298.3,32.3h7.4v3.6H305v-3h-6.7L298.3,32.3z M307.5,28.3h-1.8v3.3H305v-7.2h0.7v3.3h1.8
			L307.5,28.3z"/>
		<path class="st1" d="M312.7,32.8c1.2-0.1,2.4-0.2,3.5-0.3l0,0.5c-2.5,0.3-5.1,0.5-7.6,0.5l-0.1-0.6c1,0,2.2,0,3.5-0.1v-1.4
			c-1.5-0.1-2.4-0.9-2.4-2.1s1.1-2.1,2.7-2.1s2.7,0.8,2.7,2.1s-0.9,2-2.4,2.1V32.8z M315.9,26.4h-7v-0.6h3.1v-1.5h0.7v1.5h3.2
			L315.9,26.4z M312.4,30.9c1.2,0,2.1-0.6,2.1-1.6s-0.8-1.6-2.1-1.6s-2,0.6-2,1.6S311.1,30.9,312.4,30.9z M317.8,24.4v11.5h-0.7
			V24.4H317.8z"/>
		<path class="st1" d="M329,29.3c0,2.4-1.2,4-2.9,4s-2.9-1.6-2.9-4s1.2-4,2.9-4S329,26.9,329,29.3z M324,29.3c0,2,0.9,3.4,2.2,3.4
			s2.2-1.4,2.2-3.4s-0.9-3.4-2.2-3.4S324,27.3,324,29.3L324,29.3z M332.2,24.4v11.5h-0.7V24.4H332.2z"/>
		<path class="st1" d="M338.2,27.7c0.2,2,1.3,3.9,3.1,4.9l-0.4,0.5c-1.4-0.8-2.5-2.2-3-3.8c-0.5,1.7-1.5,3.1-3,4.1l-0.4-0.6
			c1.8-1.1,3-3,3.1-5.1v-2.3h0.7L338.2,27.7z M345.3,29.7h-2v6.2h-0.7V24.4h0.7v4.8h2V29.7z"/>
		<path class="st1" d="M352.5,30.7c-1.3-0.4-2.3-1.4-2.9-2.7c-0.5,1.4-1.6,2.5-3,3l-0.4-0.5c1.7-0.5,2.9-2.1,3-3.8v-0.8h-2.8v-0.6
			h6.1v0.6h-2.7v0.8c0.1,1.7,1.3,3.1,2.9,3.5L352.5,30.7z M355.2,33.8c0,1.3-1.4,2-3.7,2s-3.7-0.7-3.7-2s1.4-2.1,3.7-2.1
			S355.2,32.5,355.2,33.8z M354.5,33.8c0-0.9-1.2-1.5-3.1-1.5s-3,0.6-3,1.5s1.2,1.5,3,1.5S354.5,34.7,354.5,33.8z M356.9,27.5v0.6
			h-1.8v3.3h-0.7v-7h0.7v3.1L356.9,27.5z"/>
		<path class="st1" d="M262.7,46.2c0,2.6-1.3,4.3-3.1,4.3s-3.1-1.7-3.1-4.3s1.3-4.2,3.2-4.2S262.7,43.6,262.7,46.2z M258,46.2
			c0,1.8,0.6,2.7,1.5,2.7s1.5-1,1.5-2.7s-0.6-2.7-1.5-2.7S258,44.5,258,46.2L258,46.2z M266,41.1v12h-1.7v-12H266z"/>
		<path class="st1" d="M274.1,48c-1.2-0.3-2.2-1-2.8-2c-0.6,1.2-1.6,2-2.9,2.3l-0.8-1.3c1.6-0.3,2.7-1.6,2.8-3.2h-2.3v-1.4h2.3v-1.3
			h1.7v1.3h2.4v1.3h-2.4c0,1.2,0.9,2.4,2.8,2.9L274.1,48z M277.3,50.9c0,1.4-1.5,2.3-4,2.3s-4-0.8-4-2.3s1.5-2.3,4-2.3
			S277.3,49.4,277.3,50.9L277.3,50.9z M275.6,50.9c0-0.7-0.8-1-2.3-1s-2.4,0.3-2.4,1s0.8,1,2.4,1S275.6,51.5,275.6,50.9L275.6,50.9z
			 M278.8,44v1.4h-1.6v3h-1.7v-7.2h1.7V44L278.8,44z"/>
		<path class="st1" d="M289.5,41.1v6.9h-1.7v-2.7h-2.1v2.2H280v-5.7h1.7v1.6h2.3v-1.6h1.7V44h2.1v-2.9H289.5z M281.5,48.6h8V53h-8
			V48.6z M283.9,44.7h-2.3v1.5h2.3V44.7z M283.1,51.6h4.6v-1.7h-4.6V51.6z"/>
		<path class="st1" d="M294.5,42.4h2.1l1.6,4.5c0.2,0.6,0.4,1.2,0.6,1.8h0.1c0.2-0.6,0.4-1.3,0.6-1.8l1.6-4.5h2.1V52h-1.8v-4
			c0-1.1,0.1-2.1,0.3-3.2h-0.1l-0.8,2.3l-1.5,4h-1.1l-1.5-4l-0.8-2.3l0,0c0.1,0.9,0.3,2.3,0.3,3.2v4h-1.7L294.5,42.4z"/>
		<path class="st1" d="M305,50.9c0-0.7,0.5-1.2,1.2-1.2s1.2,0.5,1.2,1.2s-0.5,1.2-1.2,1.2S305,51.6,305,50.9z"/>
		<path class="st1" d="M309.3,42.4h2.6c2.9,0,4.8,1.5,4.8,4.8S314.9,52,312,52h-2.8L309.3,42.4z M311.8,50.5c1.8,0,2.9-1,2.9-3.3
			s-1.1-3.2-2.9-3.2h-0.6v6.5H311.8z"/>
		<path class="st1" d="M318,50.9c-0.1-0.7,0.4-1.2,1.1-1.3c0.7-0.1,1.2,0.4,1.3,1.1c0,0.1,0,0.1,0,0.2c0.1,0.7-0.4,1.2-1.1,1.3
			c-0.7,0.1-1.2-0.4-1.3-1.1C318,51.1,318,51,318,50.9z"/>
		<path class="st1" d="M321.8,53.7c1-0.4,1.6-1,1.6-1.8h-0.1c-0.6,0-1.2-0.4-1.2-1c0,0,0-0.1,0-0.1c0-0.6,0.5-1.1,1.2-1.1
			c0,0,0,0,0.1,0c0.9,0,1.4,0.7,1.4,1.9c0,1.5-1,2.8-2.5,3.2L321.8,53.7z"/>
		<path class="st1" d="M328.9,42.4h3.2c2.1,0,3.8,0.8,3.8,3s-1.7,3.2-3.7,3.2h-1.3V52h-1.9L328.9,42.4z M332,47.1c1.3,0,2-0.6,2-1.7
			s-0.7-1.5-2-1.5h-1.1v3.2H332z"/>
		<path class="st1" d="M337.2,41.6h1.9v2.6l-0.1,1.4c0.6-0.6,1.4-1,2.3-1.1c1.6,0,2.3,1.1,2.3,2.9V52h-1.9v-4.3c0-1.1-0.3-1.5-1-1.5
			c-0.6,0-1.1,0.3-1.5,0.8v5h-1.9L337.2,41.6z"/>
		<path class="st1" d="M345.1,50.9c0-0.7,0.5-1.2,1.2-1.2s1.2,0.5,1.2,1.2s-0.5,1.2-1.2,1.2S345.1,51.6,345.1,50.9z"/>
		<path class="st1" d="M349.4,42.4h2.6c2.9,0,4.8,1.5,4.8,4.8s-1.8,4.9-4.7,4.9h-2.7V42.4z M351.9,50.5c1.8,0,2.9-1,2.9-3.3
			s-1.1-3.2-2.9-3.2h-0.6v6.5H351.9z"/>
	</g>
</g>
</svg>
