<svg xmlns="http://www.w3.org/2000/svg" width="38.001" height="17" viewBox="0 0 38.001 17">
  <g id="그룹_17755" data-name="그룹 17755" transform="translate(-9767 -4226)">
    <path id="패스_256" data-name="패스 256" d="M167.923,16.46h-1.489A.435.435,0,0,0,166,16.9V32.929a.435.435,0,0,0,.431.438h1.489a.435.435,0,0,0,.431-.438V16.9A.435.435,0,0,0,167.923,16.46Z" transform="translate(9636.646 4209.634)" fill="#e45c72"/>
    <path id="패스_257" data-name="패스 257" d="M43.506,20.366V17.4a1.334,1.334,0,0,0-1.324-1.343H16.812A1.334,1.334,0,0,0,15.488,17.4V31.576a1.334,1.334,0,0,0,1.324,1.343h25.37a1.334,1.334,0,0,0,1.324-1.343V28.639l5.967,3.646.773.112V16.62l-.662.112Z" transform="translate(9751.512 4209.94)" fill="#e45c72"/>
    <path id="패스_258" data-name="패스 258" d="M40.8,43.438,39.532,41.47h-1.4v1.968H36.613V36.373h2.844a3.428,3.428,0,0,1,1.516.313,2.3,2.3,0,0,1,.99.888,2.585,2.585,0,0,1,.347,1.362,2.534,2.534,0,0,1-.352,1.358,2.274,2.274,0,0,1-1,.873l1.474,2.271Zm-.385-5.415a1.519,1.519,0,0,0-1.042-.318H38.134v2.463h1.239a1.5,1.5,0,0,0,1.042-.323,1.341,1.341,0,0,0,0-1.822Z" transform="translate(9735.345 4194.588)" fill="#fff"/>
    <path id="패스_259" data-name="패스 259" d="M70.692,42.126v1.312H65.6V36.373H70.57v1.312H67.116v1.534h3.05v1.272h-3.05v1.635Z" transform="translate(9713.274 4194.588)" fill="#fff"/>
    <path id="패스_260" data-name="패스 260" d="M91.94,42.694a3.372,3.372,0,0,1-1.276-1.3,4.044,4.044,0,0,1,0-3.765,3.372,3.372,0,0,1,1.276-1.3,3.815,3.815,0,0,1,3.37-.146,3.124,3.124,0,0,1,1.159.929l-.976.969a2.043,2.043,0,0,0-1.652-.828,2.073,2.073,0,0,0-1.089.288,1.981,1.981,0,0,0-.746.8,2.7,2.7,0,0,0,0,2.341,1.98,1.98,0,0,0,.746.8,2.074,2.074,0,0,0,1.089.288,2.035,2.035,0,0,0,1.652-.838l.976.969a3.076,3.076,0,0,1-1.164.939,3.632,3.632,0,0,1-1.549.323A3.563,3.563,0,0,1,91.94,42.694Z" transform="translate(9694.517 4194.984)" fill="#fff"/>
  </g>
</svg>
