<svg xmlns="http://www.w3.org/2000/svg" xmlns:xlink="http://www.w3.org/1999/xlink" width="55.835" height="65.849" viewBox="0 0 55.835 65.849">
  <defs>
    <clipPath id="clip-path">
      <rect id="사각형_463" data-name="사각형 463" width="55.835" height="65.849" fill="#fff"/>
    </clipPath>
  </defs>
  <g id="그룹_351" data-name="그룹 351" transform="translate(0 0)">
    <g id="그룹_350" data-name="그룹 350" transform="translate(0 0)" clip-path="url(#clip-path)">
      <path id="패스_881" data-name="패스 881" d="M31.167,58.73a1.012,1.012,0,1,1,0-2.024h19.8a1.012,1.012,0,1,1,0,2.024Z" transform="translate(-5.074 -9.542)" fill="#fff"/>
      <path id="패스_882" data-name="패스 882" d="M31.167,67.129a1.012,1.012,0,1,1,0-2.024h19.8a1.012,1.012,0,1,1,0,2.024Z" transform="translate(-5.074 -10.955)" fill="#fff"/>
      <path id="패스_883" data-name="패스 883" d="M20.639,68.377a1.215,1.215,0,0,1-1.214-1.214V16.238a1.215,1.215,0,0,1,1.214-1.214H45.92a1.2,1.2,0,0,1,.859.356l11.97,11.972a1.205,1.205,0,0,1,.353.858V67.164a1.214,1.214,0,0,1-1.213,1.214Zm1.214-2.427H56.677V28.8l-11.2-11.286-23.624-.058Z" transform="translate(-3.269 -2.528)" fill="#fff"/>
      <path id="패스_884" data-name="패스 884" d="M51.035,29.42a1.215,1.215,0,0,1-1.214-1.214V16.236a1.213,1.213,0,0,1,2.073-.858l11.97,11.97A1.214,1.214,0,0,1,63,29.42Zm1.214-2.427h7.827l-7.827-7.827Z" transform="translate(-8.383 -2.528)" fill="#fff"/>
      <path id="패스_885" data-name="패스 885" d="M47.04,46.435l-1.423-3.369H37.831l-1.424,3.369H34.229l6.4-14.506h2.315l6.334,14.506Zm-8.444-5.2H44.83L41.72,33.9Z" transform="translate(-5.76 -5.373)" fill="#fff"/>
      <path id="패스_886" data-name="패스 886" d="M37.121,0H1.194A1.2,1.2,0,0,0,0,1.2V49.1a1.2,1.2,0,0,0,1.194,1.194H17.036a1.2,1.2,0,0,0,1.2-1.194V14.488H40.7A1.2,1.2,0,0,0,41.895,13.3V4.773A4.778,4.778,0,0,0,37.121,0M5.058,47.9H2.387V2.388H5.058ZM7.449,2.388H37.121A2.386,2.386,0,0,1,39.5,4.773V12.1H17.036a1.2,1.2,0,0,0-1.194,1.2V47.9H7.449Z" transform="translate(0 0)" fill="#fff"/>
    </g>
  </g>
</svg>
