<svg xmlns="http://www.w3.org/2000/svg" xmlns:xlink="http://www.w3.org/1999/xlink" width="54.008" height="56.662" viewBox="0 0 54.008 56.662">
  <defs>
    <clipPath id="clip-path">
      <rect id="사각형_380" data-name="사각형 380" width="54.008" height="56.662" fill="#fff"/>
    </clipPath>
  </defs>
  <g id="그룹_264" data-name="그룹 264" transform="translate(0 0)">
    <g id="그룹_263" data-name="그룹 263" transform="translate(0 0)" clip-path="url(#clip-path)">
      <path id="패스_801" data-name="패스 801" d="M1.2,56.662a1.205,1.205,0,0,1-.487-.107,1.86,1.86,0,0,1-.376-.274l-.147-.2a1.874,1.874,0,0,1-.113-.227.765.765,0,0,1-.041-.194L0,55.428,0,25.671a1.2,1.2,0,0,1,.153-.553L.374,24.8,8.95,16.666,9.132,4.273a1.206,1.206,0,0,1,1.2-1.2H23.056L26.169.332A1.215,1.215,0,0,1,27.005,0a1.2,1.2,0,0,1,.826.328L30.557,2.91l13.113.159a1.207,1.207,0,0,1,1.208,1.2V16.241L53.632,24.8c.161.227.192.266.217.31a1.225,1.225,0,0,1,.159.563V55.036l-.3-.025-.173,1.123.227.037-.039.07a1.826,1.826,0,0,1-.33.244,1.2,1.2,0,0,1-.592.177Zm3.344-2.4H49.459L33.381,41,28.9,44.2a1.208,1.208,0,0,1-.652.213,1.186,1.186,0,0,1-.7-.186l-6.06-3.942Zm30.861-14.7L51.6,52.912V28Zm-33,13.353L19.376,38.919,2.407,27.886ZM11.54,30.64,28.167,41.774,42.224,31.742l.248-26.27H11.54Zm33.338-.788,6.044-4.316L44.878,19.8ZM3.135,25.494l6,3.9V19.8Z" transform="translate(0 0)" fill="#fff"/>
      <path id="패스_802" data-name="패스 802" d="M8.333,13.394a.352.352,0,0,1-.351-.351v-6.1A.351.351,0,0,1,8.333,6.6H10.5a2.879,2.879,0,0,1,1.969.644,2.289,2.289,0,0,1,.747,1.8,2.268,2.268,0,0,1-.747,1.79,2.89,2.89,0,0,1-1.969.64H9.3v1.575a.352.352,0,0,1-.351.351ZM9.3,10.2h1.189a1.631,1.631,0,0,0,1.086-.31,1.039,1.039,0,0,0,.334-.853,1.1,1.1,0,0,0-.334-.875,1.642,1.642,0,0,0-1.086-.308H9.3Z" transform="translate(7.501 6.2)" fill="#fff"/>
      <path id="패스_803" data-name="패스 803" d="M16.407,13.394a.348.348,0,0,1-.322-.211l-.609-1.418H12.713l-.6,1.418a.35.35,0,0,1-.322.211h-.636a.351.351,0,0,1-.322-.491l2.648-6.095A.352.352,0,0,1,13.8,6.6h.6a.354.354,0,0,1,.322.211l2.648,6.1a.355.355,0,0,1-.031.332.347.347,0,0,1-.291.157Zm-3.171-2.851H14.96L14.1,8.515Z" transform="translate(10.15 6.2)" fill="#fff"/>
      <path id="패스_804" data-name="패스 804" d="M16.978,13.471a3.894,3.894,0,0,1-1.358-.241,2.566,2.566,0,0,1-1.053-.667.349.349,0,0,1-.054-.386l.239-.5a.348.348,0,0,1,.26-.194h.014a.382.382,0,0,1,.3.1,1.927,1.927,0,0,0,.71.45,2.511,2.511,0,0,0,.947.18,1.567,1.567,0,0,0,.95-.227.589.589,0,0,0,.254-.5.451.451,0,0,0-.107-.334,1.075,1.075,0,0,0-.4-.258,7.76,7.76,0,0,0-.813-.244,9.134,9.134,0,0,1-1.09-.351,2.1,2.1,0,0,1-.8-.59,1.7,1.7,0,0,1-.359-1.123A1.92,1.92,0,0,1,14.9,7.568a1.968,1.968,0,0,1,.859-.737,3.151,3.151,0,0,1,1.313-.262,3.94,3.94,0,0,1,1.1.159,3.157,3.157,0,0,1,.929.448.357.357,0,0,1,.118.415l-.206.514a.356.356,0,0,1-.225.2.955.955,0,0,1-.1.006.3.3,0,0,1-.2-.052,2.486,2.486,0,0,0-.681-.332,2.677,2.677,0,0,0-.764-.116,1.429,1.429,0,0,0-.871.237.622.622,0,0,0-.254.524.467.467,0,0,0,.118.349.97.97,0,0,0,.394.25,8.525,8.525,0,0,0,.821.246,8.736,8.736,0,0,1,1.075.341,2,2,0,0,1,.8.59,1.672,1.672,0,0,1,.353,1.106,1.9,1.9,0,0,1-.289,1.028,1.946,1.946,0,0,1-.875.731,3.155,3.155,0,0,1-1.344.254" transform="translate(13.605 6.173)" fill="#fff"/>
      <path id="패스_805" data-name="패스 805" d="M20.029,13.471a3.894,3.894,0,0,1-1.358-.241,2.586,2.586,0,0,1-1.053-.667.345.345,0,0,1-.056-.388l.241-.5a.353.353,0,0,1,.262-.192h.014a.391.391,0,0,1,.295.1,1.927,1.927,0,0,0,.71.45,2.729,2.729,0,0,0,.985.18,1.578,1.578,0,0,0,.914-.227.6.6,0,0,0,.252-.5.451.451,0,0,0-.107-.334,1.075,1.075,0,0,0-.4-.258,7.76,7.76,0,0,0-.813-.244,9.134,9.134,0,0,1-1.09-.351,2.058,2.058,0,0,1-.8-.592,1.688,1.688,0,0,1-.361-1.121,1.926,1.926,0,0,1,.285-1.024,1.968,1.968,0,0,1,.859-.737,3.154,3.154,0,0,1,1.315-.262,3.893,3.893,0,0,1,1.1.159,3.166,3.166,0,0,1,.931.448.354.354,0,0,1,.118.415l-.206.514a.356.356,0,0,1-.225.2q-.058.006-.1.006a.3.3,0,0,1-.2-.052,2.486,2.486,0,0,0-.681-.332,2.7,2.7,0,0,0-.764-.116,1.427,1.427,0,0,0-.869.237.619.619,0,0,0-.256.524.458.458,0,0,0,.114.349,1.013,1.013,0,0,0,.4.25,8.526,8.526,0,0,0,.821.246,8.736,8.736,0,0,1,1.075.341,2,2,0,0,1,.8.59,1.672,1.672,0,0,1,.353,1.106,1.912,1.912,0,0,1-.287,1.026,1.953,1.953,0,0,1-.877.733,3.155,3.155,0,0,1-1.344.254" transform="translate(16.469 6.173)" fill="#fff"/>
    </g>
  </g>
</svg>
