<svg id="그룹_252" data-name="그룹 252" xmlns="http://www.w3.org/2000/svg" xmlns:xlink="http://www.w3.org/1999/xlink" width="38.48" height="38.48" viewBox="0 0 38.48 38.48">
  <defs>
    <clipPath id="clip-path">
      <rect id="사각형_374" data-name="사각형 374" width="38.48" height="38.48" fill="none"/>
    </clipPath>
  </defs>
  <g id="그룹_251" data-name="그룹 251" transform="translate(0 0)" clip-path="url(#clip-path)">
    <path id="패스_789" data-name="패스 789" d="M32.845,5.635a19.24,19.24,0,1,1-27.21,0,19.241,19.241,0,0,1,27.21,0" transform="translate(0 0)" fill="#00b0e2"/>
    <path id="패스_790" data-name="패스 790" d="M15.855,30.565A14.643,14.643,0,0,0,30.6,15.822q0-.337-.014-.67a10.544,10.544,0,0,0,2.584-2.683,10.321,10.321,0,0,1-2.975.815,5.2,5.2,0,0,0,2.279-2.866,10.391,10.391,0,0,1-3.29,1.258,5.186,5.186,0,0,0-8.83,4.725A14.71,14.71,0,0,1,9.67,10.988a5.187,5.187,0,0,0,1.6,6.918,5.141,5.141,0,0,1-2.347-.649c0,.022,0,.043,0,.066a5.184,5.184,0,0,0,4.157,5.08,5.185,5.185,0,0,1-2.34.089,5.187,5.187,0,0,0,4.84,3.6,10.4,10.4,0,0,1-6.435,2.218,10.51,10.51,0,0,1-1.236-.071,14.668,14.668,0,0,0,7.942,2.327" transform="translate(-0.752 -0.954)" fill="#fff"/>
  </g>
</svg>
