<svg xmlns="http://www.w3.org/2000/svg" viewBox="0 0 163.45 184.33"><defs><style>.cls-1,.cls-5{fill:none;stroke:#000;stroke-width:4.5px;}.cls-1{stroke-linecap:round;stroke-linejoin:round;}.cls-2{fill:#fff9d4;}.cls-3{fill:#a4ffb9;}.cls-4{fill:#ffe045;}.cls-5{stroke-miterlimit:10;}</style></defs><g id="Layer_2" data-name="Layer 2"><g id="Layer_1-2" data-name="Layer 1"><line class="cls-1" x1="21.66" y1="15.19" x2="28.13" y2="15.19"/><line class="cls-1" x1="2.25" y1="15.19" x2="8.72" y2="15.19"/><line class="cls-1" x1="15.19" y1="8.72" x2="15.19" y2="2.25"/><line class="cls-1" x1="15.19" y1="28.13" x2="15.19" y2="21.66"/><polygon class="cls-2" points="107.23 161.01 36.86 160.41 36.86 46.47 57.26 25.19 137.7 25.19 137.7 161.01 107.23 161.01"/><polygon class="cls-3" points="118.15 142.96 118.15 184.33 132.78 174.5 147.05 184.33 147.05 142.96 118.15 142.96"/><path class="cls-4" d="M163.45,125.71c0,4-5.23,6.81-6.59,10.26s.31,9.45-2.26,12.14-8.17.89-11.58,2.37-6,6.91-9.78,6.91-6.5-5.48-9.79-6.91-9,.33-11.57-2.37-.85-8.56-2.26-12.14S103,129.68,103,125.71s5.22-6.81,6.59-10.26-.31-9.45,2.26-12.14,8.17-.89,11.58-2.37,6-6.91,9.78-6.91,6.49,5.48,9.78,6.91,9-.33,11.58,2.37.85,8.57,2.26,12.14S163.45,121.74,163.45,125.71Z"/><path class="cls-1" d="M66.2,89.24h9.71V63.76c0-1.24,0-2.55.1-3.91l-5.72,4.74a3.57,3.57,0,0,1-1.11.65,3.23,3.23,0,0,1-1.07.19A3.28,3.28,0,0,1,66.5,65a3.42,3.42,0,0,1-1.06-.85L62,59.67l15.74-13.2h8.87V89.24H95V97H66.2Z"/><path class="cls-5" d="M153.45,115.71c0,4-5.23,6.81-6.59,10.26s.31,9.45-2.26,12.14-8.17.89-11.58,2.37-6,6.91-9.78,6.91-6.5-5.48-9.79-6.91-9,.33-11.57-2.37S101,129.55,99.62,126,93,119.68,93,115.71s5.22-6.81,6.59-10.26-.31-9.45,2.26-12.14,8.17-.89,11.58-2.37,6-6.91,9.78-6.91,6.49,5.48,9.78,6.91,9-.33,11.58,2.37.85,8.57,2.26,12.14S153.45,111.74,153.45,115.71Z"/><path class="cls-5" d="M136.51,105.28c10,17-7,34.86-23.22,24.35a10.57,10.57,0,0,1-3.32-3.49c-10-17,7-34.86,23.22-24.35A10.66,10.66,0,0,1,136.51,105.28Z"/><polyline class="cls-5" points="108.15 142.96 108.15 174.33 122.78 164.5 137.05 174.33 137.05 142.96"/><polyline class="cls-5" points="97.23 151.01 26.86 150.41 26.86 36.58 47.26 15.19 127.7 15.19 127.7 74.79"/><path class="cls-5" d="M49,15.19V32.28a6,6,0,0,1-5.86,6.15H26.86"/><line class="cls-1" x1="153.52" y1="46.47" x2="156.75" y2="46.47"/><line class="cls-1" x1="137.34" y1="46.47" x2="140.58" y2="46.47"/><line class="cls-1" x1="147.05" y1="40" x2="147.05" y2="36.76"/><line class="cls-1" x1="147.05" y1="56.17" x2="147.05" y2="52.94"/></g></g></svg>