<svg xmlns="http://www.w3.org/2000/svg" xmlns:xlink="http://www.w3.org/1999/xlink" width="22.651" height="30.11" viewBox="0 0 22.651 30.11">
  <defs>
    <clipPath id="clip-path">
      <rect id="사각형_19" data-name="사각형 19" width="22.651" height="30.11" transform="translate(0 0)" fill="none"/>
    </clipPath>
  </defs>
  <g id="그룹_30" data-name="그룹 30" transform="translate(0 0)">
    <g id="그룹_29" data-name="그룹 29" clip-path="url(#clip-path)">
      <path id="패스_3" data-name="패스 3" d="M15.2,26.927H7.448a.743.743,0,1,1,0-1.487H15.2a.743.743,0,1,1,0,1.487" fill="#3c005c"/>
      <path id="패스_4" data-name="패스 4" d="M15.2,26.927H7.448a.743.743,0,1,1,0-1.487H15.2a.743.743,0,1,1,0,1.487Z" fill="none" stroke="#3c005c" stroke-miterlimit="10" stroke-width="0.635"/>
      <path id="패스_5" data-name="패스 5" d="M15.2,29.793H7.448a.743.743,0,1,1,0-1.487H15.2a.743.743,0,1,1,0,1.487" fill="#3c005c"/>
      <path id="패스_6" data-name="패스 6" d="M15.2,29.793H7.448a.743.743,0,1,1,0-1.487H15.2a.743.743,0,1,1,0,1.487Z" fill="none" stroke="#3c005c" stroke-miterlimit="10" stroke-width="0.635"/>
      <path id="패스_7" data-name="패스 7" d="M15.2,24.09H7.447a.744.744,0,0,1-.744-.744V21.3a11.008,11.008,0,1,1,9.244,0v2.045a.744.744,0,0,1-.744.744M8.191,22.6h6.268V20.814a.745.745,0,0,1,.462-.688,9.52,9.52,0,1,0-7.192,0,.745.745,0,0,1,.462.688Z" fill="#3c005c"/>
      <path id="패스_8" data-name="패스 8" d="M15.2,24.09H7.447a.744.744,0,0,1-.744-.744V21.3a11.008,11.008,0,1,1,9.244,0v2.045A.744.744,0,0,1,15.2,24.09ZM8.191,22.6h6.268V20.814a.745.745,0,0,1,.462-.688,9.52,9.52,0,1,0-7.192,0,.745.745,0,0,1,.462.688Z" fill="none" stroke="#3c005c" stroke-miterlimit="10" stroke-width="0.635"/>
      <path id="패스_9" data-name="패스 9" d="M12.032,15.636a1,1,0,0,1,.283.728,1.048,1.048,0,0,1-.283.751.988.988,0,0,1-1.412,0,1.045,1.045,0,0,1-.283-.755,1.007,1.007,0,0,1,.28-.728,1,1,0,0,1,1.415,0m-.146-1.863H10.743l-.284-4.645v-2.7H12.17v2.7Z" fill="#3c005c"/>
      <path id="패스_10" data-name="패스 10" d="M12.032,15.636a1,1,0,0,1,.283.728,1.048,1.048,0,0,1-.283.751.988.988,0,0,1-1.412,0,1.045,1.045,0,0,1-.283-.755,1.007,1.007,0,0,1,.28-.728,1,1,0,0,1,1.415,0Zm-.146-1.863H10.743l-.284-4.645v-2.7H12.17v2.7Z" fill="none" stroke="#3c005c" stroke-miterlimit="10" stroke-width="0.635"/>
    </g>
  </g>
</svg>
