<?xml version="1.0" encoding="utf-8"?>
<!-- Generator: Adobe Illustrator 24.0.1, SVG Export Plug-In . SVG Version: 6.00 Build 0)  -->
<svg version="1.1" id="레이어_1" xmlns="http://www.w3.org/2000/svg" xmlns:xlink="http://www.w3.org/1999/xlink" x="0px"
	 y="0px" viewBox="0 0 368.5 132.9" style="enable-background:new 0 0 368.5 132.9;" xml:space="preserve">
<style type="text/css">
	.st0{fill:#2C2D2C;}
	.st1{fill:#505050;}
</style>
<g id="Layer_1-2-2">
	<path class="st0" d="M285.3,36.8v-0.2l0.1-0.3l0,0V36l0,0l0.1-0.3v-1c0.1-0.3,0-0.5-0.2-0.7l-0.1-0.1l-0.3-0.2h-0.1l-0.3-0.1h-0.3
		l-0.5,0.1l-0.3,0.2l0.1-0.1l-0.5,0.2H283l-0.6,0.3l0,0l-0.8,0.4l-0.1,0.1l-0.9,0.6h0.1l-1,0.5l-0.1,0.1l-1.1,0.8l0,0l-1.2,0.9l0,0
		l-1.3,0.8l0,0l-1.3,1l0,0l-1.3,1l0,0.1l-1.1,1.1l0,0l-1,1l-0.1,0.1l-0.8,1l0,0l-0.7,0.8l-0.1,0.1l-0.4,0.7l0,0l-0.3,0.6l-0.1,0.3
		l-0.1,0.5v0.4l0.1,0.5c0,0.3,0.2,0.5,0.4,0.7l0.3,0.3l0.2,0.1l0.6,0.3l0.5,0.2h2.1L274,49h0.1l1.4-0.3h0.1l1.6-0.6l0,0l1.6-0.6l0,0
		l1.8-0.7l1.6-0.6l0,0l1.6-0.7l0,0l1.5-0.7l1.4-0.7l0,0l1.4-0.8l0,0l0.9-0.5h0l0.8-0.5l0,0l0.6-0.3l0.2-0.2l0.5-0.5l0,0l0.3-0.4
		l0.1-0.1l0.3-0.5l0.1-0.2l0.1-0.4l0-0.5v-0.5l-0.1-0.4l-0.2-0.4l-0.3-0.4l-0.4-0.4l-0.2-0.1l-0.5-0.3l-0.2-0.1l-0.7-0.3h-0.1
		l-0.8-0.3h-0.2l-1-0.2h-0.1l-1-0.1h-3.1l-0.8,0.1h0l-0.6,0.1l-0.4,0.1l-0.4,0.2l-0.3,0.3l-0.2,0.3c-0.2,0.3-0.2,0.7,0.1,1l0.2,0.2
		l0.3,0.2l0.5,0.2h0.1l0.7,0.1h1.1l1-0.1l0,0l1.1-0.2c0.4-0.1,0.6-0.4,0.6-0.8c0,0,0,0,0,0l0,0c-0.1-0.4-0.4-0.6-0.8-0.6l0,0
		l-1.1,0.2l0,0l-1,0.1h-0.7l-0.7-0.2l0.2,0.1l-0.5-0.3l0.3,0.4l-0.1-0.3c-0.2-0.4-0.6-0.6-1-0.5s-0.6,0.6-0.5,1l0,0
		c0.1,0.4,0.6,0.6,1,0.5l0.3-0.1h0.2l0.6,0.1h0l0.8,0.1h3l1,0.1h-0.1l1,0.2H288l0.8,0.3h-0.1l0.7,0.3l-0.1-0.1l0.5,0.3l-0.2-0.1
		l0.4,0.4l-0.3-0.3l0.2,0.4l-0.2-0.4l0.1,0.5v-0.3l-0.1,0.4l0.1-0.3l-0.2,0.5l0.1-0.2l-0.3,0.4l0,0l-0.4,0.5l0.2-0.2l-0.6,0.4l0,0
		l-0.7,0.6l0.1-0.1l-0.9,0.5l-1.1,0.7l0,0l-1.4,0.7l-1.5,0.7l0,0l-1.6,0.7l0,0L280,45l-1.8,0.7l0,0l-1.6,0.6l0,0l-1.6,0.6h0.1
		l-1.4,0.3l0,0l-1.3,0.2h-0.8l-0.9-0.1l0.4,0.2l-0.6-0.4l0.1,0.1l-0.3-0.3l0.4,0.6l-0.1-0.5v0.2l0.1-0.5l-0.1,0.3l0.4-0.6l0,0
		l0.4-0.7l-0.1,0.1l0.6-0.8l0,0l0.8-1l-0.1,0.1l1-1l0,0l1-1.1l0,0.1l1.2-1.1l0,0l1.3-1l0,0l1.3-0.9l0,0l1.2-0.9l0,0l1-0.9l-0.1,0.1
		l0.9-0.6h0.1l0.9-0.7l-0.1,0.1l0.8-0.4l0,0l0.6-0.4h-0.1l0.5-0.2l0.1-0.1l0.3-0.2l-0.4,0.1h0.2l-0.4-0.2l0.1,0.1l-0.3-0.4l0,0V35
		l0,0v0.6l0.1,0.3l0,0l0.1,0.3l0,0l0.1,0.3v0.2c0,0.3,0.1,0.5,0.4,0.6c0.3,0,0.5-0.1,0.6-0.4c0-0.1,0-0.1,0-0.2L285.3,36.8z"/>
	<path class="st0" d="M297.2,29.8l-0.1,0.3v0.1l-0.1,0.5V32l-0.1,0.9l0,0l-0.1,1l0,0l-0.2,1.3l0,0l-0.1,1.3v-0.1l-0.2,1.3v0.1
		l-0.1,1.3l0,0l-0.2,1.2l0,0l-0.2,1.3l0,0l-0.2,1.2l0,0l-0.2,1.3l0,0l-0.3,1.2v0.1l-0.2,1.2v-0.1l-0.3,1.2v0.1l-0.2,1.3v-0.1
		l-0.3,1.1v0l-0.3,1.2l0,0l-0.2,1.1l0,0l-0.1,1l0,0l-0.1,1v-0.2l-0.2,0.9v0.1l-0.1,0.7v-0.1l-0.1,0.7v2c0.1,0.7,0.7,1.2,1.4,1.2
		c0.6-0.1,1.1-0.5,1.2-1.2v-1.6c0-0.2,0-0.4-0.1-0.6l-0.2-0.3l0.1,0.5v-0.3l-0.1,0.5l0.3-0.6l0,0l0.3-0.8c0.1-0.6-0.2-1.2-0.8-1.3
		c0,0,0,0,0,0c-0.4-0.1-0.9,0.1-1.2,0.5l-0.3,0.8l0,0l-0.3,0.6l-0.1,0.5v0.3l0.1-0.5l-0.2,0.3c-0.1,0.2-0.1,0.4-0.1,0.6v1.7
		c0.1,0.7,0.7,1.2,1.4,1.2c0.6-0.1,1.1-0.5,1.2-1.2v-1.6l0.1-0.7v-0.1l0.1-0.7v0.1l0.2-0.9v-0.2l0.1-1v0.1l0.1-1l0,0l0.2-1.1l0,0
		l0.1-1.3v0.2l0.3-1.1v-0.1l0.2-1.3v0.1l0.3-1.2v-0.1l0.2-1.2v0.1l0.3-1.2v-0.1l0.3-1.3l0,0L298,42l0,0l0.2-1.3l0,0l0.2-1.2v-0.1
		l0.1-1.3v0.1l0.2-1.3v-0.1l0.1-1.3v-1.7l-0.1-1l0,0l-0.1-0.9v-1.4l-0.1-0.5V30l-0.1-0.3c-0.1-0.2-0.3-0.3-0.5-0.3
		C297.5,29.4,297.3,29.5,297.2,29.8z"/>
	<path class="st0" d="M311.7,40.7l0.3-0.3l0,0l0.3-0.3c0.2-0.2,0.2-0.5,0-0.7l0,0c-0.2-0.2-0.5-0.2-0.7,0l-0.3,0.3l0,0L311,40
		c-0.2,0.2-0.2,0.5,0,0.7C311.2,40.9,311.5,40.9,311.7,40.7C311.7,40.7,311.7,40.7,311.7,40.7L311.7,40.7L311.7,40.7z"/>
	<path class="st0" d="M311.7,28.2h-0.2l-0.3-0.1h0.1L311,28l-0.2-0.1L311,28l-0.2-0.2h-0.1l-0.1-0.1l0.1,0.8l0,0
		c0.2-0.2,0.2-0.5,0.1-0.8l-0.1-0.2c-0.1-0.2-0.3-0.3-0.5-0.4L310,27c-0.4-0.1-0.9,0.1-1.1,0.5c-0.1,0.4,0.1,0.9,0.5,1.1
		c0.4,0.1,0.9-0.1,1-0.5l0.1-0.2c0.1-0.3,0.1-0.7-0.2-1l-0.1-0.1l0.2,0.3l-0.1-0.3l-0.1-0.3l0,0l-0.2-0.2l-0.1-0.1
		c-0.4-0.4-1.1-0.4-1.5,0.1c-0.4,0.4-0.4,1.1,0.1,1.5c0,0,0,0,0.1,0.1c0.2,0.2,0.4,0.3,0.7,0.3L311.7,28.2l0.7,0.1h0.6l-0.3-0.1
		l0.6,0.2l0.3,0.1h0.4l-0.4-0.1l0.5,0.2l0.2,0.1l0.6,0.1l-0.2-0.1L315,29l0,0l0.4,0.2l0,0l0.5,0.3l-0.2-0.2l0.3,0.4l0.1,0.1l0.4,0.3
		l-0.2-0.2l0.3,0.5v0l0.2,0.4L317,31l0.3,0.3l-0.1-0.2l0.2,0.5c0.2,0.3,0.6,0.5,0.9,0.3c0,0,0,0,0,0l0,0c0.3-0.2,0.4-0.5,0.3-0.8
		l-0.2-0.5l-0.1-0.2L318,30l0.1,0.1l-0.2-0.4l0,0l-0.3-0.5l-0.1-0.2l-0.4-0.4l0.1,0.1l-0.3-0.4l-0.2-0.2l-0.5-0.3l0,0l-0.4-0.3
		l0.2,0.2l-0.2-0.4c-0.1-0.2-0.3-0.3-0.5-0.4l-0.6-0.2L315,27l-0.4-0.3l-0.4-0.2l-0.5-0.1l0.4,0.2l-0.5-0.3l-0.5-0.2h-0.3l-0.6-0.1
		h-3c-0.6,0-1.1,0.4-1.1,1c0,0.4,0.2,0.8,0.5,1l0.1,0.1h0l-0.3-0.4l0.1,0.3c0.2,0.4,0.7,0.7,1.2,0.5h0.1l-1-0.4l0.1,0.2
		c0.2,0.2,0.4,0.3,0.7,0.3h0.3l-0.5-0.2l0.2,0.1c0.2,0.2,0.5,0.2,0.7,0.1l0,0l-0.5-0.1l0.1,0.1v0l0.2,0.2l0.1,0.1l0.2,0.1l0.2,0.1
		h0.2l0.3,0.1h0.4c0.2,0,0.4-0.1,0.5-0.2c0.2-0.3,0.2-0.6-0.1-0.9c0,0,0,0,0,0C312,28.2,311.9,28.2,311.7,28.2L311.7,28.2z"/>
	<path class="st0" d="M305.8,35h-0.7l-0.7-0.1l0,0l-0.6-0.1h0.1l-0.5-0.2h-0.1l-0.4-0.1l0.4,0.2l-0.1-0.1c-0.2-0.1-0.3-0.2-0.6-0.3
		h-0.3l0.5,0.2l0,0c-0.3-0.2-0.7-0.2-1-0.1c-0.4,0.3-0.6,0.8-0.3,1.3c0,0,0,0,0,0l0,0c0.1,0.1,0.2,0.3,0.4,0.3l0,0l0.3,0.1h1.5
		l0.7-0.1h0.1l0.8-0.1l0,0l0.9-0.1l0.9-0.1h1l0.9-0.1h3.3l0.5,0.1l0,0l0.5,0.1l-0.3-0.1l0.4,0.2h0l0.4,0.2l-0.4-0.4l0.2,0.3l0.2,0.3
		l-0.1-0.3l0.1,0.3v0.3l0.1,0.4v-0.7l-0.1,0.5v-0.1l-0.3,0.6l0.1-0.1l-0.4,0.6l0.1-0.2l-0.5,0.6l0,0l-0.5,0.6l0.1-0.1l-0.6,0.6
		l-0.7,0.7l-0.7,0.7l0,0l-0.8,0.7l0,0l-0.7,0.6h0.1l-0.7,0.5l0,0l-0.6,0.5v0.1l-0.4,0.4l0,0l-0.4,0.4l0.1-0.1l-0.3,0.2l0.2-0.1
		l-0.3,0.1l0.3-0.1h-0.2l0.9,0.6v-0.1l-0.2,0.8l0.2-0.2l0,0l0.4-0.4l0.5-0.5l0,0l0.5-0.5l0,0l0.6-0.5l-0.1,0.1l0.6-0.3H310l0.5-0.3
		l0.5-0.3h-0.1l0.4-0.1h-0.1l0.4-0.1h0.1h0.3h-0.1l0.3,0.1l-0.4-0.3l0.2,0.2l-0.1-0.2l0.2,0.4l0,0l0.1,0.5l0.3,0.5l0,0l0.3,0.5
		l-0.1-0.2l0.2,0.6l0,0l0.2,0.6V45l0.1,0.6l0,0v0.7l0.1,0.5v0.7l0,0.3l0.1,0.3l0.1,0.2l0.1,0.2c0.1,0.2,0.3,0.3,0.5,0.4h0.1
		l-0.5-0.7v0.5l0,0c0.1,0.3,0.3,0.5,0.6,0.5l0.2,0.1c0.4,0.1,0.8,0,1-0.3l0.2-0.2l-0.1,0.1l0.3-0.2l0.2-0.2l0.4-0.5l-0.1,0.1
		l0.5-0.6l0.1-0.1l0.5-0.7l0,0l0.5-0.8l-0.1,0.1l0.6-0.7l0.1-0.1l0.5-0.8l0.5-0.7l0.4-0.7l-0.1,0.1l0.5-0.6v-0.1l0.4-0.5v0l0.4-0.5
		h-0.1l0.4-0.4l0.1-0.1l0.2-0.3l-0.1,0.2l0.3-0.2l0.3-0.4l0.1-0.2l-0.1,0.2l0.1-0.2l-0.8,0.5h0.2c0.5-0.1,0.9-0.6,0.9-1.1v-0.2
		c0-0.6-0.5-1.1-1.1-1.1c-0.5,0-0.9,0.3-1.1,0.8c-0.1,0.4,0,0.8,0.3,1.1l0.1,0.2l-0.3-0.8V40c0,0.2,0.1,0.4,0.1,0.5l0.1,0.2l0.2,0.2
		l0.2,0.2l0.2,0.2l0.3,0.2l0,0l0.3,0.2h0.1l0.4,0.2l0.3,0.1l0.5,0.1h0.9l0.7-0.1h0.1l0.8-0.2h0.1l0.9-0.3l0,0l0.8-0.3l0,0l0.8-0.3
		l0.2-0.1l0.7-0.5l0,0l0.7-0.4l0,0l0.7-0.4h0.1l0.5-0.3l0.1-0.1l0.4-0.4l0,0l0.3-0.3l-0.2,0.2l0.4-0.2l0.3-0.3v-0.1
		c0.1-0.3-0.1-0.7-0.4-0.8c-0.3-0.1-0.5,0-0.7,0.3l-0.2,0.3l0.1-0.1l-0.3,0.3c-0.2,0.3-0.2,0.7,0.1,0.9c0,0,0,0,0,0l0,0
		c0.2,0.2,0.5,0.2,0.8,0l0.3-0.3l0.1-0.2l0.1-0.3c0.2-0.3,0.1-0.7-0.2-0.8c0,0,0,0,0,0l0,0c-0.1-0.1-0.2-0.1-0.4-0.1
		c-0.2,0-0.4,0.2-0.5,0.4v0.1l0.3-0.3l-0.3,0.2l0,0l-0.4,0.2l0.1-0.1l-0.5,0.2h-0.1l-0.5,0.3l0,0l-0.7,0.3l0,0l-0.8,0.3l0,0
		l-0.8,0.4h0.1l-0.8,0.3l0,0l-0.8,0.3l0,0l-0.9,0.3h0.1l-0.8,0.1h0.1l-0.7,0.1h-0.2L323,40l0.3,0.1l-0.4-0.2l0,0l-0.3-0.2l0,0
		l-0.3-0.2l0.2,0.2l-0.2-0.2l0.2,0.2l-0.1-0.2l0.2,0.6v-0.5c0-0.3-0.1-0.6-0.3-0.8l-0.2-0.2c-0.3-0.3-0.8-0.4-1.2-0.2
		c-0.4,0.2-0.7,0.6-0.7,1v0.2l0.9-1.1h-0.2c-0.4,0.1-0.7,0.4-0.8,0.8v0.7l0.3-0.7l-0.3,0.3l-0.1,0.2l-0.2,0.3l0,0l-0.2,0.5l0.1-0.1
		l-0.4,0.5h0l-0.3,0.5l0.1-0.1l-0.5,0.6l0,0.1l-0.4,0.7l0,0l-0.5,0.7l0,0l-0.5,0.8v-0.2l-0.6,0.7l-0.1,0.1l-0.6,0.8l0,0l-0.5,0.7
		l0.1-0.1l-0.5,0.6l0,0l-0.4,0.5l0.2-0.2l-0.4,0.2l-0.1,0.1l-0.2,0.2l1-0.1l-0.1-0.1l0.4,1l0,0v-0.4l-0.1-0.4v-0.1l0-0.1l-0.1-0.2
		l0.1,0.2l-0.1-0.3l0.1,0.4v-1.2l-0.1-0.5v-0.4l-0.1-0.6l-0.1-0.2l-0.2-0.6l-0.2-0.6l-0.1-0.2l-0.3-0.5l0,0l-0.3-0.5l0,0l-0.2-0.3
		l-0.3-0.4l-0.2-0.2l-0.2-0.2l-0.3-0.2l-0.3-0.1h-1l-0.4,0.1l0,0l-0.4,0.1h-0.1l-0.5,0.3l0,0l-0.5,0.3l0,0l-0.5,0.4l0,0l-0.6,0.5
		l0,0l-0.6,0.5l0,0l-0.5,0.5l0,0l-0.4,0.4l0.1-0.1l-0.3,0.2c-0.2,0.1-0.3,0.3-0.3,0.5v0.1c-0.1,0.2,0,0.5,0.1,0.7
		c0.1,0.2,0.4,0.4,0.6,0.4h0.6l0.3-0.1l0,0l0.4-0.1l0.4-0.2l0.4-0.4l-0.1,0.1l0.5-0.3l0,0l0.6-0.5h0l0.7-0.5h0.1l0.7-0.6l0,0
		l0.8-0.7l0,0l0.7-0.7l0.7-0.7l0.6-0.6l0.1-0.1l0.5-0.6l0,0l0.5-0.6l0.1-0.2l0.3-0.6l0.1-0.1l0.3-0.6v-0.1l0.1-0.5
		c0.1-0.2,0.1-0.4,0-0.6l-0.1-0.4v-0.3l-0.1-0.3l-0.1-0.3l-0.2-0.3l-0.2-0.3l-0.4-0.3l-0.4-0.2l0,0l-0.4-0.2l-0.3-0.1l-0.5-0.1l0,0
		l-0.5-0.1h-0.1l-0.6,0H310l-0.9,0l0,0l-0.9,0.1H307l-0.9,0.1l-0.9,0.1l0,0l-0.8,0.1l0,0l-0.7,0.1h-1.2l-0.3,0.1l0,0
		c-0.5,0.2-0.7,0.7-0.5,1.2c0,0,0,0,0,0l0,0c0.1,0.2,0.2,0.4,0.4,0.5c0.3,0.2,0.7,0.1,1-0.1l0,0l-0.5,0.2h0.3c0.2,0,0.4-0.1,0.6-0.3
		l0.1-0.1l-0.4,0.2l0.4-0.1h2.4c0.3,0,0.5-0.3,0.4-0.6l0,0c0-0.2-0.2-0.4-0.4-0.4L305.8,35z"/>
	<path class="st0" d="M324.3,47.1l-0.5,0.4l0,0l-0.4,0.3l0,0l-0.3,0.2l0.3-0.1h-0.3l-0.3,0.1l-0.3,0.2l0.3-0.1h-0.3l-0.4,0.1
		l-0.2,0.1l0.5-0.1h-0.3c-0.2,0-0.5,0.1-0.6,0.3l-0.1,0.1l0.6-0.3h-0.1c-0.3,0-0.5,0.2-0.6,0.5l-0.1,0.1c-0.2,0.3-0.2,0.6,0,0.9
		c0.2,0.3,0.5,0.5,0.8,0.5h0.2l-0.8-0.4l0.1,0.2c0.2,0.2,0.4,0.4,0.7,0.4h0.1l-0.8-0.5l0.1,0.2c0.2,0.3,0.5,0.5,0.9,0.5h1.1l0.4-0.1
		l0.2-0.1l-0.3,0.1h0.2c0.3-0.1,0.5-0.2,0.6-0.5l0.1-0.2l0.1-0.2l0.1-0.3v-0.7l0,0v-0.2l0,0v-0.5l-0.1-0.3l-0.1-0.3l-0.2-0.3
		l-0.1-0.1l-0.2-0.2l-0.1-0.1l-0.2-0.2l-0.4-0.3h-0.2l0,0l-0.3-0.1l-0.5-0.1h-0.8l-0.3,0.1h-0.1c-0.2,0.1-0.3,0.2-0.4,0.3l0,0
		c-0.4,0.5-0.3,1.1,0.2,1.5c0,0,0,0,0,0c0.2,0.1,0.4,0.2,0.5,0.2c0.4,0,0.8-0.1,1-0.4l0.2-0.2l-0.4,0.3l0.3-0.1h0.6l0.2-0.1h0.3
		l0.4,0.1l0,0l0.5,0.2c0.2,0.1,0.4,0,0.5-0.1c0.1-0.1,0.2-0.3,0.2-0.5c0-0.2-0.2-0.3-0.3-0.4l-0.5-0.2l0,0l-0.4-0.1H324l-0.2-0.1
		H323l-0.3-0.1l0.4,0.3l-0.1-0.3c-0.2-0.3-0.6-0.5-1-0.4c-0.4,0-0.7,0.3-0.9,0.7c-0.2,0.4-0.1,0.8,0.1,1.1l0,0
		c0.1,0.2,0.3,0.3,0.4,0.3h0.1l0.3,0.1h0.8l-0.4-0.1l0.3,0.1l0,0l0.2,0.1l-0.4-0.2l0.2,0.2l0.1,0.1l0.2,0.2l-0.2-0.2l0.2,0.3
		l-0.1-0.2l0.1,0.3v0.1l0.1,0.2l-0.1-0.4v0.3l-0.1,0.2l0.1-0.2l-0.1,0.2l0.7-0.4h-0.2l-0.3,0.1l-0.2,0.1l0.4-0.1h-0.8l0.9,0.5
		l-0.1-0.2c-0.2-0.3-0.5-0.5-0.9-0.5h-0.1l0.8,0.4l-0.1-0.2c-0.2-0.2-0.4-0.3-0.7-0.3H322l0.8,0.5l0-0.1c-0.2-0.4-0.8-0.6-1.2-0.3
		c-0.4,0.2-0.6,0.8-0.4,1.2c0.2,0.4,0.8,0.6,1.2,0.4l0,0l0.1-0.1l0.4-0.4l0.1-0.1l-0.3,0.3l0.1-0.1l-0.4,0.2h0.1l0.4-0.1l0.2-0.1
		l-0.2,0.1l0.3-0.1l0.4-0.2l0.2-0.3l-0.2,0.2l0.3-0.1l0.2-0.2l0.3-0.3l-0.1,0.1l0.4-0.3h0l0.5-0.4c0.2-0.2,0.3-0.5,0.1-0.7
		c-0.1-0.2-0.4-0.3-0.7-0.2L324.3,47.1L324.3,47.1z"/>
	<path class="st0" d="M333.5,37.7v-1.9l-0.1,0.3l0.2-0.3l0.1-0.2l0.1-0.3v-0.5c0.1-0.4-0.1-0.8-0.5-1c-0.4-0.2-0.8-0.1-1.1,0.3
		l-0.1,0.2l-0.2,0.3l-0.1,0.4V35l-0.1,0.5v-0.1l-0.2,0.7v0.1l-0.1,0.8v-0.1l-0.2,0.9l0,0l-0.1,0.9v-0.1l-0.2,0.9v0.2l-0.1,0.9l0,0
		l-0.1,0.9v1.7l0,0v0.6l0,0v1.3l0.1,0.5l0.1,0.3l0.2,0.3l0.1,0.2l0.3,0.3l0.4,0.3l0.3,0.1l0.3,0.1l0.4,0.1h0.8l0.5-0.1l0.2-0.1
		l0.5-0.2l0.2-0.1l0.6-0.4h0l0.6-0.3l0.1-0.1l0.6-0.5l0,0l0.6-0.5l0.2-0.2l0.5-0.7l0,0l0.5-0.7l0.1-0.2l0.3-0.7v0.1l0.3-0.6l0,0
		l0.3-0.6l0.1-0.5v-0.4l0.1-0.6v-0.8l0,0v-1.5l-0.1-0.6l-0.1-0.3l-0.2-0.5l0,0l-0.2-0.5c-0.1-0.3-0.4-0.5-0.7-0.6l-0.5-0.2l0,0
		l-0.4-0.1l-0.4-0.1h-1.1l-0.7,0.1h-0.2l-0.6,0.2l-0.3,0.1l-0.7,0.4l-0.1,0.1l-0.6,0.5l-0.1,0.1l-0.6,0.7l0,0l-0.6,0.7l0,0l-0.5,0.6
		l-0.1,0.1l-0.5,0.7l-0.1,0.2l-0.3,0.7l0-0.1l-0.4,0.6l-0.1,0.4l-0.1,0.5l0-0.2l-0.1,0.4l-0.1,0.4v1.2l0.2,0.5l0.1,0.2l0.2,0.3
		l0.3,0.3c0.1,0.2,0.3,0.3,0.5,0.3l0.5,0.2h0.2l0.6,0.1h1.2l0.8-0.1l0.2-0.1l0.9-0.3l0.1-0.1l1-0.5l0.1-0.1l1-0.6l-0.1,0.1l1.3-0.6
		l0.2-0.1l1.1-0.8l-0.1,0.1l1-0.6l0.1-0.1l1.1-0.9h-0.1l0.9-0.6l0.1-0.1l0.9-0.8l-0.1,0.1l0.8-0.6l0.1-0.1l0.6-0.6l-0.1,0.1l0.6-0.4
		h0.1l0.5-0.4l0,0l0.3-0.2l0.3-0.4l0.2-0.3l-0.7,0.6l0.3-0.1c0.4-0.1,0.8-0.5,0.9-0.9v-0.2l-1.2,1h0.1c0.7,0,1.3-0.5,1.3-1.2
		c0,0,0,0,0,0l0,0c0-0.6-0.3-1.1-0.9-1.3c-0.6-0.2-1.2,0-1.5,0.5l-0.1,0.2l0-0.1l-0.2,0.3l0,0l-0.4,0.6l0,0l-0.5,0.8l-0.1,0.2
		l-0.4,0.9v-0.1l-0.5,1l-0.1,0.2l-0.4,1v-0.1l-0.5,1.1v0.1l-0.4,1.2l0-0.1l-0.4,0.9l0,0.2l-0.3,1l-0.1,0.2l-0.1,0.9l0-0.2l-0.3,0.8
		l-0.1,0.3v0.5l-0.1,0.5v2.1c-0.1,0.7,0.3,1.4,1,1.5c0.1,0,0.2,0,0.3,0h0.6l0.4-0.1l0.3-0.1l0.1-0.1l0.3-0.2
		c0.2-0.1,0.4-0.3,0.5-0.5l0.3-0.4l-0.2,0.2l0.5-0.5l0.2-0.2l0.3-0.5l-0.2,0.2l0.6-0.6l0,0l0.5-0.5l-0.1,0.1l0.6-0.5l-0.1,0.1
		l0.6-0.5l0,0l0.5-0.4l-0.2,0.1l0.5-0.3l0.2-0.1l0.4-0.3l-0.2,0.2l0.5-0.3l0.1-0.1l0.3-0.2l-0.5,0.2l0.4-0.1h0.3l-0.7-0.2l0.2,0.2
		l-0.4-0.4l0.2,0.3l-0.2-0.6v0.6l0.2,0.6v5l0.1,0.5l0.1,0.3l0,0c0.1,0.4,0.4,0.7,0.7,0.9l0.3,0.1l0.5,0.1h0.8l0.5-0.1l0.4-0.1
		l0.6-0.3l0.1-0.1l0.7-0.5l0.1-0.1l0.6-0.6l0.8-0.7l0,0l0.7-0.6l-0.1,0.1l0.8-0.6l0.2-0.2l0.5-0.6l-0.2,0.2l0.6-0.5l0.1-0.2l0.4-0.5
		l-0.1,0.1l0.4-0.4l-0.1,0.1l0.3-0.2l0.3-0.3l0.1-0.2l0,0l0.1-0.2c0.3-0.6,0.1-1.2-0.5-1.5c-0.5-0.3-1.1-0.1-1.4,0.3l0,0l-0.1,0.2
		l0,0l-0.2,0.2l0.3-0.3l-0.3,0.2l-0.1,0.1l-0.4,0.4l-0.1,0.1l-0.4,0.5l0.1-0.1l-0.7,0.5l-0.2,0.2l-0.5,0.6l0.2-0.2l-0.8,0.6l0,0
		l-0.7,0.5l0.1,0l-0.8,0.5l-0.1,0.1l-0.6,0.6l0.1-0.1l-0.7,0.5l0.1-0.1l-0.6,0.3l0.4-0.1l-0.5,0.1h-0.3l0.5,0.1l-0.3-0.1l0.7,0.9
		v-0.3l-0.1-0.3l0.1,0.5v-5.6l-0.1-0.6v-0.2c0-0.2-0.1-0.4-0.2-0.5l-0.2-0.3l-0.4-0.4l-0.2-0.2c-0.2-0.1-0.5-0.2-0.7-0.2h-0.9
		l-0.3,0.1l-0.5,0.2l-0.3,0.2h0.1l-0.5,0.3l-0.2,0.2l-0.4,0.3l0.2-0.1l-0.5,0.3l-0.2,0.1l-0.5,0.4l0,0l-0.6,0.5l-0.1,0.1l-0.6,0.5
		l-0.1,0.1l-0.5,0.5l0,0l-0.6,0.6l-0.2,0.2l-0.3,0.5l0.2-0.2l-0.5,0.5l-0.2,0.2l-0.3,0.4l0.5-0.5l-0.3,0.2h0.1l-0.3,0.1l0.5-0.1
		h-0.6c-0.7,0-1.3,0.6-1.3,1.3c0,0.7,0.6,1.3,1.3,1.3c0.7,0,1.3-0.6,1.3-1.3v-1.6l0.1-0.5v-0.9l-0.1,0.4l0.3-0.8l0-0.2l0.2-0.9
		l-0.1,0.2l0.3-1v0.1l0.4-0.9l0-0.1l0.4-1.2v0.1l0.5-1.1v-0.1l0.4-1l-0.1,0.2l0.5-1l0,0l0.4-0.9l-0.1,0.2l0.5-0.8l0,0l0.4-0.6l0,0
		l0.2-0.3l0-0.1l0.1-0.2c0.4-0.6,0.2-1.4-0.4-1.8c-0.2-0.1-0.5-0.2-0.7-0.2h-0.1c-0.6,0-1.1,0.4-1.3,1v0.2l0.4-0.7l-0.2,0.2
		l-0.3,0.4l-0.1,0.3l0.2-0.3l-0.3,0.3l-0.1,0.1l-0.4,0.5l0.1-0.1l-0.5,0.5l0,0l-0.6,0.5l0.1-0.1l-0.9,0.6l-0.1,0.1l-0.9,0.7l0.1-0.1
		l-0.9,0.6h0l-1.2,0.9l0.1-0.1l-1,0.6l0,0l-1.1,0.7l0.2-0.1l-1.3,0.5l-0.1,0.1l-1,0.5l0.2-0.1l-1.1,0.4l0,0l-0.9,0.3l0.2-0.1
		l-0.8,0.1h-0.3l-0.7-0.1h0.2l-0.5-0.2l0.5,0.3l-0.3-0.3l0.2,0.2l-0.1-0.2l0.2,0.5v-0.7l0.1-0.4v-0.7l-0.1,0.4l0.3-0.6v-0.1l0.3-0.7
		l-0.1,0.2l0.5-0.7L333,40l0.5-0.6l0,0l0.5-0.7l0,0l0.6-0.7l-0.1,0.1l0.6-0.5l-0.1,0.1l0.7-0.4l-0.3,0.1l0.6-0.2h-0.2l0.7-0.1h0.9
		l-0.4-0.1l0.3,0.1l0,0l0.5,0.2l-0.7-0.6l0.2,0.5l0.2,0.5l-0.1-0.3l0.1,0.6v1l0,0v0.1l-0.1,0.6v0.7l0.1-0.5l-0.3,0.6l0,0l-0.3,0.6
		l0,0l-0.3,0.7l0.1-0.2l-0.5,0.7l0,0l-0.5,0.7l0.2-0.2l-0.6,0.5l0,0l-0.6,0.5l0.2-0.1l-0.6,0.3l0,0l-0.6,0.4l0.2-0.1l-0.5,0.2h0.2
		l-0.5,0.1h0.1l-0.4-0.1l0.2,0.1l-0.3-0.1l0.4,0.3l-0.3-0.3l0.1,0.1l-0.2-0.3l0.1,0.3l-0.2-0.5l0,0.3v-1l0,0V43l0,0v-1.5l0.1-0.9
		l0,0l0.1-0.9V40l0.2-0.9V39l0.1-0.9v0.2l0.1-0.9v-0.1l0.1-0.8v0.1l0.1-0.7v-0.1l0.1-0.5l0,0V35l-0.2,0.4l0.1-0.2
		c0.3-0.4,0.2-1-0.2-1.3s-1-0.2-1.3,0.2c-0.1,0.2-0.2,0.5-0.2,0.7v0.5l0.1,0.3l0.1,0.2l0.2,0.3l-0.1-0.3v1.9c0,0.3,0.3,0.6,0.6,0.6
		l0,0l0,0c0.3,0,0.6-0.3,0.6-0.6l0,0C333.5,37.8,333.5,37.7,333.5,37.7z"/>
	<path class="st1" d="M305.9,95.7c0.1,0,0.2,0,0.2,0.1l0.5,0.6c-0.4,0.5-0.9,0.8-1.5,1.1c-1.3,0.5-2.7,0.5-4,0
		c-0.6-0.2-1.1-0.6-1.5-1c-0.4-0.5-0.7-1-1-1.6c-0.2-0.6-0.3-1.3-0.3-2c0-0.7,0.1-1.4,0.4-2c0.2-0.6,0.6-1.1,1-1.6
		c0.4-0.4,1-0.8,1.6-1c0.6-0.3,1.3-0.4,2-0.4c1.2-0.1,2.4,0.3,3.3,1.1l-0.4,0.6c0,0-0.1,0.1-0.1,0.1c-0.1,0-0.1,0-0.2,0
		c-0.1,0-0.1,0-0.2-0.1l-0.2-0.2c-0.1-0.1-0.2-0.1-0.3-0.2c-0.1-0.1-0.3-0.1-0.4-0.2c-0.2-0.1-0.4-0.1-0.6-0.2
		c-0.3,0-0.5-0.1-0.8-0.1c-0.5,0-1,0.1-1.5,0.3c-0.4,0.2-0.8,0.4-1.1,0.8c-0.3,0.4-0.6,0.8-0.7,1.2c-0.4,1.1-0.4,2.2,0,3.3
		c0.2,0.4,0.4,0.9,0.7,1.2c0.3,0.3,0.7,0.6,1.1,0.8c0.4,0.2,0.9,0.3,1.4,0.3c0.3,0,0.5,0,0.8,0c0.2,0,0.4-0.1,0.6-0.2
		c0.2-0.1,0.4-0.2,0.6-0.3c0.2-0.1,0.4-0.2,0.5-0.4C305.7,95.7,305.8,95.7,305.9,95.7z"/>
	<path class="st1" d="M308.1,97.7V87.6h1.2v4.1c0.3-0.3,0.6-0.6,1-0.8c0.7-0.3,1.5-0.4,2.3-0.1c0.3,0.1,0.5,0.3,0.7,0.5
		c0.2,0.2,0.4,0.5,0.5,0.8c0.1,0.4,0.2,0.7,0.1,1.1v4.4h-1.2v-4.4c0-0.4-0.1-0.9-0.4-1.2c-0.3-0.3-0.7-0.5-1.1-0.4
		c-0.4,0-0.7,0.1-1,0.3c-0.3,0.2-0.6,0.4-0.9,0.7v5.1L308.1,97.7z"/>
	<path class="st1" d="M320.9,97.7h-0.5c-0.1,0-0.2,0-0.3-0.1c-0.1,0-0.1-0.1-0.1-0.2l-0.1-0.7c-0.2,0.2-0.4,0.3-0.5,0.4
		c-0.2,0.1-0.4,0.2-0.5,0.3c-0.2,0.1-0.4,0.2-0.6,0.2c-0.2,0-0.5,0.1-0.7,0.1c-0.3,0-0.5,0-0.8-0.1c-0.2-0.1-0.4-0.2-0.6-0.3
		c-0.2-0.2-0.3-0.4-0.4-0.6c-0.1-0.3-0.2-0.5-0.2-0.8c0-0.3,0.1-0.6,0.2-0.8c0.2-0.3,0.4-0.5,0.7-0.7c0.4-0.2,0.9-0.4,1.3-0.5
		c0.7-0.1,1.3-0.2,2-0.2v-0.6c0-0.4-0.1-0.9-0.4-1.2c-0.3-0.3-0.6-0.4-1-0.4c-0.3,0-0.5,0-0.8,0.1c-0.2,0.1-0.4,0.2-0.5,0.3
		c-0.1,0.1-0.3,0.2-0.4,0.3c-0.1,0.1-0.2,0.1-0.3,0.1c-0.1,0-0.1,0-0.2-0.1c-0.1,0-0.1-0.1-0.1-0.2l-0.2-0.4
		c0.4-0.4,0.8-0.6,1.3-0.8c0.5-0.2,1-0.3,1.5-0.3c0.3,0,0.7,0.1,1,0.2c0.3,0.1,0.5,0.3,0.8,0.5c0.2,0.2,0.4,0.5,0.5,0.8
		c0.1,0.3,0.2,0.7,0.2,1.1L320.9,97.7z M317.8,97c0.2,0,0.4,0,0.6-0.1c0.2,0,0.4-0.1,0.5-0.2c0.2-0.1,0.3-0.2,0.5-0.3
		c0.2-0.1,0.3-0.2,0.4-0.4v-1.4c-0.5,0-1,0-1.5,0.1c-0.3,0-0.7,0.1-1,0.3c-0.2,0.1-0.4,0.2-0.5,0.4c-0.1,0.2-0.2,0.3-0.2,0.5
		c0,0.2,0,0.3,0.1,0.5c0.1,0.1,0.1,0.2,0.2,0.3c0.1,0.1,0.2,0.2,0.4,0.2C317.4,97,317.6,97,317.8,97z"/>
	<path class="st1" d="M324.4,88.6c0,0.1,0,0.2-0.1,0.3c0,0.1-0.1,0.2-0.2,0.3c-0.1,0.1-0.2,0.1-0.3,0.2c-0.1,0-0.2,0.1-0.3,0.1
		c-0.1,0-0.2,0-0.3-0.1c-0.1,0-0.2-0.1-0.3-0.2c-0.1-0.1-0.1-0.2-0.2-0.3c-0.1-0.2-0.1-0.5,0-0.7c0.1-0.2,0.3-0.4,0.5-0.5
		c0.1,0,0.2-0.1,0.3-0.1c0.1,0,0.2,0,0.3,0.1c0.2,0.1,0.4,0.3,0.5,0.5C324.4,88.3,324.4,88.4,324.4,88.6z M324.2,90.8v7h-1.2v-7
		H324.2z"/>
	<path class="st1" d="M326.3,97.7v-7h0.7c0.2,0,0.3,0.1,0.4,0.3c0,0,0,0.1,0,0.1l0.1,1.1c0.2-0.4,0.5-0.8,0.9-1.1
		c0.4-0.3,0.8-0.4,1.2-0.4c0.2,0,0.4,0,0.5,0.1c0.2,0,0.3,0.1,0.4,0.2l-0.2,0.9c0,0.1-0.1,0.2-0.2,0.2c-0.1,0-0.2,0-0.3-0.1
		c-0.2-0.1-0.4-0.1-0.6-0.1c-0.4,0-0.8,0.1-1.1,0.4c-0.3,0.3-0.6,0.7-0.7,1.1v4.4L326.3,97.7z"/>
	<path class="st1" d="M331.9,97.7v-7h0.7c0.2,0,0.3,0.1,0.4,0.3l0,0l0.1,0.7c0.2-0.3,0.5-0.6,0.9-0.8c0.3-0.2,0.7-0.3,1.1-0.3
		c0.4,0,0.8,0.1,1.1,0.4c0.3,0.3,0.5,0.7,0.6,1.1c0.1-0.2,0.2-0.5,0.4-0.7c0.2-0.2,0.3-0.3,0.5-0.4c0.2-0.1,0.4-0.2,0.6-0.3
		c0.2-0.1,0.5-0.1,0.7-0.1c0.3,0,0.7,0.1,1,0.2c0.3,0.1,0.5,0.3,0.7,0.5c0.2,0.2,0.4,0.5,0.5,0.8c0.1,0.4,0.2,0.7,0.2,1.1v4.4h-1.2
		v-4.4c0-0.4-0.1-0.9-0.4-1.2c-0.3-0.3-0.6-0.4-1-0.4c-0.2,0-0.4,0-0.6,0.1c-0.2,0.1-0.3,0.2-0.5,0.3c-0.1,0.2-0.3,0.3-0.3,0.5
		c-0.1,0.2-0.1,0.5-0.1,0.7v4.4H336v-4.4c0-0.4-0.1-0.9-0.3-1.3c-0.2-0.3-0.6-0.4-1-0.4c-0.3,0-0.6,0.1-0.8,0.3
		c-0.3,0.2-0.5,0.4-0.7,0.7v5.2L331.9,97.7z"/>
	<path class="st1" d="M348.3,97.7h-0.5c-0.1,0-0.2,0-0.3-0.1c-0.1,0-0.1-0.1-0.1-0.2l-0.1-0.7c-0.2,0.2-0.4,0.3-0.5,0.4
		c-0.2,0.1-0.4,0.2-0.5,0.3c-0.2,0.1-0.4,0.2-0.6,0.2c-0.2,0-0.5,0.1-0.7,0.1c-0.3,0-0.5,0-0.8-0.1c-0.2-0.1-0.4-0.2-0.6-0.3
		c-0.2-0.2-0.3-0.4-0.4-0.6c-0.1-0.3-0.2-0.5-0.2-0.8c0-0.3,0.1-0.6,0.2-0.8c0.2-0.3,0.4-0.5,0.7-0.7c0.4-0.2,0.9-0.4,1.3-0.5
		c0.7-0.1,1.3-0.2,2-0.2v-0.6c0-0.4-0.1-0.9-0.4-1.2c-0.3-0.3-0.6-0.4-1-0.4c-0.3,0-0.5,0-0.8,0.1c-0.2,0.1-0.4,0.2-0.5,0.3
		c-0.1,0.1-0.3,0.2-0.4,0.3c-0.1,0.1-0.2,0.1-0.3,0.1c-0.1,0-0.2,0-0.2-0.1c-0.1,0-0.1-0.1-0.1-0.2l-0.2-0.4
		c0.4-0.4,0.8-0.6,1.3-0.8c0.5-0.2,1-0.3,1.5-0.3c0.3,0,0.7,0.1,1,0.2c0.3,0.1,0.6,0.3,0.8,0.5c0.2,0.2,0.4,0.5,0.5,0.8
		c0.1,0.3,0.2,0.7,0.2,1.1L348.3,97.7z M345.1,97c0.2,0,0.4,0,0.6-0.1c0.2,0,0.4-0.1,0.5-0.2c0.2-0.1,0.3-0.2,0.5-0.3
		c0.2-0.1,0.3-0.2,0.4-0.4v-1.4c-0.5,0-1,0-1.4,0.1c-0.3,0-0.7,0.1-1,0.3c-0.2,0.1-0.4,0.2-0.5,0.4c-0.1,0.2-0.2,0.3-0.2,0.5
		c0,0.2,0,0.3,0.1,0.5c0.1,0.1,0.1,0.2,0.2,0.3c0.1,0.1,0.2,0.2,0.4,0.2C344.8,97,345,97,345.1,97z"/>
	<path class="st1" d="M350.2,97.7v-7h0.7c0.2,0,0.3,0.1,0.3,0.3l0.1,0.8c0.3-0.3,0.6-0.6,1-0.8c0.4-0.2,0.8-0.3,1.3-0.3
		c0.3,0,0.7,0.1,1,0.2c0.3,0.1,0.5,0.3,0.7,0.5c0.2,0.2,0.4,0.5,0.4,0.8c0.1,0.4,0.2,0.7,0.1,1.1v4.4h-1.2v-4.4
		c0-0.4-0.1-0.9-0.4-1.2c-0.3-0.3-0.7-0.5-1.1-0.4c-0.4,0-0.7,0.1-1,0.3c-0.3,0.2-0.6,0.4-0.9,0.7v5.1L350.2,97.7z"/>
	<path class="st1" d="M122.2,108.7h0.5c0.1,0,0.3,0,0.4-0.1c0.1-0.1,0.2-0.1,0.3-0.2l3.3-3.7c0.1-0.1,0.2-0.2,0.3-0.3
		c0.1,0,0.2-0.1,0.4-0.1h1.1l-3.8,4.3c-0.1,0.1-0.2,0.2-0.3,0.3c-0.1,0.1-0.2,0.1-0.3,0.2c0.1,0,0.2,0.1,0.3,0.2
		c0.1,0.1,0.2,0.2,0.3,0.3l3.9,4.7h-1.4c-0.1,0-0.1,0-0.2-0.1c0,0-0.1,0-0.1-0.1c-0.1,0-0.1-0.1-0.1-0.1l-3.4-3.9l-0.1-0.2
		c0,0-0.1-0.1-0.2-0.1h-0.2c-0.1,0-0.2,0-0.3,0h-0.6v4.5h-1.3v-9.9h1.3L122.2,108.7z"/>
	<path class="st1" d="M132.5,107.2c0.5,0,0.9,0.1,1.4,0.3c0.4,0.2,0.8,0.4,1.1,0.7c0.3,0.3,0.5,0.7,0.7,1.1c0.3,1,0.3,2,0,3
		c-0.1,0.4-0.4,0.8-0.7,1.1c-0.3,0.3-0.6,0.6-1.1,0.7c-0.9,0.3-1.9,0.3-2.8,0c-0.4-0.2-0.7-0.4-1-0.7c-0.3-0.3-0.5-0.7-0.7-1.1
		c-0.3-1-0.3-2,0-3c0.1-0.4,0.4-0.8,0.7-1.1c0.3-0.3,0.6-0.6,1-0.7C131.6,107.3,132.1,107.2,132.5,107.2z M132.5,113.4
		c0.6,0,1.2-0.2,1.5-0.7c0.4-0.6,0.5-1.2,0.5-1.9c0-0.7-0.1-1.4-0.5-1.9c-0.4-0.5-0.9-0.7-1.5-0.7c-0.3,0-0.6,0.1-0.9,0.2
		c-0.3,0.1-0.5,0.3-0.6,0.5c-0.2,0.2-0.3,0.5-0.4,0.8c-0.2,0.7-0.2,1.5,0,2.2c0.1,0.3,0.2,0.6,0.4,0.8c0.2,0.2,0.4,0.4,0.6,0.5
		C131.9,113.4,132.2,113.4,132.5,113.4z"/>
	<path class="st1" d="M137.4,114.3v-7h0.7c0.1,0,0.2,0,0.3,0.1c0.1,0.1,0.1,0.2,0.1,0.3l0.1,1.1c0.2-0.4,0.5-0.8,0.9-1.1
		c0.4-0.3,0.8-0.4,1.2-0.4c0.2,0,0.4,0,0.5,0.1c0.2,0,0.3,0.1,0.4,0.2l-0.1,0.9c0,0.1-0.1,0.2-0.2,0.2c-0.1,0-0.2,0-0.3-0.1
		c-0.2-0.1-0.4-0.1-0.6-0.1c-0.4,0-0.8,0.1-1.1,0.4c-0.3,0.3-0.6,0.7-0.7,1.1v4.4L137.4,114.3z"/>
	<path class="st1" d="M145.7,107.2c0.4,0,0.8,0.1,1.2,0.2c0.3,0.1,0.7,0.3,0.9,0.6c0.3,0.3,0.5,0.6,0.6,1c0.1,0.4,0.2,0.9,0.2,1.3
		c0,0.1,0,0.3-0.1,0.4c-0.1,0.1-0.1,0.1-0.2,0.1h-4.6c0,0.4,0.1,0.8,0.2,1.2c0.1,0.3,0.2,0.6,0.5,0.8c0.2,0.2,0.4,0.4,0.7,0.5
		c0.3,0.1,0.6,0.2,0.9,0.2c0.3,0,0.5,0,0.8-0.1c0.2-0.1,0.4-0.1,0.6-0.2l0.4-0.2c0.1-0.1,0.2-0.1,0.3-0.1c0.1,0,0.2,0,0.2,0.1
		l0.3,0.4c-0.2,0.2-0.3,0.3-0.5,0.5c-0.2,0.1-0.4,0.3-0.7,0.3c-0.2,0.1-0.5,0.2-0.8,0.2c-0.3,0-0.5,0.1-0.8,0.1
		c-0.5,0-0.9-0.1-1.3-0.3c-0.4-0.2-0.8-0.4-1.1-0.7c-0.3-0.3-0.5-0.7-0.7-1.2c-0.2-0.5-0.3-1.1-0.3-1.6c0-0.5,0.1-0.9,0.2-1.4
		c0.1-0.4,0.4-0.8,0.6-1.1c0.3-0.3,0.6-0.6,1-0.7C144.7,107.3,145.2,107.2,145.7,107.2z M145.7,108.1c-0.5,0-1,0.2-1.4,0.5
		c-0.4,0.4-0.6,0.9-0.6,1.4h3.8c0-0.3,0-0.5-0.1-0.8c-0.1-0.2-0.2-0.4-0.3-0.6c-0.2-0.2-0.3-0.3-0.6-0.4
		C146.2,108.1,146,108.1,145.7,108.1L145.7,108.1z"/>
	<path class="st1" d="M155.3,114.3h-0.6c-0.1,0-0.2,0-0.3-0.1c-0.1,0-0.1-0.1-0.1-0.2l-0.1-0.7c-0.2,0.2-0.4,0.3-0.5,0.4
		c-0.2,0.1-0.4,0.2-0.6,0.3c-0.2,0.1-0.4,0.2-0.6,0.2c-0.2,0-0.5,0.1-0.7,0.1c-0.3,0-0.5,0-0.8-0.1c-0.2-0.1-0.4-0.2-0.6-0.3
		c-0.2-0.2-0.3-0.3-0.4-0.6c-0.1-0.3-0.2-0.5-0.1-0.8c0-0.3,0.1-0.6,0.2-0.8c0.2-0.3,0.4-0.5,0.7-0.7c0.4-0.2,0.9-0.4,1.3-0.5
		c0.7-0.1,1.3-0.2,2-0.2v-0.6c0-0.4-0.1-0.9-0.4-1.2c-0.3-0.3-0.6-0.4-1-0.4c-0.3,0-0.5,0-0.8,0.1c-0.2,0.1-0.4,0.2-0.5,0.3
		l-0.4,0.3c-0.1,0.1-0.2,0.1-0.3,0.1c-0.1,0-0.2,0-0.2-0.1c-0.1,0-0.1-0.1-0.1-0.2l-0.2-0.4c0.4-0.3,0.8-0.6,1.3-0.8
		c0.5-0.2,1-0.3,1.5-0.3c0.3,0,0.7,0.1,1,0.2c0.3,0.1,0.6,0.3,0.8,0.5c0.2,0.2,0.4,0.5,0.5,0.8c0.1,0.3,0.2,0.7,0.2,1.1L155.3,114.3
		z M152.1,113.5c0.2,0,0.4,0,0.6-0.1c0.2,0,0.3-0.1,0.5-0.2c0.2-0.1,0.3-0.2,0.5-0.3c0.1-0.1,0.3-0.2,0.4-0.4v-1.4
		c-0.5,0-1,0-1.4,0.1c-0.3,0-0.7,0.1-1,0.3c-0.2,0.1-0.4,0.2-0.5,0.4c-0.1,0.2-0.2,0.3-0.2,0.5c0,0.2,0,0.3,0.1,0.5
		c0,0.1,0.1,0.2,0.2,0.3c0.1,0.1,0.2,0.2,0.4,0.2C151.8,113.5,151.9,113.5,152.1,113.5z"/>
	<path class="st1" d="M157.1,114.3v-7h0.7c0.2,0,0.3,0.1,0.3,0.3l0.1,0.8c0.3-0.3,0.6-0.6,1-0.8c0.4-0.2,0.8-0.3,1.3-0.3
		c0.3,0,0.7,0.1,1,0.2c0.3,0.1,0.5,0.3,0.7,0.5c0.2,0.3,0.4,0.5,0.4,0.8c0.1,0.4,0.2,0.7,0.1,1.1v4.4h-1.2v-4.4
		c0-0.4-0.1-0.9-0.4-1.2c-0.3-0.3-0.7-0.5-1.1-0.4c-0.4,0-0.7,0.1-1,0.3c-0.3,0.2-0.6,0.4-0.9,0.7v5.1L157.1,114.3z"/>
	<path class="st1" d="M172.7,106c0,0.1-0.1,0.1-0.1,0.2c-0.1,0-0.1,0-0.2,0c-0.1,0-0.2,0-0.3-0.1c-0.1-0.1-0.3-0.2-0.4-0.3
		c-0.2-0.1-0.4-0.2-0.6-0.3c-0.5-0.2-1.1-0.2-1.6,0c-0.2,0.1-0.4,0.2-0.6,0.3c-0.2,0.1-0.3,0.3-0.4,0.5c-0.1,0.2-0.1,0.4-0.1,0.6
		c0,0.2,0.1,0.5,0.2,0.7c0.1,0.2,0.3,0.4,0.5,0.5c0.2,0.1,0.5,0.2,0.8,0.3l0.9,0.3c0.3,0.1,0.6,0.2,0.9,0.3c0.3,0.1,0.5,0.3,0.8,0.5
		c0.2,0.2,0.4,0.4,0.5,0.7c0.1,0.3,0.2,0.7,0.2,1c0,0.4-0.1,0.8-0.2,1.2c-0.1,0.4-0.4,0.7-0.6,1c-0.3,0.3-0.6,0.5-1,0.7
		c-0.4,0.2-0.9,0.3-1.4,0.2c-0.6,0-1.2-0.1-1.8-0.3c-0.5-0.2-1-0.5-1.3-0.9l0.4-0.6c0-0.1,0.1-0.1,0.1-0.1c0.1,0,0.1,0,0.2,0
		c0.1,0,0.2,0.1,0.3,0.2c0.2,0.1,0.3,0.2,0.5,0.3c0.2,0.1,0.4,0.3,0.7,0.3c0.3,0.1,0.7,0.2,1,0.2c0.3,0,0.6,0,0.9-0.1
		c0.5-0.2,0.8-0.5,1-0.9c0.1-0.2,0.1-0.5,0.1-0.7c0-0.3-0.1-0.5-0.2-0.7c-0.1-0.2-0.3-0.4-0.5-0.5c-0.2-0.1-0.5-0.2-0.8-0.3
		l-0.9-0.3c-0.3-0.1-0.6-0.2-0.9-0.3c-0.3-0.1-0.5-0.3-0.8-0.5c-0.2-0.2-0.4-0.5-0.5-0.7c-0.4-1-0.2-2.2,0.6-3
		c0.3-0.3,0.6-0.5,1-0.6c0.4-0.2,0.9-0.2,1.3-0.2c0.5,0,1,0.1,1.5,0.3c0.4,0.2,0.8,0.4,1.2,0.8L172.7,106z"/>
	<path class="st1" d="M177.6,107.2c0.5,0,0.9,0.1,1.4,0.3c0.4,0.2,0.7,0.4,1,0.7c0.3,0.3,0.5,0.7,0.7,1.1c0.3,1,0.3,2,0,3
		c-0.1,0.4-0.4,0.8-0.7,1.1c-0.3,0.3-0.6,0.6-1,0.7c-0.4,0.2-0.9,0.3-1.4,0.3c-0.5,0-0.9-0.1-1.4-0.3c-0.4-0.2-0.8-0.4-1.1-0.7
		c-0.3-0.3-0.5-0.7-0.7-1.1c-0.3-1-0.3-2,0-3c0.1-0.4,0.4-0.8,0.7-1.1c0.3-0.3,0.6-0.6,1.1-0.7C176.7,107.3,177.1,107.2,177.6,107.2
		z M177.6,113.4c0.6,0,1.2-0.2,1.6-0.7c0.4-0.6,0.5-1.2,0.5-1.9c0-0.7-0.1-1.4-0.5-1.9c-0.4-0.5-0.9-0.7-1.6-0.7
		c-0.3,0-0.6,0.1-0.9,0.2c-0.3,0.1-0.5,0.3-0.6,0.5c-0.2,0.2-0.3,0.5-0.4,0.8c-0.1,0.4-0.1,0.7-0.1,1.1c0,0.4,0,0.7,0.1,1.1
		c0.1,0.3,0.2,0.6,0.4,0.8c0.2,0.2,0.4,0.4,0.6,0.5C177,113.4,177.3,113.4,177.6,113.4z"/>
	<path class="st1" d="M187.2,108.5l-0.1,0.1c0,0-0.1,0-0.1,0c-0.1,0-0.2,0-0.2-0.1l-0.3-0.2c-0.1-0.1-0.3-0.1-0.5-0.2
		c-0.2-0.1-0.4-0.1-0.6-0.1c-0.3,0-0.6,0.1-0.9,0.2c-0.3,0.1-0.5,0.3-0.7,0.5c-0.2,0.3-0.3,0.5-0.4,0.8c-0.1,0.4-0.1,0.7-0.1,1.1
		c0,0.4,0,0.8,0.1,1.1c0.1,0.3,0.2,0.6,0.4,0.8c0.2,0.2,0.4,0.4,0.6,0.5c0.3,0.1,0.6,0.2,0.8,0.2c0.3,0,0.5,0,0.7-0.1
		c0.2-0.1,0.3-0.1,0.5-0.2l0.3-0.2c0.1-0.1,0.2-0.1,0.3-0.1c0.1,0,0.2,0,0.2,0.1l0.3,0.4c-0.3,0.4-0.7,0.7-1.1,0.8
		c-0.5,0.2-0.9,0.3-1.4,0.3c-0.4,0-0.8-0.1-1.2-0.3c-0.4-0.2-0.7-0.4-1-0.7c-0.3-0.3-0.5-0.7-0.7-1.1c-0.3-1-0.3-2,0-3
		c0.1-0.4,0.4-0.8,0.6-1.1c0.3-0.3,0.6-0.6,1-0.7c0.4-0.2,0.9-0.3,1.4-0.3c0.4,0,0.9,0.1,1.3,0.2c0.4,0.2,0.7,0.4,1,0.7L187.2,108.5
		z"/>
	<path class="st1" d="M195.2,107.2c0.4,0,0.8,0.1,1.2,0.2c0.3,0.1,0.7,0.3,0.9,0.6c0.3,0.3,0.5,0.6,0.6,1c0.2,0.4,0.2,0.9,0.2,1.3
		c0,0.1,0,0.3-0.1,0.4c-0.1,0.1-0.1,0.1-0.2,0.1h-4.6c0,0.4,0.1,0.8,0.2,1.2c0.1,0.3,0.3,0.6,0.4,0.8c0.2,0.2,0.4,0.4,0.7,0.5
		c0.5,0.2,1.1,0.2,1.7,0c0.2-0.1,0.4-0.1,0.6-0.2c0.1-0.1,0.3-0.2,0.4-0.2c0.1-0.1,0.2-0.1,0.3-0.1c0.1,0,0.2,0,0.2,0.1l0.4,0.4
		c-0.2,0.2-0.3,0.4-0.5,0.5c-0.2,0.1-0.4,0.3-0.7,0.3c-0.2,0.1-0.5,0.2-0.8,0.2c-0.3,0-0.5,0.1-0.8,0.1c-0.5,0-0.9-0.1-1.3-0.3
		c-0.4-0.2-0.8-0.4-1.1-0.7c-0.3-0.3-0.5-0.7-0.7-1.2c-0.2-0.5-0.3-1.1-0.3-1.6c0-0.5,0.1-0.9,0.2-1.4c0.1-0.4,0.4-0.8,0.6-1.1
		c0.3-0.3,0.6-0.6,1-0.7C194.3,107.2,194.7,107.2,195.2,107.2z M195.2,108.1c-0.5,0-1,0.2-1.4,0.5c-0.4,0.4-0.6,0.9-0.6,1.4h3.8
		c0-0.3,0-0.5-0.1-0.8c-0.1-0.2-0.2-0.4-0.4-0.6c-0.2-0.2-0.3-0.3-0.6-0.4C195.8,108.1,195.5,108.1,195.2,108.1L195.2,108.1z"/>
	<path class="st1" d="M191,105.1c0,0.1,0,0.2-0.1,0.3c0,0.1-0.1,0.2-0.2,0.3c-0.1,0.1-0.2,0.2-0.3,0.2c-0.1,0-0.2,0.1-0.3,0.1
		c-0.1,0-0.2,0-0.3-0.1c-0.1,0-0.2-0.1-0.3-0.2c-0.1-0.1-0.1-0.2-0.2-0.3c0-0.1-0.1-0.2-0.1-0.3c0-0.1,0-0.2,0.1-0.3
		c0.1-0.1,0.1-0.2,0.2-0.3c0.1-0.1,0.2-0.1,0.3-0.2c0.1,0,0.2-0.1,0.3-0.1c0.1,0,0.2,0,0.3,0.1c0.1,0,0.2,0.1,0.3,0.2
		c0.1,0.1,0.1,0.2,0.2,0.3C191,104.9,191,105,191,105.1z M190.7,107.3v7h-1.2v-7H190.7z"/>
	<path class="st1" d="M201.8,114.4c-0.5,0-0.9-0.1-1.3-0.5c-0.3-0.4-0.5-0.8-0.4-1.3v-4.3h-0.8c-0.1,0-0.2-0.1-0.3-0.2c0,0,0,0,0,0
		v-0.5l1.1-0.2l0.3-2.2c0-0.1,0-0.1,0.1-0.2c0.1,0,0.1-0.1,0.2-0.1h0.6v2.4h2v0.9h-2v4.2c0,0.2,0.1,0.5,0.2,0.7
		c0.1,0.1,0.3,0.2,0.6,0.2c0.1,0,0.2,0,0.3,0l0.2-0.1l0.2-0.1c0,0,0.1,0,0.1,0c0.1,0,0.1,0.1,0.2,0.1l0.4,0.6
		c-0.2,0.2-0.5,0.4-0.8,0.5C202.4,114.4,202.1,114.4,201.8,114.4z"/>
	<path class="st1" d="M206.8,116.3c0,0.1-0.1,0.2-0.1,0.2c-0.1,0.1-0.2,0.1-0.3,0.1h-0.9l1.3-2.8l-2.9-6.6h1.1c0.1,0,0.2,0,0.2,0.1
		c0.1,0,0.1,0.1,0.1,0.2l1.9,4.4c0,0.1,0.1,0.2,0.1,0.3s0.1,0.2,0.1,0.3c0-0.1,0-0.2,0.1-0.3c0-0.1,0.1-0.2,0.1-0.3l1.8-4.4
		c0-0.1,0.1-0.1,0.1-0.2c0.1,0,0.1-0.1,0.2-0.1h1L206.8,116.3z"/>
	<path class="st1" d="M214.8,114.3v-5.9l-0.8-0.1c-0.1,0-0.2,0-0.2-0.1c-0.1-0.1-0.1-0.1-0.1-0.2v-0.5h1.1v-0.7
		c0-0.4,0.1-0.7,0.2-1.1c0.1-0.3,0.3-0.6,0.5-0.8c0.2-0.2,0.5-0.4,0.8-0.5c0.3-0.1,0.7-0.2,1-0.2c0.3,0,0.6,0,0.9,0.1v0.6
		c0,0.1,0,0.2-0.1,0.2c-0.1,0-0.2,0-0.3,0h-0.2c-0.2,0-0.4,0-0.6,0.1c-0.2,0.1-0.3,0.1-0.4,0.3c-0.1,0.1-0.2,0.3-0.3,0.5
		c-0.1,0.2-0.1,0.5-0.1,0.8v0.6h2v0.9h-2v6H214.8z"/>
	<path class="st1" d="M222,107.2c0.5,0,0.9,0.1,1.4,0.3c0.4,0.2,0.7,0.4,1,0.7c0.3,0.3,0.5,0.7,0.7,1.1c0.3,1,0.3,2,0,3
		c-0.1,0.4-0.4,0.8-0.7,1.1c-0.3,0.3-0.6,0.6-1,0.7c-0.9,0.3-1.9,0.3-2.8,0c-0.4-0.2-0.8-0.4-1.1-0.7c-0.3-0.3-0.5-0.7-0.7-1.1
		c-0.3-1-0.3-2,0-3c0.1-0.4,0.4-0.8,0.7-1.1c0.3-0.3,0.6-0.6,1.1-0.7C221.1,107.3,221.5,107.2,222,107.2z M222,113.4
		c0.6,0,1.2-0.2,1.6-0.7c0.4-0.6,0.5-1.2,0.5-1.9c0-0.7-0.1-1.4-0.5-1.9c-0.4-0.5-0.9-0.7-1.6-0.7c-0.3,0-0.6,0.1-0.9,0.2
		c-0.3,0.1-0.5,0.3-0.6,0.5c-0.2,0.2-0.3,0.5-0.4,0.8c-0.1,0.4-0.1,0.7-0.1,1.1c0,0.4,0,0.7,0.1,1.1c0.1,0.3,0.2,0.6,0.4,0.8
		c0.2,0.2,0.4,0.4,0.6,0.5C221.4,113.4,221.7,113.4,222,113.4z"/>
	<path class="st1" d="M226.8,114.3v-7h0.7c0.1,0,0.2,0,0.3,0.1c0.1,0.1,0.1,0.2,0.1,0.3l0.1,1.1c0.2-0.4,0.5-0.8,0.9-1.1
		c0.4-0.3,0.8-0.4,1.2-0.4c0.2,0,0.4,0,0.5,0.1c0.2,0,0.3,0.1,0.4,0.2l-0.2,0.9c0,0.1-0.1,0.2-0.2,0.2c-0.1,0-0.2,0-0.3-0.1
		c-0.2-0.1-0.4-0.1-0.6-0.1c-0.4,0-0.8,0.1-1.1,0.4c-0.3,0.3-0.6,0.7-0.7,1.1v4.4L226.8,114.3z"/>
	<path class="st1" d="M237.1,114.4c-0.5,0-0.9-0.1-1.3-0.5c-0.3-0.4-0.5-0.8-0.4-1.3v-4.3h-0.8c-0.1,0-0.1,0-0.2-0.1
		c-0.1-0.1-0.1-0.1-0.1-0.2v-0.5l1.1-0.2l0.3-2.2c0-0.1,0-0.1,0.1-0.2c0.1,0,0.1-0.1,0.2-0.1h0.6v2.4h2v0.9h-2v4.2
		c0,0.2,0.1,0.5,0.2,0.7c0.1,0.1,0.3,0.2,0.6,0.2c0.1,0,0.2,0,0.3,0l0.2-0.1l0.2-0.1c0,0,0.1,0,0.1,0c0.1,0,0.1,0,0.2,0.1l0.4,0.6
		c-0.2,0.2-0.5,0.4-0.8,0.5C237.8,114.4,237.4,114.4,237.1,114.4z"/>
	<path class="st1" d="M240.2,114.3v-10.2h1.2v4.1c0.3-0.3,0.6-0.6,1-0.8c0.4-0.2,0.8-0.3,1.3-0.3c0.3,0,0.7,0.1,1,0.2
		c0.3,0.1,0.5,0.3,0.7,0.5c0.2,0.2,0.4,0.5,0.4,0.8c0.1,0.4,0.2,0.7,0.1,1.1v4.4h-1.2v-4.4c0-0.4-0.1-0.9-0.4-1.2
		c-0.3-0.3-0.7-0.5-1.1-0.4c-0.4,0-0.7,0.1-1,0.3c-0.3,0.2-0.6,0.4-0.9,0.7v5.1L240.2,114.3z"/>
	<path class="st1" d="M250.6,107.2c0.4,0,0.8,0.1,1.2,0.2c0.3,0.1,0.7,0.3,0.9,0.6c0.3,0.3,0.5,0.6,0.6,1c0.1,0.4,0.2,0.9,0.2,1.3
		c0,0.1,0,0.3-0.1,0.4c-0.1,0.1-0.1,0.1-0.2,0.1h-4.6c0,0.4,0.1,0.8,0.2,1.2c0.1,0.3,0.2,0.6,0.5,0.8c0.2,0.2,0.4,0.4,0.7,0.5
		c0.3,0.1,0.6,0.2,0.9,0.2c0.3,0,0.5,0,0.8-0.1c0.2-0.1,0.4-0.1,0.6-0.2l0.4-0.2c0.1-0.1,0.2-0.1,0.3-0.1c0.1,0,0.2,0,0.2,0.1
		l0.4,0.4c-0.3,0.4-0.8,0.6-1.2,0.8c-0.2,0.1-0.5,0.2-0.8,0.2c-0.3,0-0.5,0.1-0.8,0.1c-0.5,0-0.9-0.1-1.3-0.3
		c-0.4-0.2-0.8-0.4-1.1-0.7c-0.3-0.3-0.5-0.7-0.7-1.2c-0.2-0.5-0.3-1.1-0.3-1.6c0-0.5,0.1-0.9,0.2-1.4c0.1-0.4,0.4-0.8,0.6-1.1
		c0.3-0.3,0.6-0.6,1-0.7C249.6,107.3,250.1,107.2,250.6,107.2z M250.6,108.1c-0.5,0-1,0.2-1.4,0.5c-0.4,0.4-0.6,0.9-0.6,1.4h3.8
		c0-0.3,0-0.5-0.1-0.8c-0.1-0.2-0.2-0.4-0.3-0.6c-0.2-0.2-0.3-0.3-0.6-0.4C251.1,108.1,250.9,108.1,250.6,108.1L250.6,108.1z"/>
	<path class="st1" d="M263,106c0,0.1-0.1,0.1-0.1,0.2c-0.1,0-0.1,0-0.2,0c-0.1,0-0.2,0-0.3-0.1c-0.1-0.1-0.3-0.2-0.4-0.3
		c-0.2-0.1-0.4-0.2-0.6-0.3c-0.3-0.1-0.5-0.1-0.8-0.1c-0.3,0-0.5,0-0.8,0.1c-0.2,0.1-0.4,0.2-0.6,0.3c-0.2,0.1-0.3,0.3-0.4,0.5
		c-0.1,0.2-0.1,0.4-0.1,0.6c0,0.2,0.1,0.5,0.2,0.7c0.1,0.2,0.3,0.3,0.5,0.5c0.2,0.1,0.5,0.2,0.8,0.3l0.9,0.3
		c0.3,0.1,0.6,0.2,0.9,0.3c0.3,0.1,0.5,0.3,0.8,0.5c0.2,0.2,0.4,0.4,0.5,0.7c0.1,0.3,0.2,0.7,0.2,1c0,0.4-0.1,0.8-0.2,1.2
		c-0.1,0.4-0.4,0.7-0.6,1c-0.3,0.3-0.6,0.5-1,0.7c-0.4,0.2-0.9,0.3-1.4,0.2c-0.6,0-1.2-0.1-1.8-0.3c-0.5-0.2-1-0.5-1.4-0.9l0.4-0.6
		c0,0,0.1-0.1,0.1-0.1c0.1,0,0.1,0,0.2,0c0.1,0,0.2,0.1,0.3,0.2c0.1,0.1,0.3,0.2,0.5,0.3c0.2,0.1,0.4,0.3,0.7,0.3
		c0.3,0.1,0.7,0.2,1,0.2c0.3,0,0.6,0,0.9-0.1c0.2-0.1,0.4-0.2,0.6-0.4c0.2-0.2,0.3-0.4,0.4-0.6c0.1-0.2,0.1-0.5,0.1-0.7
		c0-0.3-0.1-0.5-0.2-0.7c-0.1-0.2-0.3-0.4-0.5-0.5c-0.2-0.1-0.5-0.2-0.8-0.3l-0.9-0.3c-0.3-0.1-0.6-0.2-0.9-0.3
		c-0.3-0.1-0.5-0.3-0.8-0.5c-0.2-0.2-0.4-0.5-0.5-0.7c-0.3-0.7-0.3-1.4,0-2.1c0.1-0.3,0.3-0.6,0.6-0.9c0.3-0.3,0.6-0.5,1-0.6
		c0.4-0.2,0.9-0.2,1.3-0.2c0.5,0,1,0.1,1.5,0.3c0.4,0.2,0.9,0.4,1.2,0.8L263,106z"/>
	<path class="st1" d="M267.1,114.4c-0.5,0-0.9-0.1-1.3-0.5c-0.3-0.4-0.5-0.8-0.4-1.3v-4.3h-0.8c-0.1,0-0.1,0-0.2-0.1
		c-0.1-0.1-0.1-0.1-0.1-0.2v-0.5l1.1-0.2l0.3-2.2c0-0.1,0.1-0.2,0.3-0.3h0.6v2.4h2v0.9h-2v4.2c0,0.2,0.1,0.5,0.2,0.7
		c0.1,0.1,0.3,0.2,0.5,0.2c0.1,0,0.2,0,0.3,0c0.1,0,0.2-0.1,0.3-0.1l0.2-0.1c0,0,0.1,0,0.1,0c0.1,0,0.1,0.1,0.2,0.1l0.4,0.6
		c-0.2,0.2-0.5,0.4-0.8,0.5C267.7,114.4,267.4,114.4,267.1,114.4z"/>
	<path class="st1" d="M271.2,107.3v4.4c0,0.4,0.1,0.9,0.4,1.2c0.3,0.3,0.7,0.5,1.1,0.4c0.3,0,0.7-0.1,1-0.3c0.3-0.2,0.6-0.4,0.9-0.7
		v-5.2h1.2v7h-0.7c-0.2,0-0.3-0.1-0.3-0.3l-0.1-0.8c-0.3,0.3-0.6,0.6-1,0.8c-0.4,0.2-0.8,0.3-1.3,0.3c-0.3,0-0.7-0.1-1-0.2
		c-0.3-0.1-0.5-0.3-0.7-0.5c-0.2-0.2-0.4-0.5-0.4-0.8c-0.1-0.4-0.2-0.7-0.1-1.1v-4.5H271.2z"/>
	<path class="st1" d="M282.7,114.3c-0.2,0-0.3-0.1-0.3-0.3l-0.1-0.8c-0.3,0.4-0.6,0.6-1,0.9c-0.7,0.4-1.6,0.4-2.4,0.1
		c-0.3-0.2-0.6-0.4-0.8-0.7c-0.2-0.3-0.4-0.7-0.5-1.1c-0.1-0.5-0.2-1-0.2-1.5c0-0.5,0.1-1,0.2-1.4c0.1-0.4,0.3-0.8,0.6-1.2
		c0.3-0.3,0.6-0.6,0.9-0.8c0.4-0.2,0.8-0.3,1.3-0.3c0.4,0,0.8,0.1,1.1,0.2c0.3,0.2,0.6,0.4,0.8,0.6v-3.9h1.2v10.2H282.7z
		 M280.4,113.4c0.4,0,0.7-0.1,1-0.3c0.3-0.2,0.6-0.5,0.8-0.8V109c-0.2-0.3-0.4-0.5-0.7-0.6c-0.3-0.1-0.6-0.2-0.9-0.2
		c-0.6,0-1.2,0.2-1.5,0.7c-0.4,0.6-0.6,1.3-0.5,2c0,0.4,0,0.8,0.1,1.2c0.1,0.3,0.2,0.6,0.3,0.8c0.1,0.2,0.3,0.4,0.6,0.5
		C279.8,113.4,280.1,113.4,280.4,113.4z"/>
	<path class="st1" d="M287.6,116.3c0,0.1-0.1,0.2-0.2,0.2c-0.1,0.1-0.2,0.1-0.3,0.1h-0.9l1.3-2.8l-2.9-6.6h1.1c0.1,0,0.2,0,0.3,0.1
		c0.1,0,0.1,0.1,0.1,0.2l1.9,4.4c0,0.1,0.1,0.2,0.1,0.3c0,0.1,0.1,0.2,0.1,0.3l0.1-0.3c0-0.1,0.1-0.2,0.1-0.3l1.8-4.4
		c0-0.1,0.1-0.1,0.1-0.2c0.1,0,0.1-0.1,0.2-0.1h1L287.6,116.3z"/>
	<path class="st1" d="M298.1,107.2c0.5,0,0.9,0.1,1.4,0.3c0.4,0.2,0.8,0.4,1,0.7c0.3,0.3,0.5,0.7,0.7,1.1c0.3,1,0.3,2,0,3
		c-0.1,0.4-0.4,0.8-0.7,1.1c-0.3,0.3-0.6,0.6-1,0.7c-0.9,0.3-1.9,0.3-2.8,0c-0.4-0.2-0.8-0.4-1-0.7c-0.3-0.3-0.5-0.7-0.7-1.1
		c-0.3-1-0.3-2,0-3c0.1-0.4,0.4-0.8,0.7-1.1c0.3-0.3,0.6-0.6,1-0.7C297.1,107.3,297.6,107.2,298.1,107.2z M298.1,113.4
		c0.6,0,1.2-0.2,1.5-0.7c0.4-0.6,0.5-1.2,0.5-1.9c0-0.7-0.1-1.4-0.5-1.9c-0.4-0.5-0.9-0.7-1.5-0.7c-0.3,0-0.6,0.1-0.9,0.2
		c-0.3,0.1-0.5,0.3-0.6,0.5c-0.2,0.2-0.3,0.5-0.4,0.8c-0.2,0.7-0.2,1.5,0,2.2c0.1,0.3,0.2,0.6,0.4,0.8c0.2,0.2,0.4,0.4,0.6,0.5
		C297.4,113.4,297.8,113.4,298.1,113.4z"/>
	<path class="st1" d="M303.2,114.3v-5.9l-0.8-0.1c-0.1,0-0.2,0-0.2-0.1c-0.1-0.1-0.1-0.1-0.1-0.2v-0.5h1.1v-0.7c0-0.4,0-0.7,0.2-1.1
		c0.1-0.3,0.3-0.6,0.5-0.8c0.2-0.2,0.5-0.4,0.8-0.5c0.3-0.1,0.7-0.2,1-0.2c0.3,0,0.6,0,0.9,0.1v0.6c0,0.1,0,0.1-0.1,0.2
		c-0.1,0-0.2,0-0.3,0h-0.2c-0.2,0-0.4,0-0.6,0.1c-0.2,0.1-0.3,0.1-0.4,0.3c-0.1,0.1-0.2,0.3-0.3,0.5c-0.1,0.2-0.1,0.5-0.1,0.8v0.6h2
		v0.9h-2v6H303.2z"/>
	<path class="st1" d="M319.6,109.3c0,0.7-0.1,1.4-0.4,2c-0.2,0.6-0.6,1.1-1,1.6c-0.4,0.4-1,0.8-1.5,1c-1.3,0.5-2.7,0.5-4,0
		c-0.6-0.2-1.1-0.6-1.5-1c-0.4-0.5-0.8-1-1-1.6c-0.5-1.3-0.5-2.8,0-4.1c0.2-0.6,0.6-1.1,1-1.6c0.4-0.4,1-0.8,1.5-1
		c1.3-0.5,2.7-0.5,4,0c0.6,0.2,1.1,0.6,1.5,1c0.4,0.5,0.8,1,1,1.6C319.5,107.9,319.6,108.6,319.6,109.3z M318.2,109.3
		c0-0.6-0.1-1.1-0.3-1.6c-0.1-0.5-0.4-0.9-0.7-1.2c-0.3-0.3-0.7-0.6-1.1-0.8c-0.9-0.4-2-0.4-2.9,0c-0.4,0.2-0.8,0.4-1.1,0.8
		c-0.3,0.4-0.6,0.8-0.7,1.2c-0.3,1.1-0.3,2.2,0,3.3c0.1,0.5,0.4,0.9,0.7,1.2c0.3,0.3,0.7,0.6,1.1,0.8c0.9,0.3,2,0.3,2.9,0
		c0.4-0.2,0.8-0.4,1.1-0.8c0.3-0.3,0.6-0.7,0.7-1.2C318.2,110.5,318.2,109.9,318.2,109.3z"/>
	<path class="st1" d="M321.3,114.3v-10.2h1.2v4.2c0.3-0.3,0.6-0.6,1-0.8c0.4-0.2,0.8-0.3,1.3-0.3c0.4,0,0.8,0.1,1.1,0.2
		c0.3,0.2,0.6,0.4,0.8,0.7c0.2,0.3,0.4,0.7,0.5,1.1c0.1,0.5,0.2,1,0.2,1.5c0,0.5-0.1,1-0.2,1.4c-0.1,0.4-0.3,0.8-0.6,1.2
		c-0.3,0.3-0.6,0.6-1,0.8c-0.4,0.2-0.8,0.3-1.3,0.3c-0.4,0-0.8-0.1-1.1-0.3c-0.3-0.2-0.6-0.4-0.8-0.7l-0.1,0.6
		c0,0.2-0.2,0.3-0.3,0.3H321.3z M324.4,108.2c-0.4,0-0.7,0.1-1.1,0.3c-0.3,0.2-0.6,0.5-0.8,0.8v3.4c0.2,0.3,0.4,0.5,0.7,0.6
		c0.3,0.1,0.6,0.2,0.9,0.2c0.6,0,1.1-0.2,1.5-0.7c0.4-0.6,0.6-1.3,0.5-2c0-0.4,0-0.8-0.1-1.2c-0.1-0.3-0.2-0.6-0.4-0.8
		c-0.1-0.2-0.3-0.4-0.5-0.5C324.9,108.2,324.6,108.2,324.4,108.2z"/>
	<path class="st1" d="M331.7,107.2c0.4,0,0.8,0.1,1.2,0.2c0.3,0.1,0.6,0.3,0.9,0.6c0.3,0.3,0.5,0.6,0.6,1c0.1,0.4,0.2,0.9,0.2,1.3
		c0,0.1,0,0.3-0.1,0.4c-0.1,0.1-0.1,0.1-0.2,0.1h-4.6c0,0.4,0.1,0.8,0.2,1.2c0.1,0.3,0.2,0.6,0.5,0.8c0.2,0.2,0.4,0.4,0.7,0.5
		c0.3,0.1,0.6,0.2,0.9,0.2c0.3,0,0.5,0,0.8-0.1c0.2-0.1,0.4-0.1,0.6-0.2c0.1-0.1,0.3-0.1,0.4-0.2c0.1-0.1,0.2-0.1,0.3-0.1
		c0.1,0,0.2,0,0.2,0.1l0.3,0.4c-0.2,0.2-0.3,0.3-0.5,0.5c-0.2,0.1-0.4,0.3-0.7,0.3c-0.2,0.1-0.5,0.2-0.8,0.2c-0.3,0-0.5,0.1-0.8,0.1
		c-0.5,0-0.9-0.1-1.3-0.3c-0.4-0.2-0.8-0.4-1-0.7c-0.3-0.3-0.5-0.7-0.7-1.2c-0.2-0.5-0.3-1.1-0.3-1.6c0-0.5,0.1-0.9,0.2-1.4
		c0.1-0.4,0.4-0.8,0.6-1.1c0.3-0.3,0.6-0.6,1-0.7C330.7,107.3,331.2,107.2,331.7,107.2z M331.7,108.1c-0.5,0-1,0.2-1.4,0.5
		c-0.4,0.4-0.6,0.9-0.6,1.4h3.8c0-0.3,0-0.5-0.1-0.8c-0.1-0.2-0.2-0.4-0.3-0.6c-0.2-0.2-0.3-0.3-0.6-0.4
		C332.2,108.1,332,108.1,331.7,108.1L331.7,108.1z"/>
	<path class="st1" d="M340.1,108.5c0,0.1-0.1,0.2-0.3,0.2c-0.1,0-0.2,0-0.2-0.1l-0.3-0.2c-0.1-0.1-0.3-0.1-0.5-0.2
		c-0.2-0.1-0.4-0.1-0.6-0.1c-0.2,0-0.4,0-0.5,0.1c-0.2,0.1-0.3,0.1-0.4,0.2c-0.1,0.1-0.2,0.2-0.3,0.3c-0.1,0.1-0.1,0.3-0.1,0.4
		c0,0.2,0,0.3,0.1,0.4c0.1,0.1,0.3,0.2,0.4,0.3c0.2,0.1,0.4,0.2,0.6,0.2l0.7,0.2c0.2,0.1,0.5,0.2,0.7,0.3c0.2,0.1,0.4,0.2,0.6,0.3
		c0.2,0.1,0.3,0.3,0.4,0.5c0.1,0.2,0.2,0.5,0.2,0.7c0,0.3-0.1,0.6-0.2,0.9c-0.1,0.3-0.3,0.5-0.5,0.7c-0.2,0.2-0.5,0.4-0.8,0.5
		c-0.8,0.2-1.7,0.2-2.5-0.1c-0.4-0.1-0.7-0.3-1-0.6l0.3-0.5c0-0.1,0.1-0.1,0.1-0.1c0.1,0,0.1,0,0.2,0c0.1,0,0.2,0,0.3,0.1l0.3,0.2
		c0.1,0.1,0.3,0.2,0.5,0.2c0.2,0.1,0.5,0.1,0.7,0.1c0.2,0,0.4,0,0.6-0.1c0.2-0.1,0.3-0.1,0.5-0.3c0.1-0.1,0.2-0.2,0.3-0.4
		c0.1-0.1,0.1-0.3,0.1-0.4c0-0.2,0-0.3-0.2-0.5c-0.1-0.1-0.3-0.3-0.4-0.3c-0.2-0.1-0.4-0.2-0.6-0.2l-0.7-0.2
		c-0.2-0.1-0.5-0.2-0.7-0.3c-0.2-0.1-0.4-0.2-0.6-0.4c-0.2-0.1-0.3-0.3-0.4-0.5c-0.1-0.2-0.2-0.5-0.2-0.8c0-0.3,0.1-0.5,0.2-0.8
		c0.1-0.2,0.3-0.5,0.5-0.6c0.2-0.2,0.5-0.4,0.8-0.4c0.3-0.1,0.7-0.2,1.1-0.2c0.4,0,0.8,0.1,1.2,0.2c0.4,0.1,0.7,0.3,1,0.6
		L340.1,108.5z"/>
	<path class="st1" d="M343.8,105.1c0,0.1,0,0.2-0.1,0.3c-0.1,0.1-0.1,0.2-0.2,0.3c-0.1,0.1-0.2,0.1-0.3,0.2c-0.2,0.1-0.5,0.1-0.7,0
		c-0.1,0-0.2-0.1-0.3-0.2c-0.1-0.1-0.1-0.2-0.2-0.3c0-0.1-0.1-0.2-0.1-0.3c0-0.1,0-0.2,0.1-0.3c0-0.1,0.1-0.2,0.2-0.3
		c0.1-0.1,0.2-0.1,0.3-0.2c0.2-0.1,0.5-0.1,0.7,0c0.1,0,0.2,0.1,0.3,0.2c0.1,0.1,0.1,0.2,0.2,0.3C343.7,104.9,343.8,105,343.8,105.1
		z M343.5,107.3v7h-1.2v-7H343.5z"/>
	<path class="st1" d="M347.8,114.4c-0.5,0-0.9-0.1-1.3-0.5c-0.3-0.4-0.5-0.8-0.4-1.3v-4.3h-0.8c-0.1,0-0.1,0-0.2-0.1
		c-0.1-0.1-0.1-0.1-0.1-0.2v-0.5l1.1-0.2l0.3-2.2c0-0.1,0-0.1,0.1-0.2c0.1,0,0.1-0.1,0.2-0.1h0.6v2.4h2v0.9h-2v4.2
		c0,0.2,0.1,0.5,0.2,0.7c0.1,0.1,0.3,0.2,0.5,0.2c0.1,0,0.2,0,0.3,0c0.1,0,0.2-0.1,0.3-0.1l0.2-0.1c0,0,0.1,0,0.1,0
		c0.1,0,0.1,0,0.2,0.1l0.4,0.6c-0.2,0.2-0.5,0.4-0.8,0.5C348.4,114.4,348.1,114.4,347.8,114.4z"/>
	<path class="st1" d="M352.9,116.3c0,0.1-0.1,0.2-0.2,0.2c-0.1,0.1-0.2,0.1-0.3,0.1h-0.9l1.3-2.8l-2.9-6.6h1.1c0.1,0,0.2,0,0.3,0.1
		c0.1,0,0.1,0.1,0.1,0.2l1.9,4.4c0,0.1,0.1,0.2,0.1,0.3s0,0.2,0.1,0.3l0.1-0.3c0-0.1,0.1-0.2,0.1-0.3l1.8-4.4c0-0.1,0.1-0.1,0.1-0.2
		c0.1,0,0.1-0.1,0.2-0.1h1L352.9,116.3z"/>
	<path class="st1" d="M190.5,79.7c0.1,0,0.2,0,0.3,0.1l0.7,0.8c-0.4,0.5-0.9,0.9-1.5,1.2c-1.3,0.5-2.8,0.5-4.1,0
		c-0.6-0.2-1.1-0.6-1.5-1c-0.4-0.5-0.8-1-1-1.6c-0.2-0.6-0.3-1.3-0.3-2c0-0.7,0.1-1.4,0.4-2.1c0.2-0.6,0.6-1.1,1-1.6
		c0.5-0.4,1-0.8,1.6-1c0.7-0.3,1.4-0.4,2.1-0.4c0.7,0,1.3,0.1,1.9,0.4c0.5,0.2,1,0.5,1.4,0.9l-0.6,0.9c0,0.1-0.1,0.1-0.1,0.1
		c-0.1,0.1-0.2,0.1-0.2,0.1c-0.1,0-0.2,0-0.3-0.1l-0.4-0.3c-0.2-0.1-0.4-0.2-0.6-0.3c-0.3-0.1-0.7-0.1-1-0.1c-0.4,0-0.9,0.1-1.3,0.3
		c-0.4,0.2-0.7,0.4-1,0.7c-0.3,0.3-0.5,0.7-0.7,1.1c-0.3,1-0.3,2,0,3c0.1,0.4,0.4,0.8,0.6,1.1c0.3,0.3,0.6,0.5,1,0.7
		c0.4,0.2,0.8,0.2,1.2,0.2h0.7c0.2,0,0.4-0.1,0.6-0.1c0.2-0.1,0.3-0.1,0.5-0.2c0.2-0.1,0.3-0.2,0.4-0.3l0.1-0.1
		C190.3,79.8,190.4,79.7,190.5,79.7z"/>
	<path class="st1" d="M192.8,82V71.8h1.7v3.9c0.3-0.3,0.6-0.5,0.9-0.6c0.7-0.3,1.5-0.3,2.2,0c0.3,0.1,0.5,0.3,0.8,0.6
		c0.2,0.2,0.4,0.5,0.5,0.8c0.1,0.3,0.2,0.7,0.2,1V82h-1.7v-4.5c0-0.4-0.1-0.7-0.3-1c-0.2-0.3-0.6-0.4-0.9-0.4
		c-0.3,0-0.6,0.1-0.8,0.2c-0.3,0.1-0.5,0.3-0.7,0.6V82H192.8z"/>
	<path class="st1" d="M206.2,82h-0.8c-0.1,0-0.3,0-0.4-0.1c-0.1-0.1-0.2-0.2-0.2-0.3l-0.1-0.5c-0.2,0.2-0.4,0.3-0.5,0.4
		c-0.2,0.1-0.3,0.2-0.5,0.3c-0.2,0.1-0.4,0.2-0.6,0.2c-0.2,0-0.5,0.1-0.7,0.1c-0.3,0-0.6,0-0.8-0.1c-0.2-0.1-0.5-0.2-0.6-0.4
		c-0.2-0.2-0.3-0.4-0.4-0.6c-0.1-0.3-0.2-0.5-0.2-0.8c0-0.3,0.1-0.5,0.2-0.8c0.2-0.3,0.4-0.5,0.7-0.7c0.4-0.2,0.8-0.4,1.3-0.5
		c0.7-0.1,1.3-0.2,2-0.2v-0.4c0-0.4-0.1-0.8-0.3-1.1c-0.2-0.2-0.5-0.4-0.9-0.3c-0.2,0-0.5,0-0.7,0.1c-0.2,0-0.3,0.1-0.5,0.2
		l-0.4,0.2c-0.1,0.1-0.2,0.1-0.4,0.1c-0.1,0-0.2,0-0.3-0.1c-0.1-0.1-0.1-0.1-0.2-0.2l-0.3-0.6c0.8-0.7,1.9-1.1,2.9-1.1
		c0.4,0,0.8,0.1,1.1,0.2c0.3,0.1,0.6,0.3,0.8,0.6c0.2,0.2,0.4,0.5,0.5,0.9c0.1,0.4,0.2,0.7,0.2,1.1L206.2,82z M202.9,80.9
		c0.2,0,0.3,0,0.5,0c0.1,0,0.3-0.1,0.4-0.1c0.1-0.1,0.3-0.1,0.4-0.2c0.1-0.1,0.2-0.2,0.4-0.3V79c-0.4,0-0.8,0-1.3,0.1
		c-0.3,0.1-0.5,0.1-0.8,0.2c-0.2,0.1-0.3,0.2-0.4,0.3c-0.1,0.1-0.1,0.3-0.1,0.4c0,0.2,0.1,0.5,0.3,0.6
		C202.4,80.9,202.7,81,202.9,80.9L202.9,80.9z"/>
	<path class="st1" d="M207.9,82v-7.1h1c0.2,0,0.4,0.1,0.4,0.3l0.1,0.6c0.1-0.1,0.3-0.3,0.4-0.4c0.2-0.1,0.3-0.2,0.5-0.3
		c0.2-0.1,0.4-0.2,0.6-0.2c0.2,0,0.4-0.1,0.7-0.1c0.3,0,0.7,0.1,1,0.2c0.3,0.1,0.5,0.3,0.8,0.6c0.2,0.2,0.4,0.5,0.4,0.8
		c0.1,0.4,0.2,0.7,0.2,1.1V82h-1.7v-4.5c0-0.4-0.1-0.7-0.3-1c-0.2-0.3-0.6-0.4-0.9-0.4c-0.3,0-0.6,0.1-0.8,0.2
		c-0.3,0.1-0.5,0.3-0.7,0.6V82H207.9z"/>
	<path class="st1" d="M218.2,74.8c0.3,0,0.6,0,0.9,0.1c0.3,0.1,0.5,0.2,0.7,0.3h2v0.6c0,0.1,0,0.2-0.1,0.3c-0.1,0.1-0.2,0.1-0.3,0.1
		l-0.6,0.1c0,0.1,0.1,0.3,0.1,0.4c0,0.1,0,0.3,0,0.4c0,0.6-0.3,1.3-0.8,1.7c-0.3,0.2-0.6,0.4-0.9,0.5c-0.4,0.1-0.7,0.2-1.1,0.2
		c-0.3,0-0.5,0-0.8-0.1c-0.2,0.1-0.3,0.3-0.3,0.5c0,0.1,0.1,0.3,0.2,0.3c0.2,0.1,0.3,0.1,0.5,0.1c0.2,0,0.5,0,0.7,0.1h0.8
		c0.3,0,0.6,0.1,0.8,0.1c0.3,0.1,0.5,0.1,0.7,0.3c0.2,0.1,0.4,0.3,0.5,0.5c0.1,0.3,0.2,0.5,0.2,0.8c0,0.3-0.1,0.6-0.2,0.9
		c-0.2,0.3-0.4,0.6-0.7,0.8c-0.3,0.3-0.7,0.4-1.1,0.6c-0.5,0.1-1,0.2-1.4,0.2c-0.5,0-0.9,0-1.4-0.2c-0.4-0.1-0.7-0.2-1-0.4
		c-0.2-0.2-0.4-0.4-0.6-0.6c-0.1-0.2-0.2-0.5-0.2-0.7c0-0.3,0.1-0.6,0.3-0.8c0.2-0.2,0.5-0.4,0.8-0.5c-0.2-0.1-0.3-0.2-0.4-0.4
		c-0.1-0.2-0.2-0.4-0.1-0.6c0-0.1,0-0.2,0.1-0.3c0-0.1,0.1-0.2,0.2-0.3c0.1-0.1,0.2-0.2,0.3-0.3c0.1-0.1,0.3-0.2,0.4-0.3
		c-0.3-0.2-0.6-0.4-0.8-0.8c-0.2-0.3-0.3-0.7-0.3-1.1c0-0.7,0.3-1.3,0.8-1.7c0.3-0.2,0.6-0.4,0.9-0.5
		C217.3,74.8,217.8,74.8,218.2,74.8z M220,82.3c0-0.1,0-0.3-0.1-0.3c-0.1-0.1-0.2-0.2-0.3-0.2c-0.2,0-0.3-0.1-0.5-0.1
		c-0.2,0-0.4,0-0.6,0h-0.7c-0.2,0-0.4,0-0.7-0.1c-0.2,0.1-0.3,0.2-0.5,0.4c-0.1,0.1-0.2,0.3-0.2,0.5c0,0.3,0.1,0.5,0.4,0.6
		c0.2,0.1,0.3,0.2,0.5,0.2c0.3,0,0.5,0.1,0.8,0.1c0.3,0,0.6,0,0.8-0.1c0.2,0,0.4-0.1,0.6-0.2c0.1-0.1,0.2-0.2,0.3-0.3
		C220,82.6,220,82.5,220,82.3z M218.1,78.3c0.2,0,0.4,0,0.6-0.1c0.1-0.1,0.3-0.1,0.4-0.2c0.1-0.1,0.2-0.2,0.2-0.4
		c0.1-0.1,0.1-0.3,0.1-0.5c0-0.3-0.1-0.6-0.3-0.8c-0.3-0.2-0.6-0.3-0.9-0.3c-0.3,0-0.7,0.1-0.9,0.3c-0.2,0.2-0.3,0.5-0.3,0.8
		c0,0.2,0,0.3,0.1,0.5c0,0.1,0.1,0.3,0.2,0.4c0.1,0.1,0.2,0.2,0.4,0.3C217.8,78.3,218,78.3,218.1,78.3L218.1,78.3z"/>
	<path class="st1" d="M227.9,82V72h3.4c0.6,0,1.1,0.1,1.7,0.2c0.4,0.1,0.8,0.3,1.1,0.5c0.3,0.2,0.5,0.5,0.6,0.8
		c0.1,0.4,0.2,0.7,0.2,1.1c0,0.2,0,0.5-0.1,0.7c-0.1,0.2-0.2,0.4-0.3,0.6c-0.2,0.2-0.3,0.4-0.6,0.5c-0.2,0.2-0.5,0.3-0.8,0.4
		c1.4,0.3,2.1,1.1,2.1,2.2c0,0.4-0.1,0.8-0.2,1.2c-0.2,0.4-0.4,0.7-0.7,0.9c-0.3,0.3-0.7,0.5-1.1,0.6c-0.5,0.2-1,0.2-1.6,0.2
		L227.9,82z M229.8,76.4h1.5c0.5,0,1-0.1,1.4-0.3c0.3-0.3,0.5-0.7,0.5-1.1c0-0.4-0.1-0.8-0.4-1.1c-0.4-0.3-0.9-0.4-1.4-0.3h-1.6
		V76.4z M229.8,77.6v2.9h1.9c0.3,0,0.6,0,0.9-0.1c0.2-0.1,0.4-0.2,0.6-0.3c0.1-0.1,0.2-0.3,0.3-0.5c0.1-0.2,0.1-0.4,0.1-0.6
		c0-0.2,0-0.4-0.1-0.6c-0.1-0.2-0.2-0.3-0.3-0.4c-0.2-0.1-0.4-0.2-0.6-0.3c-0.3-0.1-0.5-0.1-0.8-0.1L229.8,77.6z"/>
	<path class="st1" d="M239.7,74.8c0.4,0,0.8,0.1,1.2,0.2c0.4,0.1,0.7,0.3,1,0.6c0.3,0.3,0.5,0.6,0.6,1c0.2,0.4,0.2,0.9,0.2,1.3
		c0,0.1,0,0.2,0,0.3c0,0.1,0,0.1-0.1,0.2c0,0-0.1,0.1-0.1,0.1H238c0,0.6,0.2,1.2,0.6,1.6c0.4,0.3,0.8,0.5,1.4,0.5
		c0.2,0,0.5,0,0.7-0.1c0.2-0.1,0.4-0.1,0.5-0.2l0.4-0.2c0.1-0.1,0.2-0.1,0.3-0.1c0.1,0,0.1,0,0.2,0c0.1,0,0.1,0.1,0.1,0.1l0.5,0.6
		c-0.2,0.2-0.4,0.4-0.6,0.6c-0.2,0.1-0.5,0.3-0.7,0.4c-0.3,0.1-0.5,0.2-0.8,0.2h-0.8c-0.5,0-0.9-0.1-1.4-0.2
		c-0.4-0.2-0.8-0.4-1.1-0.7c-0.3-0.3-0.6-0.7-0.7-1.2c-0.2-0.5-0.3-1.1-0.3-1.6c0-0.5,0.1-0.9,0.2-1.4c0.3-0.8,0.9-1.5,1.7-1.8
		C238.7,74.8,239.2,74.8,239.7,74.8z M239.7,76c-0.4,0-0.8,0.1-1.2,0.4c-0.3,0.3-0.5,0.7-0.5,1.2h3.2c0-0.2,0-0.4-0.1-0.6
		c-0.1-0.4-0.4-0.7-0.8-0.9C240.2,76.1,240,76,239.7,76L239.7,76z"/>
	<path class="st1" d="M247.2,74.8c0.5,0,1,0.1,1.4,0.3c0.4,0.2,0.8,0.4,1.1,0.7c0.3,0.3,0.5,0.7,0.7,1.1c0.2,0.5,0.3,1,0.3,1.5
		c0,0.5-0.1,1-0.3,1.5c-0.2,0.4-0.4,0.8-0.7,1.2c-0.3,0.3-0.7,0.6-1.1,0.7c-0.9,0.3-1.9,0.3-2.9,0c-0.4-0.2-0.8-0.4-1.1-0.7
		c-0.3-0.3-0.6-0.7-0.7-1.2c-0.3-1-0.3-2,0-3c0.2-0.4,0.4-0.8,0.7-1.1c0.3-0.3,0.7-0.6,1.1-0.7C246.2,74.9,246.7,74.8,247.2,74.8z
		 M247.2,80.8c0.5,0,1-0.2,1.3-0.6c0.6-1.1,0.6-2.4,0-3.5c-0.6-0.7-1.7-0.8-2.4-0.2l-0.2,0.2c-0.6,1.1-0.6,2.4,0,3.5
		C246.2,80.6,246.7,80.8,247.2,80.8L247.2,80.8z"/>
	<path class="st1" d="M252,82v-7.1h1c0.2,0,0.4,0.1,0.4,0.3l0.1,0.5c0.1-0.1,0.3-0.3,0.4-0.4c0.1-0.1,0.3-0.2,0.4-0.3
		c0.2-0.1,0.3-0.2,0.5-0.2c0.2,0,0.4-0.1,0.6-0.1c0.4,0,0.8,0.1,1.1,0.4c0.3,0.3,0.5,0.6,0.6,1c0.2-0.4,0.6-0.8,1-1
		c0.2-0.1,0.4-0.2,0.6-0.2c0.2,0,0.4-0.1,0.7-0.1c0.3,0,0.7,0.1,1,0.2c0.3,0.1,0.6,0.3,0.8,0.5c0.2,0.2,0.4,0.5,0.5,0.8
		c0.1,0.4,0.2,0.8,0.2,1.1V82h-1.7v-4.5c0-0.4-0.1-0.7-0.3-1c-0.2-0.2-0.5-0.4-0.9-0.3c-0.3,0-0.6,0.1-0.9,0.3
		c-0.1,0.1-0.2,0.3-0.3,0.4c-0.1,0.2-0.1,0.4-0.1,0.6V82h-1.7v-4.5c0-0.4-0.1-0.7-0.3-1c-0.2-0.2-0.5-0.3-0.9-0.3
		c-0.2,0-0.5,0.1-0.7,0.2c-0.2,0.1-0.4,0.3-0.6,0.5V82H252z"/>
	<path class="st1" d="M268.2,80.5h4V82h-5.9V72h1.9L268.2,80.5z"/>
	<path class="st1" d="M276,74.8c0.4,0,0.8,0.1,1.2,0.2c0.4,0.1,0.7,0.3,1,0.6c0.3,0.3,0.5,0.6,0.6,1c0.2,0.4,0.2,0.9,0.2,1.3
		c0,0.1,0,0.2,0,0.3c0,0.1,0,0.1-0.1,0.2c0,0.1-0.1,0.1-0.1,0.1c-0.1,0-0.1,0-0.2,0h-4.4c0,0.6,0.2,1.2,0.6,1.6
		c0.4,0.3,0.8,0.5,1.4,0.5c0.2,0,0.5,0,0.7-0.1c0.2-0.1,0.4-0.1,0.5-0.2l0.4-0.2c0.1-0.1,0.2-0.1,0.3-0.1c0.1,0,0.1,0,0.2,0
		c0.1,0,0.1,0.1,0.1,0.1L279,81c-0.2,0.2-0.4,0.4-0.6,0.6c-0.2,0.1-0.5,0.3-0.7,0.4c-0.2,0.1-0.5,0.2-0.8,0.2c-0.3,0-0.5,0-0.8,0
		c-0.5,0-0.9-0.1-1.4-0.2c-0.4-0.2-0.8-0.4-1.1-0.7c-0.3-0.3-0.6-0.7-0.7-1.2c-0.2-0.5-0.3-1.1-0.3-1.6c0-0.5,0.1-0.9,0.2-1.4
		c0.2-0.4,0.4-0.8,0.7-1.1c0.3-0.3,0.7-0.6,1.1-0.8C275,74.9,275.5,74.8,276,74.8z M276,76c-0.4,0-0.9,0.1-1.2,0.4
		c-0.3,0.3-0.5,0.7-0.5,1.2h3.2c0-0.2,0-0.4-0.1-0.6c-0.1-0.2-0.1-0.4-0.3-0.5c-0.1-0.1-0.3-0.3-0.5-0.3C276.5,76,276.3,76,276,76
		L276,76z"/>
	<path class="st1" d="M283.4,74.8c0.4,0,0.8,0.1,1.2,0.2c0.4,0.1,0.7,0.3,1,0.6c0.3,0.3,0.5,0.6,0.6,1c0.1,0.4,0.2,0.9,0.2,1.3
		c0,0.1,0,0.2,0,0.3c0,0.1,0,0.1-0.1,0.2c0,0-0.1,0.1-0.1,0.1h-4.6c0,0.6,0.2,1.2,0.6,1.6c0.4,0.3,0.8,0.5,1.4,0.5
		c0.2,0,0.5,0,0.7-0.1c0.2-0.1,0.4-0.1,0.5-0.2l0.4-0.2c0.1-0.1,0.2-0.1,0.3-0.1c0.1,0,0.1,0,0.2,0c0.1,0,0.1,0.1,0.1,0.1l0.5,0.6
		c-0.2,0.2-0.4,0.4-0.6,0.6c-0.2,0.1-0.5,0.3-0.7,0.4c-0.3,0.1-0.5,0.2-0.8,0.2h-0.8c-0.5,0-0.9-0.1-1.4-0.2
		c-0.4-0.2-0.8-0.4-1.1-0.7c-0.3-0.3-0.6-0.7-0.7-1.2c-0.2-0.5-0.3-1.1-0.3-1.6c0-0.5,0.1-0.9,0.2-1.4c0.2-0.4,0.4-0.8,0.7-1.1
		c0.3-0.3,0.7-0.5,1-0.7C282.5,74.8,282.9,74.8,283.4,74.8z M283.4,76c-0.4,0-0.9,0.1-1.2,0.4c-0.3,0.3-0.5,0.7-0.5,1.2h3.2
		c0-0.2,0-0.4-0.1-0.6c-0.1-0.2-0.1-0.4-0.3-0.5c-0.1-0.1-0.3-0.3-0.5-0.3C283.9,76.1,283.7,76,283.4,76L283.4,76z"/>
	<path class="st1" d="M287.5,81c0-0.1,0-0.2,0.1-0.4c0.1-0.2,0.3-0.4,0.5-0.5c0.1,0,0.3-0.1,0.4-0.1c0.2,0,0.3,0,0.5,0.1
		c0.1,0.1,0.2,0.1,0.3,0.3c0.1,0.1,0.2,0.2,0.2,0.4c0,0.1,0.1,0.3,0.1,0.4c0,0.2,0,0.5-0.1,0.7c-0.1,0.3-0.2,0.5-0.3,0.7
		c-0.1,0.3-0.3,0.5-0.5,0.7c-0.2,0.2-0.4,0.4-0.7,0.6l-0.3-0.3c-0.1-0.1-0.1-0.2-0.1-0.3c0,0,0-0.1,0-0.1c0,0,0.1-0.1,0.1-0.1
		l0.2-0.2c0.1-0.1,0.2-0.2,0.2-0.3c0.1-0.1,0.1-0.2,0.2-0.3c0.1-0.1,0.1-0.3,0.1-0.4c-0.1,0-0.3,0-0.4-0.1c-0.1,0-0.2-0.1-0.3-0.2
		c-0.1-0.1-0.1-0.2-0.2-0.3C287.5,81.3,287.5,81.1,287.5,81z"/>
	<path class="st1" d="M298.9,78.3l0.2,0.5c0.1-0.2,0.1-0.3,0.2-0.5s0.1-0.3,0.2-0.5l3-5.5l0.1-0.2c0,0,0.1-0.1,0.1-0.1h1.8V82h-1.6
		v-7.3l-3,5.7c-0.1,0.1-0.2,0.2-0.3,0.3c-0.1,0.1-0.3,0.1-0.4,0.1H299c-0.3,0-0.5-0.1-0.6-0.4l-3.1-5.7V82h-1.6V72h1.6
		c0.1,0,0.1,0,0.2,0c0.1,0,0.1,0.1,0.1,0.1c0,0.1,0.1,0.1,0.1,0.2l3,5.5C298.8,78,298.9,78.1,298.9,78.3z"/>
	<path class="st1" d="M306,81.1c0-0.1,0-0.3,0.1-0.4c0.1-0.1,0.1-0.2,0.2-0.3c0.1-0.1,0.2-0.2,0.3-0.2c0.3-0.1,0.6-0.1,0.8,0
		c0.1,0.1,0.2,0.1,0.3,0.2c0.1,0.1,0.2,0.2,0.2,0.3c0.1,0.1,0.1,0.3,0.1,0.4c0,0.1,0,0.3-0.1,0.4c-0.1,0.3-0.3,0.4-0.5,0.6
		c-0.3,0.1-0.6,0.1-0.8,0c-0.1-0.1-0.2-0.1-0.3-0.2c-0.1-0.1-0.2-0.2-0.2-0.3C306,81.3,306,81.2,306,81.1z"/>
	<path class="st1" d="M318.5,77c0,0.7-0.1,1.4-0.4,2c-0.5,1.2-1.4,2.2-2.6,2.6c-0.7,0.3-1.4,0.4-2.1,0.4h-3.8V72h3.8
		c0.7,0,1.4,0.1,2.1,0.4c0.6,0.2,1.1,0.6,1.6,1c0.4,0.4,0.8,1,1,1.6C318.4,75.6,318.5,76.3,318.5,77z M316.6,77c0-0.5-0.1-1-0.2-1.5
		c-0.1-0.4-0.3-0.8-0.6-1.1c-0.3-0.3-0.6-0.5-1-0.7c-0.4-0.2-0.9-0.3-1.3-0.2h-1.9v7h1.9c0.5,0,0.9-0.1,1.3-0.2
		c0.4-0.2,0.7-0.4,1-0.7c0.3-0.3,0.5-0.7,0.6-1.1C316.5,78,316.6,77.5,316.6,77z"/>
	<path class="st1" d="M319.1,81.1c0-0.1,0-0.3,0.1-0.4c0.1-0.1,0.1-0.2,0.2-0.3c0.1-0.1,0.2-0.2,0.3-0.2c0.3-0.1,0.6-0.1,0.8,0
		c0.1,0.1,0.2,0.1,0.3,0.2c0.1,0.1,0.2,0.2,0.2,0.3c0.1,0.1,0.1,0.3,0.1,0.4c0,0.1,0,0.3-0.1,0.4c-0.1,0.1-0.1,0.2-0.2,0.3
		c-0.1,0.1-0.2,0.2-0.3,0.2c-0.3,0.1-0.6,0.1-0.8,0c-0.1-0.1-0.2-0.1-0.3-0.2c-0.1-0.1-0.2-0.2-0.2-0.3
		C319.1,81.3,319.1,81.2,319.1,81.1z"/>
	<path class="st1" d="M322.2,81c0-0.1,0-0.2,0.1-0.4c0.1-0.2,0.3-0.4,0.5-0.5c0.1,0,0.3-0.1,0.4-0.1c0.2,0,0.3,0,0.5,0.1
		c0.1,0.1,0.2,0.2,0.3,0.3c0.1,0.1,0.2,0.2,0.2,0.4c0,0.1,0.1,0.3,0.1,0.4c0,0.2,0,0.5-0.1,0.7c-0.1,0.3-0.2,0.5-0.3,0.7
		c-0.1,0.3-0.3,0.5-0.5,0.7c-0.2,0.2-0.4,0.4-0.6,0.6l-0.3-0.3c-0.1-0.1-0.1-0.2-0.1-0.3c0,0,0-0.1,0-0.1c0,0,0-0.1,0.1-0.1l0.2-0.2
		l0.2-0.3c0.1-0.1,0.1-0.2,0.2-0.3c0.1-0.1,0.1-0.3,0.1-0.4c-0.1,0-0.3,0-0.4-0.1c-0.1,0-0.2-0.1-0.3-0.2c-0.1-0.1-0.1-0.2-0.2-0.3
		C322.2,81.3,322.2,81.1,322.2,81z"/>
	<path class="st1" d="M330.4,78.5V82h-1.9V72h3.3c0.6,0,1.2,0.1,1.7,0.2c0.4,0.1,0.9,0.4,1.2,0.7c0.3,0.3,0.6,0.6,0.7,1
		c0.3,0.8,0.3,1.8,0,2.6c-0.2,0.4-0.4,0.7-0.7,1c-0.4,0.3-0.8,0.5-1.2,0.7c-0.5,0.2-1.1,0.3-1.7,0.2L330.4,78.5z M330.4,77h1.4
		c0.3,0,0.6,0,0.9-0.1c0.2-0.1,0.4-0.2,0.6-0.4c0.2-0.2,0.3-0.4,0.4-0.6c0.1-0.2,0.1-0.5,0.1-0.8c0-0.2,0-0.5-0.1-0.7
		c-0.1-0.2-0.2-0.4-0.4-0.6c-0.2-0.2-0.4-0.3-0.6-0.3c-0.3-0.1-0.6-0.1-0.9-0.1h-1.4V77z"/>
	<path class="st1" d="M337,82V71.8h1.7v3.9c0.3-0.3,0.6-0.5,0.9-0.6c0.7-0.3,1.5-0.3,2.2,0c0.3,0.1,0.5,0.3,0.8,0.6
		c0.2,0.2,0.4,0.5,0.5,0.8c0.1,0.4,0.2,0.7,0.2,1.1V82h-1.7v-4.5c0-0.4-0.1-0.7-0.3-1c-0.2-0.3-0.6-0.4-0.9-0.4
		c-0.3,0-0.6,0.1-0.8,0.2c-0.3,0.1-0.5,0.3-0.7,0.6V82H337z"/>
	<path class="st1" d="M344.4,81.1c0-0.1,0-0.3,0.1-0.4c0-0.1,0.1-0.2,0.2-0.3c0.1-0.1,0.2-0.2,0.3-0.2c0.1-0.1,0.3-0.1,0.4-0.1
		c0.1,0,0.3,0,0.4,0.1c0.1,0.1,0.2,0.1,0.3,0.2c0.1,0.1,0.2,0.2,0.2,0.3c0.1,0.1,0.1,0.3,0.1,0.4c0,0.1,0,0.3-0.1,0.4
		c-0.1,0.1-0.1,0.2-0.2,0.3c-0.1,0.1-0.2,0.2-0.3,0.2c-0.1,0.1-0.3,0.1-0.4,0.1c-0.2,0-0.3,0-0.4-0.1c-0.1-0.1-0.2-0.1-0.3-0.2
		c-0.1-0.1-0.2-0.2-0.2-0.3C344.4,81.3,344.4,81.2,344.4,81.1z"/>
	<path class="st1" d="M356.9,77c0,0.7-0.1,1.4-0.4,2c-0.2,0.6-0.6,1.1-1,1.6c-0.5,0.4-1,0.8-1.6,1c-0.7,0.3-1.4,0.4-2.1,0.4H348V72
		h3.8c0.7,0,1.4,0.1,2.1,0.4c1.2,0.5,2.2,1.4,2.6,2.6C356.7,75.6,356.9,76.3,356.9,77z M355,77c0-0.5-0.1-1-0.2-1.5
		c-0.1-0.4-0.3-0.8-0.6-1.1c-0.3-0.3-0.6-0.5-1-0.7c-0.4-0.2-0.9-0.2-1.3-0.2h-1.9v7h1.9c0.4,0,0.9-0.1,1.3-0.2
		c0.4-0.2,0.7-0.4,1-0.7c0.3-0.3,0.5-0.7,0.6-1.1C354.9,78,355,77.5,355,77z"/>
</g>
</svg>
